M48
;DRILL file {KiCad 4.0.2+e4-6225~38~ubuntu14.04.1-stable} date Sat 30 Jul 2016 10:21:01 AM PDT
;FORMAT={-:-/ absolute / inch / decimal}
FMAT,2
INCH,TZ
T1C0.093
T2C0.102
T3C0.108
%
G90
G05
M72
T1
X2.7559Y-4.2854
X2.7559Y-4.6457
X3.1496Y-4.2854
X3.1496Y-4.6457
X3.5433Y-4.2854
X3.5433Y-4.6457
X3.937Y-4.2854
X3.937Y-4.6457
X4.3307Y-4.2854
X4.3307Y-4.6457
X4.7244Y-4.2854
X4.7244Y-4.6457
X5.1181Y-4.2854
X5.1181Y-4.6457
X5.5118Y-4.2854
X5.5118Y-4.6457
X5.9055Y-4.2854
X5.9055Y-4.6457
X6.2992Y-4.2854
X6.2992Y-4.6457
X6.6929Y-4.2854
X6.6929Y-4.6457
X7.0866Y-4.2854
X7.0866Y-4.6457
X7.4803Y-4.2854
X7.4803Y-4.6457
X7.874Y-4.2854
X7.874Y-4.6457
X8.2677Y-4.2854
X8.2677Y-4.6457
X8.6614Y-4.2854
X8.6614Y-4.6457
T2
X9.3283Y-2.348
X9.3283Y-3.148
X9.6283Y-2.548
X9.6283Y-2.948
T3
X3.7819Y-1.6339
X3.8055Y-3.563
X6.089Y-1.6339
X6.089Y-3.563
T0
M30
