M48
;DRILL file {KiCad 4.0.2+e4-6225~38~ubuntu14.04.1-stable} date Sat 23 Jul 2016 05:04:08 BST
;FORMAT={-:-/ absolute / inch / decimal}
FMAT,2
INCH,TZ
T1C0.012
T2C0.030
T3C0.032
T4C0.033
T5C0.039
T6C0.039
T7C0.039
T8C0.040
T9C0.041
T10C0.051
T11C0.063
T12C0.074
T13C0.091
T14C0.142
%
G90
G05
M72
T1
X2.4724Y-4.0551
X2.5512Y-3.1811
X2.5591Y-5.2756
X2.5591Y-5.3543
X2.5591Y-5.4331
X2.5591Y-5.5118
X2.622Y-3.1811
X2.628Y-4.2067
X2.6378Y-3.7402
X2.6378Y-3.8189
X2.6378Y-3.8976
X2.6378Y-3.9764
X2.6378Y-4.0551
X2.6378Y-4.1339
X2.6378Y-5.2756
X2.6378Y-5.3543
X2.6378Y-5.4331
X2.6378Y-5.5118
X2.6555Y-4.185
X2.6772Y-3.7795
X2.6772Y-3.8583
X2.6772Y-3.937
X2.6772Y-4.0157
X2.6772Y-4.0945
X2.6772Y-4.1634
X2.685Y-3.1811
X2.6929Y-3.252
X2.7165Y-5.2756
X2.7165Y-5.3543
X2.7165Y-5.4331
X2.7165Y-5.5118
X2.7953Y-5.2756
X2.7953Y-5.3543
X2.7953Y-5.4331
X2.7953Y-5.5118
X2.874Y-5.2756
X2.874Y-5.3543
X2.874Y-5.4331
X2.874Y-5.5118
X2.878Y-3.6614
X2.878Y-4.2756
X2.8819Y-3.065
X2.9528Y-5.2756
X2.9528Y-5.3543
X2.9528Y-5.4331
X2.9528Y-5.5118
X2.9665Y-3.0866
X2.9902Y-3.0433
X3.0079Y-3.1811
X3.0079Y-3.252
X3.0118Y-3.0217
X3.0217Y-4.2067
X3.0315Y-3.7795
X3.0315Y-3.8583
X3.0315Y-3.937
X3.0315Y-4.0157
X3.0315Y-4.0945
X3.0315Y-5.2756
X3.0315Y-5.3543
X3.0315Y-5.4331
X3.0315Y-5.5118
X3.0492Y-4.185
X3.0709Y-4.1634
X3.1102Y-3.7795
X3.1102Y-3.8583
X3.1102Y-3.937
X3.1102Y-4.0157
X3.1102Y-4.0945
X3.1102Y-5.2756
X3.1102Y-5.3543
X3.1102Y-5.4331
X3.1102Y-5.5118
X3.1654Y-3.6614
X3.189Y-5.2756
X3.189Y-5.3543
X3.189Y-5.4331
X3.189Y-5.5118
X3.2244Y-4.2559
X3.2283Y-3.1083
X3.2539Y-3.1299
X3.2677Y-5.2756
X3.2677Y-5.3543
X3.2677Y-5.4331
X3.2677Y-5.5118
X3.2756Y-3.1516
X3.2992Y-3.1732
X3.3465Y-5.2756
X3.3465Y-5.3543
X3.3465Y-5.4331
X3.3465Y-5.5118
X3.4154Y-4.2067
X3.4252Y-3.7795
X3.4252Y-3.8583
X3.4252Y-3.937
X3.4252Y-4.0157
X3.4252Y-4.0945
X3.4252Y-5.2756
X3.4252Y-5.3543
X3.4252Y-5.4331
X3.4252Y-5.5118
X3.4429Y-4.185
X3.4646Y-4.1634
X3.5039Y-3.7795
X3.5039Y-3.8583
X3.5039Y-3.937
X3.5039Y-4.0157
X3.5039Y-4.0945
X3.5039Y-5.2756
X3.5039Y-5.3543
X3.5039Y-5.4331
X3.5039Y-5.5118
X3.5354Y-3.
X3.561Y-2.9783
X3.5866Y-2.9567
X3.6102Y-2.935
X3.6555Y-2.7224
X3.6555Y-3.1083
X3.6614Y-3.7795
X3.6614Y-3.8583
X3.6614Y-3.937
X3.6614Y-4.0157
X3.6614Y-4.0945
X3.6673Y-4.2638
X3.6791Y-2.7441
X3.6791Y-3.1299
X3.7067Y-2.7008
X3.7067Y-3.1516
X3.7343Y-2.6791
X3.7343Y-3.1732
X3.7894Y-2.6575
X3.8091Y-4.2067
X3.813Y-2.6358
X3.8366Y-4.185
X3.8425Y-2.6142
X3.8583Y-4.1634
X3.8642Y-4.2657
X3.8976Y-3.8583
X3.8976Y-3.937
X3.8976Y-4.0157
X3.8976Y-4.0945
X3.9764Y-3.7795
X3.9764Y-3.8583
X3.9764Y-3.937
X3.9764Y-4.0157
X3.9764Y-4.0945
X3.9764Y-5.2756
X3.9764Y-5.3543
X3.9764Y-5.4331
X3.9764Y-5.5118
X4.0177Y-2.8701
X4.0512Y-2.8484
X4.0551Y-5.2756
X4.0551Y-5.3543
X4.0551Y-5.4331
X4.0551Y-5.5118
X4.0669Y-2.9134
X4.0886Y-2.8917
X4.1339Y-5.2756
X4.1339Y-5.3543
X4.1339Y-5.4331
X4.1339Y-5.5118
X4.1713Y-2.9783
X4.2047Y-3.
X4.2087Y-4.2382
X4.2126Y-5.2756
X4.2126Y-5.3543
X4.2126Y-5.4331
X4.2126Y-5.5118
X4.2264Y-2.935
X4.25Y-4.2402
X4.2559Y-2.9567
X4.2913Y-5.2756
X4.2913Y-5.3543
X4.2913Y-5.4331
X4.2913Y-5.5118
X4.3307Y-3.7795
X4.3307Y-3.8583
X4.3307Y-3.937
X4.3307Y-4.0157
X4.3307Y-4.0945
X4.3701Y-5.2756
X4.3701Y-5.3543
X4.3701Y-5.4331
X4.3701Y-5.5118
X4.4016Y-4.2559
X4.4094Y-1.9843
X4.4094Y-3.7795
X4.4094Y-3.8583
X4.4094Y-3.937
X4.4094Y-4.0157
X4.4094Y-4.0945
X4.4449Y-4.2559
X4.4488Y-5.2756
X4.4488Y-5.3543
X4.4488Y-5.4331
X4.4488Y-5.5118
X4.4882Y-1.9843
X4.4882Y-3.7795
X4.4882Y-3.8583
X4.4882Y-3.937
X4.4882Y-4.0157
X4.4882Y-4.0945
X4.4961Y-2.1732
X4.502Y-4.1634
X4.5256Y-4.185
X4.5276Y-5.2756
X4.5276Y-5.3543
X4.5276Y-5.4331
X4.5276Y-5.5118
X4.5669Y-1.9843
X4.5669Y-2.1732
X4.5669Y-3.7795
X4.5669Y-3.8583
X4.5669Y-3.937
X4.5669Y-4.0157
X4.5669Y-4.0945
X4.5965Y-4.2067
X4.6063Y-5.2756
X4.6063Y-5.3543
X4.6063Y-5.4331
X4.6063Y-5.5118
X4.624Y-4.185
X4.6358Y-2.3327
X4.6378Y-1.9882
X4.6378Y-2.1732
X4.6457Y-3.7795
X4.6457Y-3.8583
X4.6457Y-3.937
X4.6457Y-4.0157
X4.6457Y-4.0945
X4.6457Y-4.1634
X4.6791Y-3.2382
X4.685Y-5.2756
X4.685Y-5.3543
X4.685Y-5.4331
X4.685Y-5.5118
X4.7008Y-3.2165
X4.7067Y-2.1752
X4.7224Y-3.1949
X4.7244Y-3.7795
X4.7244Y-3.8583
X4.7244Y-3.937
X4.7244Y-4.0157
X4.7244Y-4.0945
X4.7638Y-2.5335
X4.7638Y-5.2756
X4.7638Y-5.3543
X4.7638Y-5.4331
X4.7638Y-5.5118
X4.7736Y-1.9409
X4.7795Y-2.6772
X4.7874Y-2.6319
X4.7972Y-4.2638
X4.8031Y-3.7795
X4.8031Y-3.8583
X4.8031Y-3.937
X4.8031Y-4.0157
X4.8031Y-4.0945
X4.8091Y-3.1516
X4.811Y-2.6535
X4.8169Y-2.5886
X4.8228Y-2.5571
X4.8307Y-3.1732
X4.8386Y-2.6102
X4.8425Y-2.4469
X4.8425Y-5.2756
X4.8425Y-5.3543
X4.8425Y-5.4331
X4.8425Y-5.5118
X4.8465Y-3.1083
X4.8484Y-2.4154
X4.8681Y-3.1299
X4.8799Y-2.0354
X4.8996Y-2.2008
X4.9016Y-2.7205
X4.9035Y-2.4587
X4.9114Y-2.0827
X4.9213Y-5.2756
X4.9213Y-5.3543
X4.9213Y-5.4331
X4.9213Y-5.5118
X4.9252Y-2.6969
X4.9272Y-2.437
X4.9291Y-2.1476
X4.935Y-2.4803
X4.9449Y-1.878
X4.9469Y-2.7185
X4.9528Y-2.4154
X4.9685Y-2.7402
X4.9803Y-2.3937
X4.9902Y-2.7618
X4.9902Y-4.2067
X5.Y-3.7795
X5.Y-3.8583
X5.Y-3.937
X5.Y-4.0157
X5.Y-4.0945
X5.Y-5.2756
X5.Y-5.3543
X5.Y-5.4331
X5.Y-5.5118
X5.0039Y-2.2756
X5.0079Y-2.372
X5.0118Y-2.7835
X5.0177Y-4.185
X5.0295Y-2.2441
X5.0335Y-2.8051
X5.0394Y-2.3504
X5.0394Y-4.1634
X5.0472Y-2.128
X5.0551Y-2.8268
X5.0689Y-2.3287
X5.0787Y-5.2756
X5.0787Y-5.3543
X5.0787Y-5.4331
X5.0787Y-5.5118
X5.0945Y-2.3071
X5.1102Y-2.8484
X5.1102Y-2.935
X5.1319Y-2.8701
X5.1457Y-2.1713
X5.1476Y-1.7717
X5.1535Y-2.8917
X5.1575Y-3.7795
X5.1575Y-3.8583
X5.1575Y-3.937
X5.1575Y-4.0157
X5.1575Y-4.0945
X5.1575Y-5.2756
X5.1575Y-5.3543
X5.1575Y-5.4331
X5.1575Y-5.5118
X5.1693Y-2.1929
X5.1752Y-2.9134
X5.1909Y-2.7618
X5.1969Y-2.2146
X5.2126Y-2.7835
X5.2205Y-2.2362
X5.2362Y-3.7795
X5.2362Y-3.8583
X5.2362Y-3.937
X5.2362Y-4.0157
X5.2362Y-4.0945
X5.2362Y-5.2756
X5.2362Y-5.3543
X5.2362Y-5.4331
X5.2362Y-5.5118
X5.2402Y-4.2677
X5.2461Y-3.2815
X5.2677Y-1.5433
X5.2776Y-2.0748
X5.2795Y-3.2598
X5.2894Y-2.8169
X5.2894Y-2.9272
X5.2913Y-1.689
X5.3091Y-2.0512
X5.311Y-2.2618
X5.315Y-1.748
X5.315Y-5.2756
X5.315Y-5.3543
X5.315Y-5.4331
X5.315Y-5.5118
X5.3209Y-2.8071
X5.3209Y-2.9291
X5.3346Y-1.8228
X5.3366Y-2.0846
X5.3366Y-2.2835
X5.3504Y-3.1516
X5.3524Y-3.0217
X5.3701Y-2.9783
X5.372Y-2.815
X5.374Y-3.0433
X5.374Y-3.1299
X5.3839Y-4.2067
X5.3917Y-2.9567
X5.3937Y-3.7795
X5.3937Y-3.8583
X5.3937Y-3.937
X5.3937Y-4.0157
X5.3937Y-4.0945
X5.3937Y-5.2756
X5.3937Y-5.3543
X5.3937Y-5.4331
X5.3937Y-5.5118
X5.3957Y-3.065
X5.3957Y-3.1083
X5.4114Y-4.185
X5.4173Y-3.0866
X5.4213Y-2.998
X5.4291Y-4.2717
X5.4331Y-4.1634
X5.4587Y-2.124
X5.4724Y-5.2756
X5.4724Y-5.3543
X5.4724Y-5.4331
X5.4724Y-5.5118
X5.4862Y-3.6299
X5.5138Y-2.7835
X5.5354Y-2.7618
X5.5512Y-5.2756
X5.5512Y-5.3543
X5.5512Y-5.4331
X5.5512Y-5.5118
X5.5807Y-3.2815
X5.5925Y-2.4252
X5.6063Y-2.0866
X5.6181Y-3.2598
X5.626Y-4.185
X5.628Y-4.2795
X5.6299Y-5.2756
X5.6299Y-5.3543
X5.6299Y-5.4331
X5.6299Y-5.5118
X5.6535Y-4.2323
X5.6594Y-4.1634
X5.6969Y-2.0827
X5.7028Y-2.3287
X5.7087Y-5.2756
X5.7087Y-5.3543
X5.7087Y-5.4331
X5.7087Y-5.5118
X5.7559Y-2.7402
X5.7854Y-2.7185
X5.7874Y-5.2756
X5.7874Y-5.3543
X5.7874Y-5.4331
X5.7874Y-5.5118
X5.7972Y-2.3504
X5.813Y-2.6969
X5.8268Y-2.372
X5.8406Y-2.6752
X5.8563Y-2.3937
X5.8661Y-2.1122
X5.8661Y-5.2756
X5.8661Y-5.3543
X5.8661Y-5.4331
X5.8661Y-5.5118
X5.9035Y-2.4154
X5.9055Y-3.7795
X5.9055Y-3.8583
X5.9055Y-3.937
X5.9055Y-4.0157
X5.9055Y-4.0945
X5.9291Y-2.437
X5.9449Y-5.2756
X5.9449Y-5.3543
X5.9449Y-5.4331
X5.9449Y-5.5118
X5.9547Y-2.4587
X5.9823Y-2.4803
X5.9843Y-3.7795
X5.9843Y-3.8583
X5.9843Y-3.937
X5.9843Y-4.0157
X5.9843Y-4.0945
X5.9941Y-3.1732
X6.0236Y-5.2756
X6.0236Y-5.3543
X6.0236Y-5.4331
X6.0236Y-5.5118
X6.063Y-3.7795
X6.063Y-3.8583
X6.063Y-3.937
X6.063Y-4.0157
X6.063Y-4.0945
X6.1024Y-5.2756
X6.1024Y-5.3543
X6.1024Y-5.4331
X6.1024Y-5.5118
X6.1417Y-3.7795
X6.1417Y-3.8583
X6.1417Y-3.937
X6.1417Y-4.0157
X6.1417Y-4.0945
X6.1713Y-4.2067
X6.1811Y-5.2756
X6.1811Y-5.3543
X6.1811Y-5.4331
X6.1811Y-5.5118
X6.1988Y-4.185
X6.2205Y-3.7795
X6.2205Y-3.8583
X6.2205Y-3.937
X6.2205Y-4.0157
X6.2205Y-4.0945
X6.2205Y-4.1634
X6.2323Y-4.2539
X6.2598Y-5.2756
X6.2598Y-5.3543
X6.2598Y-5.4331
X6.2598Y-5.5118
X6.2992Y-3.7795
X6.2992Y-3.8583
X6.2992Y-3.937
X6.2992Y-4.0157
X6.2992Y-4.0945
X6.3386Y-5.2756
X6.3386Y-5.3543
X6.3386Y-5.4331
X6.3386Y-5.5118
X6.3406Y-3.3976
X6.376Y-2.5453
X6.4094Y-2.5669
X6.4173Y-5.2756
X6.4173Y-5.3543
X6.4173Y-5.4331
X6.4173Y-5.5118
X6.4193Y-2.5236
X6.4429Y-2.502
X6.4961Y-5.2756
X6.4961Y-5.3543
X6.4961Y-5.4331
X6.4961Y-5.5118
X6.565Y-4.2067
X6.5748Y-3.7795
X6.5748Y-3.8583
X6.5748Y-3.937
X6.5748Y-4.0157
X6.5748Y-4.0945
X6.5748Y-5.2756
X6.5748Y-5.3543
X6.5748Y-5.4331
X6.5748Y-5.5118
X6.5925Y-4.185
X6.6142Y-4.1634
X6.6535Y-3.7795
X6.6535Y-3.8583
X6.6535Y-3.937
X6.6535Y-4.0157
X6.6535Y-4.0945
X6.6535Y-5.2756
X6.6535Y-5.3543
X6.6535Y-5.4331
X6.6535Y-5.5118
X6.7165Y-2.6535
X6.7323Y-5.2756
X6.7323Y-5.3543
X6.7323Y-5.4331
X6.7323Y-5.5118
X6.7402Y-2.6319
X6.7638Y-2.6102
X6.7953Y-2.5886
X6.811Y-5.2756
X6.811Y-5.3543
X6.811Y-5.4331
X6.811Y-5.5118
X6.8189Y-3.6535
X6.8189Y-4.2736
X6.8898Y-5.2756
X6.8898Y-5.3543
X6.8898Y-5.4331
X6.8898Y-5.5118
X6.9429Y-2.1339
X6.9429Y-2.1772
X6.9685Y-5.2756
X6.9685Y-5.3543
X6.9685Y-5.4331
X6.9685Y-5.5118
X6.9823Y-2.6535
X7.0118Y-4.2598
X7.0295Y-2.1988
X7.0335Y-3.6732
X7.0472Y-5.2756
X7.0472Y-5.3543
X7.0472Y-5.4331
X7.0472Y-5.5118
X7.0551Y-2.7697
X7.0591Y-4.185
X7.063Y-2.1555
X7.0846Y-2.2205
X7.0846Y-4.1634
X7.1083Y-2.2421
X7.126Y-3.7795
X7.126Y-3.8583
X7.126Y-3.937
X7.126Y-4.0157
X7.126Y-4.0945
X7.126Y-5.2756
X7.126Y-5.3543
X7.126Y-5.4331
X7.126Y-5.5118
X7.1339Y-2.2638
X7.1575Y-2.2854
X7.1594Y-4.2992
X7.1831Y-4.2736
X7.2047Y-4.25
X7.2047Y-5.2756
X7.2047Y-5.3543
X7.2283Y-4.2283
X7.2835Y-5.2756
X7.2835Y-5.3543
X7.3228Y-3.7795
X7.3228Y-3.8583
X7.3228Y-3.937
X7.3228Y-4.0157
X7.3228Y-4.0945
X7.3524Y-4.2067
X7.3622Y-5.2756
X7.3622Y-5.3543
X7.3799Y-4.185
X7.4016Y-3.7795
X7.4016Y-3.8583
X7.4016Y-3.937
X7.4016Y-4.0157
X7.4016Y-4.0945
X7.4016Y-4.1634
X7.4409Y-5.2756
X7.4409Y-5.3543
X7.4685Y-2.2756
X7.4803Y-3.7795
X7.4803Y-3.8583
X7.4803Y-3.937
X7.4803Y-4.0157
X7.4803Y-4.0945
X7.5039Y-2.2756
X7.5098Y-2.7559
X7.5197Y-5.2756
X7.5197Y-5.3543
X7.5354Y-2.0906
X7.5394Y-2.2756
X7.5591Y-3.7795
X7.5591Y-3.8583
X7.5591Y-3.937
X7.5591Y-4.0157
X7.5591Y-4.0945
X7.561Y-4.185
X7.561Y-4.2795
X7.5689Y-2.7559
X7.5689Y-2.811
X7.5689Y-2.8661
X7.5886Y-4.2067
X7.5886Y-4.2579
X7.5984Y-5.2756
X7.5984Y-5.3543
X7.5984Y-5.4331
X7.6181Y-2.2283
X7.6181Y-2.2598
X7.6181Y-4.1634
X7.6181Y-4.2362
X7.6378Y-3.7795
X7.6378Y-3.8583
X7.6378Y-3.937
X7.6378Y-4.0157
X7.6378Y-4.0945
X7.6496Y-2.2283
X7.6772Y-5.2756
X7.6772Y-5.3543
X7.6772Y-5.4331
X7.6772Y-5.5118
X7.6811Y-2.2283
X7.7165Y-3.7795
X7.7165Y-3.8583
X7.7165Y-3.937
X7.7165Y-4.0157
X7.7165Y-4.0945
X7.7559Y-5.2756
X7.7559Y-5.3543
X7.7559Y-5.4331
X7.7559Y-5.5118
X7.7913Y-2.1358
X7.8346Y-5.2756
X7.8346Y-5.3543
X7.8346Y-5.4331
X7.8346Y-5.5118
X7.9134Y-2.1476
X7.9134Y-3.2598
X7.9134Y-3.7795
X7.9134Y-3.8583
X7.9134Y-3.937
X7.9134Y-4.0157
X7.9134Y-4.0945
X7.9134Y-5.2756
X7.9134Y-5.3543
X7.9134Y-5.4331
X7.9134Y-5.5118
X7.9744Y-3.1949
X7.9921Y-5.2756
X7.9921Y-5.3543
X7.9921Y-5.4331
X7.9921Y-5.5118
X7.9961Y-3.2165
X8.0197Y-3.2382
X8.0315Y-2.1772
X8.0335Y-2.6004
X8.0335Y-2.6339
X8.0709Y-5.2756
X8.0709Y-5.3543
X8.0709Y-5.4331
X8.0709Y-5.5118
X8.0945Y-2.3071
X8.1398Y-4.2067
X8.1496Y-2.2854
X8.1496Y-3.2815
X8.1496Y-3.7795
X8.1496Y-3.8583
X8.1496Y-3.937
X8.1496Y-4.0157
X8.1496Y-4.0945
X8.1496Y-5.2756
X8.1496Y-5.3543
X8.1496Y-5.4331
X8.1496Y-5.5118
X8.1673Y-4.185
X8.189Y-4.1634
X8.2283Y-3.7795
X8.2283Y-3.8583
X8.2283Y-3.937
X8.2283Y-4.0157
X8.2283Y-4.0945
X8.2283Y-5.2756
X8.2283Y-5.3543
X8.2283Y-5.4331
X8.2283Y-5.5118
X8.2677Y-2.1988
X8.2854Y-2.4154
X8.3071Y-5.2756
X8.3071Y-5.3543
X8.3071Y-5.4331
X8.3071Y-5.5118
X8.3091Y-2.437
X8.3307Y-2.4587
X8.3524Y-2.4803
X8.3858Y-5.2756
X8.3858Y-5.3543
X8.3858Y-5.4331
X8.3858Y-5.5118
X8.3937Y-3.6496
X8.3937Y-4.2657
X8.4646Y-5.2756
X8.4646Y-5.3543
X8.4646Y-5.4331
X8.4646Y-5.5118
X8.5335Y-2.4154
X8.5335Y-4.2067
X8.5433Y-5.2756
X8.5433Y-5.3543
X8.5433Y-5.4331
X8.5433Y-5.5118
X8.561Y-4.185
X8.5827Y-3.7795
X8.5827Y-3.8583
X8.5827Y-3.937
X8.5827Y-4.0157
X8.5827Y-4.0945
X8.5827Y-4.1634
X8.6201Y-2.3287
X8.622Y-5.2756
X8.622Y-5.3543
X8.622Y-5.4331
X8.622Y-5.5118
X8.6417Y-2.3504
X8.6654Y-2.372
X8.689Y-2.3937
X8.7008Y-5.2756
X8.7008Y-5.3543
X8.7008Y-5.4331
X8.7008Y-5.5118
X8.7047Y-2.0217
X8.7205Y-2.4154
X8.7539Y-3.6437
X8.7795Y-5.2756
X8.7795Y-5.3543
X8.7795Y-5.4331
X8.7795Y-5.5118
X8.7854Y-4.2638
X8.8583Y-3.7795
X8.8583Y-3.8583
X8.8583Y-3.937
X8.8583Y-4.0157
X8.8583Y-4.0945
X8.8583Y-4.1732
X8.8583Y-4.252
X8.8583Y-5.1969
X8.8583Y-5.2756
X8.8583Y-5.3543
X8.8583Y-5.4331
X8.8583Y-5.5118
X8.937Y-3.7795
X8.937Y-3.8583
X8.937Y-3.937
X8.937Y-4.0157
X8.937Y-4.0945
X8.937Y-4.1732
X8.937Y-4.252
X8.937Y-5.1181
X8.937Y-5.1969
X8.937Y-5.2756
X8.937Y-5.3543
X8.937Y-5.4331
X8.937Y-5.5118
X8.9902Y-2.0906
X9.0157Y-3.7795
X9.0157Y-3.8583
X9.0157Y-3.937
X9.0157Y-4.0157
X9.0157Y-4.0945
X9.0157Y-4.1732
X9.0157Y-4.252
X9.0157Y-5.1181
X9.0157Y-5.1969
X9.0157Y-5.2756
X9.0157Y-5.3543
X9.0157Y-5.4331
X9.0157Y-5.5118
X9.0945Y-3.7795
X9.0945Y-3.8583
X9.0945Y-3.937
X9.0945Y-4.0157
X9.0945Y-4.0945
X9.0945Y-4.1732
X9.0945Y-4.252
X9.0945Y-4.3307
X9.0945Y-4.5669
X9.0945Y-4.7244
X9.0945Y-4.9213
X9.0945Y-5.1181
X9.0945Y-5.1969
X9.0945Y-5.2756
X9.0945Y-5.3543
X9.0945Y-5.4331
X9.0945Y-5.5118
X9.1732Y-3.7795
X9.1732Y-3.8583
X9.1732Y-3.937
X9.1732Y-4.0157
X9.1732Y-4.0945
X9.1732Y-4.1732
X9.1732Y-4.252
X9.1732Y-4.3307
X9.1732Y-5.1181
X9.1732Y-5.1969
X9.1732Y-5.2756
X9.1732Y-5.3543
X9.1732Y-5.4331
X9.1732Y-5.5118
X9.2224Y-2.1122
X9.252Y-3.7795
X9.252Y-3.8583
X9.252Y-3.937
X9.252Y-4.0157
X9.252Y-4.0945
X9.252Y-4.1732
X9.252Y-4.3307
X9.252Y-4.5669
X9.252Y-4.7244
X9.252Y-4.9213
X9.252Y-5.1181
X9.252Y-5.1969
X9.252Y-5.2756
X9.252Y-5.3543
X9.252Y-5.4331
X9.252Y-5.5118
X9.3307Y-3.7795
X9.3307Y-3.8583
X9.3307Y-3.937
X9.3307Y-4.0157
X9.3307Y-4.0945
X9.3307Y-4.1732
X9.3307Y-4.3307
X9.3307Y-4.4094
X9.3307Y-4.4882
X9.3307Y-4.5669
X9.3307Y-4.6457
X9.3307Y-4.7244
X9.3307Y-4.8031
X9.3307Y-4.8819
X9.3307Y-4.9606
X9.3307Y-5.0394
X9.3307Y-5.1181
X9.3307Y-5.1969
X9.3307Y-5.2756
X9.3307Y-5.3543
X9.3307Y-5.4331
X9.3307Y-5.5118
X9.4094Y-3.7795
X9.4094Y-3.8583
X9.4094Y-3.937
X9.4094Y-4.252
X9.4094Y-4.3307
X9.4094Y-4.4094
X9.4094Y-4.4882
X9.4094Y-4.5669
X9.4094Y-4.6457
X9.4094Y-4.7244
X9.4094Y-4.8031
X9.4094Y-4.8819
X9.4094Y-4.9606
X9.4094Y-5.0394
X9.4094Y-5.1181
X9.4094Y-5.1969
X9.4488Y-4.0551
X9.4488Y-4.1732
X9.4882Y-3.4646
X9.4882Y-3.5827
X9.4882Y-4.0157
X9.4882Y-4.252
X9.4882Y-4.3307
X9.4882Y-4.4094
X9.4882Y-4.4882
X9.4882Y-4.5669
X9.4882Y-4.6457
X9.4882Y-4.7244
X9.4882Y-4.8031
X9.4882Y-4.8819
X9.4882Y-4.9606
X9.4882Y-5.0394
X9.4882Y-5.1181
X9.4882Y-5.1969
X9.5669Y-3.5827
X9.5669Y-4.0157
X9.5669Y-4.1732
X9.5669Y-4.252
X9.5669Y-4.3307
X9.5669Y-4.4094
X9.5669Y-4.4882
X9.5669Y-4.5669
X9.5669Y-4.6457
X9.5669Y-4.7244
X9.5669Y-4.8031
X9.5669Y-4.8819
X9.5669Y-4.9606
X9.5669Y-5.0394
X9.5669Y-5.1181
X9.5669Y-5.1969
X9.6457Y-3.4646
X9.6457Y-3.5433
X9.6457Y-3.622
X9.6457Y-3.7008
X9.6457Y-3.7795
X9.6457Y-3.8583
X9.6457Y-3.937
X9.6457Y-4.0157
X9.6457Y-4.0945
X9.6457Y-4.1732
X9.6457Y-4.252
X9.6457Y-4.3307
X9.6457Y-4.4094
X9.6457Y-4.4882
X9.6457Y-4.5669
X9.6457Y-4.6457
X9.6457Y-4.7244
X9.6457Y-4.8031
X9.6457Y-4.8819
X9.6457Y-4.9606
X9.6457Y-5.0394
X9.6457Y-5.1181
X9.6457Y-5.1969
T2
X5.3646Y-1.7033
X5.3646Y-1.7533
X5.4146Y-1.7033
X5.4146Y-1.7533
X5.4646Y-1.7033
X5.4646Y-1.7533
X5.5146Y-1.7033
X5.5146Y-1.7533
X5.5646Y-1.7033
X5.5646Y-1.7533
T3
X3.2874Y-2.5878
X3.2874Y-2.6878
X3.3661Y-2.5878
X3.3661Y-2.6878
T4
X2.628Y-4.3563
X2.628Y-4.435
X2.628Y-4.5138
X2.628Y-4.5925
X2.628Y-4.75
X2.628Y-4.8287
X2.628Y-4.9075
X2.628Y-4.9862
X2.628Y-5.065
X2.7067Y-4.3957
X2.7067Y-4.4744
X2.7067Y-4.5531
X2.7067Y-4.7106
X2.7067Y-4.7894
X2.7067Y-4.8681
X2.7067Y-4.9469
X2.7067Y-5.0256
X2.7067Y-5.1043
X2.8051Y-4.3957
X2.8051Y-4.4744
X2.8051Y-4.5531
X2.8051Y-4.7106
X2.8051Y-4.7894
X2.8051Y-4.8681
X2.8051Y-4.9469
X2.8051Y-5.0256
X2.8051Y-5.1043
X2.8839Y-4.3563
X2.8839Y-4.435
X2.8839Y-4.5138
X2.8839Y-4.5925
X2.8839Y-4.75
X2.8839Y-4.8287
X2.8839Y-4.9075
X2.8839Y-4.9862
X2.8839Y-5.065
X3.0217Y-4.3563
X3.0217Y-4.435
X3.0217Y-4.5138
X3.0217Y-4.5925
X3.0217Y-4.75
X3.0217Y-4.8287
X3.0217Y-4.9075
X3.0217Y-4.9862
X3.0217Y-5.065
X3.1004Y-4.3957
X3.1004Y-4.4744
X3.1004Y-4.5531
X3.1004Y-4.7106
X3.1004Y-4.7894
X3.1004Y-4.8681
X3.1004Y-4.9469
X3.1004Y-5.0256
X3.1004Y-5.1043
X3.1988Y-4.3957
X3.1988Y-4.4744
X3.1988Y-4.5531
X3.1988Y-4.7106
X3.1988Y-4.7894
X3.1988Y-4.8681
X3.1988Y-4.9469
X3.1988Y-5.0256
X3.1988Y-5.1043
X3.2776Y-4.3563
X3.2776Y-4.435
X3.2776Y-4.5138
X3.2776Y-4.5925
X3.2776Y-4.75
X3.2776Y-4.8287
X3.2776Y-4.9075
X3.2776Y-4.9862
X3.2776Y-5.065
X3.4154Y-4.3563
X3.4154Y-4.435
X3.4154Y-4.5138
X3.4154Y-4.5925
X3.4154Y-4.75
X3.4154Y-4.8287
X3.4154Y-4.9075
X3.4154Y-4.9862
X3.4154Y-5.065
X3.4941Y-4.3957
X3.4941Y-4.4744
X3.4941Y-4.5531
X3.4941Y-4.7106
X3.4941Y-4.7894
X3.4941Y-4.8681
X3.4941Y-4.9469
X3.4941Y-5.0256
X3.4941Y-5.1043
X3.5925Y-4.3957
X3.5925Y-4.4744
X3.5925Y-4.5531
X3.5925Y-4.7106
X3.5925Y-4.7894
X3.5925Y-4.8681
X3.5925Y-4.9469
X3.5925Y-5.0256
X3.5925Y-5.1043
X3.6713Y-4.3563
X3.6713Y-4.435
X3.6713Y-4.5138
X3.6713Y-4.5925
X3.6713Y-4.75
X3.6713Y-4.8287
X3.6713Y-4.9075
X3.6713Y-4.9862
X3.6713Y-5.065
X3.8091Y-4.3563
X3.8091Y-4.435
X3.8091Y-4.5138
X3.8091Y-4.5925
X3.8091Y-4.75
X3.8091Y-4.8287
X3.8091Y-4.9075
X3.8091Y-4.9862
X3.8091Y-5.065
X3.8878Y-4.3957
X3.8878Y-4.4744
X3.8878Y-4.5531
X3.8878Y-4.7106
X3.8878Y-4.7894
X3.8878Y-4.8681
X3.8878Y-4.9469
X3.8878Y-5.0256
X3.8878Y-5.1043
X3.9862Y-4.3957
X3.9862Y-4.4744
X3.9862Y-4.5531
X3.9862Y-4.7106
X3.9862Y-4.7894
X3.9862Y-4.8681
X3.9862Y-4.9469
X3.9862Y-5.0256
X3.9862Y-5.1043
X4.065Y-4.3563
X4.065Y-4.435
X4.065Y-4.5138
X4.065Y-4.5925
X4.065Y-4.75
X4.065Y-4.8287
X4.065Y-4.9075
X4.065Y-4.9862
X4.065Y-5.065
X4.2028Y-4.3563
X4.2028Y-4.435
X4.2028Y-4.5138
X4.2028Y-4.5925
X4.2028Y-4.75
X4.2028Y-4.8287
X4.2028Y-4.9075
X4.2028Y-4.9862
X4.2028Y-5.065
X4.2815Y-4.3957
X4.2815Y-4.4744
X4.2815Y-4.5531
X4.2815Y-4.7106
X4.2815Y-4.7894
X4.2815Y-4.8681
X4.2815Y-4.9469
X4.2815Y-5.0256
X4.2815Y-5.1043
X4.3799Y-4.3957
X4.3799Y-4.4744
X4.3799Y-4.5531
X4.3799Y-4.7106
X4.3799Y-4.7894
X4.3799Y-4.8681
X4.3799Y-4.9469
X4.3799Y-5.0256
X4.3799Y-5.1043
X4.4587Y-4.3563
X4.4587Y-4.435
X4.4587Y-4.5138
X4.4587Y-4.5925
X4.4587Y-4.75
X4.4587Y-4.8287
X4.4587Y-4.9075
X4.4587Y-4.9862
X4.4587Y-5.065
X4.5965Y-4.3563
X4.5965Y-4.435
X4.5965Y-4.5138
X4.5965Y-4.5925
X4.5965Y-4.75
X4.5965Y-4.8287
X4.5965Y-4.9075
X4.5965Y-4.9862
X4.5965Y-5.065
X4.6752Y-4.3957
X4.6752Y-4.4744
X4.6752Y-4.5531
X4.6752Y-4.7106
X4.6752Y-4.7894
X4.6752Y-4.8681
X4.6752Y-4.9469
X4.6752Y-5.0256
X4.6752Y-5.1043
X4.7736Y-4.3957
X4.7736Y-4.4744
X4.7736Y-4.5531
X4.7736Y-4.7106
X4.7736Y-4.7894
X4.7736Y-4.8681
X4.7736Y-4.9469
X4.7736Y-5.0256
X4.7736Y-5.1043
X4.8524Y-4.3563
X4.8524Y-4.435
X4.8524Y-4.5138
X4.8524Y-4.5925
X4.8524Y-4.75
X4.8524Y-4.8287
X4.8524Y-4.9075
X4.8524Y-4.9862
X4.8524Y-5.065
X4.9902Y-4.3563
X4.9902Y-4.435
X4.9902Y-4.5138
X4.9902Y-4.5925
X4.9902Y-4.75
X4.9902Y-4.8287
X4.9902Y-4.9075
X4.9902Y-4.9862
X4.9902Y-5.065
X5.0689Y-4.3957
X5.0689Y-4.4744
X5.0689Y-4.5531
X5.0689Y-4.7106
X5.0689Y-4.7894
X5.0689Y-4.8681
X5.0689Y-4.9469
X5.0689Y-5.0256
X5.0689Y-5.1043
X5.1673Y-4.3957
X5.1673Y-4.4744
X5.1673Y-4.5531
X5.1673Y-4.7106
X5.1673Y-4.7894
X5.1673Y-4.8681
X5.1673Y-4.9469
X5.1673Y-5.0256
X5.1673Y-5.1043
X5.2461Y-4.3563
X5.2461Y-4.435
X5.2461Y-4.5138
X5.2461Y-4.5925
X5.2461Y-4.75
X5.2461Y-4.8287
X5.2461Y-4.9075
X5.2461Y-4.9862
X5.2461Y-5.065
X5.3839Y-4.3563
X5.3839Y-4.435
X5.3839Y-4.5138
X5.3839Y-4.5925
X5.3839Y-4.75
X5.3839Y-4.8287
X5.3839Y-4.9075
X5.3839Y-4.9862
X5.3839Y-5.065
X5.4626Y-4.3957
X5.4626Y-4.4744
X5.4626Y-4.5531
X5.4626Y-4.7106
X5.4626Y-4.7894
X5.4626Y-4.8681
X5.4626Y-4.9469
X5.4626Y-5.0256
X5.4626Y-5.1043
X5.561Y-4.3957
X5.561Y-4.4744
X5.561Y-4.5531
X5.561Y-4.7106
X5.561Y-4.7894
X5.561Y-4.8681
X5.561Y-4.9469
X5.561Y-5.0256
X5.561Y-5.1043
X5.6398Y-4.3563
X5.6398Y-4.435
X5.6398Y-4.5138
X5.6398Y-4.5925
X5.6398Y-4.75
X5.6398Y-4.8287
X5.6398Y-4.9075
X5.6398Y-4.9862
X5.6398Y-5.065
X5.7776Y-4.3563
X5.7776Y-4.435
X5.7776Y-4.5138
X5.7776Y-4.5925
X5.7776Y-4.75
X5.7776Y-4.8287
X5.7776Y-4.9075
X5.7776Y-4.9862
X5.7776Y-5.065
X5.8563Y-4.3957
X5.8563Y-4.4744
X5.8563Y-4.5531
X5.8563Y-4.7106
X5.8563Y-4.7894
X5.8563Y-4.8681
X5.8563Y-4.9469
X5.8563Y-5.0256
X5.8563Y-5.1043
X5.9547Y-4.3957
X5.9547Y-4.4744
X5.9547Y-4.5531
X5.9547Y-4.7106
X5.9547Y-4.7894
X5.9547Y-4.8681
X5.9547Y-4.9469
X5.9547Y-5.0256
X5.9547Y-5.1043
X6.0335Y-4.3563
X6.0335Y-4.435
X6.0335Y-4.5138
X6.0335Y-4.5925
X6.0335Y-4.75
X6.0335Y-4.8287
X6.0335Y-4.9075
X6.0335Y-4.9862
X6.0335Y-5.065
X6.1713Y-4.3563
X6.1713Y-4.435
X6.1713Y-4.5138
X6.1713Y-4.5925
X6.1713Y-4.75
X6.1713Y-4.8287
X6.1713Y-4.9075
X6.1713Y-4.9862
X6.1713Y-5.065
X6.25Y-4.3957
X6.25Y-4.4744
X6.25Y-4.5531
X6.25Y-4.7106
X6.25Y-4.7894
X6.25Y-4.8681
X6.25Y-4.9469
X6.25Y-5.0256
X6.25Y-5.1043
X6.3484Y-4.3957
X6.3484Y-4.4744
X6.3484Y-4.5531
X6.3484Y-4.7106
X6.3484Y-4.7894
X6.3484Y-4.8681
X6.3484Y-4.9469
X6.3484Y-5.0256
X6.3484Y-5.1043
X6.4272Y-4.3563
X6.4272Y-4.435
X6.4272Y-4.5138
X6.4272Y-4.5925
X6.4272Y-4.75
X6.4272Y-4.8287
X6.4272Y-4.9075
X6.4272Y-4.9862
X6.4272Y-5.065
X6.565Y-4.3563
X6.565Y-4.435
X6.565Y-4.5138
X6.565Y-4.5925
X6.565Y-4.75
X6.565Y-4.8287
X6.565Y-4.9075
X6.565Y-4.9862
X6.565Y-5.065
X6.6437Y-4.3957
X6.6437Y-4.4744
X6.6437Y-4.5531
X6.6437Y-4.7106
X6.6437Y-4.7894
X6.6437Y-4.8681
X6.6437Y-4.9469
X6.6437Y-5.0256
X6.6437Y-5.1043
X6.7421Y-4.3957
X6.7421Y-4.4744
X6.7421Y-4.5531
X6.7421Y-4.7106
X6.7421Y-4.7894
X6.7421Y-4.8681
X6.7421Y-4.9469
X6.7421Y-5.0256
X6.7421Y-5.1043
X6.8209Y-4.3563
X6.8209Y-4.435
X6.8209Y-4.5138
X6.8209Y-4.5925
X6.8209Y-4.75
X6.8209Y-4.8287
X6.8209Y-4.9075
X6.8209Y-4.9862
X6.8209Y-5.065
X6.9587Y-4.3563
X6.9587Y-4.435
X6.9587Y-4.5138
X6.9587Y-4.5925
X6.9587Y-4.75
X6.9587Y-4.8287
X6.9587Y-4.9075
X6.9587Y-4.9862
X6.9587Y-5.065
X7.0374Y-4.3957
X7.0374Y-4.4744
X7.0374Y-4.5531
X7.0374Y-4.7106
X7.0374Y-4.7894
X7.0374Y-4.8681
X7.0374Y-4.9469
X7.0374Y-5.0256
X7.0374Y-5.1043
X7.1358Y-4.3957
X7.1358Y-4.4744
X7.1358Y-4.5531
X7.1358Y-4.7106
X7.1358Y-4.7894
X7.1358Y-4.8681
X7.1358Y-4.9469
X7.1358Y-5.0256
X7.1358Y-5.1043
X7.2146Y-4.3563
X7.2146Y-4.435
X7.2146Y-4.5138
X7.2146Y-4.5925
X7.2146Y-4.75
X7.2146Y-4.8287
X7.2146Y-4.9075
X7.2146Y-4.9862
X7.2146Y-5.065
X7.3524Y-4.3563
X7.3524Y-4.435
X7.3524Y-4.5138
X7.3524Y-4.5925
X7.3524Y-4.75
X7.3524Y-4.8287
X7.3524Y-4.9075
X7.3524Y-4.9862
X7.3524Y-5.065
X7.4311Y-4.3957
X7.4311Y-4.4744
X7.4311Y-4.5531
X7.4311Y-4.7106
X7.4311Y-4.7894
X7.4311Y-4.8681
X7.4311Y-4.9469
X7.4311Y-5.0256
X7.4311Y-5.1043
X7.5295Y-4.3957
X7.5295Y-4.4744
X7.5295Y-4.5531
X7.5295Y-4.7106
X7.5295Y-4.7894
X7.5295Y-4.8681
X7.5295Y-4.9469
X7.5295Y-5.0256
X7.5295Y-5.1043
X7.6083Y-4.3563
X7.6083Y-4.435
X7.6083Y-4.5138
X7.6083Y-4.5925
X7.6083Y-4.75
X7.6083Y-4.8287
X7.6083Y-4.9075
X7.6083Y-4.9862
X7.6083Y-5.065
X7.7461Y-4.3563
X7.7461Y-4.435
X7.7461Y-4.5138
X7.7461Y-4.5925
X7.7461Y-4.75
X7.7461Y-4.8287
X7.7461Y-4.9075
X7.7461Y-4.9862
X7.7461Y-5.065
X7.8248Y-4.3957
X7.8248Y-4.4744
X7.8248Y-4.5531
X7.8248Y-4.7106
X7.8248Y-4.7894
X7.8248Y-4.8681
X7.8248Y-4.9469
X7.8248Y-5.0256
X7.8248Y-5.1043
X7.9232Y-4.3957
X7.9232Y-4.4744
X7.9232Y-4.5531
X7.9232Y-4.7106
X7.9232Y-4.7894
X7.9232Y-4.8681
X7.9232Y-4.9469
X7.9232Y-5.0256
X7.9232Y-5.1043
X8.002Y-4.3563
X8.002Y-4.435
X8.002Y-4.5138
X8.002Y-4.5925
X8.002Y-4.75
X8.002Y-4.8287
X8.002Y-4.9075
X8.002Y-4.9862
X8.002Y-5.065
X8.1398Y-4.3563
X8.1398Y-4.435
X8.1398Y-4.5138
X8.1398Y-4.5925
X8.1398Y-4.75
X8.1398Y-4.8287
X8.1398Y-4.9075
X8.1398Y-4.9862
X8.1398Y-5.065
X8.2185Y-4.3957
X8.2185Y-4.4744
X8.2185Y-4.5531
X8.2185Y-4.7106
X8.2185Y-4.7894
X8.2185Y-4.8681
X8.2185Y-4.9469
X8.2185Y-5.0256
X8.2185Y-5.1043
X8.3169Y-4.3957
X8.3169Y-4.4744
X8.3169Y-4.5531
X8.3169Y-4.7106
X8.3169Y-4.7894
X8.3169Y-4.8681
X8.3169Y-4.9469
X8.3169Y-5.0256
X8.3169Y-5.1043
X8.3957Y-4.3563
X8.3957Y-4.435
X8.3957Y-4.5138
X8.3957Y-4.5925
X8.3957Y-4.75
X8.3957Y-4.8287
X8.3957Y-4.9075
X8.3957Y-4.9862
X8.3957Y-5.065
X8.5335Y-4.3563
X8.5335Y-4.435
X8.5335Y-4.5138
X8.5335Y-4.5925
X8.5335Y-4.75
X8.5335Y-4.8287
X8.5335Y-4.9075
X8.5335Y-4.9862
X8.5335Y-5.065
X8.6122Y-4.3957
X8.6122Y-4.4744
X8.6122Y-4.5531
X8.6122Y-4.7106
X8.6122Y-4.7894
X8.6122Y-4.8681
X8.6122Y-4.9469
X8.6122Y-5.0256
X8.6122Y-5.1043
X8.7106Y-4.3957
X8.7106Y-4.4744
X8.7106Y-4.5531
X8.7106Y-4.7106
X8.7106Y-4.7894
X8.7106Y-4.8681
X8.7106Y-4.9469
X8.7106Y-5.0256
X8.7106Y-5.1043
X8.7894Y-4.3563
X8.7894Y-4.435
X8.7894Y-4.5138
X8.7894Y-4.5925
X8.7894Y-4.75
X8.7894Y-4.8287
X8.7894Y-4.9075
X8.7894Y-4.9862
X8.7894Y-5.065
T5
X6.998Y-1.6043
X6.998Y-1.8602
X7.1752Y-1.6043
X7.1752Y-1.8602
X8.7303Y-1.624
X8.7303Y-1.8799
X8.9075Y-1.624
X8.9075Y-1.8799
X9.0453Y-1.624
X9.0453Y-1.8799
X9.2224Y-1.624
X9.2224Y-1.8799
T6
X8.8268Y-3.1382
X8.8268Y-3.2382
X8.8268Y-3.3382
T7
X6.4591Y-1.9252
X6.5575Y-1.9252
X6.6362Y-1.9252
X6.7346Y-1.9252
T8
X5.6949Y-1.9055
X5.7949Y-1.9055
X5.8949Y-1.9055
X5.9949Y-1.9055
X6.0949Y-1.9055
X6.1949Y-1.9055
T9
X7.2965Y-2.063
X7.3965Y-2.063
X7.9894Y-2.252
X8.0894Y-2.252
X8.2453Y-2.252
X8.3453Y-2.252
X8.5012Y-2.252
X8.6012Y-2.252
X8.7571Y-2.252
X8.8571Y-2.252
T10
X9.5591Y-3.5157
X9.5591Y-3.7126
X9.5591Y-3.9094
X9.5591Y-4.1063
T11
X9.2283Y-2.448
X9.2283Y-2.648
X9.2283Y-2.848
X9.2283Y-3.048
T12
X8.9469Y-4.4764
X8.9469Y-4.6417
X8.9469Y-4.8071
X8.9469Y-4.9724
X9.1634Y-4.4764
X9.1634Y-4.6417
X9.1634Y-4.8071
X9.1634Y-4.9724
T13
X3.1811Y-2.4016
X3.1811Y-2.874
X6.3382Y-1.8185
X6.8555Y-1.8185
T14
X3.4921Y-1.7362
X3.748Y-5.3917
X7.3937Y-1.7362
X9.5276Y-1.6929
X9.5276Y-5.3937
T0
M30
