G04 #@! TF.FileFunction,Legend,Bot*
%FSLAX46Y46*%
G04 Gerber Fmt 4.6, Leading zero omitted, Abs format (unit mm)*
G04 Created by KiCad (PCBNEW 4.0.2+e4-6225~38~ubuntu14.04.1-stable) date Sat 23 Jul 2016 05:21:44 BST*
%MOMM*%
G01*
G04 APERTURE LIST*
%ADD10C,0.100000*%
%ADD11C,0.400000*%
%ADD12C,0.010000*%
G04 APERTURE END LIST*
D10*
D11*
X200478571Y-65657143D02*
X200478571Y-67800000D01*
X200621429Y-68228571D01*
X200907143Y-68514286D01*
X201335714Y-68657143D01*
X201621429Y-68657143D01*
X199050000Y-65657143D02*
X199050000Y-68085714D01*
X198907143Y-68371429D01*
X198764286Y-68514286D01*
X198478572Y-68657143D01*
X197907143Y-68657143D01*
X197621429Y-68514286D01*
X197478572Y-68371429D01*
X197335715Y-68085714D01*
X197335715Y-65657143D01*
X195907143Y-68657143D02*
X195907143Y-65657143D01*
X192764287Y-68371429D02*
X192907144Y-68514286D01*
X193335715Y-68657143D01*
X193621429Y-68657143D01*
X194050001Y-68514286D01*
X194335715Y-68228571D01*
X194478572Y-67942857D01*
X194621429Y-67371429D01*
X194621429Y-66942857D01*
X194478572Y-66371429D01*
X194335715Y-66085714D01*
X194050001Y-65800000D01*
X193621429Y-65657143D01*
X193335715Y-65657143D01*
X192907144Y-65800000D01*
X192764287Y-65942857D01*
X190907144Y-67228571D02*
X190907144Y-68657143D01*
X191907144Y-65657143D02*
X190907144Y-67228571D01*
X189907144Y-65657143D01*
X187907143Y-67085714D02*
X187478572Y-67228571D01*
X187335715Y-67371429D01*
X187192858Y-67657143D01*
X187192858Y-68085714D01*
X187335715Y-68371429D01*
X187478572Y-68514286D01*
X187764286Y-68657143D01*
X188907143Y-68657143D01*
X188907143Y-65657143D01*
X187907143Y-65657143D01*
X187621429Y-65800000D01*
X187478572Y-65942857D01*
X187335715Y-66228571D01*
X187335715Y-66514286D01*
X187478572Y-66800000D01*
X187621429Y-66942857D01*
X187907143Y-67085714D01*
X188907143Y-67085714D01*
X185335715Y-65657143D02*
X184764286Y-65657143D01*
X184478572Y-65800000D01*
X184192858Y-66085714D01*
X184050000Y-66657143D01*
X184050000Y-67657143D01*
X184192858Y-68228571D01*
X184478572Y-68514286D01*
X184764286Y-68657143D01*
X185335715Y-68657143D01*
X185621429Y-68514286D01*
X185907143Y-68228571D01*
X186050000Y-67657143D01*
X186050000Y-66657143D01*
X185907143Y-66085714D01*
X185621429Y-65800000D01*
X185335715Y-65657143D01*
X182907143Y-67800000D02*
X181478572Y-67800000D01*
X183192858Y-68657143D02*
X182192858Y-65657143D01*
X181192858Y-68657143D01*
X178478572Y-68657143D02*
X179478572Y-67228571D01*
X180192857Y-68657143D02*
X180192857Y-65657143D01*
X179050000Y-65657143D01*
X178764286Y-65800000D01*
X178621429Y-65942857D01*
X178478572Y-66228571D01*
X178478572Y-66657143D01*
X178621429Y-66942857D01*
X178764286Y-67085714D01*
X179050000Y-67228571D01*
X180192857Y-67228571D01*
X177192857Y-68657143D02*
X177192857Y-65657143D01*
X176478572Y-65657143D01*
X176050000Y-65800000D01*
X175764286Y-66085714D01*
X175621429Y-66371429D01*
X175478572Y-66942857D01*
X175478572Y-67371429D01*
X175621429Y-67942857D01*
X175764286Y-68228571D01*
X176050000Y-68514286D01*
X176478572Y-68657143D01*
X177192857Y-68657143D01*
X199621429Y-73257143D02*
X200621429Y-71828571D01*
X201335714Y-73257143D02*
X201335714Y-70257143D01*
X200192857Y-70257143D01*
X199907143Y-70400000D01*
X199764286Y-70542857D01*
X199621429Y-70828571D01*
X199621429Y-71257143D01*
X199764286Y-71542857D01*
X199907143Y-71685714D01*
X200192857Y-71828571D01*
X201335714Y-71828571D01*
X196764286Y-73257143D02*
X198478571Y-73257143D01*
X197621429Y-73257143D02*
X197621429Y-70257143D01*
X197907143Y-70685714D01*
X198192857Y-70971429D01*
X198478571Y-71114286D01*
X194907143Y-70257143D02*
X194621428Y-70257143D01*
X194335714Y-70400000D01*
X194192857Y-70542857D01*
X194050000Y-70828571D01*
X193907143Y-71400000D01*
X193907143Y-72114286D01*
X194050000Y-72685714D01*
X194192857Y-72971429D01*
X194335714Y-73114286D01*
X194621428Y-73257143D01*
X194907143Y-73257143D01*
X195192857Y-73114286D01*
X195335714Y-72971429D01*
X195478571Y-72685714D01*
X195621428Y-72114286D01*
X195621428Y-71400000D01*
X195478571Y-70828571D01*
X195335714Y-70542857D01*
X195192857Y-70400000D01*
X194907143Y-70257143D01*
X192050000Y-70257143D02*
X191764285Y-70257143D01*
X191478571Y-70400000D01*
X191335714Y-70542857D01*
X191192857Y-70828571D01*
X191050000Y-71400000D01*
X191050000Y-72114286D01*
X191192857Y-72685714D01*
X191335714Y-72971429D01*
X191478571Y-73114286D01*
X191764285Y-73257143D01*
X192050000Y-73257143D01*
X192335714Y-73114286D01*
X192478571Y-72971429D01*
X192621428Y-72685714D01*
X192764285Y-72114286D01*
X192764285Y-71400000D01*
X192621428Y-70828571D01*
X192478571Y-70542857D01*
X192335714Y-70400000D01*
X192050000Y-70257143D01*
X189192857Y-70257143D02*
X188907142Y-70257143D01*
X188621428Y-70400000D01*
X188478571Y-70542857D01*
X188335714Y-70828571D01*
X188192857Y-71400000D01*
X188192857Y-72114286D01*
X188335714Y-72685714D01*
X188478571Y-72971429D01*
X188621428Y-73114286D01*
X188907142Y-73257143D01*
X189192857Y-73257143D01*
X189478571Y-73114286D01*
X189621428Y-72971429D01*
X189764285Y-72685714D01*
X189907142Y-72114286D01*
X189907142Y-71400000D01*
X189764285Y-70828571D01*
X189621428Y-70542857D01*
X189478571Y-70400000D01*
X189192857Y-70257143D01*
X187049999Y-72400000D02*
X185621428Y-72400000D01*
X187335714Y-73257143D02*
X186335714Y-70257143D01*
X185335714Y-73257143D01*
X182335714Y-71257143D02*
X181621428Y-73257143D01*
X180907142Y-71257143D01*
X178192857Y-73257143D02*
X179907142Y-73257143D01*
X179050000Y-73257143D02*
X179050000Y-70257143D01*
X179335714Y-70685714D01*
X179621428Y-70971429D01*
X179907142Y-71114286D01*
X176907142Y-72971429D02*
X176764285Y-73114286D01*
X176907142Y-73257143D01*
X177049999Y-73114286D01*
X176907142Y-72971429D01*
X176907142Y-73257143D01*
X174907143Y-70257143D02*
X174621428Y-70257143D01*
X174335714Y-70400000D01*
X174192857Y-70542857D01*
X174050000Y-70828571D01*
X173907143Y-71400000D01*
X173907143Y-72114286D01*
X174050000Y-72685714D01*
X174192857Y-72971429D01*
X174335714Y-73114286D01*
X174621428Y-73257143D01*
X174907143Y-73257143D01*
X175192857Y-73114286D01*
X175335714Y-72971429D01*
X175478571Y-72685714D01*
X175621428Y-72114286D01*
X175621428Y-71400000D01*
X175478571Y-70828571D01*
X175335714Y-70542857D01*
X175192857Y-70400000D01*
X174907143Y-70257143D01*
X201335714Y-75857143D02*
X201335714Y-78857143D01*
X201335714Y-76000000D02*
X201050000Y-75857143D01*
X200478571Y-75857143D01*
X200192857Y-76000000D01*
X200050000Y-76142857D01*
X199907143Y-76428571D01*
X199907143Y-77285714D01*
X200050000Y-77571429D01*
X200192857Y-77714286D01*
X200478571Y-77857143D01*
X201050000Y-77857143D01*
X201335714Y-77714286D01*
X198192857Y-77857143D02*
X198478571Y-77714286D01*
X198621428Y-77428571D01*
X198621428Y-74857143D01*
X195764285Y-75857143D02*
X195764285Y-77857143D01*
X197049999Y-75857143D02*
X197049999Y-77428571D01*
X196907142Y-77714286D01*
X196621428Y-77857143D01*
X196192856Y-77857143D01*
X195907142Y-77714286D01*
X195764285Y-77571429D01*
X193049999Y-75857143D02*
X193049999Y-78285714D01*
X193192856Y-78571429D01*
X193335713Y-78714286D01*
X193621428Y-78857143D01*
X194049999Y-78857143D01*
X194335713Y-78714286D01*
X193049999Y-77714286D02*
X193335713Y-77857143D01*
X193907142Y-77857143D01*
X194192856Y-77714286D01*
X194335713Y-77571429D01*
X194478570Y-77285714D01*
X194478570Y-76428571D01*
X194335713Y-76142857D01*
X194192856Y-76000000D01*
X193907142Y-75857143D01*
X193335713Y-75857143D01*
X193049999Y-76000000D01*
X190335713Y-75857143D02*
X190335713Y-78285714D01*
X190478570Y-78571429D01*
X190621427Y-78714286D01*
X190907142Y-78857143D01*
X191335713Y-78857143D01*
X191621427Y-78714286D01*
X190335713Y-77714286D02*
X190621427Y-77857143D01*
X191192856Y-77857143D01*
X191478570Y-77714286D01*
X191621427Y-77571429D01*
X191764284Y-77285714D01*
X191764284Y-76428571D01*
X191621427Y-76142857D01*
X191478570Y-76000000D01*
X191192856Y-75857143D01*
X190621427Y-75857143D01*
X190335713Y-76000000D01*
X188907141Y-77571429D02*
X188764284Y-77714286D01*
X188907141Y-77857143D01*
X189049998Y-77714286D01*
X188907141Y-77571429D01*
X188907141Y-77857143D01*
X186335713Y-77714286D02*
X186621427Y-77857143D01*
X187192856Y-77857143D01*
X187478570Y-77714286D01*
X187621427Y-77428571D01*
X187621427Y-76285714D01*
X187478570Y-76000000D01*
X187192856Y-75857143D01*
X186621427Y-75857143D01*
X186335713Y-76000000D01*
X186192856Y-76285714D01*
X186192856Y-76571429D01*
X187621427Y-76857143D01*
X183764284Y-77714286D02*
X184049998Y-77857143D01*
X184621427Y-77857143D01*
X184907141Y-77714286D01*
X185049998Y-77428571D01*
X185049998Y-76285714D01*
X184907141Y-76000000D01*
X184621427Y-75857143D01*
X184049998Y-75857143D01*
X183764284Y-76000000D01*
X183621427Y-76285714D01*
X183621427Y-76571429D01*
X185049998Y-76857143D01*
X178621427Y-77857143D02*
X180049998Y-77857143D01*
X180049998Y-74857143D01*
X176335713Y-77857143D02*
X176335713Y-76285714D01*
X176478570Y-76000000D01*
X176764284Y-75857143D01*
X177335713Y-75857143D01*
X177621427Y-76000000D01*
X176335713Y-77714286D02*
X176621427Y-77857143D01*
X177335713Y-77857143D01*
X177621427Y-77714286D01*
X177764284Y-77428571D01*
X177764284Y-77142857D01*
X177621427Y-76857143D01*
X177335713Y-76714286D01*
X176621427Y-76714286D01*
X176335713Y-76571429D01*
X174907141Y-77857143D02*
X174907141Y-74857143D01*
X174907141Y-76000000D02*
X174621427Y-75857143D01*
X174049998Y-75857143D01*
X173764284Y-76000000D01*
X173621427Y-76142857D01*
X173478570Y-76428571D01*
X173478570Y-77285714D01*
X173621427Y-77571429D01*
X173764284Y-77714286D01*
X174049998Y-77857143D01*
X174621427Y-77857143D01*
X174907141Y-77714286D01*
X172335712Y-77714286D02*
X172049998Y-77857143D01*
X171478570Y-77857143D01*
X171192855Y-77714286D01*
X171049998Y-77428571D01*
X171049998Y-77285714D01*
X171192855Y-77000000D01*
X171478570Y-76857143D01*
X171907141Y-76857143D01*
X172192855Y-76714286D01*
X172335712Y-76428571D01*
X172335712Y-76285714D01*
X172192855Y-76000000D01*
X171907141Y-75857143D01*
X171478570Y-75857143D01*
X171192855Y-76000000D01*
X167621427Y-75142857D02*
X167478570Y-75000000D01*
X167192856Y-74857143D01*
X166478570Y-74857143D01*
X166192856Y-75000000D01*
X166049999Y-75142857D01*
X165907142Y-75428571D01*
X165907142Y-75714286D01*
X166049999Y-76142857D01*
X167764285Y-77857143D01*
X165907142Y-77857143D01*
X164049999Y-74857143D02*
X163764284Y-74857143D01*
X163478570Y-75000000D01*
X163335713Y-75142857D01*
X163192856Y-75428571D01*
X163049999Y-76000000D01*
X163049999Y-76714286D01*
X163192856Y-77285714D01*
X163335713Y-77571429D01*
X163478570Y-77714286D01*
X163764284Y-77857143D01*
X164049999Y-77857143D01*
X164335713Y-77714286D01*
X164478570Y-77571429D01*
X164621427Y-77285714D01*
X164764284Y-76714286D01*
X164764284Y-76000000D01*
X164621427Y-75428571D01*
X164478570Y-75142857D01*
X164335713Y-75000000D01*
X164049999Y-74857143D01*
X160192856Y-77857143D02*
X161907141Y-77857143D01*
X161049999Y-77857143D02*
X161049999Y-74857143D01*
X161335713Y-75285714D01*
X161621427Y-75571429D01*
X161907141Y-75714286D01*
X157621427Y-74857143D02*
X158192856Y-74857143D01*
X158478570Y-75000000D01*
X158621427Y-75142857D01*
X158907141Y-75571429D01*
X159049998Y-76142857D01*
X159049998Y-77285714D01*
X158907141Y-77571429D01*
X158764284Y-77714286D01*
X158478570Y-77857143D01*
X157907141Y-77857143D01*
X157621427Y-77714286D01*
X157478570Y-77571429D01*
X157335713Y-77285714D01*
X157335713Y-76571429D01*
X157478570Y-76285714D01*
X157621427Y-76142857D01*
X157907141Y-76000000D01*
X158478570Y-76000000D01*
X158764284Y-76142857D01*
X158907141Y-76285714D01*
X159049998Y-76571429D01*
X201335714Y-82457143D02*
X201335714Y-79457143D01*
X200050000Y-82457143D02*
X200050000Y-80885714D01*
X200192857Y-80600000D01*
X200478571Y-80457143D01*
X200907143Y-80457143D01*
X201192857Y-80600000D01*
X201335714Y-80742857D01*
X199050000Y-80457143D02*
X197907143Y-80457143D01*
X198621428Y-79457143D02*
X198621428Y-82028571D01*
X198478571Y-82314286D01*
X198192857Y-82457143D01*
X197907143Y-82457143D01*
X197335714Y-80457143D02*
X196192857Y-80457143D01*
X196907142Y-79457143D02*
X196907142Y-82028571D01*
X196764285Y-82314286D01*
X196478571Y-82457143D01*
X196192857Y-82457143D01*
X195192856Y-80457143D02*
X195192856Y-83457143D01*
X195192856Y-80600000D02*
X194907142Y-80457143D01*
X194335713Y-80457143D01*
X194049999Y-80600000D01*
X193907142Y-80742857D01*
X193764285Y-81028571D01*
X193764285Y-81885714D01*
X193907142Y-82171429D01*
X194049999Y-82314286D01*
X194335713Y-82457143D01*
X194907142Y-82457143D01*
X195192856Y-82314286D01*
X192478570Y-82171429D02*
X192335713Y-82314286D01*
X192478570Y-82457143D01*
X192621427Y-82314286D01*
X192478570Y-82171429D01*
X192478570Y-82457143D01*
X192478570Y-80600000D02*
X192335713Y-80742857D01*
X192478570Y-80885714D01*
X192621427Y-80742857D01*
X192478570Y-80600000D01*
X192478570Y-80885714D01*
X188907142Y-79314286D02*
X191478571Y-83171429D01*
X185764285Y-79314286D02*
X188335714Y-83171429D01*
X184764285Y-80457143D02*
X184764285Y-83457143D01*
X184764285Y-80600000D02*
X184478571Y-80457143D01*
X183907142Y-80457143D01*
X183621428Y-80600000D01*
X183478571Y-80742857D01*
X183335714Y-81028571D01*
X183335714Y-81885714D01*
X183478571Y-82171429D01*
X183621428Y-82314286D01*
X183907142Y-82457143D01*
X184478571Y-82457143D01*
X184764285Y-82314286D01*
X181621428Y-82457143D02*
X181907142Y-82314286D01*
X182049999Y-82028571D01*
X182049999Y-79457143D01*
X179192856Y-80457143D02*
X179192856Y-82457143D01*
X180478570Y-80457143D02*
X180478570Y-82028571D01*
X180335713Y-82314286D01*
X180049999Y-82457143D01*
X179621427Y-82457143D01*
X179335713Y-82314286D01*
X179192856Y-82171429D01*
X176478570Y-80457143D02*
X176478570Y-82885714D01*
X176621427Y-83171429D01*
X176764284Y-83314286D01*
X177049999Y-83457143D01*
X177478570Y-83457143D01*
X177764284Y-83314286D01*
X176478570Y-82314286D02*
X176764284Y-82457143D01*
X177335713Y-82457143D01*
X177621427Y-82314286D01*
X177764284Y-82171429D01*
X177907141Y-81885714D01*
X177907141Y-81028571D01*
X177764284Y-80742857D01*
X177621427Y-80600000D01*
X177335713Y-80457143D01*
X176764284Y-80457143D01*
X176478570Y-80600000D01*
X173764284Y-80457143D02*
X173764284Y-82885714D01*
X173907141Y-83171429D01*
X174049998Y-83314286D01*
X174335713Y-83457143D01*
X174764284Y-83457143D01*
X175049998Y-83314286D01*
X173764284Y-82314286D02*
X174049998Y-82457143D01*
X174621427Y-82457143D01*
X174907141Y-82314286D01*
X175049998Y-82171429D01*
X175192855Y-81885714D01*
X175192855Y-81028571D01*
X175049998Y-80742857D01*
X174907141Y-80600000D01*
X174621427Y-80457143D01*
X174049998Y-80457143D01*
X173764284Y-80600000D01*
X172335712Y-82171429D02*
X172192855Y-82314286D01*
X172335712Y-82457143D01*
X172478569Y-82314286D01*
X172335712Y-82171429D01*
X172335712Y-82457143D01*
X169764284Y-82314286D02*
X170049998Y-82457143D01*
X170621427Y-82457143D01*
X170907141Y-82314286D01*
X171049998Y-82028571D01*
X171049998Y-80885714D01*
X170907141Y-80600000D01*
X170621427Y-80457143D01*
X170049998Y-80457143D01*
X169764284Y-80600000D01*
X169621427Y-80885714D01*
X169621427Y-81171429D01*
X171049998Y-81457143D01*
X167192855Y-82314286D02*
X167478569Y-82457143D01*
X168049998Y-82457143D01*
X168335712Y-82314286D01*
X168478569Y-82028571D01*
X168478569Y-80885714D01*
X168335712Y-80600000D01*
X168049998Y-80457143D01*
X167478569Y-80457143D01*
X167192855Y-80600000D01*
X167049998Y-80885714D01*
X167049998Y-81171429D01*
X168478569Y-81457143D01*
D12*
G36*
X143534482Y-64203449D02*
X137403448Y-64203449D01*
X137403448Y-69458621D01*
X138279310Y-69458621D01*
X138279310Y-65079311D01*
X142658620Y-65079311D01*
X142658620Y-69458621D01*
X138279310Y-69458621D01*
X137403448Y-69458621D01*
X137403448Y-70334483D01*
X143534482Y-70334483D01*
X143534482Y-64203449D01*
X143534482Y-64203449D01*
G37*
X143534482Y-64203449D02*
X137403448Y-64203449D01*
X137403448Y-69458621D01*
X138279310Y-69458621D01*
X138279310Y-65079311D01*
X142658620Y-65079311D01*
X142658620Y-69458621D01*
X138279310Y-69458621D01*
X137403448Y-69458621D01*
X137403448Y-70334483D01*
X143534482Y-70334483D01*
X143534482Y-64203449D01*
G36*
X146162068Y-65079311D02*
X147037931Y-65079311D01*
X147037931Y-64203449D01*
X144410344Y-64203449D01*
X144410344Y-65955173D01*
X145286206Y-65955173D01*
X145286206Y-66831035D01*
X146162068Y-66831035D01*
X146162068Y-65079311D01*
X146162068Y-65079311D01*
G37*
X146162068Y-65079311D02*
X147037931Y-65079311D01*
X147037931Y-64203449D01*
X144410344Y-64203449D01*
X144410344Y-65955173D01*
X145286206Y-65955173D01*
X145286206Y-66831035D01*
X146162068Y-66831035D01*
X146162068Y-65079311D01*
G36*
X153168965Y-65079311D02*
X152293103Y-65079311D01*
X152293103Y-65955173D01*
X153168965Y-65955173D01*
X153168965Y-65079311D01*
X153168965Y-65079311D01*
G37*
X153168965Y-65079311D02*
X152293103Y-65079311D01*
X152293103Y-65955173D01*
X153168965Y-65955173D01*
X153168965Y-65079311D01*
G36*
X154044827Y-67706897D02*
X155796551Y-67706897D01*
X155796551Y-65955173D01*
X154920689Y-65955173D01*
X154920689Y-66831035D01*
X154044827Y-66831035D01*
X154044827Y-67706897D01*
X154044827Y-67706897D01*
G37*
X154044827Y-67706897D02*
X155796551Y-67706897D01*
X155796551Y-65955173D01*
X154920689Y-65955173D01*
X154920689Y-66831035D01*
X154044827Y-66831035D01*
X154044827Y-67706897D01*
G36*
X145286206Y-66831035D02*
X144410344Y-66831035D01*
X144410344Y-67706897D01*
X145286206Y-67706897D01*
X145286206Y-66831035D01*
X145286206Y-66831035D01*
G37*
X145286206Y-66831035D02*
X144410344Y-66831035D01*
X144410344Y-67706897D01*
X145286206Y-67706897D01*
X145286206Y-66831035D01*
G36*
X155796551Y-68582759D02*
X154920689Y-68582759D01*
X154920689Y-69458621D01*
X155796551Y-69458621D01*
X155796551Y-68582759D01*
X155796551Y-68582759D01*
G37*
X155796551Y-68582759D02*
X154920689Y-68582759D01*
X154920689Y-69458621D01*
X155796551Y-69458621D01*
X155796551Y-68582759D01*
G36*
X155796551Y-70334483D02*
X154920689Y-70334483D01*
X154920689Y-71210345D01*
X155796551Y-71210345D01*
X155796551Y-70334483D01*
X155796551Y-70334483D01*
G37*
X155796551Y-70334483D02*
X154920689Y-70334483D01*
X154920689Y-71210345D01*
X155796551Y-71210345D01*
X155796551Y-70334483D01*
G36*
X155796551Y-72086207D02*
X154044827Y-72086207D01*
X154044827Y-72962069D01*
X154920689Y-72962069D01*
X154920689Y-74713794D01*
X155796551Y-74713794D01*
X155796551Y-72086207D01*
X155796551Y-72086207D01*
G37*
X155796551Y-72086207D02*
X154044827Y-72086207D01*
X154044827Y-72962069D01*
X154920689Y-72962069D01*
X154920689Y-74713794D01*
X155796551Y-74713794D01*
X155796551Y-72086207D01*
G36*
X139155172Y-74713794D02*
X138279310Y-74713794D01*
X138279310Y-72962069D01*
X137403448Y-72962069D01*
X137403448Y-75589656D01*
X139155172Y-75589656D01*
X139155172Y-74713794D01*
X139155172Y-74713794D01*
G37*
X139155172Y-74713794D02*
X138279310Y-74713794D01*
X138279310Y-72962069D01*
X137403448Y-72962069D01*
X137403448Y-75589656D01*
X139155172Y-75589656D01*
X139155172Y-74713794D01*
G36*
X154044827Y-72962069D02*
X153168965Y-72962069D01*
X153168965Y-73837932D01*
X154044827Y-73837932D01*
X154044827Y-72962069D01*
X154044827Y-72962069D01*
G37*
X154044827Y-72962069D02*
X153168965Y-72962069D01*
X153168965Y-73837932D01*
X154044827Y-73837932D01*
X154044827Y-72962069D01*
G36*
X154920689Y-74713794D02*
X153168965Y-74713794D01*
X153168965Y-75589656D01*
X154920689Y-75589656D01*
X154920689Y-74713794D01*
X154920689Y-74713794D01*
G37*
X154920689Y-74713794D02*
X153168965Y-74713794D01*
X153168965Y-75589656D01*
X154920689Y-75589656D01*
X154920689Y-74713794D01*
G36*
X148789655Y-76465518D02*
X147913793Y-76465518D01*
X147913793Y-77341380D01*
X148789655Y-77341380D01*
X148789655Y-76465518D01*
X148789655Y-76465518D01*
G37*
X148789655Y-76465518D02*
X147913793Y-76465518D01*
X147913793Y-77341380D01*
X148789655Y-77341380D01*
X148789655Y-76465518D01*
G36*
X147913793Y-77341380D02*
X147037931Y-77341380D01*
X147037931Y-78217242D01*
X147913793Y-78217242D01*
X147913793Y-77341380D01*
X147913793Y-77341380D01*
G37*
X147913793Y-77341380D02*
X147037931Y-77341380D01*
X147037931Y-78217242D01*
X147913793Y-78217242D01*
X147913793Y-77341380D01*
G36*
X146162068Y-79093104D02*
X145286206Y-79093104D01*
X145286206Y-79968966D01*
X144410344Y-79968966D01*
X144410344Y-81720690D01*
X145286206Y-81720690D01*
X145286206Y-82596552D01*
X146162068Y-82596552D01*
X146162068Y-79093104D01*
X146162068Y-79093104D01*
G37*
X146162068Y-79093104D02*
X145286206Y-79093104D01*
X145286206Y-79968966D01*
X144410344Y-79968966D01*
X144410344Y-81720690D01*
X145286206Y-81720690D01*
X145286206Y-82596552D01*
X146162068Y-82596552D01*
X146162068Y-79093104D01*
G36*
X139155172Y-72086207D02*
X140031034Y-72086207D01*
X140031034Y-71210345D01*
X137403448Y-71210345D01*
X137403448Y-72086207D01*
X138279310Y-72086207D01*
X138279310Y-72962069D01*
X139155172Y-72962069D01*
X139155172Y-72086207D01*
X139155172Y-72086207D01*
G37*
X139155172Y-72086207D02*
X140031034Y-72086207D01*
X140031034Y-71210345D01*
X137403448Y-71210345D01*
X137403448Y-72086207D01*
X138279310Y-72086207D01*
X138279310Y-72962069D01*
X139155172Y-72962069D01*
X139155172Y-72086207D01*
G36*
X154044827Y-65955173D02*
X153168965Y-65955173D01*
X153168965Y-66831035D01*
X154044827Y-66831035D01*
X154044827Y-65955173D01*
X154044827Y-65955173D01*
G37*
X154044827Y-65955173D02*
X153168965Y-65955173D01*
X153168965Y-66831035D01*
X154044827Y-66831035D01*
X154044827Y-65955173D01*
G36*
X154920689Y-70334483D02*
X154920689Y-69458621D01*
X152293103Y-69458621D01*
X152293103Y-68582759D01*
X153168965Y-68582759D01*
X153168965Y-67706897D01*
X152293103Y-67706897D01*
X152293103Y-65955173D01*
X151417241Y-65955173D01*
X151417241Y-65079311D01*
X150541379Y-65079311D01*
X150541379Y-64203449D01*
X149665517Y-64203449D01*
X149665517Y-65079311D01*
X148789655Y-65079311D01*
X148789655Y-64203449D01*
X147913793Y-64203449D01*
X147913793Y-65955173D01*
X149665517Y-65955173D01*
X149665517Y-65079311D01*
X150541379Y-65079311D01*
X150541379Y-65955173D01*
X149665517Y-65955173D01*
X147913793Y-65955173D01*
X147037931Y-65955173D01*
X147037931Y-66831035D01*
X147913793Y-66831035D01*
X147913793Y-67706897D01*
X147037931Y-67706897D01*
X147037931Y-68582759D01*
X147913793Y-68582759D01*
X147913793Y-69458621D01*
X146162068Y-69458621D01*
X146162068Y-67706897D01*
X145286206Y-67706897D01*
X145286206Y-69458621D01*
X144410344Y-69458621D01*
X144410344Y-70334483D01*
X145286206Y-70334483D01*
X145286206Y-69458621D01*
X146162068Y-69458621D01*
X146162068Y-70334483D01*
X145286206Y-70334483D01*
X144410344Y-70334483D01*
X144410344Y-71210345D01*
X141782758Y-71210345D01*
X141782758Y-72962069D01*
X142658620Y-72962069D01*
X142658620Y-72086207D01*
X143534482Y-72086207D01*
X143534482Y-72962069D01*
X142658620Y-72962069D01*
X141782758Y-72962069D01*
X139155172Y-72962069D01*
X139155172Y-73837932D01*
X143534482Y-73837932D01*
X143534482Y-74713794D01*
X142658620Y-74713794D01*
X142658620Y-75589656D01*
X144410344Y-75589656D01*
X144410344Y-73837932D01*
X145286206Y-73837932D01*
X145286206Y-72962069D01*
X144410344Y-72962069D01*
X144410344Y-71210345D01*
X146162068Y-71210345D01*
X146162068Y-70334483D01*
X147037931Y-70334483D01*
X148789655Y-70334483D01*
X148789655Y-66831035D01*
X149665517Y-66831035D01*
X150541379Y-66831035D01*
X150541379Y-65955173D01*
X151417241Y-65955173D01*
X151417241Y-66831035D01*
X150541379Y-66831035D01*
X149665517Y-66831035D01*
X149665517Y-67706897D01*
X150541379Y-67706897D01*
X150541379Y-68582759D01*
X151417241Y-68582759D01*
X151417241Y-70334483D01*
X148789655Y-70334483D01*
X147037931Y-70334483D01*
X147037931Y-71210345D01*
X146162068Y-71210345D01*
X146162068Y-72086207D01*
X147913793Y-72086207D01*
X147913793Y-71210345D01*
X150541379Y-71210345D01*
X150541379Y-72086207D01*
X149665517Y-72086207D01*
X149665517Y-72962069D01*
X150541379Y-72962069D01*
X150541379Y-72086207D01*
X151417241Y-72086207D01*
X151417241Y-72962069D01*
X150541379Y-72962069D01*
X149665517Y-72962069D01*
X148789655Y-72962069D01*
X148789655Y-72086207D01*
X147913793Y-72086207D01*
X147913793Y-72962069D01*
X146162068Y-72962069D01*
X146162068Y-73837932D01*
X147037931Y-73837932D01*
X147037931Y-74713794D01*
X145286206Y-74713794D01*
X145286206Y-75589656D01*
X144410344Y-75589656D01*
X144410344Y-79093104D01*
X145286206Y-79093104D01*
X145286206Y-76465518D01*
X146162068Y-76465518D01*
X146162068Y-77341380D01*
X147037931Y-77341380D01*
X147037931Y-74713794D01*
X147913793Y-74713794D01*
X147913793Y-75589656D01*
X148789655Y-75589656D01*
X148789655Y-74713794D01*
X149665517Y-74713794D01*
X149665517Y-73837932D01*
X151417241Y-73837932D01*
X151417241Y-74713794D01*
X149665517Y-74713794D01*
X149665517Y-75589656D01*
X152293103Y-75589656D01*
X152293103Y-73837932D01*
X151417241Y-73837932D01*
X151417241Y-72962069D01*
X153168965Y-72962069D01*
X153168965Y-71210345D01*
X152293103Y-71210345D01*
X152293103Y-72086207D01*
X151417241Y-72086207D01*
X151417241Y-70334483D01*
X154920689Y-70334483D01*
X154920689Y-70334483D01*
G37*
X154920689Y-70334483D02*
X154920689Y-69458621D01*
X152293103Y-69458621D01*
X152293103Y-68582759D01*
X153168965Y-68582759D01*
X153168965Y-67706897D01*
X152293103Y-67706897D01*
X152293103Y-65955173D01*
X151417241Y-65955173D01*
X151417241Y-65079311D01*
X150541379Y-65079311D01*
X150541379Y-64203449D01*
X149665517Y-64203449D01*
X149665517Y-65079311D01*
X148789655Y-65079311D01*
X148789655Y-64203449D01*
X147913793Y-64203449D01*
X147913793Y-65955173D01*
X149665517Y-65955173D01*
X149665517Y-65079311D01*
X150541379Y-65079311D01*
X150541379Y-65955173D01*
X149665517Y-65955173D01*
X147913793Y-65955173D01*
X147037931Y-65955173D01*
X147037931Y-66831035D01*
X147913793Y-66831035D01*
X147913793Y-67706897D01*
X147037931Y-67706897D01*
X147037931Y-68582759D01*
X147913793Y-68582759D01*
X147913793Y-69458621D01*
X146162068Y-69458621D01*
X146162068Y-67706897D01*
X145286206Y-67706897D01*
X145286206Y-69458621D01*
X144410344Y-69458621D01*
X144410344Y-70334483D01*
X145286206Y-70334483D01*
X145286206Y-69458621D01*
X146162068Y-69458621D01*
X146162068Y-70334483D01*
X145286206Y-70334483D01*
X144410344Y-70334483D01*
X144410344Y-71210345D01*
X141782758Y-71210345D01*
X141782758Y-72962069D01*
X142658620Y-72962069D01*
X142658620Y-72086207D01*
X143534482Y-72086207D01*
X143534482Y-72962069D01*
X142658620Y-72962069D01*
X141782758Y-72962069D01*
X139155172Y-72962069D01*
X139155172Y-73837932D01*
X143534482Y-73837932D01*
X143534482Y-74713794D01*
X142658620Y-74713794D01*
X142658620Y-75589656D01*
X144410344Y-75589656D01*
X144410344Y-73837932D01*
X145286206Y-73837932D01*
X145286206Y-72962069D01*
X144410344Y-72962069D01*
X144410344Y-71210345D01*
X146162068Y-71210345D01*
X146162068Y-70334483D01*
X147037931Y-70334483D01*
X148789655Y-70334483D01*
X148789655Y-66831035D01*
X149665517Y-66831035D01*
X150541379Y-66831035D01*
X150541379Y-65955173D01*
X151417241Y-65955173D01*
X151417241Y-66831035D01*
X150541379Y-66831035D01*
X149665517Y-66831035D01*
X149665517Y-67706897D01*
X150541379Y-67706897D01*
X150541379Y-68582759D01*
X151417241Y-68582759D01*
X151417241Y-70334483D01*
X148789655Y-70334483D01*
X147037931Y-70334483D01*
X147037931Y-71210345D01*
X146162068Y-71210345D01*
X146162068Y-72086207D01*
X147913793Y-72086207D01*
X147913793Y-71210345D01*
X150541379Y-71210345D01*
X150541379Y-72086207D01*
X149665517Y-72086207D01*
X149665517Y-72962069D01*
X150541379Y-72962069D01*
X150541379Y-72086207D01*
X151417241Y-72086207D01*
X151417241Y-72962069D01*
X150541379Y-72962069D01*
X149665517Y-72962069D01*
X148789655Y-72962069D01*
X148789655Y-72086207D01*
X147913793Y-72086207D01*
X147913793Y-72962069D01*
X146162068Y-72962069D01*
X146162068Y-73837932D01*
X147037931Y-73837932D01*
X147037931Y-74713794D01*
X145286206Y-74713794D01*
X145286206Y-75589656D01*
X144410344Y-75589656D01*
X144410344Y-79093104D01*
X145286206Y-79093104D01*
X145286206Y-76465518D01*
X146162068Y-76465518D01*
X146162068Y-77341380D01*
X147037931Y-77341380D01*
X147037931Y-74713794D01*
X147913793Y-74713794D01*
X147913793Y-75589656D01*
X148789655Y-75589656D01*
X148789655Y-74713794D01*
X149665517Y-74713794D01*
X149665517Y-73837932D01*
X151417241Y-73837932D01*
X151417241Y-74713794D01*
X149665517Y-74713794D01*
X149665517Y-75589656D01*
X152293103Y-75589656D01*
X152293103Y-73837932D01*
X151417241Y-73837932D01*
X151417241Y-72962069D01*
X153168965Y-72962069D01*
X153168965Y-71210345D01*
X152293103Y-71210345D01*
X152293103Y-72086207D01*
X151417241Y-72086207D01*
X151417241Y-70334483D01*
X154920689Y-70334483D01*
G36*
X154920689Y-64203449D02*
X154044827Y-64203449D01*
X154044827Y-65079311D01*
X154920689Y-65079311D01*
X154920689Y-64203449D01*
X154920689Y-64203449D01*
G37*
X154920689Y-64203449D02*
X154044827Y-64203449D01*
X154044827Y-65079311D01*
X154920689Y-65079311D01*
X154920689Y-64203449D01*
G36*
X140906896Y-74713794D02*
X140031034Y-74713794D01*
X140031034Y-75589656D01*
X140906896Y-75589656D01*
X140906896Y-74713794D01*
X140906896Y-74713794D01*
G37*
X140906896Y-74713794D02*
X140031034Y-74713794D01*
X140031034Y-75589656D01*
X140906896Y-75589656D01*
X140906896Y-74713794D01*
G36*
X143534482Y-76465518D02*
X137403448Y-76465518D01*
X137403448Y-81720690D01*
X138279310Y-81720690D01*
X138279310Y-77341380D01*
X142658620Y-77341380D01*
X142658620Y-81720690D01*
X138279310Y-81720690D01*
X137403448Y-81720690D01*
X137403448Y-82596552D01*
X143534482Y-82596552D01*
X143534482Y-76465518D01*
X143534482Y-76465518D01*
G37*
X143534482Y-76465518D02*
X137403448Y-76465518D01*
X137403448Y-81720690D01*
X138279310Y-81720690D01*
X138279310Y-77341380D01*
X142658620Y-77341380D01*
X142658620Y-81720690D01*
X138279310Y-81720690D01*
X137403448Y-81720690D01*
X137403448Y-82596552D01*
X143534482Y-82596552D01*
X143534482Y-76465518D01*
G36*
X155796551Y-76465518D02*
X149665517Y-76465518D01*
X149665517Y-81720690D01*
X150541379Y-81720690D01*
X150541379Y-77341380D01*
X154920689Y-77341380D01*
X154920689Y-81720690D01*
X150541379Y-81720690D01*
X149665517Y-81720690D01*
X149665517Y-82596552D01*
X155796551Y-82596552D01*
X155796551Y-76465518D01*
X155796551Y-76465518D01*
G37*
X155796551Y-76465518D02*
X149665517Y-76465518D01*
X149665517Y-81720690D01*
X150541379Y-81720690D01*
X150541379Y-77341380D01*
X154920689Y-77341380D01*
X154920689Y-81720690D01*
X150541379Y-81720690D01*
X149665517Y-81720690D01*
X149665517Y-82596552D01*
X155796551Y-82596552D01*
X155796551Y-76465518D01*
G36*
X148789655Y-79968966D02*
X147913793Y-79968966D01*
X147913793Y-80844828D01*
X148789655Y-80844828D01*
X148789655Y-79968966D01*
X148789655Y-79968966D01*
G37*
X148789655Y-79968966D02*
X147913793Y-79968966D01*
X147913793Y-80844828D01*
X148789655Y-80844828D01*
X148789655Y-79968966D01*
G36*
X147913793Y-80844828D02*
X147037931Y-80844828D01*
X147037931Y-81720690D01*
X147913793Y-81720690D01*
X147913793Y-80844828D01*
X147913793Y-80844828D01*
G37*
X147913793Y-80844828D02*
X147037931Y-80844828D01*
X147037931Y-81720690D01*
X147913793Y-81720690D01*
X147913793Y-80844828D01*
G36*
X148789655Y-81720690D02*
X147913793Y-81720690D01*
X147913793Y-82596552D01*
X148789655Y-82596552D01*
X148789655Y-81720690D01*
X148789655Y-81720690D01*
G37*
X148789655Y-81720690D02*
X147913793Y-81720690D01*
X147913793Y-82596552D01*
X148789655Y-82596552D01*
X148789655Y-81720690D01*
G36*
X141782758Y-65955173D02*
X139155172Y-65955173D01*
X139155172Y-68582759D01*
X141782758Y-68582759D01*
X141782758Y-65955173D01*
X141782758Y-65955173D01*
G37*
X141782758Y-65955173D02*
X139155172Y-65955173D01*
X139155172Y-68582759D01*
X141782758Y-68582759D01*
X141782758Y-65955173D01*
G36*
X146162068Y-72086207D02*
X145286206Y-72086207D01*
X145286206Y-72962069D01*
X146162068Y-72962069D01*
X146162068Y-72086207D01*
X146162068Y-72086207D01*
G37*
X146162068Y-72086207D02*
X145286206Y-72086207D01*
X145286206Y-72962069D01*
X146162068Y-72962069D01*
X146162068Y-72086207D01*
G36*
X141782758Y-78217242D02*
X139155172Y-78217242D01*
X139155172Y-80844828D01*
X141782758Y-80844828D01*
X141782758Y-78217242D01*
X141782758Y-78217242D01*
G37*
X141782758Y-78217242D02*
X139155172Y-78217242D01*
X139155172Y-80844828D01*
X141782758Y-80844828D01*
X141782758Y-78217242D01*
G36*
X154044827Y-78217242D02*
X151417241Y-78217242D01*
X151417241Y-80844828D01*
X154044827Y-80844828D01*
X154044827Y-78217242D01*
X154044827Y-78217242D01*
G37*
X154044827Y-78217242D02*
X151417241Y-78217242D01*
X151417241Y-80844828D01*
X154044827Y-80844828D01*
X154044827Y-78217242D01*
G36*
X219027706Y-84739276D02*
X219350307Y-84656359D01*
X219755754Y-84527131D01*
X220209975Y-84364209D01*
X220678898Y-84180212D01*
X221128453Y-83987756D01*
X221404162Y-83859240D01*
X222507519Y-83252011D01*
X223533247Y-82542336D01*
X224475373Y-81737016D01*
X225327924Y-80842853D01*
X226084926Y-79866647D01*
X226740407Y-78815201D01*
X227288393Y-77695316D01*
X227646501Y-76751310D01*
X227987969Y-75530100D01*
X228202964Y-74310793D01*
X228295803Y-73100158D01*
X228270804Y-71904968D01*
X228132284Y-70731993D01*
X227884561Y-69588005D01*
X227531953Y-68479775D01*
X227078777Y-67414073D01*
X226529351Y-66397671D01*
X225887991Y-65437340D01*
X225159017Y-64539850D01*
X224346744Y-63711974D01*
X223455491Y-62960481D01*
X222489576Y-62292143D01*
X221453315Y-61713732D01*
X220351027Y-61232017D01*
X219187029Y-60853771D01*
X217965638Y-60585764D01*
X217276546Y-60488438D01*
X216970279Y-60461645D01*
X216584773Y-60439818D01*
X216171695Y-60425361D01*
X215819974Y-60420641D01*
X214952577Y-60420104D01*
X214952577Y-64478866D01*
X214805284Y-64479452D01*
X214629722Y-64507185D01*
X214367930Y-64581561D01*
X214050849Y-64690797D01*
X213709419Y-64823111D01*
X213374581Y-64966723D01*
X213077274Y-65109851D01*
X212915308Y-65199119D01*
X212538583Y-65457328D01*
X212130721Y-65794339D01*
X211727268Y-66176283D01*
X211363776Y-66569290D01*
X211075793Y-66939491D01*
X211052663Y-66973732D01*
X210622457Y-67735773D01*
X210310975Y-68550244D01*
X210116945Y-69420832D01*
X210067918Y-69828495D01*
X210024725Y-70305155D01*
X213185052Y-70305155D01*
X213185052Y-73316495D01*
X214625258Y-73316495D01*
X214625258Y-70305155D01*
X217309278Y-70305155D01*
X217309278Y-73316495D01*
X218684021Y-73316495D01*
X218684021Y-70305155D01*
X221891753Y-70305155D01*
X221891753Y-70084607D01*
X221872898Y-69817494D01*
X221821910Y-69468064D01*
X221747154Y-69078504D01*
X221656992Y-68691006D01*
X221559789Y-68347757D01*
X221529260Y-68256146D01*
X221213027Y-67532161D01*
X220782727Y-66850775D01*
X220264291Y-66234708D01*
X219630684Y-65648338D01*
X218947198Y-65168692D01*
X218226714Y-64803320D01*
X217482115Y-64559769D01*
X217358376Y-64531930D01*
X216981959Y-64452671D01*
X216981959Y-62518222D01*
X217161985Y-62547558D01*
X217902362Y-62680611D01*
X218545441Y-62825698D01*
X219124838Y-62992923D01*
X219674166Y-63192389D01*
X220227042Y-63434199D01*
X220418815Y-63526390D01*
X221446672Y-64100749D01*
X222387152Y-64771138D01*
X223236663Y-65532981D01*
X223991614Y-66381699D01*
X224648410Y-67312713D01*
X225203461Y-68321445D01*
X225653174Y-69403318D01*
X225993956Y-70553752D01*
X226020249Y-70665207D01*
X226080943Y-70975112D01*
X226126931Y-71325820D01*
X226160770Y-71744170D01*
X226185016Y-72256999D01*
X226191759Y-72465464D01*
X226203125Y-72934742D01*
X226205060Y-73307496D01*
X226195826Y-73617904D01*
X226173683Y-73900143D01*
X226136893Y-74188391D01*
X226088929Y-74486422D01*
X225830472Y-75619957D01*
X225453202Y-76703895D01*
X224962027Y-77730765D01*
X224361855Y-78693094D01*
X223657594Y-79583412D01*
X222854153Y-80394247D01*
X221956439Y-81118129D01*
X221549598Y-81396298D01*
X221013372Y-81718798D01*
X220434199Y-82022151D01*
X219857668Y-82284179D01*
X219329366Y-82482708D01*
X219290737Y-82495124D01*
X218817298Y-82645104D01*
X218816123Y-83714094D01*
X218814949Y-84783084D01*
X219027706Y-84739276D01*
X219027706Y-84739276D01*
G37*
X219027706Y-84739276D02*
X219350307Y-84656359D01*
X219755754Y-84527131D01*
X220209975Y-84364209D01*
X220678898Y-84180212D01*
X221128453Y-83987756D01*
X221404162Y-83859240D01*
X222507519Y-83252011D01*
X223533247Y-82542336D01*
X224475373Y-81737016D01*
X225327924Y-80842853D01*
X226084926Y-79866647D01*
X226740407Y-78815201D01*
X227288393Y-77695316D01*
X227646501Y-76751310D01*
X227987969Y-75530100D01*
X228202964Y-74310793D01*
X228295803Y-73100158D01*
X228270804Y-71904968D01*
X228132284Y-70731993D01*
X227884561Y-69588005D01*
X227531953Y-68479775D01*
X227078777Y-67414073D01*
X226529351Y-66397671D01*
X225887991Y-65437340D01*
X225159017Y-64539850D01*
X224346744Y-63711974D01*
X223455491Y-62960481D01*
X222489576Y-62292143D01*
X221453315Y-61713732D01*
X220351027Y-61232017D01*
X219187029Y-60853771D01*
X217965638Y-60585764D01*
X217276546Y-60488438D01*
X216970279Y-60461645D01*
X216584773Y-60439818D01*
X216171695Y-60425361D01*
X215819974Y-60420641D01*
X214952577Y-60420104D01*
X214952577Y-64478866D01*
X214805284Y-64479452D01*
X214629722Y-64507185D01*
X214367930Y-64581561D01*
X214050849Y-64690797D01*
X213709419Y-64823111D01*
X213374581Y-64966723D01*
X213077274Y-65109851D01*
X212915308Y-65199119D01*
X212538583Y-65457328D01*
X212130721Y-65794339D01*
X211727268Y-66176283D01*
X211363776Y-66569290D01*
X211075793Y-66939491D01*
X211052663Y-66973732D01*
X210622457Y-67735773D01*
X210310975Y-68550244D01*
X210116945Y-69420832D01*
X210067918Y-69828495D01*
X210024725Y-70305155D01*
X213185052Y-70305155D01*
X213185052Y-73316495D01*
X214625258Y-73316495D01*
X214625258Y-70305155D01*
X217309278Y-70305155D01*
X217309278Y-73316495D01*
X218684021Y-73316495D01*
X218684021Y-70305155D01*
X221891753Y-70305155D01*
X221891753Y-70084607D01*
X221872898Y-69817494D01*
X221821910Y-69468064D01*
X221747154Y-69078504D01*
X221656992Y-68691006D01*
X221559789Y-68347757D01*
X221529260Y-68256146D01*
X221213027Y-67532161D01*
X220782727Y-66850775D01*
X220264291Y-66234708D01*
X219630684Y-65648338D01*
X218947198Y-65168692D01*
X218226714Y-64803320D01*
X217482115Y-64559769D01*
X217358376Y-64531930D01*
X216981959Y-64452671D01*
X216981959Y-62518222D01*
X217161985Y-62547558D01*
X217902362Y-62680611D01*
X218545441Y-62825698D01*
X219124838Y-62992923D01*
X219674166Y-63192389D01*
X220227042Y-63434199D01*
X220418815Y-63526390D01*
X221446672Y-64100749D01*
X222387152Y-64771138D01*
X223236663Y-65532981D01*
X223991614Y-66381699D01*
X224648410Y-67312713D01*
X225203461Y-68321445D01*
X225653174Y-69403318D01*
X225993956Y-70553752D01*
X226020249Y-70665207D01*
X226080943Y-70975112D01*
X226126931Y-71325820D01*
X226160770Y-71744170D01*
X226185016Y-72256999D01*
X226191759Y-72465464D01*
X226203125Y-72934742D01*
X226205060Y-73307496D01*
X226195826Y-73617904D01*
X226173683Y-73900143D01*
X226136893Y-74188391D01*
X226088929Y-74486422D01*
X225830472Y-75619957D01*
X225453202Y-76703895D01*
X224962027Y-77730765D01*
X224361855Y-78693094D01*
X223657594Y-79583412D01*
X222854153Y-80394247D01*
X221956439Y-81118129D01*
X221549598Y-81396298D01*
X221013372Y-81718798D01*
X220434199Y-82022151D01*
X219857668Y-82284179D01*
X219329366Y-82482708D01*
X219290737Y-82495124D01*
X218817298Y-82645104D01*
X218816123Y-83714094D01*
X218814949Y-84783084D01*
X219027706Y-84739276D01*
G36*
X216997366Y-83104620D02*
X217014691Y-81091774D01*
X217484621Y-80972456D01*
X218289060Y-80702757D01*
X219034074Y-80322505D01*
X219711321Y-79841697D01*
X220312463Y-79270329D01*
X220829159Y-78618399D01*
X221253070Y-77895903D01*
X221575855Y-77112839D01*
X221789175Y-76279203D01*
X221864532Y-75722294D01*
X221909812Y-75214949D01*
X210025877Y-75214949D01*
X210072195Y-75745928D01*
X210209082Y-76599804D01*
X210461931Y-77411296D01*
X210822127Y-78170119D01*
X211281052Y-78865985D01*
X211830091Y-79488610D01*
X212460629Y-80027705D01*
X213164049Y-80472984D01*
X213931735Y-80814162D01*
X214449915Y-80972401D01*
X214919845Y-81091664D01*
X214937998Y-82054798D01*
X214956151Y-83017933D01*
X214610678Y-82973607D01*
X213801640Y-82827852D01*
X212955233Y-82599380D01*
X212120880Y-82303503D01*
X211384794Y-81974119D01*
X210374723Y-81395533D01*
X209446741Y-80717922D01*
X208606220Y-79948360D01*
X207858531Y-79093919D01*
X207209045Y-78161672D01*
X206663135Y-77158692D01*
X206226172Y-76092050D01*
X205903528Y-74968821D01*
X205840036Y-74673416D01*
X205748513Y-74064531D01*
X205696001Y-73374578D01*
X205682500Y-72647472D01*
X205708011Y-71927125D01*
X205772532Y-71257450D01*
X205840036Y-70846689D01*
X206132202Y-69711654D01*
X206541491Y-68626158D01*
X207062980Y-67599097D01*
X207691745Y-66639366D01*
X208422865Y-65755861D01*
X208949234Y-65227991D01*
X209577171Y-64698621D01*
X210287044Y-64196483D01*
X211043419Y-63742613D01*
X211810866Y-63358045D01*
X212553952Y-63063815D01*
X212644974Y-63033919D01*
X213119588Y-62881962D01*
X213119588Y-61814692D01*
X213118498Y-61410565D01*
X213112718Y-61120343D01*
X213098483Y-60927008D01*
X213072025Y-60813543D01*
X213029579Y-60762927D01*
X212967380Y-60758142D01*
X212890464Y-60779263D01*
X212805589Y-60806676D01*
X212622915Y-60865413D01*
X212369322Y-60946836D01*
X212072165Y-61042158D01*
X210909993Y-61481978D01*
X209811173Y-62032389D01*
X208781662Y-62686301D01*
X207827418Y-63436628D01*
X206954398Y-64276282D01*
X206168560Y-65198175D01*
X205475862Y-66195219D01*
X204882261Y-67260326D01*
X204393715Y-68386409D01*
X204016181Y-69566380D01*
X203755618Y-70793151D01*
X203728817Y-70968196D01*
X203675657Y-71459237D01*
X203642564Y-72038573D01*
X203629539Y-72665120D01*
X203636581Y-73297793D01*
X203663690Y-73895505D01*
X203710867Y-74417172D01*
X203728817Y-74551908D01*
X203973499Y-75789128D01*
X204336132Y-76977745D01*
X204810756Y-78111448D01*
X205391412Y-79183923D01*
X206072140Y-80188858D01*
X206846982Y-81119940D01*
X207709977Y-81970857D01*
X208655166Y-82735297D01*
X209676590Y-83406946D01*
X210768291Y-83979493D01*
X211924307Y-84446624D01*
X213138680Y-84802027D01*
X213477503Y-84878372D01*
X213798578Y-84941248D01*
X214105766Y-84988918D01*
X214429988Y-85024305D01*
X214802164Y-85050331D01*
X215253214Y-85069917D01*
X215622624Y-85081099D01*
X216980041Y-85117464D01*
X216997366Y-83104620D01*
X216997366Y-83104620D01*
G37*
X216997366Y-83104620D02*
X217014691Y-81091774D01*
X217484621Y-80972456D01*
X218289060Y-80702757D01*
X219034074Y-80322505D01*
X219711321Y-79841697D01*
X220312463Y-79270329D01*
X220829159Y-78618399D01*
X221253070Y-77895903D01*
X221575855Y-77112839D01*
X221789175Y-76279203D01*
X221864532Y-75722294D01*
X221909812Y-75214949D01*
X210025877Y-75214949D01*
X210072195Y-75745928D01*
X210209082Y-76599804D01*
X210461931Y-77411296D01*
X210822127Y-78170119D01*
X211281052Y-78865985D01*
X211830091Y-79488610D01*
X212460629Y-80027705D01*
X213164049Y-80472984D01*
X213931735Y-80814162D01*
X214449915Y-80972401D01*
X214919845Y-81091664D01*
X214937998Y-82054798D01*
X214956151Y-83017933D01*
X214610678Y-82973607D01*
X213801640Y-82827852D01*
X212955233Y-82599380D01*
X212120880Y-82303503D01*
X211384794Y-81974119D01*
X210374723Y-81395533D01*
X209446741Y-80717922D01*
X208606220Y-79948360D01*
X207858531Y-79093919D01*
X207209045Y-78161672D01*
X206663135Y-77158692D01*
X206226172Y-76092050D01*
X205903528Y-74968821D01*
X205840036Y-74673416D01*
X205748513Y-74064531D01*
X205696001Y-73374578D01*
X205682500Y-72647472D01*
X205708011Y-71927125D01*
X205772532Y-71257450D01*
X205840036Y-70846689D01*
X206132202Y-69711654D01*
X206541491Y-68626158D01*
X207062980Y-67599097D01*
X207691745Y-66639366D01*
X208422865Y-65755861D01*
X208949234Y-65227991D01*
X209577171Y-64698621D01*
X210287044Y-64196483D01*
X211043419Y-63742613D01*
X211810866Y-63358045D01*
X212553952Y-63063815D01*
X212644974Y-63033919D01*
X213119588Y-62881962D01*
X213119588Y-61814692D01*
X213118498Y-61410565D01*
X213112718Y-61120343D01*
X213098483Y-60927008D01*
X213072025Y-60813543D01*
X213029579Y-60762927D01*
X212967380Y-60758142D01*
X212890464Y-60779263D01*
X212805589Y-60806676D01*
X212622915Y-60865413D01*
X212369322Y-60946836D01*
X212072165Y-61042158D01*
X210909993Y-61481978D01*
X209811173Y-62032389D01*
X208781662Y-62686301D01*
X207827418Y-63436628D01*
X206954398Y-64276282D01*
X206168560Y-65198175D01*
X205475862Y-66195219D01*
X204882261Y-67260326D01*
X204393715Y-68386409D01*
X204016181Y-69566380D01*
X203755618Y-70793151D01*
X203728817Y-70968196D01*
X203675657Y-71459237D01*
X203642564Y-72038573D01*
X203629539Y-72665120D01*
X203636581Y-73297793D01*
X203663690Y-73895505D01*
X203710867Y-74417172D01*
X203728817Y-74551908D01*
X203973499Y-75789128D01*
X204336132Y-76977745D01*
X204810756Y-78111448D01*
X205391412Y-79183923D01*
X206072140Y-80188858D01*
X206846982Y-81119940D01*
X207709977Y-81970857D01*
X208655166Y-82735297D01*
X209676590Y-83406946D01*
X210768291Y-83979493D01*
X211924307Y-84446624D01*
X213138680Y-84802027D01*
X213477503Y-84878372D01*
X213798578Y-84941248D01*
X214105766Y-84988918D01*
X214429988Y-85024305D01*
X214802164Y-85050331D01*
X215253214Y-85069917D01*
X215622624Y-85081099D01*
X216980041Y-85117464D01*
X216997366Y-83104620D01*
M02*
