G04 #@! TF.FileFunction,Paste,Top*
%FSLAX46Y46*%
G04 Gerber Fmt 4.6, Leading zero omitted, Abs format (unit mm)*
G04 Created by KiCad (PCBNEW 4.0.2+e4-6225~38~ubuntu14.04.1-stable) date Tue 02 Aug 2016 10:34:59 AM PDT*
%MOMM*%
G01*
G04 APERTURE LIST*
%ADD10C,0.100000*%
%ADD11R,0.750000X0.800000*%
%ADD12R,1.250000X1.000000*%
%ADD13R,1.500000X3.600000*%
%ADD14R,0.500000X0.900000*%
%ADD15R,1.000000X0.700000*%
%ADD16R,0.800000X0.750000*%
%ADD17R,0.300000X1.500000*%
%ADD18R,1.500000X0.300000*%
%ADD19R,5.600700X2.100580*%
%ADD20R,1.198880X1.198880*%
%ADD21R,0.900000X0.500000*%
%ADD22R,0.800100X0.800100*%
G04 APERTURE END LIST*
D10*
D11*
X198450000Y-61850000D03*
X198450000Y-60350000D03*
D12*
X199900000Y-64900000D03*
X199900000Y-66900000D03*
D13*
X193975000Y-65300000D03*
X197025000Y-65300000D03*
D14*
X198100000Y-56600000D03*
X196600000Y-56600000D03*
X196600000Y-58300000D03*
X195100000Y-58300000D03*
D15*
X194000000Y-59950000D03*
X194000000Y-60900000D03*
X194000000Y-61850000D03*
X196600000Y-61850000D03*
X196600000Y-59950000D03*
D12*
X202100000Y-64900000D03*
X202100000Y-66900000D03*
D16*
X126550000Y-47550000D03*
X128050000Y-47550000D03*
D11*
X133450000Y-67350000D03*
X133450000Y-68850000D03*
X119500000Y-59250000D03*
X119500000Y-57750000D03*
X140500000Y-53750000D03*
X140500000Y-52250000D03*
D16*
X112900000Y-49050000D03*
X114400000Y-49050000D03*
X122600000Y-42000000D03*
X124100000Y-42000000D03*
D11*
X132450000Y-47450000D03*
X132450000Y-45950000D03*
X119450000Y-51250000D03*
X119450000Y-49750000D03*
D14*
X146000000Y-52450000D03*
X147500000Y-52450000D03*
D17*
X135300000Y-49550000D03*
X134800000Y-49550000D03*
X134300000Y-49550000D03*
X133800000Y-49550000D03*
X133300000Y-49550000D03*
X132800000Y-49550000D03*
X132300000Y-49550000D03*
X131800000Y-49550000D03*
X131300000Y-49550000D03*
X130800000Y-49550000D03*
X130300000Y-49550000D03*
X129800000Y-49550000D03*
X129300000Y-49550000D03*
X128800000Y-49550000D03*
X128300000Y-49550000D03*
X127800000Y-49550000D03*
X127300000Y-49550000D03*
X126800000Y-49550000D03*
X126300000Y-49550000D03*
X125800000Y-49550000D03*
X125300000Y-49550000D03*
X124800000Y-49550000D03*
X124300000Y-49550000D03*
X123800000Y-49550000D03*
X123300000Y-49550000D03*
D18*
X121600000Y-51250000D03*
X121600000Y-51750000D03*
X121600000Y-52250000D03*
X121600000Y-52750000D03*
X121600000Y-53250000D03*
X121600000Y-53750000D03*
X121600000Y-54250000D03*
X121600000Y-54750000D03*
X121600000Y-55250000D03*
X121600000Y-55750000D03*
X121600000Y-56250000D03*
X121600000Y-56750000D03*
X121600000Y-57250000D03*
X121600000Y-57750000D03*
X121600000Y-58250000D03*
X121600000Y-58750000D03*
X121600000Y-59250000D03*
X121600000Y-59750000D03*
X121600000Y-60250000D03*
X121600000Y-60750000D03*
X121600000Y-61250000D03*
X121600000Y-61750000D03*
X121600000Y-62250000D03*
X121600000Y-62750000D03*
X121600000Y-63250000D03*
D17*
X123300000Y-64950000D03*
X123800000Y-64950000D03*
X124300000Y-64950000D03*
X124800000Y-64950000D03*
X125300000Y-64950000D03*
X125800000Y-64950000D03*
X126300000Y-64950000D03*
X126800000Y-64950000D03*
X127300000Y-64950000D03*
X127800000Y-64950000D03*
X128300000Y-64950000D03*
X128800000Y-64950000D03*
X129300000Y-64950000D03*
X129800000Y-64950000D03*
X130300000Y-64950000D03*
X130800000Y-64950000D03*
X131300000Y-64950000D03*
X131800000Y-64950000D03*
X132300000Y-64950000D03*
X132800000Y-64950000D03*
X133300000Y-64950000D03*
X133800000Y-64950000D03*
X134300000Y-64950000D03*
X134800000Y-64950000D03*
X135300000Y-64950000D03*
D18*
X137000000Y-63250000D03*
X137000000Y-62750000D03*
X137000000Y-62250000D03*
X137000000Y-61750000D03*
X137000000Y-61250000D03*
X137000000Y-60750000D03*
X137000000Y-60250000D03*
X137000000Y-59750000D03*
X137000000Y-59250000D03*
X137000000Y-58750000D03*
X137000000Y-58250000D03*
X137000000Y-57750000D03*
X137000000Y-57250000D03*
X137000000Y-56750000D03*
X137000000Y-56250000D03*
X137000000Y-55750000D03*
X137000000Y-55250000D03*
X137000000Y-54750000D03*
X137000000Y-54250000D03*
X137000000Y-53750000D03*
X137000000Y-53250000D03*
X137000000Y-52750000D03*
X137000000Y-52250000D03*
X137000000Y-51750000D03*
X137000000Y-51250000D03*
D12*
X228250000Y-84800000D03*
X228250000Y-86800000D03*
X228250000Y-79700000D03*
X228250000Y-77700000D03*
D11*
X130800000Y-45950000D03*
X130800000Y-47450000D03*
D19*
X114401140Y-45500000D03*
X124098860Y-45500000D03*
D20*
X196000000Y-49049020D03*
X196000000Y-46950980D03*
X193000000Y-49049020D03*
X193000000Y-46950980D03*
X201000000Y-46349020D03*
X201000000Y-44250980D03*
X204000000Y-46349020D03*
X204000000Y-44250980D03*
X207000000Y-46349020D03*
X207000000Y-44250980D03*
X210000000Y-46349020D03*
X210000000Y-44250980D03*
D21*
X201000000Y-49500000D03*
X201000000Y-48000000D03*
X204000000Y-49500000D03*
X204000000Y-48000000D03*
X207000000Y-49500000D03*
X207000000Y-48000000D03*
X210000000Y-49500000D03*
X210000000Y-48000000D03*
X196000000Y-52300000D03*
X196000000Y-50800000D03*
X193000000Y-52300000D03*
X193000000Y-50800000D03*
D11*
X230250000Y-55400000D03*
X230250000Y-56900000D03*
X219000000Y-48050000D03*
X219000000Y-46550000D03*
X175150000Y-68850000D03*
X175150000Y-70350000D03*
D21*
X177350000Y-70350000D03*
X177350000Y-68850000D03*
D22*
X102550760Y-46200000D03*
X102550760Y-44300000D03*
X100551780Y-45250000D03*
D14*
X99050000Y-53900000D03*
X97550000Y-53900000D03*
X99050000Y-52250000D03*
X97550000Y-52250000D03*
D16*
X102850000Y-49500000D03*
X104350000Y-49500000D03*
X99050000Y-56550000D03*
X100550000Y-56550000D03*
D21*
X100550000Y-48000000D03*
X100550000Y-49500000D03*
M02*
