G04 #@! TF.FileFunction,Soldermask,Bot*
%FSLAX46Y46*%
G04 Gerber Fmt 4.6, Leading zero omitted, Abs format (unit mm)*
G04 Created by KiCad (PCBNEW 4.0.3+e1-6302~38~ubuntu14.04.1-stable) date Wed Sep 28 21:03:55 2016*
%MOMM*%
%LPD*%
G01*
G04 APERTURE LIST*
%ADD10C,0.100000*%
%ADD11C,2.350000*%
%ADD12C,1.230000*%
%ADD13C,1.524000*%
%ADD14C,2.700020*%
%ADD15C,3.000000*%
%ADD16C,2.000000*%
%ADD17C,1.501140*%
%ADD18C,2.999740*%
%ADD19C,2.750000*%
%ADD20R,0.950000X1.200000*%
%ADD21R,0.900000X0.500000*%
%ADD22R,2.000000X0.900000*%
%ADD23R,0.450000X0.900000*%
%ADD24R,1.500000X0.900000*%
%ADD25C,3.600000*%
%ADD26R,1.727200X2.032000*%
%ADD27O,1.727200X2.032000*%
%ADD28C,1.016000*%
G04 APERTURE END LIST*
D10*
D11*
X160000000Y-118000000D03*
X160000000Y-108850000D03*
D12*
X158750000Y-129650000D03*
X156750000Y-128650000D03*
X158750000Y-127650000D03*
X156750000Y-126650000D03*
X158750000Y-125650000D03*
X156750000Y-124650000D03*
X158750000Y-123650000D03*
X156750000Y-122650000D03*
X158750000Y-121650000D03*
X156750000Y-120650000D03*
X158750000Y-119650000D03*
X156750000Y-116650000D03*
X158750000Y-115650000D03*
X156750000Y-114650000D03*
X158750000Y-113650000D03*
X156750000Y-112650000D03*
X158750000Y-111650000D03*
X156750000Y-110650000D03*
X161250000Y-129650000D03*
X163250000Y-128650000D03*
X161250000Y-127650000D03*
X163250000Y-126650000D03*
X161250000Y-125650000D03*
X163250000Y-124650000D03*
X161250000Y-123650000D03*
X163250000Y-122650000D03*
X161250000Y-121650000D03*
X163250000Y-120650000D03*
X161250000Y-119650000D03*
X163250000Y-116650000D03*
X161250000Y-115650000D03*
X163250000Y-114650000D03*
X161250000Y-113650000D03*
X163250000Y-112650000D03*
X161250000Y-111650000D03*
X163250000Y-110650000D03*
D11*
X170000000Y-118000000D03*
X170000000Y-108850000D03*
D12*
X168750000Y-129650000D03*
X166750000Y-128650000D03*
X168750000Y-127650000D03*
X166750000Y-126650000D03*
X168750000Y-125650000D03*
X166750000Y-124650000D03*
X168750000Y-123650000D03*
X166750000Y-122650000D03*
X168750000Y-121650000D03*
X166750000Y-120650000D03*
X168750000Y-119650000D03*
X166750000Y-116650000D03*
X168750000Y-115650000D03*
X166750000Y-114650000D03*
X168750000Y-113650000D03*
X166750000Y-112650000D03*
X168750000Y-111650000D03*
X166750000Y-110650000D03*
X171250000Y-129650000D03*
X173250000Y-128650000D03*
X171250000Y-127650000D03*
X173250000Y-126650000D03*
X171250000Y-125650000D03*
X173250000Y-124650000D03*
X171250000Y-123650000D03*
X173250000Y-122650000D03*
X171250000Y-121650000D03*
X173250000Y-120650000D03*
X171250000Y-119650000D03*
X173250000Y-116650000D03*
X171250000Y-115650000D03*
X173250000Y-114650000D03*
X171250000Y-113650000D03*
X173250000Y-112650000D03*
X171250000Y-111650000D03*
X173250000Y-110650000D03*
D11*
X180000000Y-118000000D03*
X180000000Y-108850000D03*
D12*
X178750000Y-129650000D03*
X176750000Y-128650000D03*
X178750000Y-127650000D03*
X176750000Y-126650000D03*
X178750000Y-125650000D03*
X176750000Y-124650000D03*
X178750000Y-123650000D03*
X176750000Y-122650000D03*
X178750000Y-121650000D03*
X176750000Y-120650000D03*
X178750000Y-119650000D03*
X176750000Y-116650000D03*
X178750000Y-115650000D03*
X176750000Y-114650000D03*
X178750000Y-113650000D03*
X176750000Y-112650000D03*
X178750000Y-111650000D03*
X176750000Y-110650000D03*
X181250000Y-129650000D03*
X183250000Y-128650000D03*
X181250000Y-127650000D03*
X183250000Y-126650000D03*
X181250000Y-125650000D03*
X183250000Y-124650000D03*
X181250000Y-123650000D03*
X183250000Y-122650000D03*
X181250000Y-121650000D03*
X183250000Y-120650000D03*
X181250000Y-119650000D03*
X183250000Y-116650000D03*
X181250000Y-115650000D03*
X183250000Y-114650000D03*
X181250000Y-113650000D03*
X183250000Y-112650000D03*
X181250000Y-111650000D03*
X183250000Y-110650000D03*
D11*
X190000000Y-118000000D03*
X190000000Y-108850000D03*
D12*
X188750000Y-129650000D03*
X186750000Y-128650000D03*
X188750000Y-127650000D03*
X186750000Y-126650000D03*
X188750000Y-125650000D03*
X186750000Y-124650000D03*
X188750000Y-123650000D03*
X186750000Y-122650000D03*
X188750000Y-121650000D03*
X186750000Y-120650000D03*
X188750000Y-119650000D03*
X186750000Y-116650000D03*
X188750000Y-115650000D03*
X186750000Y-114650000D03*
X188750000Y-113650000D03*
X186750000Y-112650000D03*
X188750000Y-111650000D03*
X186750000Y-110650000D03*
X191250000Y-129650000D03*
X193250000Y-128650000D03*
X191250000Y-127650000D03*
X193250000Y-126650000D03*
X191250000Y-125650000D03*
X193250000Y-124650000D03*
X191250000Y-123650000D03*
X193250000Y-122650000D03*
X191250000Y-121650000D03*
X193250000Y-120650000D03*
X191250000Y-119650000D03*
X193250000Y-116650000D03*
X191250000Y-115650000D03*
X193250000Y-114650000D03*
X191250000Y-113650000D03*
X193250000Y-112650000D03*
X191250000Y-111650000D03*
X193250000Y-110650000D03*
D11*
X200000000Y-118000000D03*
X200000000Y-108850000D03*
D12*
X198750000Y-129650000D03*
X196750000Y-128650000D03*
X198750000Y-127650000D03*
X196750000Y-126650000D03*
X198750000Y-125650000D03*
X196750000Y-124650000D03*
X198750000Y-123650000D03*
X196750000Y-122650000D03*
X198750000Y-121650000D03*
X196750000Y-120650000D03*
X198750000Y-119650000D03*
X196750000Y-116650000D03*
X198750000Y-115650000D03*
X196750000Y-114650000D03*
X198750000Y-113650000D03*
X196750000Y-112650000D03*
X198750000Y-111650000D03*
X196750000Y-110650000D03*
X201250000Y-129650000D03*
X203250000Y-128650000D03*
X201250000Y-127650000D03*
X203250000Y-126650000D03*
X201250000Y-125650000D03*
X203250000Y-124650000D03*
X201250000Y-123650000D03*
X203250000Y-122650000D03*
X201250000Y-121650000D03*
X203250000Y-120650000D03*
X201250000Y-119650000D03*
X203250000Y-116650000D03*
X201250000Y-115650000D03*
X203250000Y-114650000D03*
X201250000Y-113650000D03*
X203250000Y-112650000D03*
X201250000Y-111650000D03*
X203250000Y-110650000D03*
D11*
X210000000Y-118000000D03*
X210000000Y-108850000D03*
D12*
X208750000Y-129650000D03*
X206750000Y-128650000D03*
X208750000Y-127650000D03*
X206750000Y-126650000D03*
X208750000Y-125650000D03*
X206750000Y-124650000D03*
X208750000Y-123650000D03*
X206750000Y-122650000D03*
X208750000Y-121650000D03*
X206750000Y-120650000D03*
X208750000Y-119650000D03*
X206750000Y-116650000D03*
X208750000Y-115650000D03*
X206750000Y-114650000D03*
X208750000Y-113650000D03*
X206750000Y-112650000D03*
X208750000Y-111650000D03*
X206750000Y-110650000D03*
X211250000Y-129650000D03*
X213250000Y-128650000D03*
X211250000Y-127650000D03*
X213250000Y-126650000D03*
X211250000Y-125650000D03*
X213250000Y-124650000D03*
X211250000Y-123650000D03*
X213250000Y-122650000D03*
X211250000Y-121650000D03*
X213250000Y-120650000D03*
X211250000Y-119650000D03*
X213250000Y-116650000D03*
X211250000Y-115650000D03*
X213250000Y-114650000D03*
X211250000Y-113650000D03*
X213250000Y-112650000D03*
X211250000Y-111650000D03*
X213250000Y-110650000D03*
D13*
X93040000Y-89200000D03*
X90500000Y-89200000D03*
X90500000Y-87201020D03*
X93040000Y-87201020D03*
D14*
X97769480Y-84501000D03*
X85770520Y-84501000D03*
D15*
X67150000Y-104600000D03*
X72650000Y-104600000D03*
X67150000Y-100400000D03*
X72650000Y-100400000D03*
X67150000Y-96200000D03*
X72650000Y-96200000D03*
X67150000Y-92000000D03*
X72650000Y-92000000D03*
D16*
X57600000Y-106600000D03*
X57600000Y-101600000D03*
X57600000Y-96600000D03*
X57600000Y-91600000D03*
D17*
X66800000Y-87100000D03*
X69300000Y-87100000D03*
X71300000Y-87100000D03*
X73800000Y-87100000D03*
D18*
X63730000Y-84390000D03*
X76870000Y-84390000D03*
D13*
X141150000Y-75950000D03*
X147650000Y-75950000D03*
X141150000Y-80450000D03*
X147650000Y-80450000D03*
X150550000Y-75950000D03*
X157050000Y-75950000D03*
X150550000Y-80450000D03*
X157050000Y-80450000D03*
X131750000Y-75950000D03*
X138250000Y-75950000D03*
X131750000Y-80450000D03*
X138250000Y-80450000D03*
D11*
X70000000Y-118000000D03*
X70000000Y-108850000D03*
D12*
X68750000Y-129650000D03*
X66750000Y-128650000D03*
X68750000Y-127650000D03*
X66750000Y-126650000D03*
X68750000Y-125650000D03*
X66750000Y-124650000D03*
X68750000Y-123650000D03*
X66750000Y-122650000D03*
X68750000Y-121650000D03*
X66750000Y-120650000D03*
X68750000Y-119650000D03*
X66750000Y-116650000D03*
X68750000Y-115650000D03*
X66750000Y-114650000D03*
X68750000Y-113650000D03*
X66750000Y-112650000D03*
X68750000Y-111650000D03*
X66750000Y-110650000D03*
X71250000Y-129650000D03*
X73250000Y-128650000D03*
X71250000Y-127650000D03*
X73250000Y-126650000D03*
X71250000Y-125650000D03*
X73250000Y-124650000D03*
X71250000Y-123650000D03*
X73250000Y-122650000D03*
X71250000Y-121650000D03*
X73250000Y-120650000D03*
X71250000Y-119650000D03*
X73250000Y-116650000D03*
X71250000Y-115650000D03*
X73250000Y-114650000D03*
X71250000Y-113650000D03*
X73250000Y-112650000D03*
X71250000Y-111650000D03*
X73250000Y-110650000D03*
D11*
X80000000Y-118000000D03*
X80000000Y-108850000D03*
D12*
X78750000Y-129650000D03*
X76750000Y-128650000D03*
X78750000Y-127650000D03*
X76750000Y-126650000D03*
X78750000Y-125650000D03*
X76750000Y-124650000D03*
X78750000Y-123650000D03*
X76750000Y-122650000D03*
X78750000Y-121650000D03*
X76750000Y-120650000D03*
X78750000Y-119650000D03*
X76750000Y-116650000D03*
X78750000Y-115650000D03*
X76750000Y-114650000D03*
X78750000Y-113650000D03*
X76750000Y-112650000D03*
X78750000Y-111650000D03*
X76750000Y-110650000D03*
X81250000Y-129650000D03*
X83250000Y-128650000D03*
X81250000Y-127650000D03*
X83250000Y-126650000D03*
X81250000Y-125650000D03*
X83250000Y-124650000D03*
X81250000Y-123650000D03*
X83250000Y-122650000D03*
X81250000Y-121650000D03*
X83250000Y-120650000D03*
X81250000Y-119650000D03*
X83250000Y-116650000D03*
X81250000Y-115650000D03*
X83250000Y-114650000D03*
X81250000Y-113650000D03*
X83250000Y-112650000D03*
X81250000Y-111650000D03*
X83250000Y-110650000D03*
D11*
X90000000Y-118000000D03*
X90000000Y-108850000D03*
D12*
X88750000Y-129650000D03*
X86750000Y-128650000D03*
X88750000Y-127650000D03*
X86750000Y-126650000D03*
X88750000Y-125650000D03*
X86750000Y-124650000D03*
X88750000Y-123650000D03*
X86750000Y-122650000D03*
X88750000Y-121650000D03*
X86750000Y-120650000D03*
X88750000Y-119650000D03*
X86750000Y-116650000D03*
X88750000Y-115650000D03*
X86750000Y-114650000D03*
X88750000Y-113650000D03*
X86750000Y-112650000D03*
X88750000Y-111650000D03*
X86750000Y-110650000D03*
X91250000Y-129650000D03*
X93250000Y-128650000D03*
X91250000Y-127650000D03*
X93250000Y-126650000D03*
X91250000Y-125650000D03*
X93250000Y-124650000D03*
X91250000Y-123650000D03*
X93250000Y-122650000D03*
X91250000Y-121650000D03*
X93250000Y-120650000D03*
X91250000Y-119650000D03*
X93250000Y-116650000D03*
X91250000Y-115650000D03*
X93250000Y-114650000D03*
X91250000Y-113650000D03*
X93250000Y-112650000D03*
X91250000Y-111650000D03*
X93250000Y-110650000D03*
D11*
X100000000Y-118000000D03*
X100000000Y-108850000D03*
D12*
X98750000Y-129650000D03*
X96750000Y-128650000D03*
X98750000Y-127650000D03*
X96750000Y-126650000D03*
X98750000Y-125650000D03*
X96750000Y-124650000D03*
X98750000Y-123650000D03*
X96750000Y-122650000D03*
X98750000Y-121650000D03*
X96750000Y-120650000D03*
X98750000Y-119650000D03*
X96750000Y-116650000D03*
X98750000Y-115650000D03*
X96750000Y-114650000D03*
X98750000Y-113650000D03*
X96750000Y-112650000D03*
X98750000Y-111650000D03*
X96750000Y-110650000D03*
X101250000Y-129650000D03*
X103250000Y-128650000D03*
X101250000Y-127650000D03*
X103250000Y-126650000D03*
X101250000Y-125650000D03*
X103250000Y-124650000D03*
X101250000Y-123650000D03*
X103250000Y-122650000D03*
X101250000Y-121650000D03*
X103250000Y-120650000D03*
X101250000Y-119650000D03*
X103250000Y-116650000D03*
X101250000Y-115650000D03*
X103250000Y-114650000D03*
X101250000Y-113650000D03*
X103250000Y-112650000D03*
X101250000Y-111650000D03*
X103250000Y-110650000D03*
D11*
X110000000Y-118000000D03*
X110000000Y-108850000D03*
D12*
X108750000Y-129650000D03*
X106750000Y-128650000D03*
X108750000Y-127650000D03*
X106750000Y-126650000D03*
X108750000Y-125650000D03*
X106750000Y-124650000D03*
X108750000Y-123650000D03*
X106750000Y-122650000D03*
X108750000Y-121650000D03*
X106750000Y-120650000D03*
X108750000Y-119650000D03*
X106750000Y-116650000D03*
X108750000Y-115650000D03*
X106750000Y-114650000D03*
X108750000Y-113650000D03*
X106750000Y-112650000D03*
X108750000Y-111650000D03*
X106750000Y-110650000D03*
X111250000Y-129650000D03*
X113250000Y-128650000D03*
X111250000Y-127650000D03*
X113250000Y-126650000D03*
X111250000Y-125650000D03*
X113250000Y-124650000D03*
X111250000Y-123650000D03*
X113250000Y-122650000D03*
X111250000Y-121650000D03*
X113250000Y-120650000D03*
X111250000Y-119650000D03*
X113250000Y-116650000D03*
X111250000Y-115650000D03*
X113250000Y-114650000D03*
X111250000Y-113650000D03*
X113250000Y-112650000D03*
X111250000Y-111650000D03*
X113250000Y-110650000D03*
D11*
X120000000Y-118000000D03*
X120000000Y-108850000D03*
D12*
X118750000Y-129650000D03*
X116750000Y-128650000D03*
X118750000Y-127650000D03*
X116750000Y-126650000D03*
X118750000Y-125650000D03*
X116750000Y-124650000D03*
X118750000Y-123650000D03*
X116750000Y-122650000D03*
X118750000Y-121650000D03*
X116750000Y-120650000D03*
X118750000Y-119650000D03*
X116750000Y-116650000D03*
X118750000Y-115650000D03*
X116750000Y-114650000D03*
X118750000Y-113650000D03*
X116750000Y-112650000D03*
X118750000Y-111650000D03*
X116750000Y-110650000D03*
X121250000Y-129650000D03*
X123250000Y-128650000D03*
X121250000Y-127650000D03*
X123250000Y-126650000D03*
X121250000Y-125650000D03*
X123250000Y-124650000D03*
X121250000Y-123650000D03*
X123250000Y-122650000D03*
X121250000Y-121650000D03*
X123250000Y-120650000D03*
X121250000Y-119650000D03*
X123250000Y-116650000D03*
X121250000Y-115650000D03*
X123250000Y-114650000D03*
X121250000Y-113650000D03*
X123250000Y-112650000D03*
X121250000Y-111650000D03*
X123250000Y-110650000D03*
D11*
X130000000Y-118000000D03*
X130000000Y-108850000D03*
D12*
X128750000Y-129650000D03*
X126750000Y-128650000D03*
X128750000Y-127650000D03*
X126750000Y-126650000D03*
X128750000Y-125650000D03*
X126750000Y-124650000D03*
X128750000Y-123650000D03*
X126750000Y-122650000D03*
X128750000Y-121650000D03*
X126750000Y-120650000D03*
X128750000Y-119650000D03*
X126750000Y-116650000D03*
X128750000Y-115650000D03*
X126750000Y-114650000D03*
X128750000Y-113650000D03*
X126750000Y-112650000D03*
X128750000Y-111650000D03*
X126750000Y-110650000D03*
X131250000Y-129650000D03*
X133250000Y-128650000D03*
X131250000Y-127650000D03*
X133250000Y-126650000D03*
X131250000Y-125650000D03*
X133250000Y-124650000D03*
X131250000Y-123650000D03*
X133250000Y-122650000D03*
X131250000Y-121650000D03*
X133250000Y-120650000D03*
X131250000Y-119650000D03*
X133250000Y-116650000D03*
X131250000Y-115650000D03*
X133250000Y-114650000D03*
X131250000Y-113650000D03*
X133250000Y-112650000D03*
X131250000Y-111650000D03*
X133250000Y-110650000D03*
D11*
X140000000Y-118000000D03*
X140000000Y-108850000D03*
D12*
X138750000Y-129650000D03*
X136750000Y-128650000D03*
X138750000Y-127650000D03*
X136750000Y-126650000D03*
X138750000Y-125650000D03*
X136750000Y-124650000D03*
X138750000Y-123650000D03*
X136750000Y-122650000D03*
X138750000Y-121650000D03*
X136750000Y-120650000D03*
X138750000Y-119650000D03*
X136750000Y-116650000D03*
X138750000Y-115650000D03*
X136750000Y-114650000D03*
X138750000Y-113650000D03*
X136750000Y-112650000D03*
X138750000Y-111650000D03*
X136750000Y-110650000D03*
X141250000Y-129650000D03*
X143250000Y-128650000D03*
X141250000Y-127650000D03*
X143250000Y-126650000D03*
X141250000Y-125650000D03*
X143250000Y-124650000D03*
X141250000Y-123650000D03*
X143250000Y-122650000D03*
X141250000Y-121650000D03*
X143250000Y-120650000D03*
X141250000Y-119650000D03*
X143250000Y-116650000D03*
X141250000Y-115650000D03*
X143250000Y-114650000D03*
X141250000Y-113650000D03*
X143250000Y-112650000D03*
X141250000Y-111650000D03*
X143250000Y-110650000D03*
D11*
X150000000Y-118000000D03*
X150000000Y-108850000D03*
D12*
X148750000Y-129650000D03*
X146750000Y-128650000D03*
X148750000Y-127650000D03*
X146750000Y-126650000D03*
X148750000Y-125650000D03*
X146750000Y-124650000D03*
X148750000Y-123650000D03*
X146750000Y-122650000D03*
X148750000Y-121650000D03*
X146750000Y-120650000D03*
X148750000Y-119650000D03*
X146750000Y-116650000D03*
X148750000Y-115650000D03*
X146750000Y-114650000D03*
X148750000Y-113650000D03*
X146750000Y-112650000D03*
X148750000Y-111650000D03*
X146750000Y-110650000D03*
X151250000Y-129650000D03*
X153250000Y-128650000D03*
X151250000Y-127650000D03*
X153250000Y-126650000D03*
X151250000Y-125650000D03*
X153250000Y-124650000D03*
X151250000Y-123650000D03*
X153250000Y-122650000D03*
X151250000Y-121650000D03*
X153250000Y-120650000D03*
X151250000Y-119650000D03*
X153250000Y-116650000D03*
X151250000Y-115650000D03*
X153250000Y-114650000D03*
X151250000Y-113650000D03*
X153250000Y-112650000D03*
X151250000Y-111650000D03*
X153250000Y-110650000D03*
D19*
X140100000Y-136000000D03*
X139500000Y-87000000D03*
X81500000Y-136000000D03*
X81500000Y-87000000D03*
D20*
X160275000Y-87775000D03*
X160275000Y-93775000D03*
D21*
X160850000Y-85225000D03*
X160850000Y-94975000D03*
D22*
X163200000Y-83950000D03*
X164500000Y-98450000D03*
D23*
X170835000Y-98450000D03*
X171535000Y-98450000D03*
X172235000Y-98450000D03*
X172935000Y-98450000D03*
X172935000Y-83950000D03*
X172235000Y-83950000D03*
X171535000Y-83950000D03*
X170835000Y-83950000D03*
D24*
X174200000Y-83950000D03*
X174200000Y-98450000D03*
D25*
X222000000Y-135000000D03*
X57000000Y-78000000D03*
X57000000Y-135000000D03*
X172000000Y-78000000D03*
X222000000Y-106000000D03*
D15*
X59700000Y-124000000D03*
X222300000Y-124000000D03*
D26*
X113450000Y-76000000D03*
D27*
X115990000Y-76000000D03*
X118530000Y-76000000D03*
X121070000Y-76000000D03*
X123610000Y-76000000D03*
X126150000Y-76000000D03*
D28*
X102865000Y-75160000D03*
X104135000Y-75160000D03*
X102865000Y-76430000D03*
X104135000Y-76430000D03*
X102865000Y-77700000D03*
X104135000Y-77700000D03*
X102865000Y-78970000D03*
X104135000Y-78970000D03*
X102865000Y-80240000D03*
X104135000Y-80240000D03*
M02*
