G04 #@! TF.FileFunction,Legend,Top*
%FSLAX46Y46*%
G04 Gerber Fmt 4.6, Leading zero omitted, Abs format (unit mm)*
G04 Created by KiCad (PCBNEW 4.0.3+e1-6302~38~ubuntu14.04.1-stable) date Wed Sep 28 21:03:55 2016*
%MOMM*%
%LPD*%
G01*
G04 APERTURE LIST*
%ADD10C,0.100000*%
%ADD11C,0.200000*%
%ADD12C,0.150000*%
%ADD13C,0.300000*%
%ADD14C,0.152400*%
G04 APERTURE END LIST*
D10*
D11*
X100900000Y-74800000D02*
X100900000Y-75600000D01*
X101600000Y-75200000D02*
X100900000Y-74800000D01*
X100900000Y-75600000D02*
X101600000Y-75200000D01*
D12*
X100116667Y-80866667D02*
X100116667Y-80533333D01*
X100316667Y-80933333D02*
X99616667Y-80700000D01*
X100316667Y-80466667D01*
X100316667Y-79833333D02*
X99983333Y-80066667D01*
X100316667Y-80233333D02*
X99616667Y-80233333D01*
X99616667Y-79966667D01*
X99650000Y-79900000D01*
X99683333Y-79866667D01*
X99750000Y-79833333D01*
X99850000Y-79833333D01*
X99916667Y-79866667D01*
X99950000Y-79900000D01*
X99983333Y-79966667D01*
X99983333Y-80233333D01*
X100316667Y-79533333D02*
X99616667Y-79533333D01*
X100116667Y-79300000D01*
X99616667Y-79066667D01*
X100316667Y-79066667D01*
X100316667Y-77833334D02*
X100316667Y-78233334D01*
X100316667Y-78033334D02*
X99616667Y-78033334D01*
X99716667Y-78100000D01*
X99783333Y-78166667D01*
X99816667Y-78233334D01*
X99616667Y-77400000D02*
X99616667Y-77333333D01*
X99650000Y-77266667D01*
X99683333Y-77233333D01*
X99750000Y-77200000D01*
X99883333Y-77166667D01*
X100050000Y-77166667D01*
X100183333Y-77200000D01*
X100250000Y-77233333D01*
X100283333Y-77266667D01*
X100316667Y-77333333D01*
X100316667Y-77400000D01*
X100283333Y-77466667D01*
X100250000Y-77500000D01*
X100183333Y-77533333D01*
X100050000Y-77566667D01*
X99883333Y-77566667D01*
X99750000Y-77533333D01*
X99683333Y-77500000D01*
X99650000Y-77466667D01*
X99616667Y-77400000D01*
X100050000Y-76866666D02*
X100050000Y-76333333D01*
X100316667Y-75999999D02*
X99616667Y-75999999D01*
X99616667Y-75733333D01*
X99650000Y-75666666D01*
X99683333Y-75633333D01*
X99750000Y-75599999D01*
X99850000Y-75599999D01*
X99916667Y-75633333D01*
X99950000Y-75666666D01*
X99983333Y-75733333D01*
X99983333Y-75999999D01*
X100316667Y-75299999D02*
X99850000Y-75299999D01*
X99616667Y-75299999D02*
X99650000Y-75333333D01*
X99683333Y-75299999D01*
X99650000Y-75266666D01*
X99616667Y-75299999D01*
X99683333Y-75299999D01*
X99850000Y-74966666D02*
X100316667Y-74966666D01*
X99916667Y-74966666D02*
X99883333Y-74933333D01*
X99850000Y-74866666D01*
X99850000Y-74766666D01*
X99883333Y-74700000D01*
X99950000Y-74666666D01*
X100316667Y-74666666D01*
X100816667Y-80633333D02*
X101316667Y-80633333D01*
X101416667Y-80666667D01*
X101483333Y-80733333D01*
X101516667Y-80833333D01*
X101516667Y-80900000D01*
X100816667Y-80400000D02*
X100816667Y-80000000D01*
X101516667Y-80200000D02*
X100816667Y-80200000D01*
X101316667Y-79800001D02*
X101316667Y-79466667D01*
X101516667Y-79866667D02*
X100816667Y-79633334D01*
X101516667Y-79400001D01*
X100850000Y-78800001D02*
X100816667Y-78866667D01*
X100816667Y-78966667D01*
X100850000Y-79066667D01*
X100916667Y-79133334D01*
X100983333Y-79166667D01*
X101116667Y-79200001D01*
X101216667Y-79200001D01*
X101350000Y-79166667D01*
X101416667Y-79133334D01*
X101483333Y-79066667D01*
X101516667Y-78966667D01*
X101516667Y-78900001D01*
X101483333Y-78800001D01*
X101450000Y-78766667D01*
X101216667Y-78766667D01*
X101216667Y-78900001D01*
X123083334Y-78566667D02*
X123083334Y-77866667D01*
X123383333Y-78533333D02*
X123483333Y-78566667D01*
X123650000Y-78566667D01*
X123716667Y-78533333D01*
X123750000Y-78500000D01*
X123783333Y-78433333D01*
X123783333Y-78366667D01*
X123750000Y-78300000D01*
X123716667Y-78266667D01*
X123650000Y-78233333D01*
X123516667Y-78200000D01*
X123450000Y-78166667D01*
X123416667Y-78133333D01*
X123383333Y-78066667D01*
X123383333Y-78000000D01*
X123416667Y-77933333D01*
X123450000Y-77900000D01*
X123516667Y-77866667D01*
X123683333Y-77866667D01*
X123783333Y-77900000D01*
X124083334Y-78566667D02*
X124083334Y-77866667D01*
X124350000Y-77866667D01*
X124416667Y-77900000D01*
X124450000Y-77933333D01*
X124483334Y-78000000D01*
X124483334Y-78100000D01*
X124450000Y-78166667D01*
X124416667Y-78200000D01*
X124350000Y-78233333D01*
X124083334Y-78233333D01*
X125316667Y-77866667D02*
X125316667Y-78433333D01*
X125350000Y-78500000D01*
X125383333Y-78533333D01*
X125450000Y-78566667D01*
X125583333Y-78566667D01*
X125650000Y-78533333D01*
X125683333Y-78500000D01*
X125716667Y-78433333D01*
X125716667Y-77866667D01*
X126016666Y-78366667D02*
X126350000Y-78366667D01*
X125950000Y-78566667D02*
X126183333Y-77866667D01*
X126416666Y-78566667D01*
X127050000Y-78566667D02*
X126816666Y-78233333D01*
X126650000Y-78566667D02*
X126650000Y-77866667D01*
X126916666Y-77866667D01*
X126983333Y-77900000D01*
X127016666Y-77933333D01*
X127050000Y-78000000D01*
X127050000Y-78100000D01*
X127016666Y-78166667D01*
X126983333Y-78200000D01*
X126916666Y-78233333D01*
X126650000Y-78233333D01*
X127250000Y-77866667D02*
X127650000Y-77866667D01*
X127450000Y-78566667D02*
X127450000Y-77866667D01*
X128016666Y-77866667D02*
X128083333Y-77866667D01*
X128149999Y-77900000D01*
X128183333Y-77933333D01*
X128216666Y-78000000D01*
X128249999Y-78133333D01*
X128249999Y-78300000D01*
X128216666Y-78433333D01*
X128183333Y-78500000D01*
X128149999Y-78533333D01*
X128083333Y-78566667D01*
X128016666Y-78566667D01*
X127949999Y-78533333D01*
X127916666Y-78500000D01*
X127883333Y-78433333D01*
X127849999Y-78300000D01*
X127849999Y-78133333D01*
X127883333Y-78000000D01*
X127916666Y-77933333D01*
X127949999Y-77900000D01*
X128016666Y-77866667D01*
D13*
X59157143Y-101614286D02*
X61442857Y-101614286D01*
X59157143Y-96514286D02*
X61442857Y-96514286D01*
X59157143Y-91614286D02*
X61442857Y-91614286D01*
X60300000Y-92757143D02*
X60300000Y-90471429D01*
X59157143Y-106614286D02*
X61442857Y-106614286D01*
X60300000Y-107757143D02*
X60300000Y-105471429D01*
D11*
X113023607Y-79300000D02*
G75*
G03X113023607Y-79300000I-223607J0D01*
G01*
X134223810Y-83578571D02*
X134223810Y-82078571D01*
X134652381Y-83507143D02*
X134795238Y-83578571D01*
X135033334Y-83578571D01*
X135128572Y-83507143D01*
X135176191Y-83435714D01*
X135223810Y-83292857D01*
X135223810Y-83150000D01*
X135176191Y-83007143D01*
X135128572Y-82935714D01*
X135033334Y-82864286D01*
X134842857Y-82792857D01*
X134747619Y-82721429D01*
X134700000Y-82650000D01*
X134652381Y-82507143D01*
X134652381Y-82364286D01*
X134700000Y-82221429D01*
X134747619Y-82150000D01*
X134842857Y-82078571D01*
X135080953Y-82078571D01*
X135223810Y-82150000D01*
X135652381Y-83578571D02*
X135652381Y-82078571D01*
X136033334Y-82078571D01*
X136128572Y-82150000D01*
X136176191Y-82221429D01*
X136223810Y-82364286D01*
X136223810Y-82578571D01*
X136176191Y-82721429D01*
X136128572Y-82792857D01*
X136033334Y-82864286D01*
X135652381Y-82864286D01*
X150704762Y-83578571D02*
X150704762Y-82078571D01*
X151038096Y-83150000D01*
X151371429Y-82078571D01*
X151371429Y-83578571D01*
X152038095Y-82078571D02*
X152228572Y-82078571D01*
X152323810Y-82150000D01*
X152419048Y-82292857D01*
X152466667Y-82578571D01*
X152466667Y-83078571D01*
X152419048Y-83364286D01*
X152323810Y-83507143D01*
X152228572Y-83578571D01*
X152038095Y-83578571D01*
X151942857Y-83507143D01*
X151847619Y-83364286D01*
X151800000Y-83078571D01*
X151800000Y-82578571D01*
X151847619Y-82292857D01*
X151942857Y-82150000D01*
X152038095Y-82078571D01*
X152895238Y-83578571D02*
X152895238Y-82078571D01*
X153133333Y-82078571D01*
X153276191Y-82150000D01*
X153371429Y-82292857D01*
X153419048Y-82435714D01*
X153466667Y-82721429D01*
X153466667Y-82935714D01*
X153419048Y-83221429D01*
X153371429Y-83364286D01*
X153276191Y-83507143D01*
X153133333Y-83578571D01*
X152895238Y-83578571D01*
X155228572Y-83578571D02*
X154895238Y-82864286D01*
X154657143Y-83578571D02*
X154657143Y-82078571D01*
X155038096Y-82078571D01*
X155133334Y-82150000D01*
X155180953Y-82221429D01*
X155228572Y-82364286D01*
X155228572Y-82578571D01*
X155180953Y-82721429D01*
X155133334Y-82792857D01*
X155038096Y-82864286D01*
X154657143Y-82864286D01*
X155609524Y-83507143D02*
X155752381Y-83578571D01*
X155990477Y-83578571D01*
X156085715Y-83507143D01*
X156133334Y-83435714D01*
X156180953Y-83292857D01*
X156180953Y-83150000D01*
X156133334Y-83007143D01*
X156085715Y-82935714D01*
X155990477Y-82864286D01*
X155800000Y-82792857D01*
X155704762Y-82721429D01*
X155657143Y-82650000D01*
X155609524Y-82507143D01*
X155609524Y-82364286D01*
X155657143Y-82221429D01*
X155704762Y-82150000D01*
X155800000Y-82078571D01*
X156038096Y-82078571D01*
X156180953Y-82150000D01*
X156466667Y-82078571D02*
X157038096Y-82078571D01*
X156752381Y-83578571D02*
X156752381Y-82078571D01*
X141671428Y-83507143D02*
X141814285Y-83578571D01*
X142052381Y-83578571D01*
X142147619Y-83507143D01*
X142195238Y-83435714D01*
X142242857Y-83292857D01*
X142242857Y-83150000D01*
X142195238Y-83007143D01*
X142147619Y-82935714D01*
X142052381Y-82864286D01*
X141861904Y-82792857D01*
X141766666Y-82721429D01*
X141719047Y-82650000D01*
X141671428Y-82507143D01*
X141671428Y-82364286D01*
X141719047Y-82221429D01*
X141766666Y-82150000D01*
X141861904Y-82078571D01*
X142100000Y-82078571D01*
X142242857Y-82150000D01*
X142861904Y-82864286D02*
X142861904Y-83578571D01*
X142528571Y-82078571D02*
X142861904Y-82864286D01*
X143195238Y-82078571D01*
X143480952Y-83507143D02*
X143623809Y-83578571D01*
X143861905Y-83578571D01*
X143957143Y-83507143D01*
X144004762Y-83435714D01*
X144052381Y-83292857D01*
X144052381Y-83150000D01*
X144004762Y-83007143D01*
X143957143Y-82935714D01*
X143861905Y-82864286D01*
X143671428Y-82792857D01*
X143576190Y-82721429D01*
X143528571Y-82650000D01*
X143480952Y-82507143D01*
X143480952Y-82364286D01*
X143528571Y-82221429D01*
X143576190Y-82150000D01*
X143671428Y-82078571D01*
X143909524Y-82078571D01*
X144052381Y-82150000D01*
X145814286Y-83578571D02*
X145480952Y-82864286D01*
X145242857Y-83578571D02*
X145242857Y-82078571D01*
X145623810Y-82078571D01*
X145719048Y-82150000D01*
X145766667Y-82221429D01*
X145814286Y-82364286D01*
X145814286Y-82578571D01*
X145766667Y-82721429D01*
X145719048Y-82792857D01*
X145623810Y-82864286D01*
X145242857Y-82864286D01*
X146195238Y-83507143D02*
X146338095Y-83578571D01*
X146576191Y-83578571D01*
X146671429Y-83507143D01*
X146719048Y-83435714D01*
X146766667Y-83292857D01*
X146766667Y-83150000D01*
X146719048Y-83007143D01*
X146671429Y-82935714D01*
X146576191Y-82864286D01*
X146385714Y-82792857D01*
X146290476Y-82721429D01*
X146242857Y-82650000D01*
X146195238Y-82507143D01*
X146195238Y-82364286D01*
X146242857Y-82221429D01*
X146290476Y-82150000D01*
X146385714Y-82078571D01*
X146623810Y-82078571D01*
X146766667Y-82150000D01*
X147052381Y-82078571D02*
X147623810Y-82078571D01*
X147338095Y-83578571D02*
X147338095Y-82078571D01*
X151742857Y-88278571D02*
X151742857Y-86778571D01*
X151742857Y-87492857D02*
X152600000Y-87492857D01*
X152600000Y-88278571D02*
X152600000Y-86778571D01*
X153100000Y-86778571D02*
X153957143Y-86778571D01*
X153528572Y-88278571D02*
X153528572Y-86778571D01*
X153800000Y-92478571D02*
X153800000Y-93478571D01*
X153442857Y-91907143D02*
X153085714Y-92978571D01*
X154014286Y-92978571D01*
X153014286Y-94078571D02*
X153942857Y-94078571D01*
X153442857Y-94650000D01*
X153657143Y-94650000D01*
X153800000Y-94721429D01*
X153871429Y-94792857D01*
X153942857Y-94935714D01*
X153942857Y-95292857D01*
X153871429Y-95435714D01*
X153800000Y-95507143D01*
X153657143Y-95578571D01*
X153228571Y-95578571D01*
X153085714Y-95507143D01*
X153014286Y-95435714D01*
X153085714Y-96321429D02*
X153157143Y-96250000D01*
X153300000Y-96178571D01*
X153657143Y-96178571D01*
X153800000Y-96250000D01*
X153871429Y-96321429D01*
X153942857Y-96464286D01*
X153942857Y-96607143D01*
X153871429Y-96821429D01*
X153014286Y-97678571D01*
X153942857Y-97678571D01*
X153942857Y-99778571D02*
X153085714Y-99778571D01*
X153514286Y-99778571D02*
X153514286Y-98278571D01*
X153371429Y-98492857D01*
X153228571Y-98635714D01*
X153085714Y-98707143D01*
X149557144Y-88778571D02*
X150485715Y-88778571D01*
X149985715Y-89350000D01*
X150200001Y-89350000D01*
X150342858Y-89421429D01*
X150414287Y-89492857D01*
X150485715Y-89635714D01*
X150485715Y-89992857D01*
X150414287Y-90135714D01*
X150342858Y-90207143D01*
X150200001Y-90278571D01*
X149771429Y-90278571D01*
X149628572Y-90207143D01*
X149557144Y-90135714D01*
X151128572Y-90135714D02*
X151200000Y-90207143D01*
X151128572Y-90278571D01*
X151057143Y-90207143D01*
X151128572Y-90135714D01*
X151128572Y-90278571D01*
X151700001Y-88778571D02*
X152628572Y-88778571D01*
X152128572Y-89350000D01*
X152342858Y-89350000D01*
X152485715Y-89421429D01*
X152557144Y-89492857D01*
X152628572Y-89635714D01*
X152628572Y-89992857D01*
X152557144Y-90135714D01*
X152485715Y-90207143D01*
X152342858Y-90278571D01*
X151914286Y-90278571D01*
X151771429Y-90207143D01*
X151700001Y-90135714D01*
X153057143Y-88778571D02*
X153557143Y-90278571D01*
X154057143Y-88778571D01*
D12*
X158000000Y-88850000D02*
X155300000Y-88850000D01*
X158000000Y-90350000D02*
X155300000Y-90350000D01*
X156500000Y-89450000D02*
X156500000Y-89700000D01*
X156500000Y-89700000D02*
X156650000Y-89550000D01*
X156750000Y-89950000D02*
X156750000Y-89250000D01*
X156400000Y-89600000D02*
X156050000Y-89600000D01*
X156750000Y-89600000D02*
X156400000Y-89950000D01*
X156400000Y-89950000D02*
X156400000Y-89250000D01*
X156400000Y-89250000D02*
X156750000Y-89600000D01*
X158000000Y-86750000D02*
X155300000Y-86750000D01*
X158000000Y-88250000D02*
X155300000Y-88250000D01*
X156500000Y-87350000D02*
X156500000Y-87600000D01*
X156500000Y-87600000D02*
X156650000Y-87450000D01*
X156750000Y-87850000D02*
X156750000Y-87150000D01*
X156400000Y-87500000D02*
X156050000Y-87500000D01*
X156750000Y-87500000D02*
X156400000Y-87850000D01*
X156400000Y-87850000D02*
X156400000Y-87150000D01*
X156400000Y-87150000D02*
X156750000Y-87500000D01*
X158000000Y-98350000D02*
X155300000Y-98350000D01*
X158000000Y-99850000D02*
X155300000Y-99850000D01*
X156500000Y-98950000D02*
X156500000Y-99200000D01*
X156500000Y-99200000D02*
X156650000Y-99050000D01*
X156750000Y-99450000D02*
X156750000Y-98750000D01*
X156400000Y-99100000D02*
X156050000Y-99100000D01*
X156750000Y-99100000D02*
X156400000Y-99450000D01*
X156400000Y-99450000D02*
X156400000Y-98750000D01*
X156400000Y-98750000D02*
X156750000Y-99100000D01*
X158000000Y-96250000D02*
X155300000Y-96250000D01*
X158000000Y-97750000D02*
X155300000Y-97750000D01*
X156500000Y-96850000D02*
X156500000Y-97100000D01*
X156500000Y-97100000D02*
X156650000Y-96950000D01*
X156750000Y-97350000D02*
X156750000Y-96650000D01*
X156400000Y-97000000D02*
X156050000Y-97000000D01*
X156750000Y-97000000D02*
X156400000Y-97350000D01*
X156400000Y-97350000D02*
X156400000Y-96650000D01*
X156400000Y-96650000D02*
X156750000Y-97000000D01*
X158000000Y-94150000D02*
X155300000Y-94150000D01*
X158000000Y-95650000D02*
X155300000Y-95650000D01*
X156500000Y-94750000D02*
X156500000Y-95000000D01*
X156500000Y-95000000D02*
X156650000Y-94850000D01*
X156750000Y-95250000D02*
X156750000Y-94550000D01*
X156400000Y-94900000D02*
X156050000Y-94900000D01*
X156750000Y-94900000D02*
X156400000Y-95250000D01*
X156400000Y-95250000D02*
X156400000Y-94550000D01*
X156400000Y-94550000D02*
X156750000Y-94900000D01*
X158000000Y-92050000D02*
X155300000Y-92050000D01*
X158000000Y-93550000D02*
X155300000Y-93550000D01*
X156500000Y-92650000D02*
X156500000Y-92900000D01*
X156500000Y-92900000D02*
X156650000Y-92750000D01*
X156750000Y-93150000D02*
X156750000Y-92450000D01*
X156400000Y-92800000D02*
X156050000Y-92800000D01*
X156750000Y-92800000D02*
X156400000Y-93150000D01*
X156400000Y-93150000D02*
X156400000Y-92450000D01*
X156400000Y-92450000D02*
X156750000Y-92800000D01*
X156000000Y-132500000D02*
X156000000Y-107500000D01*
X164000000Y-132500000D02*
X164000000Y-107500000D01*
X156000000Y-107500000D02*
X164000000Y-107500000D01*
X156000000Y-132500000D02*
X164000000Y-132500000D01*
X166000000Y-132500000D02*
X166000000Y-107500000D01*
X174000000Y-132500000D02*
X174000000Y-107500000D01*
X166000000Y-107500000D02*
X174000000Y-107500000D01*
X166000000Y-132500000D02*
X174000000Y-132500000D01*
X176000000Y-132500000D02*
X176000000Y-107500000D01*
X184000000Y-132500000D02*
X184000000Y-107500000D01*
X176000000Y-107500000D02*
X184000000Y-107500000D01*
X176000000Y-132500000D02*
X184000000Y-132500000D01*
X186000000Y-132500000D02*
X186000000Y-107500000D01*
X194000000Y-132500000D02*
X194000000Y-107500000D01*
X186000000Y-107500000D02*
X194000000Y-107500000D01*
X186000000Y-132500000D02*
X194000000Y-132500000D01*
X196000000Y-132500000D02*
X196000000Y-107500000D01*
X204000000Y-132500000D02*
X204000000Y-107500000D01*
X196000000Y-107500000D02*
X204000000Y-107500000D01*
X196000000Y-132500000D02*
X204000000Y-132500000D01*
X206000000Y-132500000D02*
X206000000Y-107500000D01*
X214000000Y-132500000D02*
X214000000Y-107500000D01*
X206000000Y-107500000D02*
X214000000Y-107500000D01*
X206000000Y-132500000D02*
X214000000Y-132500000D01*
X97866000Y-82850000D02*
X97866000Y-74214000D01*
X97866000Y-91232000D02*
X97866000Y-86152000D01*
X85674000Y-82850000D02*
X85674000Y-74214000D01*
X85674000Y-91232000D02*
X85674000Y-86152000D01*
X85674000Y-74214000D02*
X97866000Y-74214000D01*
X97866000Y-91232000D02*
X85674000Y-91232000D01*
X56050000Y-96600000D02*
X56050000Y-100000000D01*
X53050000Y-100000000D02*
X56050000Y-100000000D01*
X53050000Y-96600000D02*
X56050000Y-96600000D01*
X64900000Y-89100000D02*
X53050000Y-89100000D01*
X64900000Y-107500000D02*
X53050000Y-107500000D01*
X53050000Y-107500000D02*
X53050000Y-89100000D01*
X64900000Y-107500000D02*
X64900000Y-89100000D01*
D14*
X61750000Y-89100000D02*
X61750000Y-109100000D01*
X53450000Y-89100000D02*
X53450000Y-109100000D01*
X53450000Y-109100000D02*
X61750000Y-109100000D01*
X53450000Y-89100000D02*
X61750000Y-89100000D01*
D12*
X62870000Y-88245120D02*
X62870000Y-74148120D01*
X77730000Y-74148120D02*
X77730000Y-88245120D01*
X62870000Y-88245120D02*
X77730000Y-88245120D01*
X62870000Y-74148120D02*
X77730000Y-74148120D01*
D14*
X140900000Y-91600000D02*
X140900000Y-95600000D01*
X136900000Y-91600000D02*
X136900000Y-95600000D01*
D12*
X110101777Y-79278249D02*
X110596751Y-79773223D01*
X109748223Y-80621751D02*
X109253249Y-80126777D01*
X101799160Y-99749760D02*
X101750900Y-99749760D01*
X99000180Y-100450800D02*
X99000180Y-99749760D01*
X99000180Y-99749760D02*
X99249100Y-99749760D01*
X101799160Y-99749760D02*
X101999820Y-99749760D01*
X101999820Y-99749760D02*
X101999820Y-100450800D01*
X146900000Y-75200000D02*
X141900000Y-75200000D01*
X146900000Y-81200000D02*
X141900000Y-81200000D01*
X147400000Y-79500000D02*
X147400000Y-76900000D01*
X141400000Y-79500000D02*
X141400000Y-76900000D01*
X156300000Y-75200000D02*
X151300000Y-75200000D01*
X156300000Y-81200000D02*
X151300000Y-81200000D01*
X156800000Y-79500000D02*
X156800000Y-76900000D01*
X150800000Y-79500000D02*
X150800000Y-76900000D01*
X137500000Y-75200000D02*
X132500000Y-75200000D01*
X137500000Y-81200000D02*
X132500000Y-81200000D01*
X138000000Y-79500000D02*
X138000000Y-76900000D01*
X132000000Y-79500000D02*
X132000000Y-76900000D01*
X115000000Y-79853018D02*
X114434315Y-80418703D01*
X125146982Y-90000000D02*
X124581297Y-90565685D01*
X115000000Y-100146982D02*
X115565685Y-99581297D01*
X104853018Y-90000000D02*
X105418703Y-89434315D01*
X115000000Y-79853018D02*
X115565685Y-80418703D01*
X104853018Y-90000000D02*
X105418703Y-90565685D01*
X115000000Y-100146982D02*
X114434315Y-99581297D01*
X125146982Y-90000000D02*
X124581297Y-89434315D01*
X114434315Y-80418703D02*
X113532753Y-79517142D01*
X143500000Y-97700000D02*
G75*
G03X143500000Y-97700000I-100000J0D01*
G01*
X143150000Y-99150000D02*
X143150000Y-97850000D01*
X140250000Y-99150000D02*
X143150000Y-99150000D01*
X140250000Y-97850000D02*
X140250000Y-99150000D01*
X143150000Y-97850000D02*
X140250000Y-97850000D01*
X66000000Y-132500000D02*
X66000000Y-107500000D01*
X74000000Y-132500000D02*
X74000000Y-107500000D01*
X66000000Y-107500000D02*
X74000000Y-107500000D01*
X66000000Y-132500000D02*
X74000000Y-132500000D01*
X76000000Y-132500000D02*
X76000000Y-107500000D01*
X84000000Y-132500000D02*
X84000000Y-107500000D01*
X76000000Y-107500000D02*
X84000000Y-107500000D01*
X76000000Y-132500000D02*
X84000000Y-132500000D01*
X86000000Y-132500000D02*
X86000000Y-107500000D01*
X94000000Y-132500000D02*
X94000000Y-107500000D01*
X86000000Y-107500000D02*
X94000000Y-107500000D01*
X86000000Y-132500000D02*
X94000000Y-132500000D01*
X96000000Y-132500000D02*
X96000000Y-107500000D01*
X104000000Y-132500000D02*
X104000000Y-107500000D01*
X96000000Y-107500000D02*
X104000000Y-107500000D01*
X96000000Y-132500000D02*
X104000000Y-132500000D01*
X106000000Y-132500000D02*
X106000000Y-107500000D01*
X114000000Y-132500000D02*
X114000000Y-107500000D01*
X106000000Y-107500000D02*
X114000000Y-107500000D01*
X106000000Y-132500000D02*
X114000000Y-132500000D01*
X116000000Y-132500000D02*
X116000000Y-107500000D01*
X124000000Y-132500000D02*
X124000000Y-107500000D01*
X116000000Y-107500000D02*
X124000000Y-107500000D01*
X116000000Y-132500000D02*
X124000000Y-132500000D01*
X126000000Y-132500000D02*
X126000000Y-107500000D01*
X134000000Y-132500000D02*
X134000000Y-107500000D01*
X126000000Y-107500000D02*
X134000000Y-107500000D01*
X126000000Y-132500000D02*
X134000000Y-132500000D01*
X136000000Y-132500000D02*
X136000000Y-107500000D01*
X144000000Y-132500000D02*
X144000000Y-107500000D01*
X136000000Y-107500000D02*
X144000000Y-107500000D01*
X136000000Y-132500000D02*
X144000000Y-132500000D01*
X146000000Y-132500000D02*
X146000000Y-107500000D01*
X154000000Y-132500000D02*
X154000000Y-107500000D01*
X146000000Y-107500000D02*
X154000000Y-107500000D01*
X146000000Y-132500000D02*
X154000000Y-132500000D01*
X119776256Y-102130850D02*
X119069150Y-101423744D01*
X120023744Y-100469150D02*
X120730850Y-101176256D01*
X125876256Y-96230850D02*
X125169150Y-95523744D01*
X126123744Y-94569150D02*
X126830850Y-95276256D01*
X106023744Y-83169150D02*
X106730850Y-83876256D01*
X105776256Y-84830850D02*
X105069150Y-84123744D01*
X124830850Y-83923744D02*
X124123744Y-84630850D01*
X123169150Y-83676256D02*
X123876256Y-82969150D01*
X107998744Y-77044150D02*
X108705850Y-77751256D01*
X107751256Y-78705850D02*
X107044150Y-77998744D01*
X108923744Y-80444150D02*
X109630850Y-81151256D01*
X108676256Y-82105850D02*
X107969150Y-81398744D01*
X101823744Y-87469150D02*
X102530850Y-88176256D01*
X101576256Y-89130850D02*
X100869150Y-88423744D01*
X101169150Y-83776256D02*
X101876256Y-83069150D01*
X102830850Y-84023744D02*
X102123744Y-84730850D01*
X94425000Y-94800000D02*
X94425000Y-93800000D01*
X95775000Y-93800000D02*
X95775000Y-94800000D01*
X96225000Y-94800000D02*
X96225000Y-93800000D01*
X97575000Y-93800000D02*
X97575000Y-94800000D01*
X144900000Y-86125000D02*
X145900000Y-86125000D01*
X145900000Y-87475000D02*
X144900000Y-87475000D01*
X151400000Y-85575000D02*
X150400000Y-85575000D01*
X150400000Y-84225000D02*
X151400000Y-84225000D01*
X151500000Y-99775000D02*
X150500000Y-99775000D01*
X150500000Y-98425000D02*
X151500000Y-98425000D01*
X151500000Y-97675000D02*
X150500000Y-97675000D01*
X150500000Y-96325000D02*
X151500000Y-96325000D01*
X151500000Y-95575000D02*
X150500000Y-95575000D01*
X150500000Y-94225000D02*
X151500000Y-94225000D01*
X151500000Y-93475000D02*
X150500000Y-93475000D01*
X150500000Y-92125000D02*
X151500000Y-92125000D01*
X145900000Y-91075000D02*
X144900000Y-91075000D01*
X144900000Y-89725000D02*
X145900000Y-89725000D01*
X145900000Y-89275000D02*
X144900000Y-89275000D01*
X144900000Y-87925000D02*
X145900000Y-87925000D01*
X130500000Y-83225000D02*
X131500000Y-83225000D01*
X131500000Y-84575000D02*
X130500000Y-84575000D01*
X144900000Y-84325000D02*
X145900000Y-84325000D01*
X145900000Y-85675000D02*
X144900000Y-85675000D01*
X145275000Y-95600000D02*
X145275000Y-96600000D01*
X143925000Y-96600000D02*
X143925000Y-95600000D01*
X143000000Y-100825000D02*
X144000000Y-100825000D01*
X144000000Y-102175000D02*
X143000000Y-102175000D01*
X144000000Y-103975000D02*
X143000000Y-103975000D01*
X143000000Y-102625000D02*
X144000000Y-102625000D01*
X79225000Y-103300000D02*
X79225000Y-102300000D01*
X80575000Y-102300000D02*
X80575000Y-103300000D01*
X77425000Y-103300000D02*
X77425000Y-102300000D01*
X78775000Y-102300000D02*
X78775000Y-103300000D01*
X90300000Y-103075000D02*
X89300000Y-103075000D01*
X89300000Y-101725000D02*
X90300000Y-101725000D01*
X88425000Y-96900000D02*
X88425000Y-95900000D01*
X89775000Y-95900000D02*
X89775000Y-96900000D01*
D14*
X81600000Y-92200000D02*
X87600000Y-92200000D01*
X81600000Y-97600000D02*
X87600000Y-97600000D01*
D12*
X93200000Y-103075000D02*
X92200000Y-103075000D01*
X92200000Y-101725000D02*
X93200000Y-101725000D01*
X89300000Y-103525000D02*
X90300000Y-103525000D01*
X90300000Y-104875000D02*
X89300000Y-104875000D01*
X86200000Y-104625000D02*
X87200000Y-104625000D01*
X87200000Y-105975000D02*
X86200000Y-105975000D01*
D14*
X81100000Y-99500000D02*
X80600000Y-99200000D01*
X80600000Y-99200000D02*
X80600000Y-99800000D01*
X80600000Y-99800000D02*
X81100000Y-99500000D01*
D12*
X82275000Y-98800000D02*
X86925000Y-98800000D01*
X82275000Y-104000000D02*
X86925000Y-104000000D01*
X103623404Y-88751891D02*
G75*
G03X103623404Y-88751891I-141899J0D01*
G01*
X105461814Y-86770394D02*
X104470394Y-87761814D01*
X102138186Y-85429606D02*
X103129606Y-84438186D01*
X91200000Y-94882500D02*
X91200000Y-94501500D01*
X91200000Y-95898500D02*
X91200000Y-95517500D01*
X91200000Y-95517500D02*
X90819000Y-94882500D01*
X90819000Y-94882500D02*
X91581000Y-94882500D01*
X91581000Y-94882500D02*
X91200000Y-95517500D01*
X90692000Y-95517500D02*
X91708000Y-95517500D01*
X92100000Y-97200000D02*
X92100000Y-93660000D01*
X90300000Y-97200000D02*
X90300000Y-93660000D01*
X76550000Y-93400000D02*
X76550000Y-94400000D01*
X78250000Y-94400000D02*
X78250000Y-93400000D01*
X78850000Y-93400000D02*
X78850000Y-94400000D01*
X80550000Y-94400000D02*
X80550000Y-93400000D01*
X133800000Y-95950000D02*
X134800000Y-95950000D01*
X134800000Y-94250000D02*
X133800000Y-94250000D01*
X133800000Y-93650000D02*
X134800000Y-93650000D01*
X134800000Y-91950000D02*
X133800000Y-91950000D01*
D14*
X173515000Y-82800000D02*
X173515000Y-86100000D01*
X161085000Y-82800000D02*
X161085000Y-84900000D01*
X173515000Y-99600000D02*
X173515000Y-97900000D01*
X161085000Y-96800000D02*
X161085000Y-99600000D01*
X173515000Y-88400000D02*
X173515000Y-94300000D01*
X161085000Y-88600000D02*
X161085000Y-94200000D01*
X161085000Y-99600000D02*
X173515000Y-99600000D01*
X161085000Y-82800000D02*
X173515000Y-82800000D01*
D12*
X99375000Y-93800000D02*
X99375000Y-94800000D01*
X98025000Y-94800000D02*
X98025000Y-93800000D01*
X93975000Y-93800000D02*
X93975000Y-94800000D01*
X92625000Y-94800000D02*
X92625000Y-93800000D01*
X101175000Y-93800000D02*
X101175000Y-94800000D01*
X99825000Y-94800000D02*
X99825000Y-93800000D01*
X114720000Y-77270000D02*
X127420000Y-77270000D01*
X127420000Y-77270000D02*
X127420000Y-74730000D01*
X127420000Y-74730000D02*
X114720000Y-74730000D01*
X111900000Y-77550000D02*
X113450000Y-77550000D01*
X114720000Y-77270000D02*
X114720000Y-74730000D01*
X113450000Y-74450000D02*
X111900000Y-74450000D01*
X111900000Y-74450000D02*
X111900000Y-77550000D01*
X159190477Y-132852381D02*
X159190477Y-133566667D01*
X159142857Y-133709524D01*
X159047619Y-133804762D01*
X158904762Y-133852381D01*
X158809524Y-133852381D01*
X160190477Y-133852381D02*
X159619048Y-133852381D01*
X159904762Y-133852381D02*
X159904762Y-132852381D01*
X159809524Y-132995238D01*
X159714286Y-133090476D01*
X159619048Y-133138095D01*
X160809524Y-132852381D02*
X160904763Y-132852381D01*
X161000001Y-132900000D01*
X161047620Y-132947619D01*
X161095239Y-133042857D01*
X161142858Y-133233333D01*
X161142858Y-133471429D01*
X161095239Y-133661905D01*
X161047620Y-133757143D01*
X161000001Y-133804762D01*
X160904763Y-133852381D01*
X160809524Y-133852381D01*
X160714286Y-133804762D01*
X160666667Y-133757143D01*
X160619048Y-133661905D01*
X160571429Y-133471429D01*
X160571429Y-133233333D01*
X160619048Y-133042857D01*
X160666667Y-132947619D01*
X160714286Y-132900000D01*
X160809524Y-132852381D01*
X169190477Y-132852381D02*
X169190477Y-133566667D01*
X169142857Y-133709524D01*
X169047619Y-133804762D01*
X168904762Y-133852381D01*
X168809524Y-133852381D01*
X170190477Y-133852381D02*
X169619048Y-133852381D01*
X169904762Y-133852381D02*
X169904762Y-132852381D01*
X169809524Y-132995238D01*
X169714286Y-133090476D01*
X169619048Y-133138095D01*
X171142858Y-133852381D02*
X170571429Y-133852381D01*
X170857143Y-133852381D02*
X170857143Y-132852381D01*
X170761905Y-132995238D01*
X170666667Y-133090476D01*
X170571429Y-133138095D01*
X179190477Y-132852381D02*
X179190477Y-133566667D01*
X179142857Y-133709524D01*
X179047619Y-133804762D01*
X178904762Y-133852381D01*
X178809524Y-133852381D01*
X180190477Y-133852381D02*
X179619048Y-133852381D01*
X179904762Y-133852381D02*
X179904762Y-132852381D01*
X179809524Y-132995238D01*
X179714286Y-133090476D01*
X179619048Y-133138095D01*
X180571429Y-132947619D02*
X180619048Y-132900000D01*
X180714286Y-132852381D01*
X180952382Y-132852381D01*
X181047620Y-132900000D01*
X181095239Y-132947619D01*
X181142858Y-133042857D01*
X181142858Y-133138095D01*
X181095239Y-133280952D01*
X180523810Y-133852381D01*
X181142858Y-133852381D01*
X189190477Y-132852381D02*
X189190477Y-133566667D01*
X189142857Y-133709524D01*
X189047619Y-133804762D01*
X188904762Y-133852381D01*
X188809524Y-133852381D01*
X190190477Y-133852381D02*
X189619048Y-133852381D01*
X189904762Y-133852381D02*
X189904762Y-132852381D01*
X189809524Y-132995238D01*
X189714286Y-133090476D01*
X189619048Y-133138095D01*
X190523810Y-132852381D02*
X191142858Y-132852381D01*
X190809524Y-133233333D01*
X190952382Y-133233333D01*
X191047620Y-133280952D01*
X191095239Y-133328571D01*
X191142858Y-133423810D01*
X191142858Y-133661905D01*
X191095239Y-133757143D01*
X191047620Y-133804762D01*
X190952382Y-133852381D01*
X190666667Y-133852381D01*
X190571429Y-133804762D01*
X190523810Y-133757143D01*
X199190477Y-132852381D02*
X199190477Y-133566667D01*
X199142857Y-133709524D01*
X199047619Y-133804762D01*
X198904762Y-133852381D01*
X198809524Y-133852381D01*
X200190477Y-133852381D02*
X199619048Y-133852381D01*
X199904762Y-133852381D02*
X199904762Y-132852381D01*
X199809524Y-132995238D01*
X199714286Y-133090476D01*
X199619048Y-133138095D01*
X201047620Y-133185714D02*
X201047620Y-133852381D01*
X200809524Y-132804762D02*
X200571429Y-133519048D01*
X201190477Y-133519048D01*
X209190477Y-132852381D02*
X209190477Y-133566667D01*
X209142857Y-133709524D01*
X209047619Y-133804762D01*
X208904762Y-133852381D01*
X208809524Y-133852381D01*
X210190477Y-133852381D02*
X209619048Y-133852381D01*
X209904762Y-133852381D02*
X209904762Y-132852381D01*
X209809524Y-132995238D01*
X209714286Y-133090476D01*
X209619048Y-133138095D01*
X211095239Y-132852381D02*
X210619048Y-132852381D01*
X210571429Y-133328571D01*
X210619048Y-133280952D01*
X210714286Y-133233333D01*
X210952382Y-133233333D01*
X211047620Y-133280952D01*
X211095239Y-133328571D01*
X211142858Y-133423810D01*
X211142858Y-133661905D01*
X211095239Y-133757143D01*
X211047620Y-133804762D01*
X210952382Y-133852381D01*
X210714286Y-133852381D01*
X210619048Y-133804762D01*
X210571429Y-133757143D01*
X90960477Y-77603381D02*
X90960477Y-78317667D01*
X90912857Y-78460524D01*
X90817619Y-78555762D01*
X90674762Y-78603381D01*
X90579524Y-78603381D01*
X91960477Y-78603381D02*
X91389048Y-78603381D01*
X91674762Y-78603381D02*
X91674762Y-77603381D01*
X91579524Y-77746238D01*
X91484286Y-77841476D01*
X91389048Y-77889095D01*
X92293810Y-77603381D02*
X92960477Y-77603381D01*
X92531905Y-78603381D01*
X68852381Y-99109523D02*
X69566667Y-99109523D01*
X69709524Y-99157143D01*
X69804762Y-99252381D01*
X69852381Y-99395238D01*
X69852381Y-99490476D01*
X68947619Y-98680952D02*
X68900000Y-98633333D01*
X68852381Y-98538095D01*
X68852381Y-98299999D01*
X68900000Y-98204761D01*
X68947619Y-98157142D01*
X69042857Y-98109523D01*
X69138095Y-98109523D01*
X69280952Y-98157142D01*
X69852381Y-98728571D01*
X69852381Y-98109523D01*
X68852381Y-97204761D02*
X68852381Y-97680952D01*
X69328571Y-97728571D01*
X69280952Y-97680952D01*
X69233333Y-97585714D01*
X69233333Y-97347618D01*
X69280952Y-97252380D01*
X69328571Y-97204761D01*
X69423810Y-97157142D01*
X69661905Y-97157142D01*
X69757143Y-97204761D01*
X69804762Y-97252380D01*
X69852381Y-97347618D01*
X69852381Y-97585714D01*
X69804762Y-97680952D01*
X69757143Y-97728571D01*
D11*
X63850000Y-105728571D02*
X63850000Y-105014285D01*
X64278571Y-105871428D02*
X62778571Y-105371428D01*
X64278571Y-104871428D01*
X62778571Y-104585714D02*
X62778571Y-103728571D01*
X64278571Y-104157142D02*
X62778571Y-104157142D01*
X62778571Y-103371428D02*
X64278571Y-102371428D01*
X62778571Y-102371428D02*
X64278571Y-103371428D01*
X64135714Y-99800000D02*
X64207143Y-99871429D01*
X64278571Y-100085715D01*
X64278571Y-100228572D01*
X64207143Y-100442857D01*
X64064286Y-100585715D01*
X63921429Y-100657143D01*
X63635714Y-100728572D01*
X63421429Y-100728572D01*
X63135714Y-100657143D01*
X62992857Y-100585715D01*
X62850000Y-100442857D01*
X62778571Y-100228572D01*
X62778571Y-100085715D01*
X62850000Y-99871429D01*
X62921429Y-99800000D01*
X64278571Y-99157143D02*
X62778571Y-99157143D01*
X62778571Y-98585715D01*
X62850000Y-98442857D01*
X62921429Y-98371429D01*
X63064286Y-98300000D01*
X63278571Y-98300000D01*
X63421429Y-98371429D01*
X63492857Y-98442857D01*
X63564286Y-98585715D01*
X63564286Y-99157143D01*
X62778571Y-97657143D02*
X63992857Y-97657143D01*
X64135714Y-97585715D01*
X64207143Y-97514286D01*
X64278571Y-97371429D01*
X64278571Y-97085715D01*
X64207143Y-96942857D01*
X64135714Y-96871429D01*
X63992857Y-96800000D01*
X62778571Y-96800000D01*
X64278571Y-94942857D02*
X62778571Y-94942857D01*
X62778571Y-94371429D01*
X62850000Y-94228571D01*
X62921429Y-94157143D01*
X63064286Y-94085714D01*
X63278571Y-94085714D01*
X63421429Y-94157143D01*
X63492857Y-94228571D01*
X63564286Y-94371429D01*
X63564286Y-94942857D01*
X62778571Y-93585714D02*
X64278571Y-93228571D01*
X63207143Y-92942857D01*
X64278571Y-92657143D01*
X62778571Y-92300000D01*
X64278571Y-90871428D02*
X63564286Y-91371428D01*
X64278571Y-91728571D02*
X62778571Y-91728571D01*
X62778571Y-91157143D01*
X62850000Y-91014285D01*
X62921429Y-90942857D01*
X63064286Y-90871428D01*
X63278571Y-90871428D01*
X63421429Y-90942857D01*
X63492857Y-91014285D01*
X63564286Y-91157143D01*
X63564286Y-91728571D01*
D12*
X53790477Y-109452381D02*
X53790477Y-110166667D01*
X53742857Y-110309524D01*
X53647619Y-110404762D01*
X53504762Y-110452381D01*
X53409524Y-110452381D01*
X54219048Y-109547619D02*
X54266667Y-109500000D01*
X54361905Y-109452381D01*
X54600001Y-109452381D01*
X54695239Y-109500000D01*
X54742858Y-109547619D01*
X54790477Y-109642857D01*
X54790477Y-109738095D01*
X54742858Y-109880952D01*
X54171429Y-110452381D01*
X54790477Y-110452381D01*
X55123810Y-109452381D02*
X55790477Y-109452381D01*
X55361905Y-110452381D01*
X69490477Y-88852381D02*
X69490477Y-89566667D01*
X69442857Y-89709524D01*
X69347619Y-89804762D01*
X69204762Y-89852381D01*
X69109524Y-89852381D01*
X69871429Y-88852381D02*
X70490477Y-88852381D01*
X70157143Y-89233333D01*
X70300001Y-89233333D01*
X70395239Y-89280952D01*
X70442858Y-89328571D01*
X70490477Y-89423810D01*
X70490477Y-89661905D01*
X70442858Y-89757143D01*
X70395239Y-89804762D01*
X70300001Y-89852381D01*
X70014286Y-89852381D01*
X69919048Y-89804762D01*
X69871429Y-89757143D01*
X71442858Y-89852381D02*
X70871429Y-89852381D01*
X71157143Y-89852381D02*
X71157143Y-88852381D01*
X71061905Y-88995238D01*
X70966667Y-89090476D01*
X70871429Y-89138095D01*
X137333334Y-97252381D02*
X136857143Y-97252381D01*
X136857143Y-96252381D01*
X138190477Y-97252381D02*
X137619048Y-97252381D01*
X137904762Y-97252381D02*
X137904762Y-96252381D01*
X137809524Y-96395238D01*
X137714286Y-96490476D01*
X137619048Y-96538095D01*
X110518587Y-79191421D02*
X110282885Y-78955719D01*
X110777859Y-78460745D01*
X111107843Y-78885008D02*
X111154983Y-78885009D01*
X111225693Y-78908579D01*
X111343545Y-79026430D01*
X111367115Y-79097141D01*
X111367115Y-79144281D01*
X111343545Y-79214991D01*
X111296404Y-79262132D01*
X111202123Y-79309273D01*
X110636438Y-79309273D01*
X110942851Y-79615685D01*
X100404762Y-103247619D02*
X100309524Y-103200000D01*
X100214286Y-103104762D01*
X100071429Y-102961905D01*
X99976190Y-102914286D01*
X99880952Y-102914286D01*
X99928571Y-103152381D02*
X99833333Y-103104762D01*
X99738095Y-103009524D01*
X99690476Y-102819048D01*
X99690476Y-102485714D01*
X99738095Y-102295238D01*
X99833333Y-102200000D01*
X99928571Y-102152381D01*
X100119048Y-102152381D01*
X100214286Y-102200000D01*
X100309524Y-102295238D01*
X100357143Y-102485714D01*
X100357143Y-102819048D01*
X100309524Y-103009524D01*
X100214286Y-103104762D01*
X100119048Y-103152381D01*
X99928571Y-103152381D01*
X101309524Y-103152381D02*
X100738095Y-103152381D01*
X101023809Y-103152381D02*
X101023809Y-102152381D01*
X100928571Y-102295238D01*
X100833333Y-102390476D01*
X100738095Y-102438095D01*
X143638095Y-78604762D02*
X143780952Y-78652381D01*
X144019048Y-78652381D01*
X144114286Y-78604762D01*
X144161905Y-78557143D01*
X144209524Y-78461905D01*
X144209524Y-78366667D01*
X144161905Y-78271429D01*
X144114286Y-78223810D01*
X144019048Y-78176190D01*
X143828571Y-78128571D01*
X143733333Y-78080952D01*
X143685714Y-78033333D01*
X143638095Y-77938095D01*
X143638095Y-77842857D01*
X143685714Y-77747619D01*
X143733333Y-77700000D01*
X143828571Y-77652381D01*
X144066667Y-77652381D01*
X144209524Y-77700000D01*
X145161905Y-78652381D02*
X144590476Y-78652381D01*
X144876190Y-78652381D02*
X144876190Y-77652381D01*
X144780952Y-77795238D01*
X144685714Y-77890476D01*
X144590476Y-77938095D01*
X153038095Y-78604762D02*
X153180952Y-78652381D01*
X153419048Y-78652381D01*
X153514286Y-78604762D01*
X153561905Y-78557143D01*
X153609524Y-78461905D01*
X153609524Y-78366667D01*
X153561905Y-78271429D01*
X153514286Y-78223810D01*
X153419048Y-78176190D01*
X153228571Y-78128571D01*
X153133333Y-78080952D01*
X153085714Y-78033333D01*
X153038095Y-77938095D01*
X153038095Y-77842857D01*
X153085714Y-77747619D01*
X153133333Y-77700000D01*
X153228571Y-77652381D01*
X153466667Y-77652381D01*
X153609524Y-77700000D01*
X153990476Y-77747619D02*
X154038095Y-77700000D01*
X154133333Y-77652381D01*
X154371429Y-77652381D01*
X154466667Y-77700000D01*
X154514286Y-77747619D01*
X154561905Y-77842857D01*
X154561905Y-77938095D01*
X154514286Y-78080952D01*
X153942857Y-78652381D01*
X154561905Y-78652381D01*
X134238095Y-78604762D02*
X134380952Y-78652381D01*
X134619048Y-78652381D01*
X134714286Y-78604762D01*
X134761905Y-78557143D01*
X134809524Y-78461905D01*
X134809524Y-78366667D01*
X134761905Y-78271429D01*
X134714286Y-78223810D01*
X134619048Y-78176190D01*
X134428571Y-78128571D01*
X134333333Y-78080952D01*
X134285714Y-78033333D01*
X134238095Y-77938095D01*
X134238095Y-77842857D01*
X134285714Y-77747619D01*
X134333333Y-77700000D01*
X134428571Y-77652381D01*
X134666667Y-77652381D01*
X134809524Y-77700000D01*
X135142857Y-77652381D02*
X135761905Y-77652381D01*
X135428571Y-78033333D01*
X135571429Y-78033333D01*
X135666667Y-78080952D01*
X135714286Y-78128571D01*
X135761905Y-78223810D01*
X135761905Y-78461905D01*
X135714286Y-78557143D01*
X135666667Y-78604762D01*
X135571429Y-78652381D01*
X135285714Y-78652381D01*
X135190476Y-78604762D01*
X135142857Y-78557143D01*
X113948477Y-78174027D02*
X113376057Y-78746447D01*
X113342385Y-78847462D01*
X113342385Y-78914805D01*
X113376057Y-79015820D01*
X113510745Y-79150508D01*
X113611760Y-79184180D01*
X113679103Y-79184180D01*
X113780118Y-79150508D01*
X114352538Y-78578088D01*
X114352538Y-79992302D02*
X113948477Y-79588240D01*
X114150507Y-79790271D02*
X114857614Y-79083164D01*
X114689255Y-79116836D01*
X114554569Y-79116836D01*
X114453553Y-79083164D01*
X143466667Y-98116667D02*
X143466667Y-98683333D01*
X143500000Y-98750000D01*
X143533333Y-98783333D01*
X143600000Y-98816667D01*
X143733333Y-98816667D01*
X143800000Y-98783333D01*
X143833333Y-98750000D01*
X143866667Y-98683333D01*
X143866667Y-98116667D01*
X144166666Y-98183333D02*
X144200000Y-98150000D01*
X144266666Y-98116667D01*
X144433333Y-98116667D01*
X144500000Y-98150000D01*
X144533333Y-98183333D01*
X144566666Y-98250000D01*
X144566666Y-98316667D01*
X144533333Y-98416667D01*
X144133333Y-98816667D01*
X144566666Y-98816667D01*
X69190477Y-132852381D02*
X69190477Y-133566667D01*
X69142857Y-133709524D01*
X69047619Y-133804762D01*
X68904762Y-133852381D01*
X68809524Y-133852381D01*
X69857143Y-132852381D02*
X69952382Y-132852381D01*
X70047620Y-132900000D01*
X70095239Y-132947619D01*
X70142858Y-133042857D01*
X70190477Y-133233333D01*
X70190477Y-133471429D01*
X70142858Y-133661905D01*
X70095239Y-133757143D01*
X70047620Y-133804762D01*
X69952382Y-133852381D01*
X69857143Y-133852381D01*
X69761905Y-133804762D01*
X69714286Y-133757143D01*
X69666667Y-133661905D01*
X69619048Y-133471429D01*
X69619048Y-133233333D01*
X69666667Y-133042857D01*
X69714286Y-132947619D01*
X69761905Y-132900000D01*
X69857143Y-132852381D01*
X71142858Y-133852381D02*
X70571429Y-133852381D01*
X70857143Y-133852381D02*
X70857143Y-132852381D01*
X70761905Y-132995238D01*
X70666667Y-133090476D01*
X70571429Y-133138095D01*
X79190477Y-132852381D02*
X79190477Y-133566667D01*
X79142857Y-133709524D01*
X79047619Y-133804762D01*
X78904762Y-133852381D01*
X78809524Y-133852381D01*
X79857143Y-132852381D02*
X79952382Y-132852381D01*
X80047620Y-132900000D01*
X80095239Y-132947619D01*
X80142858Y-133042857D01*
X80190477Y-133233333D01*
X80190477Y-133471429D01*
X80142858Y-133661905D01*
X80095239Y-133757143D01*
X80047620Y-133804762D01*
X79952382Y-133852381D01*
X79857143Y-133852381D01*
X79761905Y-133804762D01*
X79714286Y-133757143D01*
X79666667Y-133661905D01*
X79619048Y-133471429D01*
X79619048Y-133233333D01*
X79666667Y-133042857D01*
X79714286Y-132947619D01*
X79761905Y-132900000D01*
X79857143Y-132852381D01*
X80571429Y-132947619D02*
X80619048Y-132900000D01*
X80714286Y-132852381D01*
X80952382Y-132852381D01*
X81047620Y-132900000D01*
X81095239Y-132947619D01*
X81142858Y-133042857D01*
X81142858Y-133138095D01*
X81095239Y-133280952D01*
X80523810Y-133852381D01*
X81142858Y-133852381D01*
X89190477Y-132852381D02*
X89190477Y-133566667D01*
X89142857Y-133709524D01*
X89047619Y-133804762D01*
X88904762Y-133852381D01*
X88809524Y-133852381D01*
X89857143Y-132852381D02*
X89952382Y-132852381D01*
X90047620Y-132900000D01*
X90095239Y-132947619D01*
X90142858Y-133042857D01*
X90190477Y-133233333D01*
X90190477Y-133471429D01*
X90142858Y-133661905D01*
X90095239Y-133757143D01*
X90047620Y-133804762D01*
X89952382Y-133852381D01*
X89857143Y-133852381D01*
X89761905Y-133804762D01*
X89714286Y-133757143D01*
X89666667Y-133661905D01*
X89619048Y-133471429D01*
X89619048Y-133233333D01*
X89666667Y-133042857D01*
X89714286Y-132947619D01*
X89761905Y-132900000D01*
X89857143Y-132852381D01*
X90523810Y-132852381D02*
X91142858Y-132852381D01*
X90809524Y-133233333D01*
X90952382Y-133233333D01*
X91047620Y-133280952D01*
X91095239Y-133328571D01*
X91142858Y-133423810D01*
X91142858Y-133661905D01*
X91095239Y-133757143D01*
X91047620Y-133804762D01*
X90952382Y-133852381D01*
X90666667Y-133852381D01*
X90571429Y-133804762D01*
X90523810Y-133757143D01*
X99190477Y-132852381D02*
X99190477Y-133566667D01*
X99142857Y-133709524D01*
X99047619Y-133804762D01*
X98904762Y-133852381D01*
X98809524Y-133852381D01*
X99857143Y-132852381D02*
X99952382Y-132852381D01*
X100047620Y-132900000D01*
X100095239Y-132947619D01*
X100142858Y-133042857D01*
X100190477Y-133233333D01*
X100190477Y-133471429D01*
X100142858Y-133661905D01*
X100095239Y-133757143D01*
X100047620Y-133804762D01*
X99952382Y-133852381D01*
X99857143Y-133852381D01*
X99761905Y-133804762D01*
X99714286Y-133757143D01*
X99666667Y-133661905D01*
X99619048Y-133471429D01*
X99619048Y-133233333D01*
X99666667Y-133042857D01*
X99714286Y-132947619D01*
X99761905Y-132900000D01*
X99857143Y-132852381D01*
X101047620Y-133185714D02*
X101047620Y-133852381D01*
X100809524Y-132804762D02*
X100571429Y-133519048D01*
X101190477Y-133519048D01*
X109190477Y-132852381D02*
X109190477Y-133566667D01*
X109142857Y-133709524D01*
X109047619Y-133804762D01*
X108904762Y-133852381D01*
X108809524Y-133852381D01*
X109857143Y-132852381D02*
X109952382Y-132852381D01*
X110047620Y-132900000D01*
X110095239Y-132947619D01*
X110142858Y-133042857D01*
X110190477Y-133233333D01*
X110190477Y-133471429D01*
X110142858Y-133661905D01*
X110095239Y-133757143D01*
X110047620Y-133804762D01*
X109952382Y-133852381D01*
X109857143Y-133852381D01*
X109761905Y-133804762D01*
X109714286Y-133757143D01*
X109666667Y-133661905D01*
X109619048Y-133471429D01*
X109619048Y-133233333D01*
X109666667Y-133042857D01*
X109714286Y-132947619D01*
X109761905Y-132900000D01*
X109857143Y-132852381D01*
X111095239Y-132852381D02*
X110619048Y-132852381D01*
X110571429Y-133328571D01*
X110619048Y-133280952D01*
X110714286Y-133233333D01*
X110952382Y-133233333D01*
X111047620Y-133280952D01*
X111095239Y-133328571D01*
X111142858Y-133423810D01*
X111142858Y-133661905D01*
X111095239Y-133757143D01*
X111047620Y-133804762D01*
X110952382Y-133852381D01*
X110714286Y-133852381D01*
X110619048Y-133804762D01*
X110571429Y-133757143D01*
X119190477Y-132852381D02*
X119190477Y-133566667D01*
X119142857Y-133709524D01*
X119047619Y-133804762D01*
X118904762Y-133852381D01*
X118809524Y-133852381D01*
X119857143Y-132852381D02*
X119952382Y-132852381D01*
X120047620Y-132900000D01*
X120095239Y-132947619D01*
X120142858Y-133042857D01*
X120190477Y-133233333D01*
X120190477Y-133471429D01*
X120142858Y-133661905D01*
X120095239Y-133757143D01*
X120047620Y-133804762D01*
X119952382Y-133852381D01*
X119857143Y-133852381D01*
X119761905Y-133804762D01*
X119714286Y-133757143D01*
X119666667Y-133661905D01*
X119619048Y-133471429D01*
X119619048Y-133233333D01*
X119666667Y-133042857D01*
X119714286Y-132947619D01*
X119761905Y-132900000D01*
X119857143Y-132852381D01*
X121047620Y-132852381D02*
X120857143Y-132852381D01*
X120761905Y-132900000D01*
X120714286Y-132947619D01*
X120619048Y-133090476D01*
X120571429Y-133280952D01*
X120571429Y-133661905D01*
X120619048Y-133757143D01*
X120666667Y-133804762D01*
X120761905Y-133852381D01*
X120952382Y-133852381D01*
X121047620Y-133804762D01*
X121095239Y-133757143D01*
X121142858Y-133661905D01*
X121142858Y-133423810D01*
X121095239Y-133328571D01*
X121047620Y-133280952D01*
X120952382Y-133233333D01*
X120761905Y-133233333D01*
X120666667Y-133280952D01*
X120619048Y-133328571D01*
X120571429Y-133423810D01*
X129190477Y-132852381D02*
X129190477Y-133566667D01*
X129142857Y-133709524D01*
X129047619Y-133804762D01*
X128904762Y-133852381D01*
X128809524Y-133852381D01*
X129857143Y-132852381D02*
X129952382Y-132852381D01*
X130047620Y-132900000D01*
X130095239Y-132947619D01*
X130142858Y-133042857D01*
X130190477Y-133233333D01*
X130190477Y-133471429D01*
X130142858Y-133661905D01*
X130095239Y-133757143D01*
X130047620Y-133804762D01*
X129952382Y-133852381D01*
X129857143Y-133852381D01*
X129761905Y-133804762D01*
X129714286Y-133757143D01*
X129666667Y-133661905D01*
X129619048Y-133471429D01*
X129619048Y-133233333D01*
X129666667Y-133042857D01*
X129714286Y-132947619D01*
X129761905Y-132900000D01*
X129857143Y-132852381D01*
X130523810Y-132852381D02*
X131190477Y-132852381D01*
X130761905Y-133852381D01*
X139190477Y-132852381D02*
X139190477Y-133566667D01*
X139142857Y-133709524D01*
X139047619Y-133804762D01*
X138904762Y-133852381D01*
X138809524Y-133852381D01*
X139857143Y-132852381D02*
X139952382Y-132852381D01*
X140047620Y-132900000D01*
X140095239Y-132947619D01*
X140142858Y-133042857D01*
X140190477Y-133233333D01*
X140190477Y-133471429D01*
X140142858Y-133661905D01*
X140095239Y-133757143D01*
X140047620Y-133804762D01*
X139952382Y-133852381D01*
X139857143Y-133852381D01*
X139761905Y-133804762D01*
X139714286Y-133757143D01*
X139666667Y-133661905D01*
X139619048Y-133471429D01*
X139619048Y-133233333D01*
X139666667Y-133042857D01*
X139714286Y-132947619D01*
X139761905Y-132900000D01*
X139857143Y-132852381D01*
X140761905Y-133280952D02*
X140666667Y-133233333D01*
X140619048Y-133185714D01*
X140571429Y-133090476D01*
X140571429Y-133042857D01*
X140619048Y-132947619D01*
X140666667Y-132900000D01*
X140761905Y-132852381D01*
X140952382Y-132852381D01*
X141047620Y-132900000D01*
X141095239Y-132947619D01*
X141142858Y-133042857D01*
X141142858Y-133090476D01*
X141095239Y-133185714D01*
X141047620Y-133233333D01*
X140952382Y-133280952D01*
X140761905Y-133280952D01*
X140666667Y-133328571D01*
X140619048Y-133376190D01*
X140571429Y-133471429D01*
X140571429Y-133661905D01*
X140619048Y-133757143D01*
X140666667Y-133804762D01*
X140761905Y-133852381D01*
X140952382Y-133852381D01*
X141047620Y-133804762D01*
X141095239Y-133757143D01*
X141142858Y-133661905D01*
X141142858Y-133471429D01*
X141095239Y-133376190D01*
X141047620Y-133328571D01*
X140952382Y-133280952D01*
X149190477Y-132852381D02*
X149190477Y-133566667D01*
X149142857Y-133709524D01*
X149047619Y-133804762D01*
X148904762Y-133852381D01*
X148809524Y-133852381D01*
X149857143Y-132852381D02*
X149952382Y-132852381D01*
X150047620Y-132900000D01*
X150095239Y-132947619D01*
X150142858Y-133042857D01*
X150190477Y-133233333D01*
X150190477Y-133471429D01*
X150142858Y-133661905D01*
X150095239Y-133757143D01*
X150047620Y-133804762D01*
X149952382Y-133852381D01*
X149857143Y-133852381D01*
X149761905Y-133804762D01*
X149714286Y-133757143D01*
X149666667Y-133661905D01*
X149619048Y-133471429D01*
X149619048Y-133233333D01*
X149666667Y-133042857D01*
X149714286Y-132947619D01*
X149761905Y-132900000D01*
X149857143Y-132852381D01*
X150666667Y-133852381D02*
X150857143Y-133852381D01*
X150952382Y-133804762D01*
X151000001Y-133757143D01*
X151095239Y-133614286D01*
X151142858Y-133423810D01*
X151142858Y-133042857D01*
X151095239Y-132947619D01*
X151047620Y-132900000D01*
X150952382Y-132852381D01*
X150761905Y-132852381D01*
X150666667Y-132900000D01*
X150619048Y-132947619D01*
X150571429Y-133042857D01*
X150571429Y-133280952D01*
X150619048Y-133376190D01*
X150666667Y-133423810D01*
X150761905Y-133471429D01*
X150952382Y-133471429D01*
X151047620Y-133423810D01*
X151095239Y-133376190D01*
X151142858Y-133280952D01*
X121140728Y-102819281D02*
X121093587Y-102819281D01*
X120999306Y-102772141D01*
X120952166Y-102725001D01*
X120905026Y-102630719D01*
X120905025Y-102536439D01*
X120928596Y-102465728D01*
X120999306Y-102347877D01*
X121070017Y-102277166D01*
X121187869Y-102206455D01*
X121258579Y-102182885D01*
X121352860Y-102182885D01*
X121447141Y-102230026D01*
X121494281Y-102277166D01*
X121541421Y-102371447D01*
X121541422Y-102418587D01*
X122036396Y-102819281D02*
X121800694Y-102583579D01*
X121541421Y-102795711D01*
X121588562Y-102795711D01*
X121659273Y-102819281D01*
X121777124Y-102937132D01*
X121800694Y-103007843D01*
X121800694Y-103054983D01*
X121777123Y-103125694D01*
X121659273Y-103243545D01*
X121588562Y-103267115D01*
X121541422Y-103267115D01*
X121470711Y-103243545D01*
X121352859Y-103125694D01*
X121329290Y-103054983D01*
X121329289Y-103007843D01*
X127140728Y-96994281D02*
X127093587Y-96994281D01*
X126999306Y-96947141D01*
X126952166Y-96900001D01*
X126905026Y-96805719D01*
X126905025Y-96711439D01*
X126928596Y-96640728D01*
X126999306Y-96522877D01*
X127070017Y-96452166D01*
X127187869Y-96381455D01*
X127258579Y-96357885D01*
X127352860Y-96357885D01*
X127447141Y-96405026D01*
X127494281Y-96452166D01*
X127541421Y-96546447D01*
X127541422Y-96593587D01*
X128012826Y-96970711D02*
X127918545Y-96876430D01*
X127847835Y-96852860D01*
X127800694Y-96852859D01*
X127682843Y-96876430D01*
X127564991Y-96947141D01*
X127376430Y-97135702D01*
X127352860Y-97206413D01*
X127352860Y-97253553D01*
X127376430Y-97324265D01*
X127470711Y-97418545D01*
X127541422Y-97442115D01*
X127588562Y-97442115D01*
X127659273Y-97418545D01*
X127777123Y-97300694D01*
X127800694Y-97229983D01*
X127800694Y-97182843D01*
X127777124Y-97112132D01*
X127682843Y-97017851D01*
X127612132Y-96994281D01*
X127564992Y-96994281D01*
X127494281Y-97017851D01*
X104140728Y-82594281D02*
X104093587Y-82594281D01*
X103999306Y-82547141D01*
X103952166Y-82500001D01*
X103905026Y-82405719D01*
X103905025Y-82311439D01*
X103928596Y-82240728D01*
X103999306Y-82122877D01*
X104070017Y-82052166D01*
X104187869Y-81981455D01*
X104258579Y-81957885D01*
X104352860Y-81957885D01*
X104447141Y-82005026D01*
X104494281Y-82052166D01*
X104541421Y-82146447D01*
X104541422Y-82193587D01*
X104753553Y-82311439D02*
X105083537Y-82641422D01*
X104376430Y-82924265D01*
X125558579Y-82694975D02*
X125558578Y-82742115D01*
X125511438Y-82836397D01*
X125464298Y-82883537D01*
X125370017Y-82930677D01*
X125275736Y-82930677D01*
X125205025Y-82907107D01*
X125087174Y-82836397D01*
X125016463Y-82765686D01*
X124945753Y-82647834D01*
X124922183Y-82577124D01*
X124922183Y-82482843D01*
X124969323Y-82388562D01*
X125016463Y-82341422D01*
X125110744Y-82294281D01*
X125157885Y-82294281D01*
X126077123Y-82270711D02*
X125794281Y-82553554D01*
X125935702Y-82412133D02*
X125440727Y-81917158D01*
X125464298Y-82035009D01*
X125464297Y-82129289D01*
X125440727Y-82200001D01*
X126548528Y-81799307D02*
X126265685Y-82082149D01*
X126407107Y-81940728D02*
X125912132Y-81445753D01*
X125935703Y-81563604D01*
X125935702Y-81657885D01*
X125912132Y-81728596D01*
X106115728Y-76469281D02*
X106068587Y-76469281D01*
X105974306Y-76422141D01*
X105927166Y-76375001D01*
X105880026Y-76280719D01*
X105880025Y-76186439D01*
X105903596Y-76115728D01*
X105974306Y-75997877D01*
X106045017Y-75927166D01*
X106162869Y-75856455D01*
X106233579Y-75832885D01*
X106327860Y-75832885D01*
X106422141Y-75880026D01*
X106469281Y-75927166D01*
X106516421Y-76021447D01*
X106516422Y-76068587D01*
X106822835Y-76610703D02*
X106492851Y-76940686D01*
X106893545Y-76304289D02*
X106422141Y-76539991D01*
X106728554Y-76846405D01*
X106605025Y-79433579D02*
X106557885Y-79433578D01*
X106463603Y-79386438D01*
X106416463Y-79339298D01*
X106369323Y-79245017D01*
X106369323Y-79150736D01*
X106392893Y-79080025D01*
X106463603Y-78962174D01*
X106534314Y-78891463D01*
X106652166Y-78820753D01*
X106722876Y-78797183D01*
X106817157Y-78797183D01*
X106911438Y-78844323D01*
X106958578Y-78891463D01*
X107005719Y-78985744D01*
X107005719Y-79032885D01*
X107029289Y-79952123D02*
X106746446Y-79669281D01*
X106887867Y-79810702D02*
X107382842Y-79315727D01*
X107264991Y-79339298D01*
X107170711Y-79339297D01*
X107099999Y-79315727D01*
X107830677Y-79763562D02*
X107877817Y-79810703D01*
X107901387Y-79881413D01*
X107901388Y-79928553D01*
X107877817Y-79999264D01*
X107807107Y-80117115D01*
X107689255Y-80234966D01*
X107571405Y-80305677D01*
X107500694Y-80329247D01*
X107453553Y-80329247D01*
X107382843Y-80305677D01*
X107335702Y-80258537D01*
X107312132Y-80187825D01*
X107312132Y-80140685D01*
X107335703Y-80069975D01*
X107406413Y-79952123D01*
X107524264Y-79834272D01*
X107642115Y-79763562D01*
X107712826Y-79739991D01*
X107759966Y-79739991D01*
X107830677Y-79763562D01*
X100494281Y-87259272D02*
X100494281Y-87306413D01*
X100447141Y-87400694D01*
X100400001Y-87447834D01*
X100305719Y-87494974D01*
X100211439Y-87494975D01*
X100140728Y-87471404D01*
X100022877Y-87400694D01*
X99952166Y-87329983D01*
X99881455Y-87212131D01*
X99857885Y-87141421D01*
X99857885Y-87047140D01*
X99905026Y-86952859D01*
X99952166Y-86905719D01*
X100046447Y-86858579D01*
X100093587Y-86858578D01*
X100541422Y-86740727D02*
X100470711Y-86764297D01*
X100423571Y-86764297D01*
X100352859Y-86740727D01*
X100329289Y-86717157D01*
X100305719Y-86646446D01*
X100305719Y-86599306D01*
X100329290Y-86528595D01*
X100423571Y-86434315D01*
X100494281Y-86410744D01*
X100541421Y-86410744D01*
X100612132Y-86434315D01*
X100635702Y-86457885D01*
X100659273Y-86528595D01*
X100659273Y-86575735D01*
X100635703Y-86646447D01*
X100541422Y-86740727D01*
X100517851Y-86811438D01*
X100517851Y-86858578D01*
X100541421Y-86929289D01*
X100635702Y-87023570D01*
X100706413Y-87047140D01*
X100753553Y-87047140D01*
X100824265Y-87023570D01*
X100918545Y-86929289D01*
X100942115Y-86858578D01*
X100942115Y-86811438D01*
X100918545Y-86740727D01*
X100824264Y-86646447D01*
X100753553Y-86622876D01*
X100706413Y-86622876D01*
X100635703Y-86646447D01*
X101194281Y-83259272D02*
X101194281Y-83306413D01*
X101147141Y-83400694D01*
X101100001Y-83447834D01*
X101005719Y-83494974D01*
X100911439Y-83494975D01*
X100840728Y-83471404D01*
X100722877Y-83400694D01*
X100652166Y-83329983D01*
X100581455Y-83212131D01*
X100557885Y-83141421D01*
X100557885Y-83047140D01*
X100605026Y-82952859D01*
X100652166Y-82905719D01*
X100746447Y-82858579D01*
X100793587Y-82858578D01*
X101477124Y-83070711D02*
X101571405Y-82976430D01*
X101594975Y-82905719D01*
X101594975Y-82858579D01*
X101571405Y-82740727D01*
X101500694Y-82622877D01*
X101312132Y-82434315D01*
X101241421Y-82410744D01*
X101194281Y-82410744D01*
X101123571Y-82434315D01*
X101029290Y-82528595D01*
X101005719Y-82599306D01*
X101005719Y-82646446D01*
X101029289Y-82717157D01*
X101147141Y-82835009D01*
X101217851Y-82858578D01*
X101264992Y-82858579D01*
X101335703Y-82835008D01*
X101429983Y-82740727D01*
X101453554Y-82670017D01*
X101453553Y-82622876D01*
X101429983Y-82552166D01*
X95416667Y-97150000D02*
X95083333Y-97383334D01*
X95416667Y-97550000D02*
X94716667Y-97550000D01*
X94716667Y-97283334D01*
X94750000Y-97216667D01*
X94783333Y-97183334D01*
X94850000Y-97150000D01*
X94950000Y-97150000D01*
X95016667Y-97183334D01*
X95050000Y-97216667D01*
X95083333Y-97283334D01*
X95083333Y-97550000D01*
X95416667Y-96483334D02*
X95416667Y-96883334D01*
X95416667Y-96683334D02*
X94716667Y-96683334D01*
X94816667Y-96750000D01*
X94883333Y-96816667D01*
X94916667Y-96883334D01*
X94716667Y-96050000D02*
X94716667Y-95983333D01*
X94750000Y-95916667D01*
X94783333Y-95883333D01*
X94850000Y-95850000D01*
X94983333Y-95816667D01*
X95150000Y-95816667D01*
X95283333Y-95850000D01*
X95350000Y-95883333D01*
X95383333Y-95916667D01*
X95416667Y-95983333D01*
X95416667Y-96050000D01*
X95383333Y-96116667D01*
X95350000Y-96150000D01*
X95283333Y-96183333D01*
X95150000Y-96216667D01*
X94983333Y-96216667D01*
X94850000Y-96183333D01*
X94783333Y-96150000D01*
X94750000Y-96116667D01*
X94716667Y-96050000D01*
X97216667Y-97150000D02*
X96883333Y-97383334D01*
X97216667Y-97550000D02*
X96516667Y-97550000D01*
X96516667Y-97283334D01*
X96550000Y-97216667D01*
X96583333Y-97183334D01*
X96650000Y-97150000D01*
X96750000Y-97150000D01*
X96816667Y-97183334D01*
X96850000Y-97216667D01*
X96883333Y-97283334D01*
X96883333Y-97550000D01*
X97216667Y-96483334D02*
X97216667Y-96883334D01*
X97216667Y-96683334D02*
X96516667Y-96683334D01*
X96616667Y-96750000D01*
X96683333Y-96816667D01*
X96716667Y-96883334D01*
X97216667Y-95816667D02*
X97216667Y-96216667D01*
X97216667Y-96016667D02*
X96516667Y-96016667D01*
X96616667Y-96083333D01*
X96683333Y-96150000D01*
X96716667Y-96216667D01*
X142550000Y-87050000D02*
X142516666Y-87083333D01*
X142416666Y-87116667D01*
X142350000Y-87116667D01*
X142250000Y-87083333D01*
X142183333Y-87016667D01*
X142150000Y-86950000D01*
X142116666Y-86816667D01*
X142116666Y-86716667D01*
X142150000Y-86583333D01*
X142183333Y-86516667D01*
X142250000Y-86450000D01*
X142350000Y-86416667D01*
X142416666Y-86416667D01*
X142516666Y-86450000D01*
X142550000Y-86483333D01*
X143216666Y-87116667D02*
X142816666Y-87116667D01*
X143016666Y-87116667D02*
X143016666Y-86416667D01*
X142950000Y-86516667D01*
X142883333Y-86583333D01*
X142816666Y-86616667D01*
X143850000Y-86416667D02*
X143516667Y-86416667D01*
X143483333Y-86750000D01*
X143516667Y-86716667D01*
X143583333Y-86683333D01*
X143750000Y-86683333D01*
X143816667Y-86716667D01*
X143850000Y-86750000D01*
X143883333Y-86816667D01*
X143883333Y-86983333D01*
X143850000Y-87050000D01*
X143816667Y-87083333D01*
X143750000Y-87116667D01*
X143583333Y-87116667D01*
X143516667Y-87083333D01*
X143483333Y-87050000D01*
X148050000Y-85150000D02*
X148016666Y-85183333D01*
X147916666Y-85216667D01*
X147850000Y-85216667D01*
X147750000Y-85183333D01*
X147683333Y-85116667D01*
X147650000Y-85050000D01*
X147616666Y-84916667D01*
X147616666Y-84816667D01*
X147650000Y-84683333D01*
X147683333Y-84616667D01*
X147750000Y-84550000D01*
X147850000Y-84516667D01*
X147916666Y-84516667D01*
X148016666Y-84550000D01*
X148050000Y-84583333D01*
X148716666Y-85216667D02*
X148316666Y-85216667D01*
X148516666Y-85216667D02*
X148516666Y-84516667D01*
X148450000Y-84616667D01*
X148383333Y-84683333D01*
X148316666Y-84716667D01*
X149316667Y-84516667D02*
X149183333Y-84516667D01*
X149116667Y-84550000D01*
X149083333Y-84583333D01*
X149016667Y-84683333D01*
X148983333Y-84816667D01*
X148983333Y-85083333D01*
X149016667Y-85150000D01*
X149050000Y-85183333D01*
X149116667Y-85216667D01*
X149250000Y-85216667D01*
X149316667Y-85183333D01*
X149350000Y-85150000D01*
X149383333Y-85083333D01*
X149383333Y-84916667D01*
X149350000Y-84850000D01*
X149316667Y-84816667D01*
X149250000Y-84783333D01*
X149116667Y-84783333D01*
X149050000Y-84816667D01*
X149016667Y-84850000D01*
X148983333Y-84916667D01*
X148883334Y-99416667D02*
X148650000Y-99083333D01*
X148483334Y-99416667D02*
X148483334Y-98716667D01*
X148750000Y-98716667D01*
X148816667Y-98750000D01*
X148850000Y-98783333D01*
X148883334Y-98850000D01*
X148883334Y-98950000D01*
X148850000Y-99016667D01*
X148816667Y-99050000D01*
X148750000Y-99083333D01*
X148483334Y-99083333D01*
X149550000Y-99416667D02*
X149150000Y-99416667D01*
X149350000Y-99416667D02*
X149350000Y-98716667D01*
X149283334Y-98816667D01*
X149216667Y-98883333D01*
X149150000Y-98916667D01*
X148783334Y-97316667D02*
X148550000Y-96983333D01*
X148383334Y-97316667D02*
X148383334Y-96616667D01*
X148650000Y-96616667D01*
X148716667Y-96650000D01*
X148750000Y-96683333D01*
X148783334Y-96750000D01*
X148783334Y-96850000D01*
X148750000Y-96916667D01*
X148716667Y-96950000D01*
X148650000Y-96983333D01*
X148383334Y-96983333D01*
X149050000Y-96683333D02*
X149083334Y-96650000D01*
X149150000Y-96616667D01*
X149316667Y-96616667D01*
X149383334Y-96650000D01*
X149416667Y-96683333D01*
X149450000Y-96750000D01*
X149450000Y-96816667D01*
X149416667Y-96916667D01*
X149016667Y-97316667D01*
X149450000Y-97316667D01*
X148883334Y-95216667D02*
X148650000Y-94883333D01*
X148483334Y-95216667D02*
X148483334Y-94516667D01*
X148750000Y-94516667D01*
X148816667Y-94550000D01*
X148850000Y-94583333D01*
X148883334Y-94650000D01*
X148883334Y-94750000D01*
X148850000Y-94816667D01*
X148816667Y-94850000D01*
X148750000Y-94883333D01*
X148483334Y-94883333D01*
X149116667Y-94516667D02*
X149550000Y-94516667D01*
X149316667Y-94783333D01*
X149416667Y-94783333D01*
X149483334Y-94816667D01*
X149516667Y-94850000D01*
X149550000Y-94916667D01*
X149550000Y-95083333D01*
X149516667Y-95150000D01*
X149483334Y-95183333D01*
X149416667Y-95216667D01*
X149216667Y-95216667D01*
X149150000Y-95183333D01*
X149116667Y-95150000D01*
X148883334Y-93116667D02*
X148650000Y-92783333D01*
X148483334Y-93116667D02*
X148483334Y-92416667D01*
X148750000Y-92416667D01*
X148816667Y-92450000D01*
X148850000Y-92483333D01*
X148883334Y-92550000D01*
X148883334Y-92650000D01*
X148850000Y-92716667D01*
X148816667Y-92750000D01*
X148750000Y-92783333D01*
X148483334Y-92783333D01*
X149483334Y-92650000D02*
X149483334Y-93116667D01*
X149316667Y-92383333D02*
X149150000Y-92883333D01*
X149583334Y-92883333D01*
X143183334Y-90716667D02*
X142950000Y-90383333D01*
X142783334Y-90716667D02*
X142783334Y-90016667D01*
X143050000Y-90016667D01*
X143116667Y-90050000D01*
X143150000Y-90083333D01*
X143183334Y-90150000D01*
X143183334Y-90250000D01*
X143150000Y-90316667D01*
X143116667Y-90350000D01*
X143050000Y-90383333D01*
X142783334Y-90383333D01*
X143816667Y-90016667D02*
X143483334Y-90016667D01*
X143450000Y-90350000D01*
X143483334Y-90316667D01*
X143550000Y-90283333D01*
X143716667Y-90283333D01*
X143783334Y-90316667D01*
X143816667Y-90350000D01*
X143850000Y-90416667D01*
X143850000Y-90583333D01*
X143816667Y-90650000D01*
X143783334Y-90683333D01*
X143716667Y-90716667D01*
X143550000Y-90716667D01*
X143483334Y-90683333D01*
X143450000Y-90650000D01*
X143233334Y-88916667D02*
X143000000Y-88583333D01*
X142833334Y-88916667D02*
X142833334Y-88216667D01*
X143100000Y-88216667D01*
X143166667Y-88250000D01*
X143200000Y-88283333D01*
X143233334Y-88350000D01*
X143233334Y-88450000D01*
X143200000Y-88516667D01*
X143166667Y-88550000D01*
X143100000Y-88583333D01*
X142833334Y-88583333D01*
X143833334Y-88216667D02*
X143700000Y-88216667D01*
X143633334Y-88250000D01*
X143600000Y-88283333D01*
X143533334Y-88383333D01*
X143500000Y-88516667D01*
X143500000Y-88783333D01*
X143533334Y-88850000D01*
X143566667Y-88883333D01*
X143633334Y-88916667D01*
X143766667Y-88916667D01*
X143833334Y-88883333D01*
X143866667Y-88850000D01*
X143900000Y-88783333D01*
X143900000Y-88616667D01*
X143866667Y-88550000D01*
X143833334Y-88516667D01*
X143766667Y-88483333D01*
X143633334Y-88483333D01*
X143566667Y-88516667D01*
X143533334Y-88550000D01*
X143500000Y-88616667D01*
X128783334Y-84266667D02*
X128550000Y-83933333D01*
X128383334Y-84266667D02*
X128383334Y-83566667D01*
X128650000Y-83566667D01*
X128716667Y-83600000D01*
X128750000Y-83633333D01*
X128783334Y-83700000D01*
X128783334Y-83800000D01*
X128750000Y-83866667D01*
X128716667Y-83900000D01*
X128650000Y-83933333D01*
X128383334Y-83933333D01*
X129016667Y-83566667D02*
X129483334Y-83566667D01*
X129183334Y-84266667D01*
X142550000Y-85316667D02*
X142316666Y-84983333D01*
X142150000Y-85316667D02*
X142150000Y-84616667D01*
X142416666Y-84616667D01*
X142483333Y-84650000D01*
X142516666Y-84683333D01*
X142550000Y-84750000D01*
X142550000Y-84850000D01*
X142516666Y-84916667D01*
X142483333Y-84950000D01*
X142416666Y-84983333D01*
X142150000Y-84983333D01*
X143150000Y-84616667D02*
X143016666Y-84616667D01*
X142950000Y-84650000D01*
X142916666Y-84683333D01*
X142850000Y-84783333D01*
X142816666Y-84916667D01*
X142816666Y-85183333D01*
X142850000Y-85250000D01*
X142883333Y-85283333D01*
X142950000Y-85316667D01*
X143083333Y-85316667D01*
X143150000Y-85283333D01*
X143183333Y-85250000D01*
X143216666Y-85183333D01*
X143216666Y-85016667D01*
X143183333Y-84950000D01*
X143150000Y-84916667D01*
X143083333Y-84883333D01*
X142950000Y-84883333D01*
X142883333Y-84916667D01*
X142850000Y-84950000D01*
X142816666Y-85016667D01*
X143450000Y-84616667D02*
X143916667Y-84616667D01*
X143616667Y-85316667D01*
X144483334Y-94450000D02*
X144450000Y-94483333D01*
X144350000Y-94516667D01*
X144283334Y-94516667D01*
X144183334Y-94483333D01*
X144116667Y-94416667D01*
X144083334Y-94350000D01*
X144050000Y-94216667D01*
X144050000Y-94116667D01*
X144083334Y-93983333D01*
X144116667Y-93916667D01*
X144183334Y-93850000D01*
X144283334Y-93816667D01*
X144350000Y-93816667D01*
X144450000Y-93850000D01*
X144483334Y-93883333D01*
X145150000Y-94516667D02*
X144750000Y-94516667D01*
X144950000Y-94516667D02*
X144950000Y-93816667D01*
X144883334Y-93916667D01*
X144816667Y-93983333D01*
X144750000Y-94016667D01*
X145616667Y-101616666D02*
X145283333Y-101850000D01*
X145616667Y-102016666D02*
X144916667Y-102016666D01*
X144916667Y-101750000D01*
X144950000Y-101683333D01*
X144983333Y-101650000D01*
X145050000Y-101616666D01*
X145150000Y-101616666D01*
X145216667Y-101650000D01*
X145250000Y-101683333D01*
X145283333Y-101750000D01*
X145283333Y-102016666D01*
X145216667Y-101216666D02*
X145183333Y-101283333D01*
X145150000Y-101316666D01*
X145083333Y-101350000D01*
X145050000Y-101350000D01*
X144983333Y-101316666D01*
X144950000Y-101283333D01*
X144916667Y-101216666D01*
X144916667Y-101083333D01*
X144950000Y-101016666D01*
X144983333Y-100983333D01*
X145050000Y-100950000D01*
X145083333Y-100950000D01*
X145150000Y-100983333D01*
X145183333Y-101016666D01*
X145216667Y-101083333D01*
X145216667Y-101216666D01*
X145250000Y-101283333D01*
X145283333Y-101316666D01*
X145350000Y-101350000D01*
X145483333Y-101350000D01*
X145550000Y-101316666D01*
X145583333Y-101283333D01*
X145616667Y-101216666D01*
X145616667Y-101083333D01*
X145583333Y-101016666D01*
X145550000Y-100983333D01*
X145483333Y-100950000D01*
X145350000Y-100950000D01*
X145283333Y-100983333D01*
X145250000Y-101016666D01*
X145216667Y-101083333D01*
X145616667Y-103416666D02*
X145283333Y-103650000D01*
X145616667Y-103816666D02*
X144916667Y-103816666D01*
X144916667Y-103550000D01*
X144950000Y-103483333D01*
X144983333Y-103450000D01*
X145050000Y-103416666D01*
X145150000Y-103416666D01*
X145216667Y-103450000D01*
X145250000Y-103483333D01*
X145283333Y-103550000D01*
X145283333Y-103816666D01*
X145616667Y-103083333D02*
X145616667Y-102950000D01*
X145583333Y-102883333D01*
X145550000Y-102850000D01*
X145450000Y-102783333D01*
X145316667Y-102750000D01*
X145050000Y-102750000D01*
X144983333Y-102783333D01*
X144950000Y-102816666D01*
X144916667Y-102883333D01*
X144916667Y-103016666D01*
X144950000Y-103083333D01*
X144983333Y-103116666D01*
X145050000Y-103150000D01*
X145216667Y-103150000D01*
X145283333Y-103116666D01*
X145316667Y-103083333D01*
X145350000Y-103016666D01*
X145350000Y-102883333D01*
X145316667Y-102816666D01*
X145283333Y-102783333D01*
X145216667Y-102750000D01*
X80150000Y-105650000D02*
X80183333Y-105683334D01*
X80216667Y-105783334D01*
X80216667Y-105850000D01*
X80183333Y-105950000D01*
X80116667Y-106016667D01*
X80050000Y-106050000D01*
X79916667Y-106083334D01*
X79816667Y-106083334D01*
X79683333Y-106050000D01*
X79616667Y-106016667D01*
X79550000Y-105950000D01*
X79516667Y-105850000D01*
X79516667Y-105783334D01*
X79550000Y-105683334D01*
X79583333Y-105650000D01*
X80216667Y-104983334D02*
X80216667Y-105383334D01*
X80216667Y-105183334D02*
X79516667Y-105183334D01*
X79616667Y-105250000D01*
X79683333Y-105316667D01*
X79716667Y-105383334D01*
X79516667Y-104750000D02*
X79516667Y-104316667D01*
X79783333Y-104550000D01*
X79783333Y-104450000D01*
X79816667Y-104383333D01*
X79850000Y-104350000D01*
X79916667Y-104316667D01*
X80083333Y-104316667D01*
X80150000Y-104350000D01*
X80183333Y-104383333D01*
X80216667Y-104450000D01*
X80216667Y-104650000D01*
X80183333Y-104716667D01*
X80150000Y-104750000D01*
X78350000Y-105650000D02*
X78383333Y-105683334D01*
X78416667Y-105783334D01*
X78416667Y-105850000D01*
X78383333Y-105950000D01*
X78316667Y-106016667D01*
X78250000Y-106050000D01*
X78116667Y-106083334D01*
X78016667Y-106083334D01*
X77883333Y-106050000D01*
X77816667Y-106016667D01*
X77750000Y-105950000D01*
X77716667Y-105850000D01*
X77716667Y-105783334D01*
X77750000Y-105683334D01*
X77783333Y-105650000D01*
X78416667Y-104983334D02*
X78416667Y-105383334D01*
X78416667Y-105183334D02*
X77716667Y-105183334D01*
X77816667Y-105250000D01*
X77883333Y-105316667D01*
X77916667Y-105383334D01*
X77950000Y-104383333D02*
X78416667Y-104383333D01*
X77683333Y-104550000D02*
X78183333Y-104716667D01*
X78183333Y-104283333D01*
X89350000Y-101350000D02*
X89316666Y-101383333D01*
X89216666Y-101416667D01*
X89150000Y-101416667D01*
X89050000Y-101383333D01*
X88983333Y-101316667D01*
X88950000Y-101250000D01*
X88916666Y-101116667D01*
X88916666Y-101016667D01*
X88950000Y-100883333D01*
X88983333Y-100816667D01*
X89050000Y-100750000D01*
X89150000Y-100716667D01*
X89216666Y-100716667D01*
X89316666Y-100750000D01*
X89350000Y-100783333D01*
X90016666Y-101416667D02*
X89616666Y-101416667D01*
X89816666Y-101416667D02*
X89816666Y-100716667D01*
X89750000Y-100816667D01*
X89683333Y-100883333D01*
X89616666Y-100916667D01*
X90250000Y-100716667D02*
X90716667Y-100716667D01*
X90416667Y-101416667D01*
X88650000Y-98450000D02*
X88616666Y-98483333D01*
X88516666Y-98516667D01*
X88450000Y-98516667D01*
X88350000Y-98483333D01*
X88283333Y-98416667D01*
X88250000Y-98350000D01*
X88216666Y-98216667D01*
X88216666Y-98116667D01*
X88250000Y-97983333D01*
X88283333Y-97916667D01*
X88350000Y-97850000D01*
X88450000Y-97816667D01*
X88516666Y-97816667D01*
X88616666Y-97850000D01*
X88650000Y-97883333D01*
X89316666Y-98516667D02*
X88916666Y-98516667D01*
X89116666Y-98516667D02*
X89116666Y-97816667D01*
X89050000Y-97916667D01*
X88983333Y-97983333D01*
X88916666Y-98016667D01*
X89650000Y-98516667D02*
X89783333Y-98516667D01*
X89850000Y-98483333D01*
X89883333Y-98450000D01*
X89950000Y-98350000D01*
X89983333Y-98216667D01*
X89983333Y-97950000D01*
X89950000Y-97883333D01*
X89916667Y-97850000D01*
X89850000Y-97816667D01*
X89716667Y-97816667D01*
X89650000Y-97850000D01*
X89616667Y-97883333D01*
X89583333Y-97950000D01*
X89583333Y-98116667D01*
X89616667Y-98183333D01*
X89650000Y-98216667D01*
X89716667Y-98250000D01*
X89850000Y-98250000D01*
X89916667Y-98216667D01*
X89950000Y-98183333D01*
X89983333Y-98116667D01*
X81833334Y-91752381D02*
X81357143Y-91752381D01*
X81357143Y-90752381D01*
X82071429Y-90752381D02*
X82690477Y-90752381D01*
X82357143Y-91133333D01*
X82500001Y-91133333D01*
X82595239Y-91180952D01*
X82642858Y-91228571D01*
X82690477Y-91323810D01*
X82690477Y-91561905D01*
X82642858Y-91657143D01*
X82595239Y-91704762D01*
X82500001Y-91752381D01*
X82214286Y-91752381D01*
X82119048Y-91704762D01*
X82071429Y-91657143D01*
X92250000Y-101416667D02*
X92016666Y-101083333D01*
X91850000Y-101416667D02*
X91850000Y-100716667D01*
X92116666Y-100716667D01*
X92183333Y-100750000D01*
X92216666Y-100783333D01*
X92250000Y-100850000D01*
X92250000Y-100950000D01*
X92216666Y-101016667D01*
X92183333Y-101050000D01*
X92116666Y-101083333D01*
X91850000Y-101083333D01*
X92916666Y-101416667D02*
X92516666Y-101416667D01*
X92716666Y-101416667D02*
X92716666Y-100716667D01*
X92650000Y-100816667D01*
X92583333Y-100883333D01*
X92516666Y-100916667D01*
X93150000Y-100716667D02*
X93583333Y-100716667D01*
X93350000Y-100983333D01*
X93450000Y-100983333D01*
X93516667Y-101016667D01*
X93550000Y-101050000D01*
X93583333Y-101116667D01*
X93583333Y-101283333D01*
X93550000Y-101350000D01*
X93516667Y-101383333D01*
X93450000Y-101416667D01*
X93250000Y-101416667D01*
X93183333Y-101383333D01*
X93150000Y-101350000D01*
X89350000Y-105916667D02*
X89116666Y-105583333D01*
X88950000Y-105916667D02*
X88950000Y-105216667D01*
X89216666Y-105216667D01*
X89283333Y-105250000D01*
X89316666Y-105283333D01*
X89350000Y-105350000D01*
X89350000Y-105450000D01*
X89316666Y-105516667D01*
X89283333Y-105550000D01*
X89216666Y-105583333D01*
X88950000Y-105583333D01*
X90016666Y-105916667D02*
X89616666Y-105916667D01*
X89816666Y-105916667D02*
X89816666Y-105216667D01*
X89750000Y-105316667D01*
X89683333Y-105383333D01*
X89616666Y-105416667D01*
X90616667Y-105450000D02*
X90616667Y-105916667D01*
X90450000Y-105183333D02*
X90283333Y-105683333D01*
X90716667Y-105683333D01*
X83850000Y-105616667D02*
X83616666Y-105283333D01*
X83450000Y-105616667D02*
X83450000Y-104916667D01*
X83716666Y-104916667D01*
X83783333Y-104950000D01*
X83816666Y-104983333D01*
X83850000Y-105050000D01*
X83850000Y-105150000D01*
X83816666Y-105216667D01*
X83783333Y-105250000D01*
X83716666Y-105283333D01*
X83450000Y-105283333D01*
X84516666Y-105616667D02*
X84116666Y-105616667D01*
X84316666Y-105616667D02*
X84316666Y-104916667D01*
X84250000Y-105016667D01*
X84183333Y-105083333D01*
X84116666Y-105116667D01*
X85150000Y-104916667D02*
X84816667Y-104916667D01*
X84783333Y-105250000D01*
X84816667Y-105216667D01*
X84883333Y-105183333D01*
X85050000Y-105183333D01*
X85116667Y-105216667D01*
X85150000Y-105250000D01*
X85183333Y-105316667D01*
X85183333Y-105483333D01*
X85150000Y-105550000D01*
X85116667Y-105583333D01*
X85050000Y-105616667D01*
X84883333Y-105616667D01*
X84816667Y-105583333D01*
X84783333Y-105550000D01*
X78638095Y-98952381D02*
X78638095Y-99761905D01*
X78685714Y-99857143D01*
X78733333Y-99904762D01*
X78828571Y-99952381D01*
X79019048Y-99952381D01*
X79114286Y-99904762D01*
X79161905Y-99857143D01*
X79209524Y-99761905D01*
X79209524Y-98952381D01*
X79590476Y-98952381D02*
X80209524Y-98952381D01*
X79876190Y-99333333D01*
X80019048Y-99333333D01*
X80114286Y-99380952D01*
X80161905Y-99428571D01*
X80209524Y-99523810D01*
X80209524Y-99761905D01*
X80161905Y-99857143D01*
X80114286Y-99904762D01*
X80019048Y-99952381D01*
X79733333Y-99952381D01*
X79638095Y-99904762D01*
X79590476Y-99857143D01*
X100852513Y-85923917D02*
X101088215Y-86159619D01*
X100428249Y-85829636D02*
X100852513Y-85923917D01*
X100758232Y-85499653D01*
X101677471Y-85570364D02*
X101394628Y-85853207D01*
X101536049Y-85711785D02*
X101041075Y-85216811D01*
X101064645Y-85334661D01*
X101064645Y-85428942D01*
X101041075Y-85499653D01*
X90683334Y-98516667D02*
X90683334Y-97816667D01*
X90850000Y-97816667D01*
X90950000Y-97850000D01*
X91016667Y-97916667D01*
X91050000Y-97983333D01*
X91083334Y-98116667D01*
X91083334Y-98216667D01*
X91050000Y-98350000D01*
X91016667Y-98416667D01*
X90950000Y-98483333D01*
X90850000Y-98516667D01*
X90683334Y-98516667D01*
X91716667Y-97816667D02*
X91383334Y-97816667D01*
X91350000Y-98150000D01*
X91383334Y-98116667D01*
X91450000Y-98083333D01*
X91616667Y-98083333D01*
X91683334Y-98116667D01*
X91716667Y-98150000D01*
X91750000Y-98216667D01*
X91750000Y-98383333D01*
X91716667Y-98450000D01*
X91683334Y-98483333D01*
X91616667Y-98516667D01*
X91450000Y-98516667D01*
X91383334Y-98483333D01*
X91350000Y-98450000D01*
X76950000Y-96550000D02*
X76916666Y-96583333D01*
X76816666Y-96616667D01*
X76750000Y-96616667D01*
X76650000Y-96583333D01*
X76583333Y-96516667D01*
X76550000Y-96450000D01*
X76516666Y-96316667D01*
X76516666Y-96216667D01*
X76550000Y-96083333D01*
X76583333Y-96016667D01*
X76650000Y-95950000D01*
X76750000Y-95916667D01*
X76816666Y-95916667D01*
X76916666Y-95950000D01*
X76950000Y-95983333D01*
X77216666Y-95983333D02*
X77250000Y-95950000D01*
X77316666Y-95916667D01*
X77483333Y-95916667D01*
X77550000Y-95950000D01*
X77583333Y-95983333D01*
X77616666Y-96050000D01*
X77616666Y-96116667D01*
X77583333Y-96216667D01*
X77183333Y-96616667D01*
X77616666Y-96616667D01*
X78283333Y-96616667D02*
X77883333Y-96616667D01*
X78083333Y-96616667D02*
X78083333Y-95916667D01*
X78016667Y-96016667D01*
X77950000Y-96083333D01*
X77883333Y-96116667D01*
X79250000Y-96550000D02*
X79216666Y-96583333D01*
X79116666Y-96616667D01*
X79050000Y-96616667D01*
X78950000Y-96583333D01*
X78883333Y-96516667D01*
X78850000Y-96450000D01*
X78816666Y-96316667D01*
X78816666Y-96216667D01*
X78850000Y-96083333D01*
X78883333Y-96016667D01*
X78950000Y-95950000D01*
X79050000Y-95916667D01*
X79116666Y-95916667D01*
X79216666Y-95950000D01*
X79250000Y-95983333D01*
X79516666Y-95983333D02*
X79550000Y-95950000D01*
X79616666Y-95916667D01*
X79783333Y-95916667D01*
X79850000Y-95950000D01*
X79883333Y-95983333D01*
X79916666Y-96050000D01*
X79916666Y-96116667D01*
X79883333Y-96216667D01*
X79483333Y-96616667D01*
X79916666Y-96616667D01*
X80350000Y-95916667D02*
X80416667Y-95916667D01*
X80483333Y-95950000D01*
X80516667Y-95983333D01*
X80550000Y-96050000D01*
X80583333Y-96183333D01*
X80583333Y-96350000D01*
X80550000Y-96483333D01*
X80516667Y-96550000D01*
X80483333Y-96583333D01*
X80416667Y-96616667D01*
X80350000Y-96616667D01*
X80283333Y-96583333D01*
X80250000Y-96550000D01*
X80216667Y-96483333D01*
X80183333Y-96350000D01*
X80183333Y-96183333D01*
X80216667Y-96050000D01*
X80250000Y-95983333D01*
X80283333Y-95950000D01*
X80350000Y-95916667D01*
X131483334Y-95350000D02*
X131450000Y-95383333D01*
X131350000Y-95416667D01*
X131283334Y-95416667D01*
X131183334Y-95383333D01*
X131116667Y-95316667D01*
X131083334Y-95250000D01*
X131050000Y-95116667D01*
X131050000Y-95016667D01*
X131083334Y-94883333D01*
X131116667Y-94816667D01*
X131183334Y-94750000D01*
X131283334Y-94716667D01*
X131350000Y-94716667D01*
X131450000Y-94750000D01*
X131483334Y-94783333D01*
X131716667Y-94716667D02*
X132150000Y-94716667D01*
X131916667Y-94983333D01*
X132016667Y-94983333D01*
X132083334Y-95016667D01*
X132116667Y-95050000D01*
X132150000Y-95116667D01*
X132150000Y-95283333D01*
X132116667Y-95350000D01*
X132083334Y-95383333D01*
X132016667Y-95416667D01*
X131816667Y-95416667D01*
X131750000Y-95383333D01*
X131716667Y-95350000D01*
X131483334Y-93050000D02*
X131450000Y-93083333D01*
X131350000Y-93116667D01*
X131283334Y-93116667D01*
X131183334Y-93083333D01*
X131116667Y-93016667D01*
X131083334Y-92950000D01*
X131050000Y-92816667D01*
X131050000Y-92716667D01*
X131083334Y-92583333D01*
X131116667Y-92516667D01*
X131183334Y-92450000D01*
X131283334Y-92416667D01*
X131350000Y-92416667D01*
X131450000Y-92450000D01*
X131483334Y-92483333D01*
X131750000Y-92483333D02*
X131783334Y-92450000D01*
X131850000Y-92416667D01*
X132016667Y-92416667D01*
X132083334Y-92450000D01*
X132116667Y-92483333D01*
X132150000Y-92550000D01*
X132150000Y-92616667D01*
X132116667Y-92716667D01*
X131716667Y-93116667D01*
X132150000Y-93116667D01*
X165990476Y-90352381D02*
X165990476Y-89352381D01*
X166323810Y-90066667D01*
X166657143Y-89352381D01*
X166657143Y-90352381D01*
X167133333Y-90352381D02*
X167133333Y-89352381D01*
X167514286Y-89352381D01*
X167609524Y-89400000D01*
X167657143Y-89447619D01*
X167704762Y-89542857D01*
X167704762Y-89685714D01*
X167657143Y-89780952D01*
X167609524Y-89828571D01*
X167514286Y-89876190D01*
X167133333Y-89876190D01*
X168038095Y-89352381D02*
X168657143Y-89352381D01*
X168323809Y-89733333D01*
X168466667Y-89733333D01*
X168561905Y-89780952D01*
X168609524Y-89828571D01*
X168657143Y-89923810D01*
X168657143Y-90161905D01*
X168609524Y-90257143D01*
X168561905Y-90304762D01*
X168466667Y-90352381D01*
X168180952Y-90352381D01*
X168085714Y-90304762D01*
X168038095Y-90257143D01*
X139690476Y-124452381D02*
X139690476Y-123452381D01*
X140023810Y-124166667D01*
X140357143Y-123452381D01*
X140357143Y-124452381D01*
X140833333Y-124452381D02*
X140833333Y-123452381D01*
X141214286Y-123452381D01*
X141309524Y-123500000D01*
X141357143Y-123547619D01*
X141404762Y-123642857D01*
X141404762Y-123785714D01*
X141357143Y-123880952D01*
X141309524Y-123928571D01*
X141214286Y-123976190D01*
X140833333Y-123976190D01*
X141785714Y-123547619D02*
X141833333Y-123500000D01*
X141928571Y-123452381D01*
X142166667Y-123452381D01*
X142261905Y-123500000D01*
X142309524Y-123547619D01*
X142357143Y-123642857D01*
X142357143Y-123738095D01*
X142309524Y-123880952D01*
X141738095Y-124452381D01*
X142357143Y-124452381D01*
X98950000Y-97250000D02*
X98983333Y-97283334D01*
X99016667Y-97383334D01*
X99016667Y-97450000D01*
X98983333Y-97550000D01*
X98916667Y-97616667D01*
X98850000Y-97650000D01*
X98716667Y-97683334D01*
X98616667Y-97683334D01*
X98483333Y-97650000D01*
X98416667Y-97616667D01*
X98350000Y-97550000D01*
X98316667Y-97450000D01*
X98316667Y-97383334D01*
X98350000Y-97283334D01*
X98383333Y-97250000D01*
X99016667Y-96583334D02*
X99016667Y-96983334D01*
X99016667Y-96783334D02*
X98316667Y-96783334D01*
X98416667Y-96850000D01*
X98483333Y-96916667D01*
X98516667Y-96983334D01*
X98383333Y-96316667D02*
X98350000Y-96283333D01*
X98316667Y-96216667D01*
X98316667Y-96050000D01*
X98350000Y-95983333D01*
X98383333Y-95950000D01*
X98450000Y-95916667D01*
X98516667Y-95916667D01*
X98616667Y-95950000D01*
X99016667Y-96350000D01*
X99016667Y-95916667D01*
X93550000Y-97150000D02*
X93583333Y-97183334D01*
X93616667Y-97283334D01*
X93616667Y-97350000D01*
X93583333Y-97450000D01*
X93516667Y-97516667D01*
X93450000Y-97550000D01*
X93316667Y-97583334D01*
X93216667Y-97583334D01*
X93083333Y-97550000D01*
X93016667Y-97516667D01*
X92950000Y-97450000D01*
X92916667Y-97350000D01*
X92916667Y-97283334D01*
X92950000Y-97183334D01*
X92983333Y-97150000D01*
X93616667Y-96483334D02*
X93616667Y-96883334D01*
X93616667Y-96683334D02*
X92916667Y-96683334D01*
X93016667Y-96750000D01*
X93083333Y-96816667D01*
X93116667Y-96883334D01*
X93216667Y-96083333D02*
X93183333Y-96150000D01*
X93150000Y-96183333D01*
X93083333Y-96216667D01*
X93050000Y-96216667D01*
X92983333Y-96183333D01*
X92950000Y-96150000D01*
X92916667Y-96083333D01*
X92916667Y-95950000D01*
X92950000Y-95883333D01*
X92983333Y-95850000D01*
X93050000Y-95816667D01*
X93083333Y-95816667D01*
X93150000Y-95850000D01*
X93183333Y-95883333D01*
X93216667Y-95950000D01*
X93216667Y-96083333D01*
X93250000Y-96150000D01*
X93283333Y-96183333D01*
X93350000Y-96216667D01*
X93483333Y-96216667D01*
X93550000Y-96183333D01*
X93583333Y-96150000D01*
X93616667Y-96083333D01*
X93616667Y-95950000D01*
X93583333Y-95883333D01*
X93550000Y-95850000D01*
X93483333Y-95816667D01*
X93350000Y-95816667D01*
X93283333Y-95850000D01*
X93250000Y-95883333D01*
X93216667Y-95950000D01*
X100816667Y-97250000D02*
X100483333Y-97483334D01*
X100816667Y-97650000D02*
X100116667Y-97650000D01*
X100116667Y-97383334D01*
X100150000Y-97316667D01*
X100183333Y-97283334D01*
X100250000Y-97250000D01*
X100350000Y-97250000D01*
X100416667Y-97283334D01*
X100450000Y-97316667D01*
X100483333Y-97383334D01*
X100483333Y-97650000D01*
X100816667Y-96583334D02*
X100816667Y-96983334D01*
X100816667Y-96783334D02*
X100116667Y-96783334D01*
X100216667Y-96850000D01*
X100283333Y-96916667D01*
X100316667Y-96983334D01*
X100183333Y-96316667D02*
X100150000Y-96283333D01*
X100116667Y-96216667D01*
X100116667Y-96050000D01*
X100150000Y-95983333D01*
X100183333Y-95950000D01*
X100250000Y-95916667D01*
X100316667Y-95916667D01*
X100416667Y-95950000D01*
X100816667Y-96350000D01*
X100816667Y-95916667D01*
M02*
