G04 #@! TF.FileFunction,Soldermask,Bot*
%FSLAX46Y46*%
G04 Gerber Fmt 4.6, Leading zero omitted, Abs format (unit mm)*
G04 Created by KiCad (PCBNEW 4.0.3+e1-6302~38~ubuntu14.04.1-stable) date Mon Dec 12 18:49:00 2016*
%MOMM*%
%LPD*%
G01*
G04 APERTURE LIST*
%ADD10C,0.100000*%
%ADD11C,3.000000*%
%ADD12C,2.750000*%
%ADD13C,1.200000*%
%ADD14O,1.500000X2.400000*%
%ADD15C,2.350000*%
%ADD16C,1.230000*%
%ADD17C,1.016000*%
%ADD18C,3.600000*%
%ADD19C,1.524000*%
%ADD20C,2.000000*%
%ADD21C,2.700020*%
%ADD22C,1.500000*%
%ADD23C,2.700000*%
G04 APERTURE END LIST*
D10*
D11*
X65150000Y-105600000D03*
X70650000Y-105600000D03*
X65150000Y-101400000D03*
X70650000Y-101400000D03*
X65150000Y-97200000D03*
X70650000Y-97200000D03*
X65150000Y-93000000D03*
X70650000Y-93000000D03*
D12*
X139500000Y-136000000D03*
X139500000Y-87000000D03*
X81500000Y-136000000D03*
X81500000Y-87000000D03*
D13*
X91900000Y-85500000D03*
X93300000Y-85500000D03*
X94700000Y-85500000D03*
X96100000Y-85500000D03*
D14*
X91730000Y-78390000D03*
X91730000Y-82230000D03*
X96570000Y-78390000D03*
X96570000Y-82230000D03*
D15*
X150000000Y-118000000D03*
X150000000Y-108850000D03*
D16*
X148750000Y-129650000D03*
X146750000Y-128650000D03*
X148750000Y-127650000D03*
X146750000Y-126650000D03*
X148750000Y-125650000D03*
X146750000Y-124650000D03*
X148750000Y-123650000D03*
X146750000Y-122650000D03*
X148750000Y-121650000D03*
X146750000Y-120650000D03*
X148750000Y-119650000D03*
X146750000Y-116650000D03*
X148750000Y-115650000D03*
X146750000Y-114650000D03*
X148750000Y-113650000D03*
X146750000Y-112650000D03*
X148750000Y-111650000D03*
X146750000Y-110650000D03*
X151250000Y-129650000D03*
X153250000Y-128650000D03*
X151250000Y-127650000D03*
X153250000Y-126650000D03*
X151250000Y-125650000D03*
X153250000Y-124650000D03*
X151250000Y-123650000D03*
X153250000Y-122650000D03*
X151250000Y-121650000D03*
X153250000Y-120650000D03*
X151250000Y-119650000D03*
X153250000Y-116650000D03*
X151250000Y-115650000D03*
X153250000Y-114650000D03*
X151250000Y-113650000D03*
X153250000Y-112650000D03*
X151250000Y-111650000D03*
X153250000Y-110650000D03*
D15*
X140000000Y-118000000D03*
X140000000Y-108850000D03*
D16*
X138750000Y-129650000D03*
X136750000Y-128650000D03*
X138750000Y-127650000D03*
X136750000Y-126650000D03*
X138750000Y-125650000D03*
X136750000Y-124650000D03*
X138750000Y-123650000D03*
X136750000Y-122650000D03*
X138750000Y-121650000D03*
X136750000Y-120650000D03*
X138750000Y-119650000D03*
X136750000Y-116650000D03*
X138750000Y-115650000D03*
X136750000Y-114650000D03*
X138750000Y-113650000D03*
X136750000Y-112650000D03*
X138750000Y-111650000D03*
X136750000Y-110650000D03*
X141250000Y-129650000D03*
X143250000Y-128650000D03*
X141250000Y-127650000D03*
X143250000Y-126650000D03*
X141250000Y-125650000D03*
X143250000Y-124650000D03*
X141250000Y-123650000D03*
X143250000Y-122650000D03*
X141250000Y-121650000D03*
X143250000Y-120650000D03*
X141250000Y-119650000D03*
X143250000Y-116650000D03*
X141250000Y-115650000D03*
X143250000Y-114650000D03*
X141250000Y-113650000D03*
X143250000Y-112650000D03*
X141250000Y-111650000D03*
X143250000Y-110650000D03*
D15*
X130000000Y-118000000D03*
X130000000Y-108850000D03*
D16*
X128750000Y-129650000D03*
X126750000Y-128650000D03*
X128750000Y-127650000D03*
X126750000Y-126650000D03*
X128750000Y-125650000D03*
X126750000Y-124650000D03*
X128750000Y-123650000D03*
X126750000Y-122650000D03*
X128750000Y-121650000D03*
X126750000Y-120650000D03*
X128750000Y-119650000D03*
X126750000Y-116650000D03*
X128750000Y-115650000D03*
X126750000Y-114650000D03*
X128750000Y-113650000D03*
X126750000Y-112650000D03*
X128750000Y-111650000D03*
X126750000Y-110650000D03*
X131250000Y-129650000D03*
X133250000Y-128650000D03*
X131250000Y-127650000D03*
X133250000Y-126650000D03*
X131250000Y-125650000D03*
X133250000Y-124650000D03*
X131250000Y-123650000D03*
X133250000Y-122650000D03*
X131250000Y-121650000D03*
X133250000Y-120650000D03*
X131250000Y-119650000D03*
X133250000Y-116650000D03*
X131250000Y-115650000D03*
X133250000Y-114650000D03*
X131250000Y-113650000D03*
X133250000Y-112650000D03*
X131250000Y-111650000D03*
X133250000Y-110650000D03*
D15*
X120000000Y-118000000D03*
X120000000Y-108850000D03*
D16*
X118750000Y-129650000D03*
X116750000Y-128650000D03*
X118750000Y-127650000D03*
X116750000Y-126650000D03*
X118750000Y-125650000D03*
X116750000Y-124650000D03*
X118750000Y-123650000D03*
X116750000Y-122650000D03*
X118750000Y-121650000D03*
X116750000Y-120650000D03*
X118750000Y-119650000D03*
X116750000Y-116650000D03*
X118750000Y-115650000D03*
X116750000Y-114650000D03*
X118750000Y-113650000D03*
X116750000Y-112650000D03*
X118750000Y-111650000D03*
X116750000Y-110650000D03*
X121250000Y-129650000D03*
X123250000Y-128650000D03*
X121250000Y-127650000D03*
X123250000Y-126650000D03*
X121250000Y-125650000D03*
X123250000Y-124650000D03*
X121250000Y-123650000D03*
X123250000Y-122650000D03*
X121250000Y-121650000D03*
X123250000Y-120650000D03*
X121250000Y-119650000D03*
X123250000Y-116650000D03*
X121250000Y-115650000D03*
X123250000Y-114650000D03*
X121250000Y-113650000D03*
X123250000Y-112650000D03*
X121250000Y-111650000D03*
X123250000Y-110650000D03*
D15*
X110000000Y-118000000D03*
X110000000Y-108850000D03*
D16*
X108750000Y-129650000D03*
X106750000Y-128650000D03*
X108750000Y-127650000D03*
X106750000Y-126650000D03*
X108750000Y-125650000D03*
X106750000Y-124650000D03*
X108750000Y-123650000D03*
X106750000Y-122650000D03*
X108750000Y-121650000D03*
X106750000Y-120650000D03*
X108750000Y-119650000D03*
X106750000Y-116650000D03*
X108750000Y-115650000D03*
X106750000Y-114650000D03*
X108750000Y-113650000D03*
X106750000Y-112650000D03*
X108750000Y-111650000D03*
X106750000Y-110650000D03*
X111250000Y-129650000D03*
X113250000Y-128650000D03*
X111250000Y-127650000D03*
X113250000Y-126650000D03*
X111250000Y-125650000D03*
X113250000Y-124650000D03*
X111250000Y-123650000D03*
X113250000Y-122650000D03*
X111250000Y-121650000D03*
X113250000Y-120650000D03*
X111250000Y-119650000D03*
X113250000Y-116650000D03*
X111250000Y-115650000D03*
X113250000Y-114650000D03*
X111250000Y-113650000D03*
X113250000Y-112650000D03*
X111250000Y-111650000D03*
X113250000Y-110650000D03*
D15*
X100000000Y-118000000D03*
X100000000Y-108850000D03*
D16*
X98750000Y-129650000D03*
X96750000Y-128650000D03*
X98750000Y-127650000D03*
X96750000Y-126650000D03*
X98750000Y-125650000D03*
X96750000Y-124650000D03*
X98750000Y-123650000D03*
X96750000Y-122650000D03*
X98750000Y-121650000D03*
X96750000Y-120650000D03*
X98750000Y-119650000D03*
X96750000Y-116650000D03*
X98750000Y-115650000D03*
X96750000Y-114650000D03*
X98750000Y-113650000D03*
X96750000Y-112650000D03*
X98750000Y-111650000D03*
X96750000Y-110650000D03*
X101250000Y-129650000D03*
X103250000Y-128650000D03*
X101250000Y-127650000D03*
X103250000Y-126650000D03*
X101250000Y-125650000D03*
X103250000Y-124650000D03*
X101250000Y-123650000D03*
X103250000Y-122650000D03*
X101250000Y-121650000D03*
X103250000Y-120650000D03*
X101250000Y-119650000D03*
X103250000Y-116650000D03*
X101250000Y-115650000D03*
X103250000Y-114650000D03*
X101250000Y-113650000D03*
X103250000Y-112650000D03*
X101250000Y-111650000D03*
X103250000Y-110650000D03*
D15*
X90000000Y-118000000D03*
X90000000Y-108850000D03*
D16*
X88750000Y-129650000D03*
X86750000Y-128650000D03*
X88750000Y-127650000D03*
X86750000Y-126650000D03*
X88750000Y-125650000D03*
X86750000Y-124650000D03*
X88750000Y-123650000D03*
X86750000Y-122650000D03*
X88750000Y-121650000D03*
X86750000Y-120650000D03*
X88750000Y-119650000D03*
X86750000Y-116650000D03*
X88750000Y-115650000D03*
X86750000Y-114650000D03*
X88750000Y-113650000D03*
X86750000Y-112650000D03*
X88750000Y-111650000D03*
X86750000Y-110650000D03*
X91250000Y-129650000D03*
X93250000Y-128650000D03*
X91250000Y-127650000D03*
X93250000Y-126650000D03*
X91250000Y-125650000D03*
X93250000Y-124650000D03*
X91250000Y-123650000D03*
X93250000Y-122650000D03*
X91250000Y-121650000D03*
X93250000Y-120650000D03*
X91250000Y-119650000D03*
X93250000Y-116650000D03*
X91250000Y-115650000D03*
X93250000Y-114650000D03*
X91250000Y-113650000D03*
X93250000Y-112650000D03*
X91250000Y-111650000D03*
X93250000Y-110650000D03*
D15*
X80000000Y-118000000D03*
X80000000Y-108850000D03*
D16*
X78750000Y-129650000D03*
X76750000Y-128650000D03*
X78750000Y-127650000D03*
X76750000Y-126650000D03*
X78750000Y-125650000D03*
X76750000Y-124650000D03*
X78750000Y-123650000D03*
X76750000Y-122650000D03*
X78750000Y-121650000D03*
X76750000Y-120650000D03*
X78750000Y-119650000D03*
X76750000Y-116650000D03*
X78750000Y-115650000D03*
X76750000Y-114650000D03*
X78750000Y-113650000D03*
X76750000Y-112650000D03*
X78750000Y-111650000D03*
X76750000Y-110650000D03*
X81250000Y-129650000D03*
X83250000Y-128650000D03*
X81250000Y-127650000D03*
X83250000Y-126650000D03*
X81250000Y-125650000D03*
X83250000Y-124650000D03*
X81250000Y-123650000D03*
X83250000Y-122650000D03*
X81250000Y-121650000D03*
X83250000Y-120650000D03*
X81250000Y-119650000D03*
X83250000Y-116650000D03*
X81250000Y-115650000D03*
X83250000Y-114650000D03*
X81250000Y-113650000D03*
X83250000Y-112650000D03*
X81250000Y-111650000D03*
X83250000Y-110650000D03*
D15*
X70000000Y-118000000D03*
X70000000Y-108850000D03*
D16*
X68750000Y-129650000D03*
X66750000Y-128650000D03*
X68750000Y-127650000D03*
X66750000Y-126650000D03*
X68750000Y-125650000D03*
X66750000Y-124650000D03*
X68750000Y-123650000D03*
X66750000Y-122650000D03*
X68750000Y-121650000D03*
X66750000Y-120650000D03*
X68750000Y-119650000D03*
X66750000Y-116650000D03*
X68750000Y-115650000D03*
X66750000Y-114650000D03*
X68750000Y-113650000D03*
X66750000Y-112650000D03*
X68750000Y-111650000D03*
X66750000Y-110650000D03*
X71250000Y-129650000D03*
X73250000Y-128650000D03*
X71250000Y-127650000D03*
X73250000Y-126650000D03*
X71250000Y-125650000D03*
X73250000Y-124650000D03*
X71250000Y-123650000D03*
X73250000Y-122650000D03*
X71250000Y-121650000D03*
X73250000Y-120650000D03*
X71250000Y-119650000D03*
X73250000Y-116650000D03*
X71250000Y-115650000D03*
X73250000Y-114650000D03*
X71250000Y-113650000D03*
X73250000Y-112650000D03*
X71250000Y-111650000D03*
X73250000Y-110650000D03*
D15*
X210000000Y-118000000D03*
X210000000Y-108850000D03*
D16*
X208750000Y-129650000D03*
X206750000Y-128650000D03*
X208750000Y-127650000D03*
X206750000Y-126650000D03*
X208750000Y-125650000D03*
X206750000Y-124650000D03*
X208750000Y-123650000D03*
X206750000Y-122650000D03*
X208750000Y-121650000D03*
X206750000Y-120650000D03*
X208750000Y-119650000D03*
X206750000Y-116650000D03*
X208750000Y-115650000D03*
X206750000Y-114650000D03*
X208750000Y-113650000D03*
X206750000Y-112650000D03*
X208750000Y-111650000D03*
X206750000Y-110650000D03*
X211250000Y-129650000D03*
X213250000Y-128650000D03*
X211250000Y-127650000D03*
X213250000Y-126650000D03*
X211250000Y-125650000D03*
X213250000Y-124650000D03*
X211250000Y-123650000D03*
X213250000Y-122650000D03*
X211250000Y-121650000D03*
X213250000Y-120650000D03*
X211250000Y-119650000D03*
X213250000Y-116650000D03*
X211250000Y-115650000D03*
X213250000Y-114650000D03*
X211250000Y-113650000D03*
X213250000Y-112650000D03*
X211250000Y-111650000D03*
X213250000Y-110650000D03*
D15*
X200000000Y-118000000D03*
X200000000Y-108850000D03*
D16*
X198750000Y-129650000D03*
X196750000Y-128650000D03*
X198750000Y-127650000D03*
X196750000Y-126650000D03*
X198750000Y-125650000D03*
X196750000Y-124650000D03*
X198750000Y-123650000D03*
X196750000Y-122650000D03*
X198750000Y-121650000D03*
X196750000Y-120650000D03*
X198750000Y-119650000D03*
X196750000Y-116650000D03*
X198750000Y-115650000D03*
X196750000Y-114650000D03*
X198750000Y-113650000D03*
X196750000Y-112650000D03*
X198750000Y-111650000D03*
X196750000Y-110650000D03*
X201250000Y-129650000D03*
X203250000Y-128650000D03*
X201250000Y-127650000D03*
X203250000Y-126650000D03*
X201250000Y-125650000D03*
X203250000Y-124650000D03*
X201250000Y-123650000D03*
X203250000Y-122650000D03*
X201250000Y-121650000D03*
X203250000Y-120650000D03*
X201250000Y-119650000D03*
X203250000Y-116650000D03*
X201250000Y-115650000D03*
X203250000Y-114650000D03*
X201250000Y-113650000D03*
X203250000Y-112650000D03*
X201250000Y-111650000D03*
X203250000Y-110650000D03*
D15*
X190000000Y-118000000D03*
X190000000Y-108850000D03*
D16*
X188750000Y-129650000D03*
X186750000Y-128650000D03*
X188750000Y-127650000D03*
X186750000Y-126650000D03*
X188750000Y-125650000D03*
X186750000Y-124650000D03*
X188750000Y-123650000D03*
X186750000Y-122650000D03*
X188750000Y-121650000D03*
X186750000Y-120650000D03*
X188750000Y-119650000D03*
X186750000Y-116650000D03*
X188750000Y-115650000D03*
X186750000Y-114650000D03*
X188750000Y-113650000D03*
X186750000Y-112650000D03*
X188750000Y-111650000D03*
X186750000Y-110650000D03*
X191250000Y-129650000D03*
X193250000Y-128650000D03*
X191250000Y-127650000D03*
X193250000Y-126650000D03*
X191250000Y-125650000D03*
X193250000Y-124650000D03*
X191250000Y-123650000D03*
X193250000Y-122650000D03*
X191250000Y-121650000D03*
X193250000Y-120650000D03*
X191250000Y-119650000D03*
X193250000Y-116650000D03*
X191250000Y-115650000D03*
X193250000Y-114650000D03*
X191250000Y-113650000D03*
X193250000Y-112650000D03*
X191250000Y-111650000D03*
X193250000Y-110650000D03*
D15*
X180000000Y-118000000D03*
X180000000Y-108850000D03*
D16*
X178750000Y-129650000D03*
X176750000Y-128650000D03*
X178750000Y-127650000D03*
X176750000Y-126650000D03*
X178750000Y-125650000D03*
X176750000Y-124650000D03*
X178750000Y-123650000D03*
X176750000Y-122650000D03*
X178750000Y-121650000D03*
X176750000Y-120650000D03*
X178750000Y-119650000D03*
X176750000Y-116650000D03*
X178750000Y-115650000D03*
X176750000Y-114650000D03*
X178750000Y-113650000D03*
X176750000Y-112650000D03*
X178750000Y-111650000D03*
X176750000Y-110650000D03*
X181250000Y-129650000D03*
X183250000Y-128650000D03*
X181250000Y-127650000D03*
X183250000Y-126650000D03*
X181250000Y-125650000D03*
X183250000Y-124650000D03*
X181250000Y-123650000D03*
X183250000Y-122650000D03*
X181250000Y-121650000D03*
X183250000Y-120650000D03*
X181250000Y-119650000D03*
X183250000Y-116650000D03*
X181250000Y-115650000D03*
X183250000Y-114650000D03*
X181250000Y-113650000D03*
X183250000Y-112650000D03*
X181250000Y-111650000D03*
X183250000Y-110650000D03*
D15*
X170000000Y-118000000D03*
X170000000Y-108850000D03*
D16*
X168750000Y-129650000D03*
X166750000Y-128650000D03*
X168750000Y-127650000D03*
X166750000Y-126650000D03*
X168750000Y-125650000D03*
X166750000Y-124650000D03*
X168750000Y-123650000D03*
X166750000Y-122650000D03*
X168750000Y-121650000D03*
X166750000Y-120650000D03*
X168750000Y-119650000D03*
X166750000Y-116650000D03*
X168750000Y-115650000D03*
X166750000Y-114650000D03*
X168750000Y-113650000D03*
X166750000Y-112650000D03*
X168750000Y-111650000D03*
X166750000Y-110650000D03*
X171250000Y-129650000D03*
X173250000Y-128650000D03*
X171250000Y-127650000D03*
X173250000Y-126650000D03*
X171250000Y-125650000D03*
X173250000Y-124650000D03*
X171250000Y-123650000D03*
X173250000Y-122650000D03*
X171250000Y-121650000D03*
X173250000Y-120650000D03*
X171250000Y-119650000D03*
X173250000Y-116650000D03*
X171250000Y-115650000D03*
X173250000Y-114650000D03*
X171250000Y-113650000D03*
X173250000Y-112650000D03*
X171250000Y-111650000D03*
X173250000Y-110650000D03*
D15*
X160000000Y-118000000D03*
X160000000Y-108850000D03*
D16*
X158750000Y-129650000D03*
X156750000Y-128650000D03*
X158750000Y-127650000D03*
X156750000Y-126650000D03*
X158750000Y-125650000D03*
X156750000Y-124650000D03*
X158750000Y-123650000D03*
X156750000Y-122650000D03*
X158750000Y-121650000D03*
X156750000Y-120650000D03*
X158750000Y-119650000D03*
X156750000Y-116650000D03*
X158750000Y-115650000D03*
X156750000Y-114650000D03*
X158750000Y-113650000D03*
X156750000Y-112650000D03*
X158750000Y-111650000D03*
X156750000Y-110650000D03*
X161250000Y-129650000D03*
X163250000Y-128650000D03*
X161250000Y-127650000D03*
X163250000Y-126650000D03*
X161250000Y-125650000D03*
X163250000Y-124650000D03*
X161250000Y-123650000D03*
X163250000Y-122650000D03*
X161250000Y-121650000D03*
X163250000Y-120650000D03*
X161250000Y-119650000D03*
X163250000Y-116650000D03*
X161250000Y-115650000D03*
X163250000Y-114650000D03*
X161250000Y-113650000D03*
X163250000Y-112650000D03*
X161250000Y-111650000D03*
X163250000Y-110650000D03*
D17*
X102865000Y-75160000D03*
X104135000Y-75160000D03*
X102865000Y-76430000D03*
X104135000Y-76430000D03*
X102865000Y-77700000D03*
X104135000Y-77700000D03*
X102865000Y-78970000D03*
X104135000Y-78970000D03*
X102865000Y-80240000D03*
X104135000Y-80240000D03*
D18*
X172000000Y-77500000D03*
X55000000Y-135000000D03*
X85000000Y-77500000D03*
X222000000Y-135000000D03*
D19*
X148150000Y-75950000D03*
X154650000Y-75950000D03*
X148150000Y-80450000D03*
X154650000Y-80450000D03*
X138750000Y-75950000D03*
X145250000Y-75950000D03*
X138750000Y-80450000D03*
X145250000Y-80450000D03*
D20*
X55200000Y-107500000D03*
X55200000Y-102500000D03*
X55200000Y-97500000D03*
X55200000Y-92500000D03*
D19*
X66000000Y-80460000D03*
X66000000Y-83000000D03*
X64001020Y-83000000D03*
X64001020Y-80460000D03*
D21*
X61301000Y-75730520D03*
X61301000Y-87729480D03*
D22*
X209400000Y-78650000D03*
X209400000Y-102850000D03*
D23*
X59700000Y-127000000D03*
X222300000Y-127000000D03*
D19*
X132305000Y-77675000D03*
X134845000Y-77675000D03*
X142730000Y-95300000D03*
X145270000Y-95300000D03*
X97830000Y-98500000D03*
X100370000Y-98500000D03*
M02*
