M48
;DRILL file {KiCad 4.0.6-e0-6349~53~ubuntu14.04.1} date Mon Mar 27 12:46:05 2017
;FORMAT={-:-/ absolute / inch / decimal}
FMAT,2
INCH,TZ
T1C0.059
T2C0.093
T3C0.106
T4C0.142
%
G90
G05
M72
T1
X8.2441Y-3.0965
X8.2441Y-4.0492
T2
X2.7559Y-4.2854
X2.7559Y-4.6457
X3.1496Y-4.2854
X3.1496Y-4.6457
X3.5433Y-4.2854
X3.5433Y-4.6457
X3.937Y-4.2854
X3.937Y-4.6457
X4.3307Y-4.2854
X4.3307Y-4.6457
X4.7244Y-4.2854
X4.7244Y-4.6457
X5.1181Y-4.2854
X5.1181Y-4.6457
X5.5118Y-4.2854
X5.5118Y-4.6457
X5.9055Y-4.2854
X5.9055Y-4.6457
X6.2992Y-4.2854
X6.2992Y-4.6457
X6.6929Y-4.2854
X6.6929Y-4.6457
X7.0866Y-4.2854
X7.0866Y-4.6457
X7.4803Y-4.2854
X7.4803Y-4.6457
X7.874Y-4.2854
X7.874Y-4.6457
X8.2677Y-4.2854
X8.2677Y-4.6457
T3
X2.3504Y-5.
X8.752Y-5.
T4
X2.1654Y-5.315
X3.3465Y-3.0512
X6.7717Y-3.0512
X8.7402Y-5.315
T0
M30
