G04 #@! TF.FileFunction,Legend,Bot*
%FSLAX46Y46*%
G04 Gerber Fmt 4.6, Leading zero omitted, Abs format (unit mm)*
G04 Created by KiCad (PCBNEW 4.0.4+e1-6308~48~ubuntu16.04.1-stable) date Wed Oct  5 10:15:14 2016*
%MOMM*%
%LPD*%
G01*
G04 APERTURE LIST*
%ADD10C,0.100000*%
%ADD11C,0.300000*%
G04 APERTURE END LIST*
D10*
D11*
X127114286Y-94953571D02*
X127114286Y-96025000D01*
X127185714Y-96239286D01*
X127328571Y-96382143D01*
X127542857Y-96453571D01*
X127685714Y-96453571D01*
X125757143Y-95453571D02*
X125757143Y-96453571D01*
X126400000Y-95453571D02*
X126400000Y-96239286D01*
X126328572Y-96382143D01*
X126185714Y-96453571D01*
X125971429Y-96453571D01*
X125828572Y-96382143D01*
X125757143Y-96310714D01*
X125042857Y-96453571D02*
X125042857Y-95453571D01*
X125042857Y-94953571D02*
X125114286Y-95025000D01*
X125042857Y-95096429D01*
X124971429Y-95025000D01*
X125042857Y-94953571D01*
X125042857Y-95096429D01*
X123685714Y-96382143D02*
X123828571Y-96453571D01*
X124114285Y-96453571D01*
X124257143Y-96382143D01*
X124328571Y-96310714D01*
X124400000Y-96167857D01*
X124400000Y-95739286D01*
X124328571Y-95596429D01*
X124257143Y-95525000D01*
X124114285Y-95453571D01*
X123828571Y-95453571D01*
X123685714Y-95525000D01*
X123185714Y-95453571D02*
X122828571Y-96453571D01*
X122471429Y-95453571D02*
X122828571Y-96453571D01*
X122971429Y-96810714D01*
X123042857Y-96882143D01*
X123185714Y-96953571D01*
X121400000Y-95667857D02*
X121185714Y-95739286D01*
X121114286Y-95810714D01*
X121042857Y-95953571D01*
X121042857Y-96167857D01*
X121114286Y-96310714D01*
X121185714Y-96382143D01*
X121328572Y-96453571D01*
X121900000Y-96453571D01*
X121900000Y-94953571D01*
X121400000Y-94953571D01*
X121257143Y-95025000D01*
X121185714Y-95096429D01*
X121114286Y-95239286D01*
X121114286Y-95382143D01*
X121185714Y-95525000D01*
X121257143Y-95596429D01*
X121400000Y-95667857D01*
X121900000Y-95667857D01*
X120185714Y-96453571D02*
X120328572Y-96382143D01*
X120400000Y-96310714D01*
X120471429Y-96167857D01*
X120471429Y-95739286D01*
X120400000Y-95596429D01*
X120328572Y-95525000D01*
X120185714Y-95453571D01*
X119971429Y-95453571D01*
X119828572Y-95525000D01*
X119757143Y-95596429D01*
X119685714Y-95739286D01*
X119685714Y-96167857D01*
X119757143Y-96310714D01*
X119828572Y-96382143D01*
X119971429Y-96453571D01*
X120185714Y-96453571D01*
X118400000Y-96453571D02*
X118400000Y-95667857D01*
X118471429Y-95525000D01*
X118614286Y-95453571D01*
X118900000Y-95453571D01*
X119042857Y-95525000D01*
X118400000Y-96382143D02*
X118542857Y-96453571D01*
X118900000Y-96453571D01*
X119042857Y-96382143D01*
X119114286Y-96239286D01*
X119114286Y-96096429D01*
X119042857Y-95953571D01*
X118900000Y-95882143D01*
X118542857Y-95882143D01*
X118400000Y-95810714D01*
X117685714Y-96453571D02*
X117685714Y-95453571D01*
X117685714Y-95739286D02*
X117614286Y-95596429D01*
X117542857Y-95525000D01*
X117400000Y-95453571D01*
X117257143Y-95453571D01*
X116114286Y-96453571D02*
X116114286Y-94953571D01*
X116114286Y-96382143D02*
X116257143Y-96453571D01*
X116542857Y-96453571D01*
X116685715Y-96382143D01*
X116757143Y-96310714D01*
X116828572Y-96167857D01*
X116828572Y-95739286D01*
X116757143Y-95596429D01*
X116685715Y-95525000D01*
X116542857Y-95453571D01*
X116257143Y-95453571D01*
X116114286Y-95525000D01*
X126685714Y-99003571D02*
X127185714Y-98289286D01*
X127542857Y-99003571D02*
X127542857Y-97503571D01*
X126971429Y-97503571D01*
X126828571Y-97575000D01*
X126757143Y-97646429D01*
X126685714Y-97789286D01*
X126685714Y-98003571D01*
X126757143Y-98146429D01*
X126828571Y-98217857D01*
X126971429Y-98289286D01*
X127542857Y-98289286D01*
X125257143Y-99003571D02*
X126114286Y-99003571D01*
X125685714Y-99003571D02*
X125685714Y-97503571D01*
X125828571Y-97717857D01*
X125971429Y-97860714D01*
X126114286Y-97932143D01*
X124328572Y-97503571D02*
X124185715Y-97503571D01*
X124042858Y-97575000D01*
X123971429Y-97646429D01*
X123900000Y-97789286D01*
X123828572Y-98075000D01*
X123828572Y-98432143D01*
X123900000Y-98717857D01*
X123971429Y-98860714D01*
X124042858Y-98932143D01*
X124185715Y-99003571D01*
X124328572Y-99003571D01*
X124471429Y-98932143D01*
X124542858Y-98860714D01*
X124614286Y-98717857D01*
X124685715Y-98432143D01*
X124685715Y-98075000D01*
X124614286Y-97789286D01*
X124542858Y-97646429D01*
X124471429Y-97575000D01*
X124328572Y-97503571D01*
X122900001Y-97503571D02*
X122757144Y-97503571D01*
X122614287Y-97575000D01*
X122542858Y-97646429D01*
X122471429Y-97789286D01*
X122400001Y-98075000D01*
X122400001Y-98432143D01*
X122471429Y-98717857D01*
X122542858Y-98860714D01*
X122614287Y-98932143D01*
X122757144Y-99003571D01*
X122900001Y-99003571D01*
X123042858Y-98932143D01*
X123114287Y-98860714D01*
X123185715Y-98717857D01*
X123257144Y-98432143D01*
X123257144Y-98075000D01*
X123185715Y-97789286D01*
X123114287Y-97646429D01*
X123042858Y-97575000D01*
X122900001Y-97503571D01*
X121471430Y-97503571D02*
X121328573Y-97503571D01*
X121185716Y-97575000D01*
X121114287Y-97646429D01*
X121042858Y-97789286D01*
X120971430Y-98075000D01*
X120971430Y-98432143D01*
X121042858Y-98717857D01*
X121114287Y-98860714D01*
X121185716Y-98932143D01*
X121328573Y-99003571D01*
X121471430Y-99003571D01*
X121614287Y-98932143D01*
X121685716Y-98860714D01*
X121757144Y-98717857D01*
X121828573Y-98432143D01*
X121828573Y-98075000D01*
X121757144Y-97789286D01*
X121685716Y-97646429D01*
X121614287Y-97575000D01*
X121471430Y-97503571D01*
X120400002Y-98575000D02*
X119685716Y-98575000D01*
X120542859Y-99003571D02*
X120042859Y-97503571D01*
X119542859Y-99003571D01*
X118042859Y-98003571D02*
X117685716Y-99003571D01*
X117328574Y-98003571D01*
X115971431Y-99003571D02*
X116828574Y-99003571D01*
X116400002Y-99003571D02*
X116400002Y-97503571D01*
X116542859Y-97717857D01*
X116685717Y-97860714D01*
X116828574Y-97932143D01*
X115328574Y-98860714D02*
X115257146Y-98932143D01*
X115328574Y-99003571D01*
X115400003Y-98932143D01*
X115328574Y-98860714D01*
X115328574Y-99003571D01*
X113828574Y-99003571D02*
X114685717Y-99003571D01*
X114257145Y-99003571D02*
X114257145Y-97503571D01*
X114400002Y-97717857D01*
X114542860Y-97860714D01*
X114685717Y-97932143D01*
X113185717Y-98860714D02*
X113114289Y-98932143D01*
X113185717Y-99003571D01*
X113257146Y-98932143D01*
X113185717Y-98860714D01*
X113185717Y-99003571D01*
X112185717Y-97503571D02*
X112042860Y-97503571D01*
X111900003Y-97575000D01*
X111828574Y-97646429D01*
X111757145Y-97789286D01*
X111685717Y-98075000D01*
X111685717Y-98432143D01*
X111757145Y-98717857D01*
X111828574Y-98860714D01*
X111900003Y-98932143D01*
X112042860Y-99003571D01*
X112185717Y-99003571D01*
X112328574Y-98932143D01*
X112400003Y-98860714D01*
X112471431Y-98717857D01*
X112542860Y-98432143D01*
X112542860Y-98075000D01*
X112471431Y-97789286D01*
X112400003Y-97646429D01*
X112328574Y-97575000D01*
X112185717Y-97503571D01*
X109900003Y-98432143D02*
X108757146Y-98432143D01*
X106971432Y-97646429D02*
X106900003Y-97575000D01*
X106757146Y-97503571D01*
X106400003Y-97503571D01*
X106257146Y-97575000D01*
X106185717Y-97646429D01*
X106114289Y-97789286D01*
X106114289Y-97932143D01*
X106185717Y-98146429D01*
X107042860Y-99003571D01*
X106114289Y-99003571D01*
X105185718Y-97503571D02*
X105042861Y-97503571D01*
X104900004Y-97575000D01*
X104828575Y-97646429D01*
X104757146Y-97789286D01*
X104685718Y-98075000D01*
X104685718Y-98432143D01*
X104757146Y-98717857D01*
X104828575Y-98860714D01*
X104900004Y-98932143D01*
X105042861Y-99003571D01*
X105185718Y-99003571D01*
X105328575Y-98932143D01*
X105400004Y-98860714D01*
X105471432Y-98717857D01*
X105542861Y-98432143D01*
X105542861Y-98075000D01*
X105471432Y-97789286D01*
X105400004Y-97646429D01*
X105328575Y-97575000D01*
X105185718Y-97503571D01*
X103257147Y-99003571D02*
X104114290Y-99003571D01*
X103685718Y-99003571D02*
X103685718Y-97503571D01*
X103828575Y-97717857D01*
X103971433Y-97860714D01*
X104114290Y-97932143D01*
X101971433Y-97503571D02*
X102257147Y-97503571D01*
X102400004Y-97575000D01*
X102471433Y-97646429D01*
X102614290Y-97860714D01*
X102685719Y-98146429D01*
X102685719Y-98717857D01*
X102614290Y-98860714D01*
X102542862Y-98932143D01*
X102400004Y-99003571D01*
X102114290Y-99003571D01*
X101971433Y-98932143D01*
X101900004Y-98860714D01*
X101828576Y-98717857D01*
X101828576Y-98360714D01*
X101900004Y-98217857D01*
X101971433Y-98146429D01*
X102114290Y-98075000D01*
X102400004Y-98075000D01*
X102542862Y-98146429D01*
X102614290Y-98217857D01*
X102685719Y-98360714D01*
X127542857Y-101553571D02*
X127542857Y-100053571D01*
X126900000Y-101553571D02*
X126900000Y-100767857D01*
X126971429Y-100625000D01*
X127114286Y-100553571D01*
X127328571Y-100553571D01*
X127471429Y-100625000D01*
X127542857Y-100696429D01*
X126400000Y-100553571D02*
X125828571Y-100553571D01*
X126185714Y-100053571D02*
X126185714Y-101339286D01*
X126114286Y-101482143D01*
X125971428Y-101553571D01*
X125828571Y-101553571D01*
X125542857Y-100553571D02*
X124971428Y-100553571D01*
X125328571Y-100053571D02*
X125328571Y-101339286D01*
X125257143Y-101482143D01*
X125114285Y-101553571D01*
X124971428Y-101553571D01*
X124471428Y-100553571D02*
X124471428Y-102053571D01*
X124471428Y-100625000D02*
X124328571Y-100553571D01*
X124042857Y-100553571D01*
X123900000Y-100625000D01*
X123828571Y-100696429D01*
X123757142Y-100839286D01*
X123757142Y-101267857D01*
X123828571Y-101410714D01*
X123900000Y-101482143D01*
X124042857Y-101553571D01*
X124328571Y-101553571D01*
X124471428Y-101482143D01*
X123114285Y-101410714D02*
X123042857Y-101482143D01*
X123114285Y-101553571D01*
X123185714Y-101482143D01*
X123114285Y-101410714D01*
X123114285Y-101553571D01*
X123114285Y-100625000D02*
X123042857Y-100696429D01*
X123114285Y-100767857D01*
X123185714Y-100696429D01*
X123114285Y-100625000D01*
X123114285Y-100767857D01*
X121328571Y-99982143D02*
X122614285Y-101910714D01*
X119757142Y-99982143D02*
X121042856Y-101910714D01*
X119257141Y-100553571D02*
X119257141Y-102053571D01*
X119257141Y-100625000D02*
X119114284Y-100553571D01*
X118828570Y-100553571D01*
X118685713Y-100625000D01*
X118614284Y-100696429D01*
X118542855Y-100839286D01*
X118542855Y-101267857D01*
X118614284Y-101410714D01*
X118685713Y-101482143D01*
X118828570Y-101553571D01*
X119114284Y-101553571D01*
X119257141Y-101482143D01*
X117685712Y-101553571D02*
X117828570Y-101482143D01*
X117899998Y-101339286D01*
X117899998Y-100053571D01*
X116471427Y-100553571D02*
X116471427Y-101553571D01*
X117114284Y-100553571D02*
X117114284Y-101339286D01*
X117042856Y-101482143D01*
X116899998Y-101553571D01*
X116685713Y-101553571D01*
X116542856Y-101482143D01*
X116471427Y-101410714D01*
X115114284Y-100553571D02*
X115114284Y-101767857D01*
X115185713Y-101910714D01*
X115257141Y-101982143D01*
X115399998Y-102053571D01*
X115614284Y-102053571D01*
X115757141Y-101982143D01*
X115114284Y-101482143D02*
X115257141Y-101553571D01*
X115542855Y-101553571D01*
X115685713Y-101482143D01*
X115757141Y-101410714D01*
X115828570Y-101267857D01*
X115828570Y-100839286D01*
X115757141Y-100696429D01*
X115685713Y-100625000D01*
X115542855Y-100553571D01*
X115257141Y-100553571D01*
X115114284Y-100625000D01*
X113757141Y-100553571D02*
X113757141Y-101767857D01*
X113828570Y-101910714D01*
X113899998Y-101982143D01*
X114042855Y-102053571D01*
X114257141Y-102053571D01*
X114399998Y-101982143D01*
X113757141Y-101482143D02*
X113899998Y-101553571D01*
X114185712Y-101553571D01*
X114328570Y-101482143D01*
X114399998Y-101410714D01*
X114471427Y-101267857D01*
X114471427Y-100839286D01*
X114399998Y-100696429D01*
X114328570Y-100625000D01*
X114185712Y-100553571D01*
X113899998Y-100553571D01*
X113757141Y-100625000D01*
X113042855Y-101410714D02*
X112971427Y-101482143D01*
X113042855Y-101553571D01*
X113114284Y-101482143D01*
X113042855Y-101410714D01*
X113042855Y-101553571D01*
X111757141Y-101482143D02*
X111899998Y-101553571D01*
X112185712Y-101553571D01*
X112328569Y-101482143D01*
X112399998Y-101339286D01*
X112399998Y-100767857D01*
X112328569Y-100625000D01*
X112185712Y-100553571D01*
X111899998Y-100553571D01*
X111757141Y-100625000D01*
X111685712Y-100767857D01*
X111685712Y-100910714D01*
X112399998Y-101053571D01*
X110471427Y-101482143D02*
X110614284Y-101553571D01*
X110899998Y-101553571D01*
X111042855Y-101482143D01*
X111114284Y-101339286D01*
X111114284Y-100767857D01*
X111042855Y-100625000D01*
X110899998Y-100553571D01*
X110614284Y-100553571D01*
X110471427Y-100625000D01*
X110399998Y-100767857D01*
X110399998Y-100910714D01*
X111114284Y-101053571D01*
X127542857Y-104103571D02*
X127542857Y-102603571D01*
X127185714Y-102603571D01*
X126971429Y-102675000D01*
X126828571Y-102817857D01*
X126757143Y-102960714D01*
X126685714Y-103246429D01*
X126685714Y-103460714D01*
X126757143Y-103746429D01*
X126828571Y-103889286D01*
X126971429Y-104032143D01*
X127185714Y-104103571D01*
X127542857Y-104103571D01*
X125471429Y-104032143D02*
X125614286Y-104103571D01*
X125900000Y-104103571D01*
X126042857Y-104032143D01*
X126114286Y-103889286D01*
X126114286Y-103317857D01*
X126042857Y-103175000D01*
X125900000Y-103103571D01*
X125614286Y-103103571D01*
X125471429Y-103175000D01*
X125400000Y-103317857D01*
X125400000Y-103460714D01*
X126114286Y-103603571D01*
X124828572Y-104032143D02*
X124685715Y-104103571D01*
X124400000Y-104103571D01*
X124257143Y-104032143D01*
X124185715Y-103889286D01*
X124185715Y-103817857D01*
X124257143Y-103675000D01*
X124400000Y-103603571D01*
X124614286Y-103603571D01*
X124757143Y-103532143D01*
X124828572Y-103389286D01*
X124828572Y-103317857D01*
X124757143Y-103175000D01*
X124614286Y-103103571D01*
X124400000Y-103103571D01*
X124257143Y-103175000D01*
X123542857Y-104103571D02*
X123542857Y-103103571D01*
X123542857Y-102603571D02*
X123614286Y-102675000D01*
X123542857Y-102746429D01*
X123471429Y-102675000D01*
X123542857Y-102603571D01*
X123542857Y-102746429D01*
X122185714Y-103103571D02*
X122185714Y-104317857D01*
X122257143Y-104460714D01*
X122328571Y-104532143D01*
X122471428Y-104603571D01*
X122685714Y-104603571D01*
X122828571Y-104532143D01*
X122185714Y-104032143D02*
X122328571Y-104103571D01*
X122614285Y-104103571D01*
X122757143Y-104032143D01*
X122828571Y-103960714D01*
X122900000Y-103817857D01*
X122900000Y-103389286D01*
X122828571Y-103246429D01*
X122757143Y-103175000D01*
X122614285Y-103103571D01*
X122328571Y-103103571D01*
X122185714Y-103175000D01*
X121471428Y-103103571D02*
X121471428Y-104103571D01*
X121471428Y-103246429D02*
X121400000Y-103175000D01*
X121257142Y-103103571D01*
X121042857Y-103103571D01*
X120900000Y-103175000D01*
X120828571Y-103317857D01*
X120828571Y-104103571D01*
X119542857Y-104032143D02*
X119685714Y-104103571D01*
X119971428Y-104103571D01*
X120114285Y-104032143D01*
X120185714Y-103889286D01*
X120185714Y-103317857D01*
X120114285Y-103175000D01*
X119971428Y-103103571D01*
X119685714Y-103103571D01*
X119542857Y-103175000D01*
X119471428Y-103317857D01*
X119471428Y-103460714D01*
X120185714Y-103603571D01*
X118185714Y-104103571D02*
X118185714Y-102603571D01*
X118185714Y-104032143D02*
X118328571Y-104103571D01*
X118614285Y-104103571D01*
X118757143Y-104032143D01*
X118828571Y-103960714D01*
X118900000Y-103817857D01*
X118900000Y-103389286D01*
X118828571Y-103246429D01*
X118757143Y-103175000D01*
X118614285Y-103103571D01*
X118328571Y-103103571D01*
X118185714Y-103175000D01*
X116328571Y-104103571D02*
X116328571Y-102603571D01*
X116328571Y-103175000D02*
X116185714Y-103103571D01*
X115900000Y-103103571D01*
X115757143Y-103175000D01*
X115685714Y-103246429D01*
X115614285Y-103389286D01*
X115614285Y-103817857D01*
X115685714Y-103960714D01*
X115757143Y-104032143D01*
X115900000Y-104103571D01*
X116185714Y-104103571D01*
X116328571Y-104032143D01*
X115114285Y-103103571D02*
X114757142Y-104103571D01*
X114400000Y-103103571D02*
X114757142Y-104103571D01*
X114900000Y-104460714D01*
X114971428Y-104532143D01*
X115114285Y-104603571D01*
X112685714Y-103103571D02*
X112685714Y-104603571D01*
X112685714Y-103175000D02*
X112542857Y-103103571D01*
X112257143Y-103103571D01*
X112114286Y-103175000D01*
X112042857Y-103246429D01*
X111971428Y-103389286D01*
X111971428Y-103817857D01*
X112042857Y-103960714D01*
X112114286Y-104032143D01*
X112257143Y-104103571D01*
X112542857Y-104103571D01*
X112685714Y-104032143D01*
X111114285Y-104103571D02*
X111257143Y-104032143D01*
X111328571Y-103889286D01*
X111328571Y-102603571D01*
X109900000Y-103103571D02*
X109900000Y-104103571D01*
X110542857Y-103103571D02*
X110542857Y-103889286D01*
X110471429Y-104032143D01*
X110328571Y-104103571D01*
X110114286Y-104103571D01*
X109971429Y-104032143D01*
X109900000Y-103960714D01*
X108542857Y-103103571D02*
X108542857Y-104317857D01*
X108614286Y-104460714D01*
X108685714Y-104532143D01*
X108828571Y-104603571D01*
X109042857Y-104603571D01*
X109185714Y-104532143D01*
X108542857Y-104032143D02*
X108685714Y-104103571D01*
X108971428Y-104103571D01*
X109114286Y-104032143D01*
X109185714Y-103960714D01*
X109257143Y-103817857D01*
X109257143Y-103389286D01*
X109185714Y-103246429D01*
X109114286Y-103175000D01*
X108971428Y-103103571D01*
X108685714Y-103103571D01*
X108542857Y-103175000D01*
X107185714Y-103103571D02*
X107185714Y-104317857D01*
X107257143Y-104460714D01*
X107328571Y-104532143D01*
X107471428Y-104603571D01*
X107685714Y-104603571D01*
X107828571Y-104532143D01*
X107185714Y-104032143D02*
X107328571Y-104103571D01*
X107614285Y-104103571D01*
X107757143Y-104032143D01*
X107828571Y-103960714D01*
X107900000Y-103817857D01*
X107900000Y-103389286D01*
X107828571Y-103246429D01*
X107757143Y-103175000D01*
X107614285Y-103103571D01*
X107328571Y-103103571D01*
X107185714Y-103175000D01*
X106471428Y-103960714D02*
X106400000Y-104032143D01*
X106471428Y-104103571D01*
X106542857Y-104032143D01*
X106471428Y-103960714D01*
X106471428Y-104103571D01*
X105185714Y-104032143D02*
X105328571Y-104103571D01*
X105614285Y-104103571D01*
X105757142Y-104032143D01*
X105828571Y-103889286D01*
X105828571Y-103317857D01*
X105757142Y-103175000D01*
X105614285Y-103103571D01*
X105328571Y-103103571D01*
X105185714Y-103175000D01*
X105114285Y-103317857D01*
X105114285Y-103460714D01*
X105828571Y-103603571D01*
X103900000Y-104032143D02*
X104042857Y-104103571D01*
X104328571Y-104103571D01*
X104471428Y-104032143D01*
X104542857Y-103889286D01*
X104542857Y-103317857D01*
X104471428Y-103175000D01*
X104328571Y-103103571D01*
X104042857Y-103103571D01*
X103900000Y-103175000D01*
X103828571Y-103317857D01*
X103828571Y-103460714D01*
X104542857Y-103603571D01*
X101328571Y-104103571D02*
X102042857Y-104103571D01*
X102042857Y-102603571D01*
X100185714Y-104103571D02*
X100185714Y-103317857D01*
X100257143Y-103175000D01*
X100400000Y-103103571D01*
X100685714Y-103103571D01*
X100828571Y-103175000D01*
X100185714Y-104032143D02*
X100328571Y-104103571D01*
X100685714Y-104103571D01*
X100828571Y-104032143D01*
X100900000Y-103889286D01*
X100900000Y-103746429D01*
X100828571Y-103603571D01*
X100685714Y-103532143D01*
X100328571Y-103532143D01*
X100185714Y-103460714D01*
X99471428Y-104103571D02*
X99471428Y-102603571D01*
X99471428Y-103175000D02*
X99328571Y-103103571D01*
X99042857Y-103103571D01*
X98900000Y-103175000D01*
X98828571Y-103246429D01*
X98757142Y-103389286D01*
X98757142Y-103817857D01*
X98828571Y-103960714D01*
X98900000Y-104032143D01*
X99042857Y-104103571D01*
X99328571Y-104103571D01*
X99471428Y-104032143D01*
X98185714Y-104032143D02*
X98042857Y-104103571D01*
X97757142Y-104103571D01*
X97614285Y-104032143D01*
X97542857Y-103889286D01*
X97542857Y-103817857D01*
X97614285Y-103675000D01*
X97757142Y-103603571D01*
X97971428Y-103603571D01*
X98114285Y-103532143D01*
X98185714Y-103389286D01*
X98185714Y-103317857D01*
X98114285Y-103175000D01*
X97971428Y-103103571D01*
X97757142Y-103103571D01*
X97614285Y-103175000D01*
X96828571Y-104032143D02*
X96828571Y-104103571D01*
X96899999Y-104246429D01*
X96971428Y-104317857D01*
X94185713Y-103960714D02*
X94257142Y-104032143D01*
X94471428Y-104103571D01*
X94614285Y-104103571D01*
X94828570Y-104032143D01*
X94971428Y-103889286D01*
X95042856Y-103746429D01*
X95114285Y-103460714D01*
X95114285Y-103246429D01*
X95042856Y-102960714D01*
X94971428Y-102817857D01*
X94828570Y-102675000D01*
X94614285Y-102603571D01*
X94471428Y-102603571D01*
X94257142Y-102675000D01*
X94185713Y-102746429D01*
X93614285Y-103675000D02*
X92899999Y-103675000D01*
X93757142Y-104103571D02*
X93257142Y-102603571D01*
X92757142Y-104103571D01*
X92185714Y-104032143D02*
X92185714Y-104103571D01*
X92257142Y-104246429D01*
X92328571Y-104317857D01*
X90399999Y-102603571D02*
X90399999Y-103817857D01*
X90328571Y-103960714D01*
X90257142Y-104032143D01*
X90114285Y-104103571D01*
X89828571Y-104103571D01*
X89685713Y-104032143D01*
X89614285Y-103960714D01*
X89542856Y-103817857D01*
X89542856Y-102603571D01*
X88899999Y-104032143D02*
X88685713Y-104103571D01*
X88328570Y-104103571D01*
X88185713Y-104032143D01*
X88114284Y-103960714D01*
X88042856Y-103817857D01*
X88042856Y-103675000D01*
X88114284Y-103532143D01*
X88185713Y-103460714D01*
X88328570Y-103389286D01*
X88614284Y-103317857D01*
X88757142Y-103246429D01*
X88828570Y-103175000D01*
X88899999Y-103032143D01*
X88899999Y-102889286D01*
X88828570Y-102746429D01*
X88757142Y-102675000D01*
X88614284Y-102603571D01*
X88257142Y-102603571D01*
X88042856Y-102675000D01*
X87471428Y-103675000D02*
X86757142Y-103675000D01*
X87614285Y-104103571D02*
X87114285Y-102603571D01*
X86614285Y-104103571D01*
M02*
