G04 #@! TF.FileFunction,Soldermask,Bot*
%FSLAX46Y46*%
G04 Gerber Fmt 4.6, Leading zero omitted, Abs format (unit mm)*
G04 Created by KiCad (PCBNEW 4.0.6-e0-6349~53~ubuntu14.04.1) date Mon Apr 10 20:32:30 2017*
%MOMM*%
%LPD*%
G01*
G04 APERTURE LIST*
%ADD10C,0.100000*%
%ADD11C,1.016000*%
%ADD12C,1.524000*%
%ADD13C,2.700020*%
%ADD14C,2.500000*%
%ADD15C,2.700000*%
%ADD16C,2.350000*%
%ADD17C,1.230000*%
%ADD18C,1.500000*%
%ADD19C,1.700000*%
%ADD20C,1.501140*%
%ADD21C,2.999740*%
G04 APERTURE END LIST*
D10*
D11*
X177960000Y-94635000D03*
X177960000Y-93365000D03*
X179230000Y-94635000D03*
X179230000Y-93365000D03*
X180500000Y-94635000D03*
X180500000Y-93365000D03*
X181770000Y-94635000D03*
X181770000Y-93365000D03*
X183040000Y-94635000D03*
X183040000Y-93365000D03*
D12*
X66000000Y-80460000D03*
X66000000Y-83000000D03*
X64001020Y-83000000D03*
X64001020Y-80460000D03*
D13*
X61301000Y-75730520D03*
X61301000Y-87729480D03*
D14*
X65150000Y-105600000D03*
X70650000Y-105600000D03*
X65150000Y-101400000D03*
X70650000Y-101400000D03*
X65150000Y-97200000D03*
X70650000Y-97200000D03*
X65150000Y-93000000D03*
X70650000Y-93000000D03*
D12*
X159100000Y-99300000D03*
X76830000Y-86900000D03*
X79370000Y-86900000D03*
X177130000Y-101600000D03*
X179670000Y-101600000D03*
D15*
X59700000Y-127000000D03*
X222300000Y-127000000D03*
D16*
X150000000Y-118000000D03*
X150000000Y-108850000D03*
D17*
X148750000Y-129650000D03*
X146750000Y-128650000D03*
X148750000Y-127650000D03*
X146750000Y-126650000D03*
X148750000Y-125650000D03*
X146750000Y-124650000D03*
X148750000Y-123650000D03*
X146750000Y-122650000D03*
X148750000Y-121650000D03*
X146750000Y-120650000D03*
X148750000Y-119650000D03*
X146750000Y-116650000D03*
X148750000Y-115650000D03*
X146750000Y-114650000D03*
X148750000Y-113650000D03*
X146750000Y-112650000D03*
X148750000Y-111650000D03*
X146750000Y-110650000D03*
X151250000Y-129650000D03*
X153250000Y-128650000D03*
X151250000Y-127650000D03*
X153250000Y-126650000D03*
X151250000Y-125650000D03*
X153250000Y-124650000D03*
X151250000Y-123650000D03*
X153250000Y-122650000D03*
X151250000Y-121650000D03*
X153250000Y-120650000D03*
X151250000Y-119650000D03*
X153250000Y-116650000D03*
X151250000Y-115650000D03*
X153250000Y-114650000D03*
X151250000Y-113650000D03*
X153250000Y-112650000D03*
X151250000Y-111650000D03*
X153250000Y-110650000D03*
D16*
X140000000Y-118000000D03*
X140000000Y-108850000D03*
D17*
X138750000Y-129650000D03*
X136750000Y-128650000D03*
X138750000Y-127650000D03*
X136750000Y-126650000D03*
X138750000Y-125650000D03*
X136750000Y-124650000D03*
X138750000Y-123650000D03*
X136750000Y-122650000D03*
X138750000Y-121650000D03*
X136750000Y-120650000D03*
X138750000Y-119650000D03*
X136750000Y-116650000D03*
X138750000Y-115650000D03*
X136750000Y-114650000D03*
X138750000Y-113650000D03*
X136750000Y-112650000D03*
X138750000Y-111650000D03*
X136750000Y-110650000D03*
X141250000Y-129650000D03*
X143250000Y-128650000D03*
X141250000Y-127650000D03*
X143250000Y-126650000D03*
X141250000Y-125650000D03*
X143250000Y-124650000D03*
X141250000Y-123650000D03*
X143250000Y-122650000D03*
X141250000Y-121650000D03*
X143250000Y-120650000D03*
X141250000Y-119650000D03*
X143250000Y-116650000D03*
X141250000Y-115650000D03*
X143250000Y-114650000D03*
X141250000Y-113650000D03*
X143250000Y-112650000D03*
X141250000Y-111650000D03*
X143250000Y-110650000D03*
D16*
X130000000Y-118000000D03*
X130000000Y-108850000D03*
D17*
X128750000Y-129650000D03*
X126750000Y-128650000D03*
X128750000Y-127650000D03*
X126750000Y-126650000D03*
X128750000Y-125650000D03*
X126750000Y-124650000D03*
X128750000Y-123650000D03*
X126750000Y-122650000D03*
X128750000Y-121650000D03*
X126750000Y-120650000D03*
X128750000Y-119650000D03*
X126750000Y-116650000D03*
X128750000Y-115650000D03*
X126750000Y-114650000D03*
X128750000Y-113650000D03*
X126750000Y-112650000D03*
X128750000Y-111650000D03*
X126750000Y-110650000D03*
X131250000Y-129650000D03*
X133250000Y-128650000D03*
X131250000Y-127650000D03*
X133250000Y-126650000D03*
X131250000Y-125650000D03*
X133250000Y-124650000D03*
X131250000Y-123650000D03*
X133250000Y-122650000D03*
X131250000Y-121650000D03*
X133250000Y-120650000D03*
X131250000Y-119650000D03*
X133250000Y-116650000D03*
X131250000Y-115650000D03*
X133250000Y-114650000D03*
X131250000Y-113650000D03*
X133250000Y-112650000D03*
X131250000Y-111650000D03*
X133250000Y-110650000D03*
D16*
X120000000Y-118000000D03*
X120000000Y-108850000D03*
D17*
X118750000Y-129650000D03*
X116750000Y-128650000D03*
X118750000Y-127650000D03*
X116750000Y-126650000D03*
X118750000Y-125650000D03*
X116750000Y-124650000D03*
X118750000Y-123650000D03*
X116750000Y-122650000D03*
X118750000Y-121650000D03*
X116750000Y-120650000D03*
X118750000Y-119650000D03*
X116750000Y-116650000D03*
X118750000Y-115650000D03*
X116750000Y-114650000D03*
X118750000Y-113650000D03*
X116750000Y-112650000D03*
X118750000Y-111650000D03*
X116750000Y-110650000D03*
X121250000Y-129650000D03*
X123250000Y-128650000D03*
X121250000Y-127650000D03*
X123250000Y-126650000D03*
X121250000Y-125650000D03*
X123250000Y-124650000D03*
X121250000Y-123650000D03*
X123250000Y-122650000D03*
X121250000Y-121650000D03*
X123250000Y-120650000D03*
X121250000Y-119650000D03*
X123250000Y-116650000D03*
X121250000Y-115650000D03*
X123250000Y-114650000D03*
X121250000Y-113650000D03*
X123250000Y-112650000D03*
X121250000Y-111650000D03*
X123250000Y-110650000D03*
D16*
X110000000Y-118000000D03*
X110000000Y-108850000D03*
D17*
X108750000Y-129650000D03*
X106750000Y-128650000D03*
X108750000Y-127650000D03*
X106750000Y-126650000D03*
X108750000Y-125650000D03*
X106750000Y-124650000D03*
X108750000Y-123650000D03*
X106750000Y-122650000D03*
X108750000Y-121650000D03*
X106750000Y-120650000D03*
X108750000Y-119650000D03*
X106750000Y-116650000D03*
X108750000Y-115650000D03*
X106750000Y-114650000D03*
X108750000Y-113650000D03*
X106750000Y-112650000D03*
X108750000Y-111650000D03*
X106750000Y-110650000D03*
X111250000Y-129650000D03*
X113250000Y-128650000D03*
X111250000Y-127650000D03*
X113250000Y-126650000D03*
X111250000Y-125650000D03*
X113250000Y-124650000D03*
X111250000Y-123650000D03*
X113250000Y-122650000D03*
X111250000Y-121650000D03*
X113250000Y-120650000D03*
X111250000Y-119650000D03*
X113250000Y-116650000D03*
X111250000Y-115650000D03*
X113250000Y-114650000D03*
X111250000Y-113650000D03*
X113250000Y-112650000D03*
X111250000Y-111650000D03*
X113250000Y-110650000D03*
D16*
X100000000Y-118000000D03*
X100000000Y-108850000D03*
D17*
X98750000Y-129650000D03*
X96750000Y-128650000D03*
X98750000Y-127650000D03*
X96750000Y-126650000D03*
X98750000Y-125650000D03*
X96750000Y-124650000D03*
X98750000Y-123650000D03*
X96750000Y-122650000D03*
X98750000Y-121650000D03*
X96750000Y-120650000D03*
X98750000Y-119650000D03*
X96750000Y-116650000D03*
X98750000Y-115650000D03*
X96750000Y-114650000D03*
X98750000Y-113650000D03*
X96750000Y-112650000D03*
X98750000Y-111650000D03*
X96750000Y-110650000D03*
X101250000Y-129650000D03*
X103250000Y-128650000D03*
X101250000Y-127650000D03*
X103250000Y-126650000D03*
X101250000Y-125650000D03*
X103250000Y-124650000D03*
X101250000Y-123650000D03*
X103250000Y-122650000D03*
X101250000Y-121650000D03*
X103250000Y-120650000D03*
X101250000Y-119650000D03*
X103250000Y-116650000D03*
X101250000Y-115650000D03*
X103250000Y-114650000D03*
X101250000Y-113650000D03*
X103250000Y-112650000D03*
X101250000Y-111650000D03*
X103250000Y-110650000D03*
D16*
X90000000Y-118000000D03*
X90000000Y-108850000D03*
D17*
X88750000Y-129650000D03*
X86750000Y-128650000D03*
X88750000Y-127650000D03*
X86750000Y-126650000D03*
X88750000Y-125650000D03*
X86750000Y-124650000D03*
X88750000Y-123650000D03*
X86750000Y-122650000D03*
X88750000Y-121650000D03*
X86750000Y-120650000D03*
X88750000Y-119650000D03*
X86750000Y-116650000D03*
X88750000Y-115650000D03*
X86750000Y-114650000D03*
X88750000Y-113650000D03*
X86750000Y-112650000D03*
X88750000Y-111650000D03*
X86750000Y-110650000D03*
X91250000Y-129650000D03*
X93250000Y-128650000D03*
X91250000Y-127650000D03*
X93250000Y-126650000D03*
X91250000Y-125650000D03*
X93250000Y-124650000D03*
X91250000Y-123650000D03*
X93250000Y-122650000D03*
X91250000Y-121650000D03*
X93250000Y-120650000D03*
X91250000Y-119650000D03*
X93250000Y-116650000D03*
X91250000Y-115650000D03*
X93250000Y-114650000D03*
X91250000Y-113650000D03*
X93250000Y-112650000D03*
X91250000Y-111650000D03*
X93250000Y-110650000D03*
D16*
X80000000Y-118000000D03*
X80000000Y-108850000D03*
D17*
X78750000Y-129650000D03*
X76750000Y-128650000D03*
X78750000Y-127650000D03*
X76750000Y-126650000D03*
X78750000Y-125650000D03*
X76750000Y-124650000D03*
X78750000Y-123650000D03*
X76750000Y-122650000D03*
X78750000Y-121650000D03*
X76750000Y-120650000D03*
X78750000Y-119650000D03*
X76750000Y-116650000D03*
X78750000Y-115650000D03*
X76750000Y-114650000D03*
X78750000Y-113650000D03*
X76750000Y-112650000D03*
X78750000Y-111650000D03*
X76750000Y-110650000D03*
X81250000Y-129650000D03*
X83250000Y-128650000D03*
X81250000Y-127650000D03*
X83250000Y-126650000D03*
X81250000Y-125650000D03*
X83250000Y-124650000D03*
X81250000Y-123650000D03*
X83250000Y-122650000D03*
X81250000Y-121650000D03*
X83250000Y-120650000D03*
X81250000Y-119650000D03*
X83250000Y-116650000D03*
X81250000Y-115650000D03*
X83250000Y-114650000D03*
X81250000Y-113650000D03*
X83250000Y-112650000D03*
X81250000Y-111650000D03*
X83250000Y-110650000D03*
D16*
X70000000Y-118000000D03*
X70000000Y-108850000D03*
D17*
X68750000Y-129650000D03*
X66750000Y-128650000D03*
X68750000Y-127650000D03*
X66750000Y-126650000D03*
X68750000Y-125650000D03*
X66750000Y-124650000D03*
X68750000Y-123650000D03*
X66750000Y-122650000D03*
X68750000Y-121650000D03*
X66750000Y-120650000D03*
X68750000Y-119650000D03*
X66750000Y-116650000D03*
X68750000Y-115650000D03*
X66750000Y-114650000D03*
X68750000Y-113650000D03*
X66750000Y-112650000D03*
X68750000Y-111650000D03*
X66750000Y-110650000D03*
X71250000Y-129650000D03*
X73250000Y-128650000D03*
X71250000Y-127650000D03*
X73250000Y-126650000D03*
X71250000Y-125650000D03*
X73250000Y-124650000D03*
X71250000Y-123650000D03*
X73250000Y-122650000D03*
X71250000Y-121650000D03*
X73250000Y-120650000D03*
X71250000Y-119650000D03*
X73250000Y-116650000D03*
X71250000Y-115650000D03*
X73250000Y-114650000D03*
X71250000Y-113650000D03*
X73250000Y-112650000D03*
X71250000Y-111650000D03*
X73250000Y-110650000D03*
D16*
X210000000Y-118000000D03*
X210000000Y-108850000D03*
D17*
X208750000Y-129650000D03*
X206750000Y-128650000D03*
X208750000Y-127650000D03*
X206750000Y-126650000D03*
X208750000Y-125650000D03*
X206750000Y-124650000D03*
X208750000Y-123650000D03*
X206750000Y-122650000D03*
X208750000Y-121650000D03*
X206750000Y-120650000D03*
X208750000Y-119650000D03*
X206750000Y-116650000D03*
X208750000Y-115650000D03*
X206750000Y-114650000D03*
X208750000Y-113650000D03*
X206750000Y-112650000D03*
X208750000Y-111650000D03*
X206750000Y-110650000D03*
X211250000Y-129650000D03*
X213250000Y-128650000D03*
X211250000Y-127650000D03*
X213250000Y-126650000D03*
X211250000Y-125650000D03*
X213250000Y-124650000D03*
X211250000Y-123650000D03*
X213250000Y-122650000D03*
X211250000Y-121650000D03*
X213250000Y-120650000D03*
X211250000Y-119650000D03*
X213250000Y-116650000D03*
X211250000Y-115650000D03*
X213250000Y-114650000D03*
X211250000Y-113650000D03*
X213250000Y-112650000D03*
X211250000Y-111650000D03*
X213250000Y-110650000D03*
D16*
X200000000Y-118000000D03*
X200000000Y-108850000D03*
D17*
X198750000Y-129650000D03*
X196750000Y-128650000D03*
X198750000Y-127650000D03*
X196750000Y-126650000D03*
X198750000Y-125650000D03*
X196750000Y-124650000D03*
X198750000Y-123650000D03*
X196750000Y-122650000D03*
X198750000Y-121650000D03*
X196750000Y-120650000D03*
X198750000Y-119650000D03*
X196750000Y-116650000D03*
X198750000Y-115650000D03*
X196750000Y-114650000D03*
X198750000Y-113650000D03*
X196750000Y-112650000D03*
X198750000Y-111650000D03*
X196750000Y-110650000D03*
X201250000Y-129650000D03*
X203250000Y-128650000D03*
X201250000Y-127650000D03*
X203250000Y-126650000D03*
X201250000Y-125650000D03*
X203250000Y-124650000D03*
X201250000Y-123650000D03*
X203250000Y-122650000D03*
X201250000Y-121650000D03*
X203250000Y-120650000D03*
X201250000Y-119650000D03*
X203250000Y-116650000D03*
X201250000Y-115650000D03*
X203250000Y-114650000D03*
X201250000Y-113650000D03*
X203250000Y-112650000D03*
X201250000Y-111650000D03*
X203250000Y-110650000D03*
D16*
X190000000Y-118000000D03*
X190000000Y-108850000D03*
D17*
X188750000Y-129650000D03*
X186750000Y-128650000D03*
X188750000Y-127650000D03*
X186750000Y-126650000D03*
X188750000Y-125650000D03*
X186750000Y-124650000D03*
X188750000Y-123650000D03*
X186750000Y-122650000D03*
X188750000Y-121650000D03*
X186750000Y-120650000D03*
X188750000Y-119650000D03*
X186750000Y-116650000D03*
X188750000Y-115650000D03*
X186750000Y-114650000D03*
X188750000Y-113650000D03*
X186750000Y-112650000D03*
X188750000Y-111650000D03*
X186750000Y-110650000D03*
X191250000Y-129650000D03*
X193250000Y-128650000D03*
X191250000Y-127650000D03*
X193250000Y-126650000D03*
X191250000Y-125650000D03*
X193250000Y-124650000D03*
X191250000Y-123650000D03*
X193250000Y-122650000D03*
X191250000Y-121650000D03*
X193250000Y-120650000D03*
X191250000Y-119650000D03*
X193250000Y-116650000D03*
X191250000Y-115650000D03*
X193250000Y-114650000D03*
X191250000Y-113650000D03*
X193250000Y-112650000D03*
X191250000Y-111650000D03*
X193250000Y-110650000D03*
D16*
X180000000Y-118000000D03*
X180000000Y-108850000D03*
D17*
X178750000Y-129650000D03*
X176750000Y-128650000D03*
X178750000Y-127650000D03*
X176750000Y-126650000D03*
X178750000Y-125650000D03*
X176750000Y-124650000D03*
X178750000Y-123650000D03*
X176750000Y-122650000D03*
X178750000Y-121650000D03*
X176750000Y-120650000D03*
X178750000Y-119650000D03*
X176750000Y-116650000D03*
X178750000Y-115650000D03*
X176750000Y-114650000D03*
X178750000Y-113650000D03*
X176750000Y-112650000D03*
X178750000Y-111650000D03*
X176750000Y-110650000D03*
X181250000Y-129650000D03*
X183250000Y-128650000D03*
X181250000Y-127650000D03*
X183250000Y-126650000D03*
X181250000Y-125650000D03*
X183250000Y-124650000D03*
X181250000Y-123650000D03*
X183250000Y-122650000D03*
X181250000Y-121650000D03*
X183250000Y-120650000D03*
X181250000Y-119650000D03*
X183250000Y-116650000D03*
X181250000Y-115650000D03*
X183250000Y-114650000D03*
X181250000Y-113650000D03*
X183250000Y-112650000D03*
X181250000Y-111650000D03*
X183250000Y-110650000D03*
D16*
X170000000Y-118000000D03*
X170000000Y-108850000D03*
D17*
X168750000Y-129650000D03*
X166750000Y-128650000D03*
X168750000Y-127650000D03*
X166750000Y-126650000D03*
X168750000Y-125650000D03*
X166750000Y-124650000D03*
X168750000Y-123650000D03*
X166750000Y-122650000D03*
X168750000Y-121650000D03*
X166750000Y-120650000D03*
X168750000Y-119650000D03*
X166750000Y-116650000D03*
X168750000Y-115650000D03*
X166750000Y-114650000D03*
X168750000Y-113650000D03*
X166750000Y-112650000D03*
X168750000Y-111650000D03*
X166750000Y-110650000D03*
X171250000Y-129650000D03*
X173250000Y-128650000D03*
X171250000Y-127650000D03*
X173250000Y-126650000D03*
X171250000Y-125650000D03*
X173250000Y-124650000D03*
X171250000Y-123650000D03*
X173250000Y-122650000D03*
X171250000Y-121650000D03*
X173250000Y-120650000D03*
X171250000Y-119650000D03*
X173250000Y-116650000D03*
X171250000Y-115650000D03*
X173250000Y-114650000D03*
X171250000Y-113650000D03*
X173250000Y-112650000D03*
X171250000Y-111650000D03*
X173250000Y-110650000D03*
D16*
X160000000Y-118000000D03*
X160000000Y-108850000D03*
D17*
X158750000Y-129650000D03*
X156750000Y-128650000D03*
X158750000Y-127650000D03*
X156750000Y-126650000D03*
X158750000Y-125650000D03*
X156750000Y-124650000D03*
X158750000Y-123650000D03*
X156750000Y-122650000D03*
X158750000Y-121650000D03*
X156750000Y-120650000D03*
X158750000Y-119650000D03*
X156750000Y-116650000D03*
X158750000Y-115650000D03*
X156750000Y-114650000D03*
X158750000Y-113650000D03*
X156750000Y-112650000D03*
X158750000Y-111650000D03*
X156750000Y-110650000D03*
X161250000Y-129650000D03*
X163250000Y-128650000D03*
X161250000Y-127650000D03*
X163250000Y-126650000D03*
X161250000Y-125650000D03*
X163250000Y-124650000D03*
X161250000Y-123650000D03*
X163250000Y-122650000D03*
X161250000Y-121650000D03*
X163250000Y-120650000D03*
X161250000Y-119650000D03*
X163250000Y-116650000D03*
X161250000Y-115650000D03*
X163250000Y-114650000D03*
X161250000Y-113650000D03*
X163250000Y-112650000D03*
X161250000Y-111650000D03*
X163250000Y-110650000D03*
D18*
X219510000Y-84000000D03*
X216970000Y-84000000D03*
X214430000Y-84000000D03*
X211890000Y-84000000D03*
X209350000Y-84000000D03*
X206810000Y-84000000D03*
X204270000Y-84000000D03*
X201730000Y-84000000D03*
X199190000Y-84000000D03*
X196650000Y-84000000D03*
X194110000Y-84000000D03*
X191570000Y-84000000D03*
X189030000Y-84000000D03*
X186490000Y-84000000D03*
X183950000Y-84000000D03*
X181410000Y-84000000D03*
X222050000Y-84000000D03*
X224590000Y-84000000D03*
D12*
X97830000Y-98500000D03*
X100370000Y-98500000D03*
X142730000Y-95300000D03*
X145270000Y-95300000D03*
D15*
X223000000Y-139000000D03*
X54000000Y-139000000D03*
X85000000Y-76500000D03*
X223000000Y-76500000D03*
D12*
X149150000Y-82050000D03*
X149150000Y-75550000D03*
X153650000Y-82050000D03*
X153650000Y-75550000D03*
D19*
X154900000Y-78050000D03*
X147900000Y-78050000D03*
D12*
X139750000Y-82050000D03*
X139750000Y-75550000D03*
X144250000Y-82050000D03*
X144250000Y-75550000D03*
D19*
X145500000Y-78050000D03*
X138500000Y-78050000D03*
D12*
X217450000Y-110750000D03*
X223950000Y-110750000D03*
X217450000Y-115250000D03*
X223950000Y-115250000D03*
D19*
X221450000Y-116500000D03*
X221450000Y-109500000D03*
D15*
X85000000Y-89000000D03*
X185000000Y-76500000D03*
X185000000Y-89000000D03*
X135000000Y-139000000D03*
X85000000Y-139000000D03*
X185000000Y-139000000D03*
D20*
X214000000Y-93500000D03*
X214000000Y-96000000D03*
X214000000Y-98000000D03*
X214000000Y-100500000D03*
D21*
X216710000Y-90430000D03*
X216710000Y-103570000D03*
D20*
X93700000Y-85500000D03*
X96200000Y-85500000D03*
X98200000Y-85500000D03*
X100700000Y-85500000D03*
D21*
X90630000Y-82790000D03*
X103770000Y-82790000D03*
M02*
