M48
;DRILL file {KiCad 4.0.3+e1-6302~38~ubuntu14.04.1-stable} date Wed Oct 12 18:23:38 2016
;FORMAT={-:-/ absolute / inch / decimal}
FMAT,2
INCH,TZ
T1C0.012
T2C0.030
T3C0.031
T4C0.032
T5C0.033
T6C0.039
T7C0.040
T8C0.043
T9C0.051
T10C0.074
T11C0.091
%
G90
G05
M72
T1
X2.1024Y-4.2953
X2.1024Y-4.3307
X2.1024Y-4.7953
X2.1024Y-4.8307
X2.1024Y-4.8661
X2.1024Y-4.9016
X2.1024Y-4.937
X2.1102Y-3.4882
X2.1378Y-4.2953
X2.1378Y-4.3307
X2.1378Y-4.7953
X2.1378Y-4.8307
X2.1378Y-4.8661
X2.1378Y-4.9016
X2.1378Y-4.937
X2.1732Y-4.2953
X2.1732Y-4.3307
X2.1732Y-4.7953
X2.1732Y-4.8307
X2.1732Y-4.8661
X2.1732Y-4.9016
X2.1732Y-4.937
X2.2087Y-4.2953
X2.2087Y-4.3307
X2.2087Y-4.7953
X2.2087Y-4.8307
X2.2087Y-4.8661
X2.2087Y-4.9016
X2.2087Y-4.937
X2.2441Y-4.2953
X2.2441Y-4.3307
X2.2559Y-5.2323
X2.2559Y-5.2677
X2.2559Y-5.3031
X2.2559Y-5.3386
X2.2559Y-5.374
X2.2795Y-4.2953
X2.2795Y-4.3307
X2.2913Y-5.2323
X2.2913Y-5.2677
X2.2913Y-5.3031
X2.2913Y-5.3386
X2.2913Y-5.374
X2.315Y-4.2953
X2.315Y-4.3307
X2.3268Y-5.2323
X2.3268Y-5.2677
X2.3268Y-5.3031
X2.3268Y-5.3386
X2.3268Y-5.374
X2.3583Y-5.2323
X2.3583Y-5.2677
X2.3583Y-5.3031
X2.3583Y-5.3386
X2.3622Y-5.374
X2.3937Y-5.2323
X2.4291Y-5.2323
X2.4961Y-5.2402
X2.5118Y-4.3002
X2.5423Y-4.2963
X2.5423Y-4.4026
X2.6772Y-5.315
X2.6772Y-5.3504
X2.6772Y-5.3858
X2.6772Y-5.4213
X2.7126Y-5.315
X2.7126Y-5.3504
X2.7126Y-5.3858
X2.7126Y-5.4213
X2.748Y-5.315
X2.748Y-5.3504
X2.748Y-5.3858
X2.748Y-5.4213
X2.9213Y-4.2539
X2.9429Y-4.2835
X2.9646Y-3.9803
X2.9646Y-4.0276
X2.9724Y-3.4252
X3.0315Y-3.8287
X3.0512Y-2.9724
X3.0807Y-3.8287
X3.1299Y-3.8287
X3.1614Y-3.065
X3.1693Y-3.7992
X3.2165Y-3.874
X3.5079Y-3.7205
X3.6102Y-4.0945
X3.8465Y-3.5876
X3.872Y-3.999
X3.9528Y-2.9518
X3.9724Y-3.6122
X4.0837Y-3.6181
X4.0866Y-3.6535
X4.0945Y-3.2067
X4.1358Y-3.5551
X4.1614Y-3.7923
X4.1624Y-3.7323
X4.1703Y-3.8287
X4.186Y-2.9508
X4.188Y-3.5344
X4.2037Y-3.1703
X4.2126Y-3.7687
X4.2185Y-3.3031
X4.2195Y-3.5108
X4.2205Y-3.8219
X4.253Y-3.8189
X4.2628Y-3.4744
X4.2766Y-3.8415
X4.2874Y-3.938
X4.3012Y-3.4281
X4.3238Y-3.8681
X4.3425Y-3.0906
X4.3504Y-3.9114
X4.374Y-3.5758
X4.377Y-3.7215
X4.3868Y-3.6053
X4.4055Y-3.936
X4.4075Y-3.1447
X4.4104Y-3.5591
X4.4104Y-3.7746
X4.4301Y-3.5089
X4.4331Y-3.3533
X4.437Y-3.1299
X4.437Y-3.2825
X4.439Y-3.7992
X4.4409Y-3.9636
X4.4528Y-3.5571
X4.4567Y-3.3297
X4.4793Y-3.2441
X4.4823Y-3.8386
X4.4833Y-3.7943
X4.4862Y-3.2953
X4.501Y-3.2185
X4.5197Y-3.189
X4.5394Y-3.997
X4.5413Y-3.0797
X4.5423Y-3.2215
X4.5591Y-3.8632
X4.5689Y-3.9626
X4.5896Y-3.252
X4.5994Y-3.2923
X4.6024Y-3.4606
X4.6033Y-3.7756
X4.6033Y-3.814
X4.6093Y-3.9685
X4.627Y-3.4193
X4.628Y-3.3051
X4.6437Y-3.1486
X4.6486Y-3.3839
X4.6535Y-3.9537
X4.6624Y-3.3465
X4.6841Y-3.5955
X4.7018Y-3.5079
X4.7037Y-3.4646
X4.7096Y-3.5709
X4.7126Y-3.8671
X4.7175Y-3.7008
X4.7303Y-3.4862
X4.7343Y-3.5463
X4.7382Y-3.6713
X4.7441Y-3.1821
X4.7589Y-3.4222
X4.7598Y-3.8602
X4.7648Y-3.6417
X4.7756Y-3.5207
X4.7776Y-3.2195
X4.7776Y-3.2667
X4.7785Y-3.1811
X4.7785Y-3.4498
X4.812Y-3.6053
X4.8179Y-3.9882
X4.8425Y-3.7431
X4.8445Y-3.9685
X4.8514Y-3.2539
X4.8563Y-3.9301
X4.8661Y-3.8937
X4.874Y-3.7087
X4.9675Y-3.3445
X4.9961Y-3.4163
X5.002Y-3.3465
X5.003Y-3.3819
X5.0354Y-3.2205
X5.0472Y-3.0157
X5.0482Y-3.0837
X5.0512Y-3.9291
X5.0827Y-2.9843
X5.0827Y-3.2156
X5.1998Y-3.5492
X5.2077Y-3.3898
X5.2106Y-3.4281
X5.2638Y-2.9724
X5.2717Y-3.2835
X5.2992Y-2.9685
X5.3031Y-3.315
X5.3268Y-2.9331
X5.3268Y-3.563
X5.3583Y-3.3189
X5.3858Y-3.563
X5.4449Y-3.563
X5.5079Y-3.563
X5.6043Y-3.7638
X5.6516Y-3.4882
X5.6526Y-3.561
X5.6535Y-3.3455
X5.6732Y-3.9085
X5.747Y-3.9016
X5.7776Y-3.8789
X5.81Y-3.8553
X5.8622Y-3.7175
X5.9341Y-3.4094
X5.9341Y-3.4114
X6.3947Y-4.3022
X6.4163Y-3.9429
X6.4508Y-3.9537
X6.4528Y-3.5984
X6.4577Y-4.2835
X6.4862Y-3.9646
X6.4882Y-4.2776
X6.5049Y-4.251
X6.5108Y-3.9902
X6.5394Y-3.5994
X6.5709Y-3.75
X6.625Y-3.7175
X6.6693Y-3.7175
X7.2077Y-3.7018
X7.2116Y-3.4016
X7.2116Y-3.5974
X7.2116Y-3.8907
X7.2156Y-3.3022
T2
X4.0498Y-2.9591
X4.0498Y-3.0091
X4.0498Y-3.0591
X4.0498Y-3.1091
X4.0498Y-3.1591
X4.0998Y-2.9591
X4.0998Y-3.0091
X4.0998Y-3.0591
X4.0998Y-3.1091
X4.0998Y-3.1591
T3
X3.6181Y-3.3661
X3.6732Y-3.3661
X3.7283Y-3.3661
X3.7835Y-3.3661
T4
X2.5197Y-3.1677
X2.5197Y-3.2677
X2.5984Y-3.1677
X2.5984Y-3.2677
T5
X2.628Y-4.3563
X2.628Y-4.435
X2.628Y-4.5138
X2.628Y-4.5925
X2.628Y-4.75
X2.628Y-4.8287
X2.628Y-4.9075
X2.628Y-4.9862
X2.628Y-5.065
X2.7067Y-4.3957
X2.7067Y-4.4744
X2.7067Y-4.5531
X2.7067Y-4.7106
X2.7067Y-4.7894
X2.7067Y-4.8681
X2.7067Y-4.9469
X2.7067Y-5.0256
X2.7067Y-5.1043
X2.8051Y-4.3957
X2.8051Y-4.4744
X2.8051Y-4.5531
X2.8051Y-4.7106
X2.8051Y-4.7894
X2.8051Y-4.8681
X2.8051Y-4.9469
X2.8051Y-5.0256
X2.8051Y-5.1043
X2.8839Y-4.3563
X2.8839Y-4.435
X2.8839Y-4.5138
X2.8839Y-4.5925
X2.8839Y-4.75
X2.8839Y-4.8287
X2.8839Y-4.9075
X2.8839Y-4.9862
X2.8839Y-5.065
X3.0217Y-4.3563
X3.0217Y-4.435
X3.0217Y-4.5138
X3.0217Y-4.5925
X3.0217Y-4.75
X3.0217Y-4.8287
X3.0217Y-4.9075
X3.0217Y-4.9862
X3.0217Y-5.065
X3.1004Y-4.3957
X3.1004Y-4.4744
X3.1004Y-4.5531
X3.1004Y-4.7106
X3.1004Y-4.7894
X3.1004Y-4.8681
X3.1004Y-4.9469
X3.1004Y-5.0256
X3.1004Y-5.1043
X3.1988Y-4.3957
X3.1988Y-4.4744
X3.1988Y-4.5531
X3.1988Y-4.7106
X3.1988Y-4.7894
X3.1988Y-4.8681
X3.1988Y-4.9469
X3.1988Y-5.0256
X3.1988Y-5.1043
X3.2776Y-4.3563
X3.2776Y-4.435
X3.2776Y-4.5138
X3.2776Y-4.5925
X3.2776Y-4.75
X3.2776Y-4.8287
X3.2776Y-4.9075
X3.2776Y-4.9862
X3.2776Y-5.065
X3.4154Y-4.3563
X3.4154Y-4.435
X3.4154Y-4.5138
X3.4154Y-4.5925
X3.4154Y-4.75
X3.4154Y-4.8287
X3.4154Y-4.9075
X3.4154Y-4.9862
X3.4154Y-5.065
X3.4941Y-4.3957
X3.4941Y-4.4744
X3.4941Y-4.5531
X3.4941Y-4.7106
X3.4941Y-4.7894
X3.4941Y-4.8681
X3.4941Y-4.9469
X3.4941Y-5.0256
X3.4941Y-5.1043
X3.5925Y-4.3957
X3.5925Y-4.4744
X3.5925Y-4.5531
X3.5925Y-4.7106
X3.5925Y-4.7894
X3.5925Y-4.8681
X3.5925Y-4.9469
X3.5925Y-5.0256
X3.5925Y-5.1043
X3.6713Y-4.3563
X3.6713Y-4.435
X3.6713Y-4.5138
X3.6713Y-4.5925
X3.6713Y-4.75
X3.6713Y-4.8287
X3.6713Y-4.9075
X3.6713Y-4.9862
X3.6713Y-5.065
X3.8091Y-4.3563
X3.8091Y-4.435
X3.8091Y-4.5138
X3.8091Y-4.5925
X3.8091Y-4.75
X3.8091Y-4.8287
X3.8091Y-4.9075
X3.8091Y-4.9862
X3.8091Y-5.065
X3.8878Y-4.3957
X3.8878Y-4.4744
X3.8878Y-4.5531
X3.8878Y-4.7106
X3.8878Y-4.7894
X3.8878Y-4.8681
X3.8878Y-4.9469
X3.8878Y-5.0256
X3.8878Y-5.1043
X3.9862Y-4.3957
X3.9862Y-4.4744
X3.9862Y-4.5531
X3.9862Y-4.7106
X3.9862Y-4.7894
X3.9862Y-4.8681
X3.9862Y-4.9469
X3.9862Y-5.0256
X3.9862Y-5.1043
X4.065Y-4.3563
X4.065Y-4.435
X4.065Y-4.5138
X4.065Y-4.5925
X4.065Y-4.75
X4.065Y-4.8287
X4.065Y-4.9075
X4.065Y-4.9862
X4.065Y-5.065
X4.2028Y-4.3563
X4.2028Y-4.435
X4.2028Y-4.5138
X4.2028Y-4.5925
X4.2028Y-4.75
X4.2028Y-4.8287
X4.2028Y-4.9075
X4.2028Y-4.9862
X4.2028Y-5.065
X4.2815Y-4.3957
X4.2815Y-4.4744
X4.2815Y-4.5531
X4.2815Y-4.7106
X4.2815Y-4.7894
X4.2815Y-4.8681
X4.2815Y-4.9469
X4.2815Y-5.0256
X4.2815Y-5.1043
X4.3799Y-4.3957
X4.3799Y-4.4744
X4.3799Y-4.5531
X4.3799Y-4.7106
X4.3799Y-4.7894
X4.3799Y-4.8681
X4.3799Y-4.9469
X4.3799Y-5.0256
X4.3799Y-5.1043
X4.4587Y-4.3563
X4.4587Y-4.435
X4.4587Y-4.5138
X4.4587Y-4.5925
X4.4587Y-4.75
X4.4587Y-4.8287
X4.4587Y-4.9075
X4.4587Y-4.9862
X4.4587Y-5.065
X4.5965Y-4.3563
X4.5965Y-4.435
X4.5965Y-4.5138
X4.5965Y-4.5925
X4.5965Y-4.75
X4.5965Y-4.8287
X4.5965Y-4.9075
X4.5965Y-4.9862
X4.5965Y-5.065
X4.6752Y-4.3957
X4.6752Y-4.4744
X4.6752Y-4.5531
X4.6752Y-4.7106
X4.6752Y-4.7894
X4.6752Y-4.8681
X4.6752Y-4.9469
X4.6752Y-5.0256
X4.6752Y-5.1043
X4.7736Y-4.3957
X4.7736Y-4.4744
X4.7736Y-4.5531
X4.7736Y-4.7106
X4.7736Y-4.7894
X4.7736Y-4.8681
X4.7736Y-4.9469
X4.7736Y-5.0256
X4.7736Y-5.1043
X4.8524Y-4.3563
X4.8524Y-4.435
X4.8524Y-4.5138
X4.8524Y-4.5925
X4.8524Y-4.75
X4.8524Y-4.8287
X4.8524Y-4.9075
X4.8524Y-4.9862
X4.8524Y-5.065
X4.9902Y-4.3563
X4.9902Y-4.435
X4.9902Y-4.5138
X4.9902Y-4.5925
X4.9902Y-4.75
X4.9902Y-4.8287
X4.9902Y-4.9075
X4.9902Y-4.9862
X4.9902Y-5.065
X5.0689Y-4.3957
X5.0689Y-4.4744
X5.0689Y-4.5531
X5.0689Y-4.7106
X5.0689Y-4.7894
X5.0689Y-4.8681
X5.0689Y-4.9469
X5.0689Y-5.0256
X5.0689Y-5.1043
X5.1673Y-4.3957
X5.1673Y-4.4744
X5.1673Y-4.5531
X5.1673Y-4.7106
X5.1673Y-4.7894
X5.1673Y-4.8681
X5.1673Y-4.9469
X5.1673Y-5.0256
X5.1673Y-5.1043
X5.2461Y-4.3563
X5.2461Y-4.435
X5.2461Y-4.5138
X5.2461Y-4.5925
X5.2461Y-4.75
X5.2461Y-4.8287
X5.2461Y-4.9075
X5.2461Y-4.9862
X5.2461Y-5.065
X5.3839Y-4.3563
X5.3839Y-4.435
X5.3839Y-4.5138
X5.3839Y-4.5925
X5.3839Y-4.75
X5.3839Y-4.8287
X5.3839Y-4.9075
X5.3839Y-4.9862
X5.3839Y-5.065
X5.4626Y-4.3957
X5.4626Y-4.4744
X5.4626Y-4.5531
X5.4626Y-4.7106
X5.4626Y-4.7894
X5.4626Y-4.8681
X5.4626Y-4.9469
X5.4626Y-5.0256
X5.4626Y-5.1043
X5.561Y-4.3957
X5.561Y-4.4744
X5.561Y-4.5531
X5.561Y-4.7106
X5.561Y-4.7894
X5.561Y-4.8681
X5.561Y-4.9469
X5.561Y-5.0256
X5.561Y-5.1043
X5.6398Y-4.3563
X5.6398Y-4.435
X5.6398Y-4.5138
X5.6398Y-4.5925
X5.6398Y-4.75
X5.6398Y-4.8287
X5.6398Y-4.9075
X5.6398Y-4.9862
X5.6398Y-5.065
X5.7776Y-4.3563
X5.7776Y-4.435
X5.7776Y-4.5138
X5.7776Y-4.5925
X5.7776Y-4.75
X5.7776Y-4.8287
X5.7776Y-4.9075
X5.7776Y-4.9862
X5.7776Y-5.065
X5.8563Y-4.3957
X5.8563Y-4.4744
X5.8563Y-4.5531
X5.8563Y-4.7106
X5.8563Y-4.7894
X5.8563Y-4.8681
X5.8563Y-4.9469
X5.8563Y-5.0256
X5.8563Y-5.1043
X5.9547Y-4.3957
X5.9547Y-4.4744
X5.9547Y-4.5531
X5.9547Y-4.7106
X5.9547Y-4.7894
X5.9547Y-4.8681
X5.9547Y-4.9469
X5.9547Y-5.0256
X5.9547Y-5.1043
X6.0335Y-4.3563
X6.0335Y-4.435
X6.0335Y-4.5138
X6.0335Y-4.5925
X6.0335Y-4.75
X6.0335Y-4.8287
X6.0335Y-4.9075
X6.0335Y-4.9862
X6.0335Y-5.065
X6.1713Y-4.3563
X6.1713Y-4.435
X6.1713Y-4.5138
X6.1713Y-4.5925
X6.1713Y-4.75
X6.1713Y-4.8287
X6.1713Y-4.9075
X6.1713Y-4.9862
X6.1713Y-5.065
X6.25Y-4.3957
X6.25Y-4.4744
X6.25Y-4.5531
X6.25Y-4.7106
X6.25Y-4.7894
X6.25Y-4.8681
X6.25Y-4.9469
X6.25Y-5.0256
X6.25Y-5.1043
X6.3484Y-4.3957
X6.3484Y-4.4744
X6.3484Y-4.5531
X6.3484Y-4.7106
X6.3484Y-4.7894
X6.3484Y-4.8681
X6.3484Y-4.9469
X6.3484Y-5.0256
X6.3484Y-5.1043
X6.4272Y-4.3563
X6.4272Y-4.435
X6.4272Y-4.5138
X6.4272Y-4.5925
X6.4272Y-4.75
X6.4272Y-4.8287
X6.4272Y-4.9075
X6.4272Y-4.9862
X6.4272Y-5.065
X6.565Y-4.3563
X6.565Y-4.435
X6.565Y-4.5138
X6.565Y-4.5925
X6.565Y-4.75
X6.565Y-4.8287
X6.565Y-4.9075
X6.565Y-4.9862
X6.565Y-5.065
X6.6437Y-4.3957
X6.6437Y-4.4744
X6.6437Y-4.5531
X6.6437Y-4.7106
X6.6437Y-4.7894
X6.6437Y-4.8681
X6.6437Y-4.9469
X6.6437Y-5.0256
X6.6437Y-5.1043
X6.7421Y-4.3957
X6.7421Y-4.4744
X6.7421Y-4.5531
X6.7421Y-4.7106
X6.7421Y-4.7894
X6.7421Y-4.8681
X6.7421Y-4.9469
X6.7421Y-5.0256
X6.7421Y-5.1043
X6.8209Y-4.3563
X6.8209Y-4.435
X6.8209Y-4.5138
X6.8209Y-4.5925
X6.8209Y-4.75
X6.8209Y-4.8287
X6.8209Y-4.9075
X6.8209Y-4.9862
X6.8209Y-5.065
X6.9587Y-4.3563
X6.9587Y-4.435
X6.9587Y-4.5138
X6.9587Y-4.5925
X6.9587Y-4.75
X6.9587Y-4.8287
X6.9587Y-4.9075
X6.9587Y-4.9862
X6.9587Y-5.065
X7.0374Y-4.3957
X7.0374Y-4.4744
X7.0374Y-4.5531
X7.0374Y-4.7106
X7.0374Y-4.7894
X7.0374Y-4.8681
X7.0374Y-4.9469
X7.0374Y-5.0256
X7.0374Y-5.1043
X7.1358Y-4.3957
X7.1358Y-4.4744
X7.1358Y-4.5531
X7.1358Y-4.7106
X7.1358Y-4.7894
X7.1358Y-4.8681
X7.1358Y-4.9469
X7.1358Y-5.0256
X7.1358Y-5.1043
X7.2146Y-4.3563
X7.2146Y-4.435
X7.2146Y-4.5138
X7.2146Y-4.5925
X7.2146Y-4.75
X7.2146Y-4.8287
X7.2146Y-4.9075
X7.2146Y-4.9862
X7.2146Y-5.065
X7.3524Y-4.3563
X7.3524Y-4.435
X7.3524Y-4.5138
X7.3524Y-4.5925
X7.3524Y-4.75
X7.3524Y-4.8287
X7.3524Y-4.9075
X7.3524Y-4.9862
X7.3524Y-5.065
X7.4311Y-4.3957
X7.4311Y-4.4744
X7.4311Y-4.5531
X7.4311Y-4.7106
X7.4311Y-4.7894
X7.4311Y-4.8681
X7.4311Y-4.9469
X7.4311Y-5.0256
X7.4311Y-5.1043
X7.5295Y-4.3957
X7.5295Y-4.4744
X7.5295Y-4.5531
X7.5295Y-4.7106
X7.5295Y-4.7894
X7.5295Y-4.8681
X7.5295Y-4.9469
X7.5295Y-5.0256
X7.5295Y-5.1043
X7.6083Y-4.3563
X7.6083Y-4.435
X7.6083Y-4.5138
X7.6083Y-4.5925
X7.6083Y-4.75
X7.6083Y-4.8287
X7.6083Y-4.9075
X7.6083Y-4.9862
X7.6083Y-5.065
X7.7461Y-4.3563
X7.7461Y-4.435
X7.7461Y-4.5138
X7.7461Y-4.5925
X7.7461Y-4.75
X7.7461Y-4.8287
X7.7461Y-4.9075
X7.7461Y-4.9862
X7.7461Y-5.065
X7.8248Y-4.3957
X7.8248Y-4.4744
X7.8248Y-4.5531
X7.8248Y-4.7106
X7.8248Y-4.7894
X7.8248Y-4.8681
X7.8248Y-4.9469
X7.8248Y-5.0256
X7.8248Y-5.1043
X7.9232Y-4.3957
X7.9232Y-4.4744
X7.9232Y-4.5531
X7.9232Y-4.7106
X7.9232Y-4.7894
X7.9232Y-4.8681
X7.9232Y-4.9469
X7.9232Y-5.0256
X7.9232Y-5.1043
X8.002Y-4.3563
X8.002Y-4.435
X8.002Y-4.5138
X8.002Y-4.5925
X8.002Y-4.75
X8.002Y-4.8287
X8.002Y-4.9075
X8.002Y-4.9862
X8.002Y-5.065
X8.1398Y-4.3563
X8.1398Y-4.435
X8.1398Y-4.5138
X8.1398Y-4.5925
X8.1398Y-4.75
X8.1398Y-4.8287
X8.1398Y-4.9075
X8.1398Y-4.9862
X8.1398Y-5.065
X8.2185Y-4.3957
X8.2185Y-4.4744
X8.2185Y-4.5531
X8.2185Y-4.7106
X8.2185Y-4.7894
X8.2185Y-4.8681
X8.2185Y-4.9469
X8.2185Y-5.0256
X8.2185Y-5.1043
X8.3169Y-4.3957
X8.3169Y-4.4744
X8.3169Y-4.5531
X8.3169Y-4.7106
X8.3169Y-4.7894
X8.3169Y-4.8681
X8.3169Y-4.9469
X8.3169Y-5.0256
X8.3169Y-5.1043
X8.3957Y-4.3563
X8.3957Y-4.435
X8.3957Y-4.5138
X8.3957Y-4.5925
X8.3957Y-4.75
X8.3957Y-4.8287
X8.3957Y-4.9075
X8.3957Y-4.9862
X8.3957Y-5.065
T6
X5.187Y-2.9902
X5.187Y-3.1673
X5.4429Y-2.9902
X5.4429Y-3.1673
X5.5571Y-2.9902
X5.5571Y-3.1673
X5.813Y-2.9902
X5.813Y-3.1673
X5.9272Y-2.9902
X5.9272Y-3.1673
X6.1831Y-2.9902
X6.1831Y-3.1673
T7
X4.4665Y-2.9921
X4.5665Y-2.9921
X4.6665Y-2.9921
X4.7665Y-2.9921
X4.8665Y-2.9921
X4.9665Y-2.9921
T9
X2.1732Y-3.6417
X2.1732Y-3.8386
X2.1732Y-4.0354
X2.1732Y-4.2323
T10
X2.565Y-3.6614
X2.565Y-3.8268
X2.565Y-3.9921
X2.565Y-4.1575
X2.7815Y-3.6614
X2.7815Y-3.8268
X2.7815Y-3.9921
X2.7815Y-4.1575
T11
X2.4134Y-2.9815
X2.4134Y-3.4539
T8
X3.6114Y-3.1039G85X3.6114Y-3.0685
G05
X3.6114Y-3.2551G85X3.6114Y-3.2197
G05
X3.802Y-3.1039G85X3.802Y-3.0685
G05
X3.802Y-3.2551G85X3.802Y-3.2197
G05
T0
M30
