G04 #@! TF.FileFunction,Soldermask,Bot*
%FSLAX46Y46*%
G04 Gerber Fmt 4.6, Leading zero omitted, Abs format (unit mm)*
G04 Created by KiCad (PCBNEW 4.0.6-e0-6349~53~ubuntu14.04.1) date Sat Apr  1 17:04:13 2017*
%MOMM*%
%LPD*%
G01*
G04 APERTURE LIST*
%ADD10C,0.100000*%
%ADD11C,1.200000*%
%ADD12O,1.500000X2.400000*%
%ADD13C,1.016000*%
%ADD14C,1.524000*%
%ADD15C,2.700020*%
%ADD16C,2.500000*%
%ADD17O,2.400000X1.500000*%
%ADD18C,2.700000*%
%ADD19C,2.350000*%
%ADD20C,1.230000*%
%ADD21C,1.500000*%
G04 APERTURE END LIST*
D10*
D11*
X91900000Y-85500000D03*
X93300000Y-85500000D03*
X94700000Y-85500000D03*
X96100000Y-85500000D03*
D12*
X91730000Y-78390000D03*
X91730000Y-82230000D03*
X96570000Y-78390000D03*
X96570000Y-82230000D03*
D13*
X102865000Y-75160000D03*
X104135000Y-75160000D03*
X102865000Y-76430000D03*
X104135000Y-76430000D03*
X102865000Y-77700000D03*
X104135000Y-77700000D03*
X102865000Y-78970000D03*
X104135000Y-78970000D03*
X102865000Y-80240000D03*
X104135000Y-80240000D03*
D14*
X154650000Y-81050000D03*
X148150000Y-81050000D03*
X154650000Y-76550000D03*
X148150000Y-76550000D03*
X145250000Y-81050000D03*
X138750000Y-81050000D03*
X145250000Y-76550000D03*
X138750000Y-76550000D03*
X66000000Y-80460000D03*
X66000000Y-83000000D03*
X64001020Y-83000000D03*
X64001020Y-80460000D03*
D15*
X61301000Y-75730520D03*
X61301000Y-87729480D03*
D14*
X142730000Y-95300000D03*
X145270000Y-95300000D03*
X97830000Y-98500000D03*
X100370000Y-98500000D03*
D16*
X65150000Y-105600000D03*
X70650000Y-105600000D03*
X65150000Y-101400000D03*
X70650000Y-101400000D03*
X65150000Y-97200000D03*
X70650000Y-97200000D03*
X65150000Y-93000000D03*
X70650000Y-93000000D03*
D14*
X159100000Y-99300000D03*
X76830000Y-86900000D03*
X79370000Y-86900000D03*
X177130000Y-101600000D03*
X179670000Y-101600000D03*
X218450000Y-103550000D03*
X218450000Y-97050000D03*
X222950000Y-103550000D03*
X222950000Y-97050000D03*
D11*
X214000000Y-87900000D03*
X214000000Y-89300000D03*
X214000000Y-90700000D03*
X214000000Y-92100000D03*
D17*
X221110000Y-87730000D03*
X217270000Y-87730000D03*
X221110000Y-92570000D03*
X217270000Y-92570000D03*
D18*
X59700000Y-127000000D03*
X222300000Y-127000000D03*
D19*
X150000000Y-118000000D03*
X150000000Y-108850000D03*
D20*
X148750000Y-129650000D03*
X146750000Y-128650000D03*
X148750000Y-127650000D03*
X146750000Y-126650000D03*
X148750000Y-125650000D03*
X146750000Y-124650000D03*
X148750000Y-123650000D03*
X146750000Y-122650000D03*
X148750000Y-121650000D03*
X146750000Y-120650000D03*
X148750000Y-119650000D03*
X146750000Y-116650000D03*
X148750000Y-115650000D03*
X146750000Y-114650000D03*
X148750000Y-113650000D03*
X146750000Y-112650000D03*
X148750000Y-111650000D03*
X146750000Y-110650000D03*
X151250000Y-129650000D03*
X153250000Y-128650000D03*
X151250000Y-127650000D03*
X153250000Y-126650000D03*
X151250000Y-125650000D03*
X153250000Y-124650000D03*
X151250000Y-123650000D03*
X153250000Y-122650000D03*
X151250000Y-121650000D03*
X153250000Y-120650000D03*
X151250000Y-119650000D03*
X153250000Y-116650000D03*
X151250000Y-115650000D03*
X153250000Y-114650000D03*
X151250000Y-113650000D03*
X153250000Y-112650000D03*
X151250000Y-111650000D03*
X153250000Y-110650000D03*
D19*
X140000000Y-118000000D03*
X140000000Y-108850000D03*
D20*
X138750000Y-129650000D03*
X136750000Y-128650000D03*
X138750000Y-127650000D03*
X136750000Y-126650000D03*
X138750000Y-125650000D03*
X136750000Y-124650000D03*
X138750000Y-123650000D03*
X136750000Y-122650000D03*
X138750000Y-121650000D03*
X136750000Y-120650000D03*
X138750000Y-119650000D03*
X136750000Y-116650000D03*
X138750000Y-115650000D03*
X136750000Y-114650000D03*
X138750000Y-113650000D03*
X136750000Y-112650000D03*
X138750000Y-111650000D03*
X136750000Y-110650000D03*
X141250000Y-129650000D03*
X143250000Y-128650000D03*
X141250000Y-127650000D03*
X143250000Y-126650000D03*
X141250000Y-125650000D03*
X143250000Y-124650000D03*
X141250000Y-123650000D03*
X143250000Y-122650000D03*
X141250000Y-121650000D03*
X143250000Y-120650000D03*
X141250000Y-119650000D03*
X143250000Y-116650000D03*
X141250000Y-115650000D03*
X143250000Y-114650000D03*
X141250000Y-113650000D03*
X143250000Y-112650000D03*
X141250000Y-111650000D03*
X143250000Y-110650000D03*
D19*
X130000000Y-118000000D03*
X130000000Y-108850000D03*
D20*
X128750000Y-129650000D03*
X126750000Y-128650000D03*
X128750000Y-127650000D03*
X126750000Y-126650000D03*
X128750000Y-125650000D03*
X126750000Y-124650000D03*
X128750000Y-123650000D03*
X126750000Y-122650000D03*
X128750000Y-121650000D03*
X126750000Y-120650000D03*
X128750000Y-119650000D03*
X126750000Y-116650000D03*
X128750000Y-115650000D03*
X126750000Y-114650000D03*
X128750000Y-113650000D03*
X126750000Y-112650000D03*
X128750000Y-111650000D03*
X126750000Y-110650000D03*
X131250000Y-129650000D03*
X133250000Y-128650000D03*
X131250000Y-127650000D03*
X133250000Y-126650000D03*
X131250000Y-125650000D03*
X133250000Y-124650000D03*
X131250000Y-123650000D03*
X133250000Y-122650000D03*
X131250000Y-121650000D03*
X133250000Y-120650000D03*
X131250000Y-119650000D03*
X133250000Y-116650000D03*
X131250000Y-115650000D03*
X133250000Y-114650000D03*
X131250000Y-113650000D03*
X133250000Y-112650000D03*
X131250000Y-111650000D03*
X133250000Y-110650000D03*
D19*
X120000000Y-118000000D03*
X120000000Y-108850000D03*
D20*
X118750000Y-129650000D03*
X116750000Y-128650000D03*
X118750000Y-127650000D03*
X116750000Y-126650000D03*
X118750000Y-125650000D03*
X116750000Y-124650000D03*
X118750000Y-123650000D03*
X116750000Y-122650000D03*
X118750000Y-121650000D03*
X116750000Y-120650000D03*
X118750000Y-119650000D03*
X116750000Y-116650000D03*
X118750000Y-115650000D03*
X116750000Y-114650000D03*
X118750000Y-113650000D03*
X116750000Y-112650000D03*
X118750000Y-111650000D03*
X116750000Y-110650000D03*
X121250000Y-129650000D03*
X123250000Y-128650000D03*
X121250000Y-127650000D03*
X123250000Y-126650000D03*
X121250000Y-125650000D03*
X123250000Y-124650000D03*
X121250000Y-123650000D03*
X123250000Y-122650000D03*
X121250000Y-121650000D03*
X123250000Y-120650000D03*
X121250000Y-119650000D03*
X123250000Y-116650000D03*
X121250000Y-115650000D03*
X123250000Y-114650000D03*
X121250000Y-113650000D03*
X123250000Y-112650000D03*
X121250000Y-111650000D03*
X123250000Y-110650000D03*
D19*
X110000000Y-118000000D03*
X110000000Y-108850000D03*
D20*
X108750000Y-129650000D03*
X106750000Y-128650000D03*
X108750000Y-127650000D03*
X106750000Y-126650000D03*
X108750000Y-125650000D03*
X106750000Y-124650000D03*
X108750000Y-123650000D03*
X106750000Y-122650000D03*
X108750000Y-121650000D03*
X106750000Y-120650000D03*
X108750000Y-119650000D03*
X106750000Y-116650000D03*
X108750000Y-115650000D03*
X106750000Y-114650000D03*
X108750000Y-113650000D03*
X106750000Y-112650000D03*
X108750000Y-111650000D03*
X106750000Y-110650000D03*
X111250000Y-129650000D03*
X113250000Y-128650000D03*
X111250000Y-127650000D03*
X113250000Y-126650000D03*
X111250000Y-125650000D03*
X113250000Y-124650000D03*
X111250000Y-123650000D03*
X113250000Y-122650000D03*
X111250000Y-121650000D03*
X113250000Y-120650000D03*
X111250000Y-119650000D03*
X113250000Y-116650000D03*
X111250000Y-115650000D03*
X113250000Y-114650000D03*
X111250000Y-113650000D03*
X113250000Y-112650000D03*
X111250000Y-111650000D03*
X113250000Y-110650000D03*
D19*
X100000000Y-118000000D03*
X100000000Y-108850000D03*
D20*
X98750000Y-129650000D03*
X96750000Y-128650000D03*
X98750000Y-127650000D03*
X96750000Y-126650000D03*
X98750000Y-125650000D03*
X96750000Y-124650000D03*
X98750000Y-123650000D03*
X96750000Y-122650000D03*
X98750000Y-121650000D03*
X96750000Y-120650000D03*
X98750000Y-119650000D03*
X96750000Y-116650000D03*
X98750000Y-115650000D03*
X96750000Y-114650000D03*
X98750000Y-113650000D03*
X96750000Y-112650000D03*
X98750000Y-111650000D03*
X96750000Y-110650000D03*
X101250000Y-129650000D03*
X103250000Y-128650000D03*
X101250000Y-127650000D03*
X103250000Y-126650000D03*
X101250000Y-125650000D03*
X103250000Y-124650000D03*
X101250000Y-123650000D03*
X103250000Y-122650000D03*
X101250000Y-121650000D03*
X103250000Y-120650000D03*
X101250000Y-119650000D03*
X103250000Y-116650000D03*
X101250000Y-115650000D03*
X103250000Y-114650000D03*
X101250000Y-113650000D03*
X103250000Y-112650000D03*
X101250000Y-111650000D03*
X103250000Y-110650000D03*
D19*
X90000000Y-118000000D03*
X90000000Y-108850000D03*
D20*
X88750000Y-129650000D03*
X86750000Y-128650000D03*
X88750000Y-127650000D03*
X86750000Y-126650000D03*
X88750000Y-125650000D03*
X86750000Y-124650000D03*
X88750000Y-123650000D03*
X86750000Y-122650000D03*
X88750000Y-121650000D03*
X86750000Y-120650000D03*
X88750000Y-119650000D03*
X86750000Y-116650000D03*
X88750000Y-115650000D03*
X86750000Y-114650000D03*
X88750000Y-113650000D03*
X86750000Y-112650000D03*
X88750000Y-111650000D03*
X86750000Y-110650000D03*
X91250000Y-129650000D03*
X93250000Y-128650000D03*
X91250000Y-127650000D03*
X93250000Y-126650000D03*
X91250000Y-125650000D03*
X93250000Y-124650000D03*
X91250000Y-123650000D03*
X93250000Y-122650000D03*
X91250000Y-121650000D03*
X93250000Y-120650000D03*
X91250000Y-119650000D03*
X93250000Y-116650000D03*
X91250000Y-115650000D03*
X93250000Y-114650000D03*
X91250000Y-113650000D03*
X93250000Y-112650000D03*
X91250000Y-111650000D03*
X93250000Y-110650000D03*
D19*
X80000000Y-118000000D03*
X80000000Y-108850000D03*
D20*
X78750000Y-129650000D03*
X76750000Y-128650000D03*
X78750000Y-127650000D03*
X76750000Y-126650000D03*
X78750000Y-125650000D03*
X76750000Y-124650000D03*
X78750000Y-123650000D03*
X76750000Y-122650000D03*
X78750000Y-121650000D03*
X76750000Y-120650000D03*
X78750000Y-119650000D03*
X76750000Y-116650000D03*
X78750000Y-115650000D03*
X76750000Y-114650000D03*
X78750000Y-113650000D03*
X76750000Y-112650000D03*
X78750000Y-111650000D03*
X76750000Y-110650000D03*
X81250000Y-129650000D03*
X83250000Y-128650000D03*
X81250000Y-127650000D03*
X83250000Y-126650000D03*
X81250000Y-125650000D03*
X83250000Y-124650000D03*
X81250000Y-123650000D03*
X83250000Y-122650000D03*
X81250000Y-121650000D03*
X83250000Y-120650000D03*
X81250000Y-119650000D03*
X83250000Y-116650000D03*
X81250000Y-115650000D03*
X83250000Y-114650000D03*
X81250000Y-113650000D03*
X83250000Y-112650000D03*
X81250000Y-111650000D03*
X83250000Y-110650000D03*
D19*
X70000000Y-118000000D03*
X70000000Y-108850000D03*
D20*
X68750000Y-129650000D03*
X66750000Y-128650000D03*
X68750000Y-127650000D03*
X66750000Y-126650000D03*
X68750000Y-125650000D03*
X66750000Y-124650000D03*
X68750000Y-123650000D03*
X66750000Y-122650000D03*
X68750000Y-121650000D03*
X66750000Y-120650000D03*
X68750000Y-119650000D03*
X66750000Y-116650000D03*
X68750000Y-115650000D03*
X66750000Y-114650000D03*
X68750000Y-113650000D03*
X66750000Y-112650000D03*
X68750000Y-111650000D03*
X66750000Y-110650000D03*
X71250000Y-129650000D03*
X73250000Y-128650000D03*
X71250000Y-127650000D03*
X73250000Y-126650000D03*
X71250000Y-125650000D03*
X73250000Y-124650000D03*
X71250000Y-123650000D03*
X73250000Y-122650000D03*
X71250000Y-121650000D03*
X73250000Y-120650000D03*
X71250000Y-119650000D03*
X73250000Y-116650000D03*
X71250000Y-115650000D03*
X73250000Y-114650000D03*
X71250000Y-113650000D03*
X73250000Y-112650000D03*
X71250000Y-111650000D03*
X73250000Y-110650000D03*
D19*
X210000000Y-118000000D03*
X210000000Y-108850000D03*
D20*
X208750000Y-129650000D03*
X206750000Y-128650000D03*
X208750000Y-127650000D03*
X206750000Y-126650000D03*
X208750000Y-125650000D03*
X206750000Y-124650000D03*
X208750000Y-123650000D03*
X206750000Y-122650000D03*
X208750000Y-121650000D03*
X206750000Y-120650000D03*
X208750000Y-119650000D03*
X206750000Y-116650000D03*
X208750000Y-115650000D03*
X206750000Y-114650000D03*
X208750000Y-113650000D03*
X206750000Y-112650000D03*
X208750000Y-111650000D03*
X206750000Y-110650000D03*
X211250000Y-129650000D03*
X213250000Y-128650000D03*
X211250000Y-127650000D03*
X213250000Y-126650000D03*
X211250000Y-125650000D03*
X213250000Y-124650000D03*
X211250000Y-123650000D03*
X213250000Y-122650000D03*
X211250000Y-121650000D03*
X213250000Y-120650000D03*
X211250000Y-119650000D03*
X213250000Y-116650000D03*
X211250000Y-115650000D03*
X213250000Y-114650000D03*
X211250000Y-113650000D03*
X213250000Y-112650000D03*
X211250000Y-111650000D03*
X213250000Y-110650000D03*
D19*
X200000000Y-118000000D03*
X200000000Y-108850000D03*
D20*
X198750000Y-129650000D03*
X196750000Y-128650000D03*
X198750000Y-127650000D03*
X196750000Y-126650000D03*
X198750000Y-125650000D03*
X196750000Y-124650000D03*
X198750000Y-123650000D03*
X196750000Y-122650000D03*
X198750000Y-121650000D03*
X196750000Y-120650000D03*
X198750000Y-119650000D03*
X196750000Y-116650000D03*
X198750000Y-115650000D03*
X196750000Y-114650000D03*
X198750000Y-113650000D03*
X196750000Y-112650000D03*
X198750000Y-111650000D03*
X196750000Y-110650000D03*
X201250000Y-129650000D03*
X203250000Y-128650000D03*
X201250000Y-127650000D03*
X203250000Y-126650000D03*
X201250000Y-125650000D03*
X203250000Y-124650000D03*
X201250000Y-123650000D03*
X203250000Y-122650000D03*
X201250000Y-121650000D03*
X203250000Y-120650000D03*
X201250000Y-119650000D03*
X203250000Y-116650000D03*
X201250000Y-115650000D03*
X203250000Y-114650000D03*
X201250000Y-113650000D03*
X203250000Y-112650000D03*
X201250000Y-111650000D03*
X203250000Y-110650000D03*
D19*
X190000000Y-118000000D03*
X190000000Y-108850000D03*
D20*
X188750000Y-129650000D03*
X186750000Y-128650000D03*
X188750000Y-127650000D03*
X186750000Y-126650000D03*
X188750000Y-125650000D03*
X186750000Y-124650000D03*
X188750000Y-123650000D03*
X186750000Y-122650000D03*
X188750000Y-121650000D03*
X186750000Y-120650000D03*
X188750000Y-119650000D03*
X186750000Y-116650000D03*
X188750000Y-115650000D03*
X186750000Y-114650000D03*
X188750000Y-113650000D03*
X186750000Y-112650000D03*
X188750000Y-111650000D03*
X186750000Y-110650000D03*
X191250000Y-129650000D03*
X193250000Y-128650000D03*
X191250000Y-127650000D03*
X193250000Y-126650000D03*
X191250000Y-125650000D03*
X193250000Y-124650000D03*
X191250000Y-123650000D03*
X193250000Y-122650000D03*
X191250000Y-121650000D03*
X193250000Y-120650000D03*
X191250000Y-119650000D03*
X193250000Y-116650000D03*
X191250000Y-115650000D03*
X193250000Y-114650000D03*
X191250000Y-113650000D03*
X193250000Y-112650000D03*
X191250000Y-111650000D03*
X193250000Y-110650000D03*
D19*
X180000000Y-118000000D03*
X180000000Y-108850000D03*
D20*
X178750000Y-129650000D03*
X176750000Y-128650000D03*
X178750000Y-127650000D03*
X176750000Y-126650000D03*
X178750000Y-125650000D03*
X176750000Y-124650000D03*
X178750000Y-123650000D03*
X176750000Y-122650000D03*
X178750000Y-121650000D03*
X176750000Y-120650000D03*
X178750000Y-119650000D03*
X176750000Y-116650000D03*
X178750000Y-115650000D03*
X176750000Y-114650000D03*
X178750000Y-113650000D03*
X176750000Y-112650000D03*
X178750000Y-111650000D03*
X176750000Y-110650000D03*
X181250000Y-129650000D03*
X183250000Y-128650000D03*
X181250000Y-127650000D03*
X183250000Y-126650000D03*
X181250000Y-125650000D03*
X183250000Y-124650000D03*
X181250000Y-123650000D03*
X183250000Y-122650000D03*
X181250000Y-121650000D03*
X183250000Y-120650000D03*
X181250000Y-119650000D03*
X183250000Y-116650000D03*
X181250000Y-115650000D03*
X183250000Y-114650000D03*
X181250000Y-113650000D03*
X183250000Y-112650000D03*
X181250000Y-111650000D03*
X183250000Y-110650000D03*
D19*
X170000000Y-118000000D03*
X170000000Y-108850000D03*
D20*
X168750000Y-129650000D03*
X166750000Y-128650000D03*
X168750000Y-127650000D03*
X166750000Y-126650000D03*
X168750000Y-125650000D03*
X166750000Y-124650000D03*
X168750000Y-123650000D03*
X166750000Y-122650000D03*
X168750000Y-121650000D03*
X166750000Y-120650000D03*
X168750000Y-119650000D03*
X166750000Y-116650000D03*
X168750000Y-115650000D03*
X166750000Y-114650000D03*
X168750000Y-113650000D03*
X166750000Y-112650000D03*
X168750000Y-111650000D03*
X166750000Y-110650000D03*
X171250000Y-129650000D03*
X173250000Y-128650000D03*
X171250000Y-127650000D03*
X173250000Y-126650000D03*
X171250000Y-125650000D03*
X173250000Y-124650000D03*
X171250000Y-123650000D03*
X173250000Y-122650000D03*
X171250000Y-121650000D03*
X173250000Y-120650000D03*
X171250000Y-119650000D03*
X173250000Y-116650000D03*
X171250000Y-115650000D03*
X173250000Y-114650000D03*
X171250000Y-113650000D03*
X173250000Y-112650000D03*
X171250000Y-111650000D03*
X173250000Y-110650000D03*
D19*
X160000000Y-118000000D03*
X160000000Y-108850000D03*
D20*
X158750000Y-129650000D03*
X156750000Y-128650000D03*
X158750000Y-127650000D03*
X156750000Y-126650000D03*
X158750000Y-125650000D03*
X156750000Y-124650000D03*
X158750000Y-123650000D03*
X156750000Y-122650000D03*
X158750000Y-121650000D03*
X156750000Y-120650000D03*
X158750000Y-119650000D03*
X156750000Y-116650000D03*
X158750000Y-115650000D03*
X156750000Y-114650000D03*
X158750000Y-113650000D03*
X156750000Y-112650000D03*
X158750000Y-111650000D03*
X156750000Y-110650000D03*
X161250000Y-129650000D03*
X163250000Y-128650000D03*
X161250000Y-127650000D03*
X163250000Y-126650000D03*
X161250000Y-125650000D03*
X163250000Y-124650000D03*
X161250000Y-123650000D03*
X163250000Y-122650000D03*
X161250000Y-121650000D03*
X163250000Y-120650000D03*
X161250000Y-119650000D03*
X163250000Y-116650000D03*
X161250000Y-115650000D03*
X163250000Y-114650000D03*
X161250000Y-113650000D03*
X163250000Y-112650000D03*
X161250000Y-111650000D03*
X163250000Y-110650000D03*
D18*
X223000000Y-136000000D03*
X85000000Y-76500000D03*
X54000000Y-136000000D03*
X222500000Y-76500000D03*
D21*
X219510000Y-84000000D03*
X216970000Y-84000000D03*
X214430000Y-84000000D03*
X211890000Y-84000000D03*
X209350000Y-84000000D03*
X206810000Y-84000000D03*
X204270000Y-84000000D03*
X201730000Y-84000000D03*
X199190000Y-84000000D03*
X196650000Y-84000000D03*
X194110000Y-84000000D03*
X191570000Y-84000000D03*
X189030000Y-84000000D03*
X186490000Y-84000000D03*
X183950000Y-84000000D03*
X181410000Y-84000000D03*
X222050000Y-84000000D03*
X224590000Y-84000000D03*
M02*
