G04 #@! TF.FileFunction,Legend,Bot*
%FSLAX46Y46*%
G04 Gerber Fmt 4.6, Leading zero omitted, Abs format (unit mm)*
G04 Created by KiCad (PCBNEW 4.0.3+e1-6302~38~ubuntu14.04.1-stable) date Wed Oct 12 21:12:30 2016*
%MOMM*%
%LPD*%
G01*
G04 APERTURE LIST*
%ADD10C,0.100000*%
%ADD11C,0.300000*%
%ADD12C,0.010000*%
G04 APERTURE END LIST*
D10*
D11*
X127114286Y-94953571D02*
X127114286Y-96025000D01*
X127185714Y-96239286D01*
X127328571Y-96382143D01*
X127542857Y-96453571D01*
X127685714Y-96453571D01*
X125757143Y-95453571D02*
X125757143Y-96453571D01*
X126400000Y-95453571D02*
X126400000Y-96239286D01*
X126328572Y-96382143D01*
X126185714Y-96453571D01*
X125971429Y-96453571D01*
X125828572Y-96382143D01*
X125757143Y-96310714D01*
X125042857Y-96453571D02*
X125042857Y-95453571D01*
X125042857Y-94953571D02*
X125114286Y-95025000D01*
X125042857Y-95096429D01*
X124971429Y-95025000D01*
X125042857Y-94953571D01*
X125042857Y-95096429D01*
X123685714Y-96382143D02*
X123828571Y-96453571D01*
X124114285Y-96453571D01*
X124257143Y-96382143D01*
X124328571Y-96310714D01*
X124400000Y-96167857D01*
X124400000Y-95739286D01*
X124328571Y-95596429D01*
X124257143Y-95525000D01*
X124114285Y-95453571D01*
X123828571Y-95453571D01*
X123685714Y-95525000D01*
X123185714Y-95453571D02*
X122828571Y-96453571D01*
X122471429Y-95453571D02*
X122828571Y-96453571D01*
X122971429Y-96810714D01*
X123042857Y-96882143D01*
X123185714Y-96953571D01*
X121400000Y-95667857D02*
X121185714Y-95739286D01*
X121114286Y-95810714D01*
X121042857Y-95953571D01*
X121042857Y-96167857D01*
X121114286Y-96310714D01*
X121185714Y-96382143D01*
X121328572Y-96453571D01*
X121900000Y-96453571D01*
X121900000Y-94953571D01*
X121400000Y-94953571D01*
X121257143Y-95025000D01*
X121185714Y-95096429D01*
X121114286Y-95239286D01*
X121114286Y-95382143D01*
X121185714Y-95525000D01*
X121257143Y-95596429D01*
X121400000Y-95667857D01*
X121900000Y-95667857D01*
X120185714Y-96453571D02*
X120328572Y-96382143D01*
X120400000Y-96310714D01*
X120471429Y-96167857D01*
X120471429Y-95739286D01*
X120400000Y-95596429D01*
X120328572Y-95525000D01*
X120185714Y-95453571D01*
X119971429Y-95453571D01*
X119828572Y-95525000D01*
X119757143Y-95596429D01*
X119685714Y-95739286D01*
X119685714Y-96167857D01*
X119757143Y-96310714D01*
X119828572Y-96382143D01*
X119971429Y-96453571D01*
X120185714Y-96453571D01*
X118400000Y-96453571D02*
X118400000Y-95667857D01*
X118471429Y-95525000D01*
X118614286Y-95453571D01*
X118900000Y-95453571D01*
X119042857Y-95525000D01*
X118400000Y-96382143D02*
X118542857Y-96453571D01*
X118900000Y-96453571D01*
X119042857Y-96382143D01*
X119114286Y-96239286D01*
X119114286Y-96096429D01*
X119042857Y-95953571D01*
X118900000Y-95882143D01*
X118542857Y-95882143D01*
X118400000Y-95810714D01*
X117685714Y-96453571D02*
X117685714Y-95453571D01*
X117685714Y-95739286D02*
X117614286Y-95596429D01*
X117542857Y-95525000D01*
X117400000Y-95453571D01*
X117257143Y-95453571D01*
X116114286Y-96453571D02*
X116114286Y-94953571D01*
X116114286Y-96382143D02*
X116257143Y-96453571D01*
X116542857Y-96453571D01*
X116685715Y-96382143D01*
X116757143Y-96310714D01*
X116828572Y-96167857D01*
X116828572Y-95739286D01*
X116757143Y-95596429D01*
X116685715Y-95525000D01*
X116542857Y-95453571D01*
X116257143Y-95453571D01*
X116114286Y-95525000D01*
X126685714Y-99003571D02*
X127185714Y-98289286D01*
X127542857Y-99003571D02*
X127542857Y-97503571D01*
X126971429Y-97503571D01*
X126828571Y-97575000D01*
X126757143Y-97646429D01*
X126685714Y-97789286D01*
X126685714Y-98003571D01*
X126757143Y-98146429D01*
X126828571Y-98217857D01*
X126971429Y-98289286D01*
X127542857Y-98289286D01*
X125257143Y-99003571D02*
X126114286Y-99003571D01*
X125685714Y-99003571D02*
X125685714Y-97503571D01*
X125828571Y-97717857D01*
X125971429Y-97860714D01*
X126114286Y-97932143D01*
X124328572Y-97503571D02*
X124185715Y-97503571D01*
X124042858Y-97575000D01*
X123971429Y-97646429D01*
X123900000Y-97789286D01*
X123828572Y-98075000D01*
X123828572Y-98432143D01*
X123900000Y-98717857D01*
X123971429Y-98860714D01*
X124042858Y-98932143D01*
X124185715Y-99003571D01*
X124328572Y-99003571D01*
X124471429Y-98932143D01*
X124542858Y-98860714D01*
X124614286Y-98717857D01*
X124685715Y-98432143D01*
X124685715Y-98075000D01*
X124614286Y-97789286D01*
X124542858Y-97646429D01*
X124471429Y-97575000D01*
X124328572Y-97503571D01*
X122900001Y-97503571D02*
X122757144Y-97503571D01*
X122614287Y-97575000D01*
X122542858Y-97646429D01*
X122471429Y-97789286D01*
X122400001Y-98075000D01*
X122400001Y-98432143D01*
X122471429Y-98717857D01*
X122542858Y-98860714D01*
X122614287Y-98932143D01*
X122757144Y-99003571D01*
X122900001Y-99003571D01*
X123042858Y-98932143D01*
X123114287Y-98860714D01*
X123185715Y-98717857D01*
X123257144Y-98432143D01*
X123257144Y-98075000D01*
X123185715Y-97789286D01*
X123114287Y-97646429D01*
X123042858Y-97575000D01*
X122900001Y-97503571D01*
X121471430Y-97503571D02*
X121328573Y-97503571D01*
X121185716Y-97575000D01*
X121114287Y-97646429D01*
X121042858Y-97789286D01*
X120971430Y-98075000D01*
X120971430Y-98432143D01*
X121042858Y-98717857D01*
X121114287Y-98860714D01*
X121185716Y-98932143D01*
X121328573Y-99003571D01*
X121471430Y-99003571D01*
X121614287Y-98932143D01*
X121685716Y-98860714D01*
X121757144Y-98717857D01*
X121828573Y-98432143D01*
X121828573Y-98075000D01*
X121757144Y-97789286D01*
X121685716Y-97646429D01*
X121614287Y-97575000D01*
X121471430Y-97503571D01*
X120400002Y-98575000D02*
X119685716Y-98575000D01*
X120542859Y-99003571D02*
X120042859Y-97503571D01*
X119542859Y-99003571D01*
X118042859Y-98003571D02*
X117685716Y-99003571D01*
X117328574Y-98003571D01*
X115971431Y-99003571D02*
X116828574Y-99003571D01*
X116400002Y-99003571D02*
X116400002Y-97503571D01*
X116542859Y-97717857D01*
X116685717Y-97860714D01*
X116828574Y-97932143D01*
X115328574Y-98860714D02*
X115257146Y-98932143D01*
X115328574Y-99003571D01*
X115400003Y-98932143D01*
X115328574Y-98860714D01*
X115328574Y-99003571D01*
X113828574Y-99003571D02*
X114685717Y-99003571D01*
X114257145Y-99003571D02*
X114257145Y-97503571D01*
X114400002Y-97717857D01*
X114542860Y-97860714D01*
X114685717Y-97932143D01*
X113185717Y-98860714D02*
X113114289Y-98932143D01*
X113185717Y-99003571D01*
X113257146Y-98932143D01*
X113185717Y-98860714D01*
X113185717Y-99003571D01*
X112185717Y-97503571D02*
X112042860Y-97503571D01*
X111900003Y-97575000D01*
X111828574Y-97646429D01*
X111757145Y-97789286D01*
X111685717Y-98075000D01*
X111685717Y-98432143D01*
X111757145Y-98717857D01*
X111828574Y-98860714D01*
X111900003Y-98932143D01*
X112042860Y-99003571D01*
X112185717Y-99003571D01*
X112328574Y-98932143D01*
X112400003Y-98860714D01*
X112471431Y-98717857D01*
X112542860Y-98432143D01*
X112542860Y-98075000D01*
X112471431Y-97789286D01*
X112400003Y-97646429D01*
X112328574Y-97575000D01*
X112185717Y-97503571D01*
X109900003Y-98432143D02*
X108757146Y-98432143D01*
X106971432Y-97646429D02*
X106900003Y-97575000D01*
X106757146Y-97503571D01*
X106400003Y-97503571D01*
X106257146Y-97575000D01*
X106185717Y-97646429D01*
X106114289Y-97789286D01*
X106114289Y-97932143D01*
X106185717Y-98146429D01*
X107042860Y-99003571D01*
X106114289Y-99003571D01*
X105185718Y-97503571D02*
X105042861Y-97503571D01*
X104900004Y-97575000D01*
X104828575Y-97646429D01*
X104757146Y-97789286D01*
X104685718Y-98075000D01*
X104685718Y-98432143D01*
X104757146Y-98717857D01*
X104828575Y-98860714D01*
X104900004Y-98932143D01*
X105042861Y-99003571D01*
X105185718Y-99003571D01*
X105328575Y-98932143D01*
X105400004Y-98860714D01*
X105471432Y-98717857D01*
X105542861Y-98432143D01*
X105542861Y-98075000D01*
X105471432Y-97789286D01*
X105400004Y-97646429D01*
X105328575Y-97575000D01*
X105185718Y-97503571D01*
X103257147Y-99003571D02*
X104114290Y-99003571D01*
X103685718Y-99003571D02*
X103685718Y-97503571D01*
X103828575Y-97717857D01*
X103971433Y-97860714D01*
X104114290Y-97932143D01*
X101971433Y-97503571D02*
X102257147Y-97503571D01*
X102400004Y-97575000D01*
X102471433Y-97646429D01*
X102614290Y-97860714D01*
X102685719Y-98146429D01*
X102685719Y-98717857D01*
X102614290Y-98860714D01*
X102542862Y-98932143D01*
X102400004Y-99003571D01*
X102114290Y-99003571D01*
X101971433Y-98932143D01*
X101900004Y-98860714D01*
X101828576Y-98717857D01*
X101828576Y-98360714D01*
X101900004Y-98217857D01*
X101971433Y-98146429D01*
X102114290Y-98075000D01*
X102400004Y-98075000D01*
X102542862Y-98146429D01*
X102614290Y-98217857D01*
X102685719Y-98360714D01*
X127542857Y-101553571D02*
X127542857Y-100053571D01*
X126900000Y-101553571D02*
X126900000Y-100767857D01*
X126971429Y-100625000D01*
X127114286Y-100553571D01*
X127328571Y-100553571D01*
X127471429Y-100625000D01*
X127542857Y-100696429D01*
X126400000Y-100553571D02*
X125828571Y-100553571D01*
X126185714Y-100053571D02*
X126185714Y-101339286D01*
X126114286Y-101482143D01*
X125971428Y-101553571D01*
X125828571Y-101553571D01*
X125542857Y-100553571D02*
X124971428Y-100553571D01*
X125328571Y-100053571D02*
X125328571Y-101339286D01*
X125257143Y-101482143D01*
X125114285Y-101553571D01*
X124971428Y-101553571D01*
X124471428Y-100553571D02*
X124471428Y-102053571D01*
X124471428Y-100625000D02*
X124328571Y-100553571D01*
X124042857Y-100553571D01*
X123900000Y-100625000D01*
X123828571Y-100696429D01*
X123757142Y-100839286D01*
X123757142Y-101267857D01*
X123828571Y-101410714D01*
X123900000Y-101482143D01*
X124042857Y-101553571D01*
X124328571Y-101553571D01*
X124471428Y-101482143D01*
X123114285Y-101410714D02*
X123042857Y-101482143D01*
X123114285Y-101553571D01*
X123185714Y-101482143D01*
X123114285Y-101410714D01*
X123114285Y-101553571D01*
X123114285Y-100625000D02*
X123042857Y-100696429D01*
X123114285Y-100767857D01*
X123185714Y-100696429D01*
X123114285Y-100625000D01*
X123114285Y-100767857D01*
X121328571Y-99982143D02*
X122614285Y-101910714D01*
X119757142Y-99982143D02*
X121042856Y-101910714D01*
X119257141Y-100553571D02*
X119257141Y-102053571D01*
X119257141Y-100625000D02*
X119114284Y-100553571D01*
X118828570Y-100553571D01*
X118685713Y-100625000D01*
X118614284Y-100696429D01*
X118542855Y-100839286D01*
X118542855Y-101267857D01*
X118614284Y-101410714D01*
X118685713Y-101482143D01*
X118828570Y-101553571D01*
X119114284Y-101553571D01*
X119257141Y-101482143D01*
X117685712Y-101553571D02*
X117828570Y-101482143D01*
X117899998Y-101339286D01*
X117899998Y-100053571D01*
X116471427Y-100553571D02*
X116471427Y-101553571D01*
X117114284Y-100553571D02*
X117114284Y-101339286D01*
X117042856Y-101482143D01*
X116899998Y-101553571D01*
X116685713Y-101553571D01*
X116542856Y-101482143D01*
X116471427Y-101410714D01*
X115114284Y-100553571D02*
X115114284Y-101767857D01*
X115185713Y-101910714D01*
X115257141Y-101982143D01*
X115399998Y-102053571D01*
X115614284Y-102053571D01*
X115757141Y-101982143D01*
X115114284Y-101482143D02*
X115257141Y-101553571D01*
X115542855Y-101553571D01*
X115685713Y-101482143D01*
X115757141Y-101410714D01*
X115828570Y-101267857D01*
X115828570Y-100839286D01*
X115757141Y-100696429D01*
X115685713Y-100625000D01*
X115542855Y-100553571D01*
X115257141Y-100553571D01*
X115114284Y-100625000D01*
X113757141Y-100553571D02*
X113757141Y-101767857D01*
X113828570Y-101910714D01*
X113899998Y-101982143D01*
X114042855Y-102053571D01*
X114257141Y-102053571D01*
X114399998Y-101982143D01*
X113757141Y-101482143D02*
X113899998Y-101553571D01*
X114185712Y-101553571D01*
X114328570Y-101482143D01*
X114399998Y-101410714D01*
X114471427Y-101267857D01*
X114471427Y-100839286D01*
X114399998Y-100696429D01*
X114328570Y-100625000D01*
X114185712Y-100553571D01*
X113899998Y-100553571D01*
X113757141Y-100625000D01*
X113042855Y-101410714D02*
X112971427Y-101482143D01*
X113042855Y-101553571D01*
X113114284Y-101482143D01*
X113042855Y-101410714D01*
X113042855Y-101553571D01*
X111757141Y-101482143D02*
X111899998Y-101553571D01*
X112185712Y-101553571D01*
X112328569Y-101482143D01*
X112399998Y-101339286D01*
X112399998Y-100767857D01*
X112328569Y-100625000D01*
X112185712Y-100553571D01*
X111899998Y-100553571D01*
X111757141Y-100625000D01*
X111685712Y-100767857D01*
X111685712Y-100910714D01*
X112399998Y-101053571D01*
X110471427Y-101482143D02*
X110614284Y-101553571D01*
X110899998Y-101553571D01*
X111042855Y-101482143D01*
X111114284Y-101339286D01*
X111114284Y-100767857D01*
X111042855Y-100625000D01*
X110899998Y-100553571D01*
X110614284Y-100553571D01*
X110471427Y-100625000D01*
X110399998Y-100767857D01*
X110399998Y-100910714D01*
X111114284Y-101053571D01*
X127542857Y-104103571D02*
X127542857Y-102603571D01*
X127185714Y-102603571D01*
X126971429Y-102675000D01*
X126828571Y-102817857D01*
X126757143Y-102960714D01*
X126685714Y-103246429D01*
X126685714Y-103460714D01*
X126757143Y-103746429D01*
X126828571Y-103889286D01*
X126971429Y-104032143D01*
X127185714Y-104103571D01*
X127542857Y-104103571D01*
X125471429Y-104032143D02*
X125614286Y-104103571D01*
X125900000Y-104103571D01*
X126042857Y-104032143D01*
X126114286Y-103889286D01*
X126114286Y-103317857D01*
X126042857Y-103175000D01*
X125900000Y-103103571D01*
X125614286Y-103103571D01*
X125471429Y-103175000D01*
X125400000Y-103317857D01*
X125400000Y-103460714D01*
X126114286Y-103603571D01*
X124828572Y-104032143D02*
X124685715Y-104103571D01*
X124400000Y-104103571D01*
X124257143Y-104032143D01*
X124185715Y-103889286D01*
X124185715Y-103817857D01*
X124257143Y-103675000D01*
X124400000Y-103603571D01*
X124614286Y-103603571D01*
X124757143Y-103532143D01*
X124828572Y-103389286D01*
X124828572Y-103317857D01*
X124757143Y-103175000D01*
X124614286Y-103103571D01*
X124400000Y-103103571D01*
X124257143Y-103175000D01*
X123542857Y-104103571D02*
X123542857Y-103103571D01*
X123542857Y-102603571D02*
X123614286Y-102675000D01*
X123542857Y-102746429D01*
X123471429Y-102675000D01*
X123542857Y-102603571D01*
X123542857Y-102746429D01*
X122185714Y-103103571D02*
X122185714Y-104317857D01*
X122257143Y-104460714D01*
X122328571Y-104532143D01*
X122471428Y-104603571D01*
X122685714Y-104603571D01*
X122828571Y-104532143D01*
X122185714Y-104032143D02*
X122328571Y-104103571D01*
X122614285Y-104103571D01*
X122757143Y-104032143D01*
X122828571Y-103960714D01*
X122900000Y-103817857D01*
X122900000Y-103389286D01*
X122828571Y-103246429D01*
X122757143Y-103175000D01*
X122614285Y-103103571D01*
X122328571Y-103103571D01*
X122185714Y-103175000D01*
X121471428Y-103103571D02*
X121471428Y-104103571D01*
X121471428Y-103246429D02*
X121400000Y-103175000D01*
X121257142Y-103103571D01*
X121042857Y-103103571D01*
X120900000Y-103175000D01*
X120828571Y-103317857D01*
X120828571Y-104103571D01*
X119542857Y-104032143D02*
X119685714Y-104103571D01*
X119971428Y-104103571D01*
X120114285Y-104032143D01*
X120185714Y-103889286D01*
X120185714Y-103317857D01*
X120114285Y-103175000D01*
X119971428Y-103103571D01*
X119685714Y-103103571D01*
X119542857Y-103175000D01*
X119471428Y-103317857D01*
X119471428Y-103460714D01*
X120185714Y-103603571D01*
X118185714Y-104103571D02*
X118185714Y-102603571D01*
X118185714Y-104032143D02*
X118328571Y-104103571D01*
X118614285Y-104103571D01*
X118757143Y-104032143D01*
X118828571Y-103960714D01*
X118900000Y-103817857D01*
X118900000Y-103389286D01*
X118828571Y-103246429D01*
X118757143Y-103175000D01*
X118614285Y-103103571D01*
X118328571Y-103103571D01*
X118185714Y-103175000D01*
X116328571Y-104103571D02*
X116328571Y-102603571D01*
X116328571Y-103175000D02*
X116185714Y-103103571D01*
X115900000Y-103103571D01*
X115757143Y-103175000D01*
X115685714Y-103246429D01*
X115614285Y-103389286D01*
X115614285Y-103817857D01*
X115685714Y-103960714D01*
X115757143Y-104032143D01*
X115900000Y-104103571D01*
X116185714Y-104103571D01*
X116328571Y-104032143D01*
X115114285Y-103103571D02*
X114757142Y-104103571D01*
X114400000Y-103103571D02*
X114757142Y-104103571D01*
X114900000Y-104460714D01*
X114971428Y-104532143D01*
X115114285Y-104603571D01*
X112685714Y-103103571D02*
X112685714Y-104603571D01*
X112685714Y-103175000D02*
X112542857Y-103103571D01*
X112257143Y-103103571D01*
X112114286Y-103175000D01*
X112042857Y-103246429D01*
X111971428Y-103389286D01*
X111971428Y-103817857D01*
X112042857Y-103960714D01*
X112114286Y-104032143D01*
X112257143Y-104103571D01*
X112542857Y-104103571D01*
X112685714Y-104032143D01*
X111114285Y-104103571D02*
X111257143Y-104032143D01*
X111328571Y-103889286D01*
X111328571Y-102603571D01*
X109900000Y-103103571D02*
X109900000Y-104103571D01*
X110542857Y-103103571D02*
X110542857Y-103889286D01*
X110471429Y-104032143D01*
X110328571Y-104103571D01*
X110114286Y-104103571D01*
X109971429Y-104032143D01*
X109900000Y-103960714D01*
X108542857Y-103103571D02*
X108542857Y-104317857D01*
X108614286Y-104460714D01*
X108685714Y-104532143D01*
X108828571Y-104603571D01*
X109042857Y-104603571D01*
X109185714Y-104532143D01*
X108542857Y-104032143D02*
X108685714Y-104103571D01*
X108971428Y-104103571D01*
X109114286Y-104032143D01*
X109185714Y-103960714D01*
X109257143Y-103817857D01*
X109257143Y-103389286D01*
X109185714Y-103246429D01*
X109114286Y-103175000D01*
X108971428Y-103103571D01*
X108685714Y-103103571D01*
X108542857Y-103175000D01*
X107185714Y-103103571D02*
X107185714Y-104317857D01*
X107257143Y-104460714D01*
X107328571Y-104532143D01*
X107471428Y-104603571D01*
X107685714Y-104603571D01*
X107828571Y-104532143D01*
X107185714Y-104032143D02*
X107328571Y-104103571D01*
X107614285Y-104103571D01*
X107757143Y-104032143D01*
X107828571Y-103960714D01*
X107900000Y-103817857D01*
X107900000Y-103389286D01*
X107828571Y-103246429D01*
X107757143Y-103175000D01*
X107614285Y-103103571D01*
X107328571Y-103103571D01*
X107185714Y-103175000D01*
X106471428Y-103960714D02*
X106400000Y-104032143D01*
X106471428Y-104103571D01*
X106542857Y-104032143D01*
X106471428Y-103960714D01*
X106471428Y-104103571D01*
X105185714Y-104032143D02*
X105328571Y-104103571D01*
X105614285Y-104103571D01*
X105757142Y-104032143D01*
X105828571Y-103889286D01*
X105828571Y-103317857D01*
X105757142Y-103175000D01*
X105614285Y-103103571D01*
X105328571Y-103103571D01*
X105185714Y-103175000D01*
X105114285Y-103317857D01*
X105114285Y-103460714D01*
X105828571Y-103603571D01*
X103900000Y-104032143D02*
X104042857Y-104103571D01*
X104328571Y-104103571D01*
X104471428Y-104032143D01*
X104542857Y-103889286D01*
X104542857Y-103317857D01*
X104471428Y-103175000D01*
X104328571Y-103103571D01*
X104042857Y-103103571D01*
X103900000Y-103175000D01*
X103828571Y-103317857D01*
X103828571Y-103460714D01*
X104542857Y-103603571D01*
X101328571Y-104103571D02*
X102042857Y-104103571D01*
X102042857Y-102603571D01*
X100185714Y-104103571D02*
X100185714Y-103317857D01*
X100257143Y-103175000D01*
X100400000Y-103103571D01*
X100685714Y-103103571D01*
X100828571Y-103175000D01*
X100185714Y-104032143D02*
X100328571Y-104103571D01*
X100685714Y-104103571D01*
X100828571Y-104032143D01*
X100900000Y-103889286D01*
X100900000Y-103746429D01*
X100828571Y-103603571D01*
X100685714Y-103532143D01*
X100328571Y-103532143D01*
X100185714Y-103460714D01*
X99471428Y-104103571D02*
X99471428Y-102603571D01*
X99471428Y-103175000D02*
X99328571Y-103103571D01*
X99042857Y-103103571D01*
X98900000Y-103175000D01*
X98828571Y-103246429D01*
X98757142Y-103389286D01*
X98757142Y-103817857D01*
X98828571Y-103960714D01*
X98900000Y-104032143D01*
X99042857Y-104103571D01*
X99328571Y-104103571D01*
X99471428Y-104032143D01*
X98185714Y-104032143D02*
X98042857Y-104103571D01*
X97757142Y-104103571D01*
X97614285Y-104032143D01*
X97542857Y-103889286D01*
X97542857Y-103817857D01*
X97614285Y-103675000D01*
X97757142Y-103603571D01*
X97971428Y-103603571D01*
X98114285Y-103532143D01*
X98185714Y-103389286D01*
X98185714Y-103317857D01*
X98114285Y-103175000D01*
X97971428Y-103103571D01*
X97757142Y-103103571D01*
X97614285Y-103175000D01*
X96828571Y-104032143D02*
X96828571Y-104103571D01*
X96899999Y-104246429D01*
X96971428Y-104317857D01*
X94185713Y-103960714D02*
X94257142Y-104032143D01*
X94471428Y-104103571D01*
X94614285Y-104103571D01*
X94828570Y-104032143D01*
X94971428Y-103889286D01*
X95042856Y-103746429D01*
X95114285Y-103460714D01*
X95114285Y-103246429D01*
X95042856Y-102960714D01*
X94971428Y-102817857D01*
X94828570Y-102675000D01*
X94614285Y-102603571D01*
X94471428Y-102603571D01*
X94257142Y-102675000D01*
X94185713Y-102746429D01*
X93614285Y-103675000D02*
X92899999Y-103675000D01*
X93757142Y-104103571D02*
X93257142Y-102603571D01*
X92757142Y-104103571D01*
X92185714Y-104032143D02*
X92185714Y-104103571D01*
X92257142Y-104246429D01*
X92328571Y-104317857D01*
X90399999Y-102603571D02*
X90399999Y-103817857D01*
X90328571Y-103960714D01*
X90257142Y-104032143D01*
X90114285Y-104103571D01*
X89828571Y-104103571D01*
X89685713Y-104032143D01*
X89614285Y-103960714D01*
X89542856Y-103817857D01*
X89542856Y-102603571D01*
X88899999Y-104032143D02*
X88685713Y-104103571D01*
X88328570Y-104103571D01*
X88185713Y-104032143D01*
X88114284Y-103960714D01*
X88042856Y-103817857D01*
X88042856Y-103675000D01*
X88114284Y-103532143D01*
X88185713Y-103460714D01*
X88328570Y-103389286D01*
X88614284Y-103317857D01*
X88757142Y-103246429D01*
X88828570Y-103175000D01*
X88899999Y-103032143D01*
X88899999Y-102889286D01*
X88828570Y-102746429D01*
X88757142Y-102675000D01*
X88614284Y-102603571D01*
X88257142Y-102603571D01*
X88042856Y-102675000D01*
X87471428Y-103675000D02*
X86757142Y-103675000D01*
X87614285Y-104103571D02*
X87114285Y-102603571D01*
X86614285Y-104103571D01*
D12*
G36*
X104702843Y-82108527D02*
X100108527Y-82108527D01*
X100108527Y-86046511D01*
X100764858Y-86046511D01*
X100764858Y-82764858D01*
X104046512Y-82764858D01*
X104046512Y-86046511D01*
X100764858Y-86046511D01*
X100108527Y-86046511D01*
X100108527Y-86702842D01*
X104702843Y-86702842D01*
X104702843Y-82108527D01*
X104702843Y-82108527D01*
G37*
X104702843Y-82108527D02*
X100108527Y-82108527D01*
X100108527Y-86046511D01*
X100764858Y-86046511D01*
X100764858Y-82764858D01*
X104046512Y-82764858D01*
X104046512Y-86046511D01*
X100764858Y-86046511D01*
X100108527Y-86046511D01*
X100108527Y-86702842D01*
X104702843Y-86702842D01*
X104702843Y-82108527D01*
G36*
X106671835Y-82764858D02*
X107328166Y-82764858D01*
X107328166Y-82108527D01*
X105359173Y-82108527D01*
X105359173Y-83421188D01*
X106015504Y-83421188D01*
X106015504Y-84077519D01*
X106671835Y-84077519D01*
X106671835Y-82764858D01*
X106671835Y-82764858D01*
G37*
X106671835Y-82764858D02*
X107328166Y-82764858D01*
X107328166Y-82108527D01*
X105359173Y-82108527D01*
X105359173Y-83421188D01*
X106015504Y-83421188D01*
X106015504Y-84077519D01*
X106671835Y-84077519D01*
X106671835Y-82764858D01*
G36*
X111922481Y-82764858D02*
X111266150Y-82764858D01*
X111266150Y-83421188D01*
X111922481Y-83421188D01*
X111922481Y-82764858D01*
X111922481Y-82764858D01*
G37*
X111922481Y-82764858D02*
X111266150Y-82764858D01*
X111266150Y-83421188D01*
X111922481Y-83421188D01*
X111922481Y-82764858D01*
G36*
X112578812Y-84733850D02*
X113891473Y-84733850D01*
X113891473Y-83421188D01*
X113235142Y-83421188D01*
X113235142Y-84077519D01*
X112578812Y-84077519D01*
X112578812Y-84733850D01*
X112578812Y-84733850D01*
G37*
X112578812Y-84733850D02*
X113891473Y-84733850D01*
X113891473Y-83421188D01*
X113235142Y-83421188D01*
X113235142Y-84077519D01*
X112578812Y-84077519D01*
X112578812Y-84733850D01*
G36*
X106015504Y-84077519D02*
X105359173Y-84077519D01*
X105359173Y-84733850D01*
X106015504Y-84733850D01*
X106015504Y-84077519D01*
X106015504Y-84077519D01*
G37*
X106015504Y-84077519D02*
X105359173Y-84077519D01*
X105359173Y-84733850D01*
X106015504Y-84733850D01*
X106015504Y-84077519D01*
G36*
X113891473Y-85390181D02*
X113235142Y-85390181D01*
X113235142Y-86046511D01*
X113891473Y-86046511D01*
X113891473Y-85390181D01*
X113891473Y-85390181D01*
G37*
X113891473Y-85390181D02*
X113235142Y-85390181D01*
X113235142Y-86046511D01*
X113891473Y-86046511D01*
X113891473Y-85390181D01*
G36*
X113891473Y-86702842D02*
X113235142Y-86702842D01*
X113235142Y-87359173D01*
X113891473Y-87359173D01*
X113891473Y-86702842D01*
X113891473Y-86702842D01*
G37*
X113891473Y-86702842D02*
X113235142Y-86702842D01*
X113235142Y-87359173D01*
X113891473Y-87359173D01*
X113891473Y-86702842D01*
G36*
X113891473Y-88015504D02*
X112578812Y-88015504D01*
X112578812Y-88671834D01*
X113235142Y-88671834D01*
X113235142Y-89984496D01*
X113891473Y-89984496D01*
X113891473Y-88015504D01*
X113891473Y-88015504D01*
G37*
X113891473Y-88015504D02*
X112578812Y-88015504D01*
X112578812Y-88671834D01*
X113235142Y-88671834D01*
X113235142Y-89984496D01*
X113891473Y-89984496D01*
X113891473Y-88015504D01*
G36*
X101421189Y-89984496D02*
X100764858Y-89984496D01*
X100764858Y-88671834D01*
X100108527Y-88671834D01*
X100108527Y-90640827D01*
X101421189Y-90640827D01*
X101421189Y-89984496D01*
X101421189Y-89984496D01*
G37*
X101421189Y-89984496D02*
X100764858Y-89984496D01*
X100764858Y-88671834D01*
X100108527Y-88671834D01*
X100108527Y-90640827D01*
X101421189Y-90640827D01*
X101421189Y-89984496D01*
G36*
X112578812Y-88671834D02*
X111922481Y-88671834D01*
X111922481Y-89328165D01*
X112578812Y-89328165D01*
X112578812Y-88671834D01*
X112578812Y-88671834D01*
G37*
X112578812Y-88671834D02*
X111922481Y-88671834D01*
X111922481Y-89328165D01*
X112578812Y-89328165D01*
X112578812Y-88671834D01*
G36*
X113235142Y-89984496D02*
X111922481Y-89984496D01*
X111922481Y-90640827D01*
X113235142Y-90640827D01*
X113235142Y-89984496D01*
X113235142Y-89984496D01*
G37*
X113235142Y-89984496D02*
X111922481Y-89984496D01*
X111922481Y-90640827D01*
X113235142Y-90640827D01*
X113235142Y-89984496D01*
G36*
X108640827Y-91297157D02*
X107984496Y-91297157D01*
X107984496Y-91953488D01*
X108640827Y-91953488D01*
X108640827Y-91297157D01*
X108640827Y-91297157D01*
G37*
X108640827Y-91297157D02*
X107984496Y-91297157D01*
X107984496Y-91953488D01*
X108640827Y-91953488D01*
X108640827Y-91297157D01*
G36*
X107984496Y-91953488D02*
X107328166Y-91953488D01*
X107328166Y-92609819D01*
X107984496Y-92609819D01*
X107984496Y-91953488D01*
X107984496Y-91953488D01*
G37*
X107984496Y-91953488D02*
X107328166Y-91953488D01*
X107328166Y-92609819D01*
X107984496Y-92609819D01*
X107984496Y-91953488D01*
G36*
X106671835Y-93266150D02*
X106015504Y-93266150D01*
X106015504Y-93922480D01*
X105359173Y-93922480D01*
X105359173Y-95235142D01*
X106015504Y-95235142D01*
X106015504Y-95891473D01*
X106671835Y-95891473D01*
X106671835Y-93266150D01*
X106671835Y-93266150D01*
G37*
X106671835Y-93266150D02*
X106015504Y-93266150D01*
X106015504Y-93922480D01*
X105359173Y-93922480D01*
X105359173Y-95235142D01*
X106015504Y-95235142D01*
X106015504Y-95891473D01*
X106671835Y-95891473D01*
X106671835Y-93266150D01*
G36*
X101421189Y-88015504D02*
X102077520Y-88015504D01*
X102077520Y-87359173D01*
X100108527Y-87359173D01*
X100108527Y-88015504D01*
X100764858Y-88015504D01*
X100764858Y-88671834D01*
X101421189Y-88671834D01*
X101421189Y-88015504D01*
X101421189Y-88015504D01*
G37*
X101421189Y-88015504D02*
X102077520Y-88015504D01*
X102077520Y-87359173D01*
X100108527Y-87359173D01*
X100108527Y-88015504D01*
X100764858Y-88015504D01*
X100764858Y-88671834D01*
X101421189Y-88671834D01*
X101421189Y-88015504D01*
G36*
X112578812Y-83421188D02*
X111922481Y-83421188D01*
X111922481Y-84077519D01*
X112578812Y-84077519D01*
X112578812Y-83421188D01*
X112578812Y-83421188D01*
G37*
X112578812Y-83421188D02*
X111922481Y-83421188D01*
X111922481Y-84077519D01*
X112578812Y-84077519D01*
X112578812Y-83421188D01*
G36*
X113235142Y-86702842D02*
X113235142Y-86046511D01*
X111266150Y-86046511D01*
X111266150Y-85390181D01*
X111922481Y-85390181D01*
X111922481Y-84733850D01*
X111266150Y-84733850D01*
X111266150Y-83421188D01*
X110609819Y-83421188D01*
X110609819Y-82764858D01*
X109953489Y-82764858D01*
X109953489Y-82108527D01*
X109297158Y-82108527D01*
X109297158Y-82764858D01*
X108640827Y-82764858D01*
X108640827Y-82108527D01*
X107984496Y-82108527D01*
X107984496Y-83421188D01*
X109297158Y-83421188D01*
X109297158Y-82764858D01*
X109953489Y-82764858D01*
X109953489Y-83421188D01*
X109297158Y-83421188D01*
X107984496Y-83421188D01*
X107328166Y-83421188D01*
X107328166Y-84077519D01*
X107984496Y-84077519D01*
X107984496Y-84733850D01*
X107328166Y-84733850D01*
X107328166Y-85390181D01*
X107984496Y-85390181D01*
X107984496Y-86046511D01*
X106671835Y-86046511D01*
X106671835Y-84733850D01*
X106015504Y-84733850D01*
X106015504Y-86046511D01*
X105359173Y-86046511D01*
X105359173Y-86702842D01*
X106015504Y-86702842D01*
X106015504Y-86046511D01*
X106671835Y-86046511D01*
X106671835Y-86702842D01*
X106015504Y-86702842D01*
X105359173Y-86702842D01*
X105359173Y-87359173D01*
X103390181Y-87359173D01*
X103390181Y-88671834D01*
X104046512Y-88671834D01*
X104046512Y-88015504D01*
X104702843Y-88015504D01*
X104702843Y-88671834D01*
X104046512Y-88671834D01*
X103390181Y-88671834D01*
X101421189Y-88671834D01*
X101421189Y-89328165D01*
X104702843Y-89328165D01*
X104702843Y-89984496D01*
X104046512Y-89984496D01*
X104046512Y-90640827D01*
X105359173Y-90640827D01*
X105359173Y-89328165D01*
X106015504Y-89328165D01*
X106015504Y-88671834D01*
X105359173Y-88671834D01*
X105359173Y-87359173D01*
X106671835Y-87359173D01*
X106671835Y-86702842D01*
X107328166Y-86702842D01*
X108640827Y-86702842D01*
X108640827Y-84077519D01*
X109297158Y-84077519D01*
X109953489Y-84077519D01*
X109953489Y-83421188D01*
X110609819Y-83421188D01*
X110609819Y-84077519D01*
X109953489Y-84077519D01*
X109297158Y-84077519D01*
X109297158Y-84733850D01*
X109953489Y-84733850D01*
X109953489Y-85390181D01*
X110609819Y-85390181D01*
X110609819Y-86702842D01*
X108640827Y-86702842D01*
X107328166Y-86702842D01*
X107328166Y-87359173D01*
X106671835Y-87359173D01*
X106671835Y-88015504D01*
X107984496Y-88015504D01*
X107984496Y-87359173D01*
X109953489Y-87359173D01*
X109953489Y-88015504D01*
X109297158Y-88015504D01*
X109297158Y-88671834D01*
X109953489Y-88671834D01*
X109953489Y-88015504D01*
X110609819Y-88015504D01*
X110609819Y-88671834D01*
X109953489Y-88671834D01*
X109297158Y-88671834D01*
X108640827Y-88671834D01*
X108640827Y-88015504D01*
X107984496Y-88015504D01*
X107984496Y-88671834D01*
X106671835Y-88671834D01*
X106671835Y-89328165D01*
X107328166Y-89328165D01*
X107328166Y-89984496D01*
X106015504Y-89984496D01*
X106015504Y-90640827D01*
X105359173Y-90640827D01*
X105359173Y-93266150D01*
X106015504Y-93266150D01*
X106015504Y-91297157D01*
X106671835Y-91297157D01*
X106671835Y-91953488D01*
X107328166Y-91953488D01*
X107328166Y-89984496D01*
X107984496Y-89984496D01*
X107984496Y-90640827D01*
X108640827Y-90640827D01*
X108640827Y-89984496D01*
X109297158Y-89984496D01*
X109297158Y-89328165D01*
X110609819Y-89328165D01*
X110609819Y-89984496D01*
X109297158Y-89984496D01*
X109297158Y-90640827D01*
X111266150Y-90640827D01*
X111266150Y-89328165D01*
X110609819Y-89328165D01*
X110609819Y-88671834D01*
X111922481Y-88671834D01*
X111922481Y-87359173D01*
X111266150Y-87359173D01*
X111266150Y-88015504D01*
X110609819Y-88015504D01*
X110609819Y-86702842D01*
X113235142Y-86702842D01*
X113235142Y-86702842D01*
G37*
X113235142Y-86702842D02*
X113235142Y-86046511D01*
X111266150Y-86046511D01*
X111266150Y-85390181D01*
X111922481Y-85390181D01*
X111922481Y-84733850D01*
X111266150Y-84733850D01*
X111266150Y-83421188D01*
X110609819Y-83421188D01*
X110609819Y-82764858D01*
X109953489Y-82764858D01*
X109953489Y-82108527D01*
X109297158Y-82108527D01*
X109297158Y-82764858D01*
X108640827Y-82764858D01*
X108640827Y-82108527D01*
X107984496Y-82108527D01*
X107984496Y-83421188D01*
X109297158Y-83421188D01*
X109297158Y-82764858D01*
X109953489Y-82764858D01*
X109953489Y-83421188D01*
X109297158Y-83421188D01*
X107984496Y-83421188D01*
X107328166Y-83421188D01*
X107328166Y-84077519D01*
X107984496Y-84077519D01*
X107984496Y-84733850D01*
X107328166Y-84733850D01*
X107328166Y-85390181D01*
X107984496Y-85390181D01*
X107984496Y-86046511D01*
X106671835Y-86046511D01*
X106671835Y-84733850D01*
X106015504Y-84733850D01*
X106015504Y-86046511D01*
X105359173Y-86046511D01*
X105359173Y-86702842D01*
X106015504Y-86702842D01*
X106015504Y-86046511D01*
X106671835Y-86046511D01*
X106671835Y-86702842D01*
X106015504Y-86702842D01*
X105359173Y-86702842D01*
X105359173Y-87359173D01*
X103390181Y-87359173D01*
X103390181Y-88671834D01*
X104046512Y-88671834D01*
X104046512Y-88015504D01*
X104702843Y-88015504D01*
X104702843Y-88671834D01*
X104046512Y-88671834D01*
X103390181Y-88671834D01*
X101421189Y-88671834D01*
X101421189Y-89328165D01*
X104702843Y-89328165D01*
X104702843Y-89984496D01*
X104046512Y-89984496D01*
X104046512Y-90640827D01*
X105359173Y-90640827D01*
X105359173Y-89328165D01*
X106015504Y-89328165D01*
X106015504Y-88671834D01*
X105359173Y-88671834D01*
X105359173Y-87359173D01*
X106671835Y-87359173D01*
X106671835Y-86702842D01*
X107328166Y-86702842D01*
X108640827Y-86702842D01*
X108640827Y-84077519D01*
X109297158Y-84077519D01*
X109953489Y-84077519D01*
X109953489Y-83421188D01*
X110609819Y-83421188D01*
X110609819Y-84077519D01*
X109953489Y-84077519D01*
X109297158Y-84077519D01*
X109297158Y-84733850D01*
X109953489Y-84733850D01*
X109953489Y-85390181D01*
X110609819Y-85390181D01*
X110609819Y-86702842D01*
X108640827Y-86702842D01*
X107328166Y-86702842D01*
X107328166Y-87359173D01*
X106671835Y-87359173D01*
X106671835Y-88015504D01*
X107984496Y-88015504D01*
X107984496Y-87359173D01*
X109953489Y-87359173D01*
X109953489Y-88015504D01*
X109297158Y-88015504D01*
X109297158Y-88671834D01*
X109953489Y-88671834D01*
X109953489Y-88015504D01*
X110609819Y-88015504D01*
X110609819Y-88671834D01*
X109953489Y-88671834D01*
X109297158Y-88671834D01*
X108640827Y-88671834D01*
X108640827Y-88015504D01*
X107984496Y-88015504D01*
X107984496Y-88671834D01*
X106671835Y-88671834D01*
X106671835Y-89328165D01*
X107328166Y-89328165D01*
X107328166Y-89984496D01*
X106015504Y-89984496D01*
X106015504Y-90640827D01*
X105359173Y-90640827D01*
X105359173Y-93266150D01*
X106015504Y-93266150D01*
X106015504Y-91297157D01*
X106671835Y-91297157D01*
X106671835Y-91953488D01*
X107328166Y-91953488D01*
X107328166Y-89984496D01*
X107984496Y-89984496D01*
X107984496Y-90640827D01*
X108640827Y-90640827D01*
X108640827Y-89984496D01*
X109297158Y-89984496D01*
X109297158Y-89328165D01*
X110609819Y-89328165D01*
X110609819Y-89984496D01*
X109297158Y-89984496D01*
X109297158Y-90640827D01*
X111266150Y-90640827D01*
X111266150Y-89328165D01*
X110609819Y-89328165D01*
X110609819Y-88671834D01*
X111922481Y-88671834D01*
X111922481Y-87359173D01*
X111266150Y-87359173D01*
X111266150Y-88015504D01*
X110609819Y-88015504D01*
X110609819Y-86702842D01*
X113235142Y-86702842D01*
G36*
X113235142Y-82108527D02*
X112578812Y-82108527D01*
X112578812Y-82764858D01*
X113235142Y-82764858D01*
X113235142Y-82108527D01*
X113235142Y-82108527D01*
G37*
X113235142Y-82108527D02*
X112578812Y-82108527D01*
X112578812Y-82764858D01*
X113235142Y-82764858D01*
X113235142Y-82108527D01*
G36*
X102733850Y-89984496D02*
X102077520Y-89984496D01*
X102077520Y-90640827D01*
X102733850Y-90640827D01*
X102733850Y-89984496D01*
X102733850Y-89984496D01*
G37*
X102733850Y-89984496D02*
X102077520Y-89984496D01*
X102077520Y-90640827D01*
X102733850Y-90640827D01*
X102733850Y-89984496D01*
G36*
X104702843Y-91297157D02*
X100108527Y-91297157D01*
X100108527Y-95235142D01*
X100764858Y-95235142D01*
X100764858Y-91953488D01*
X104046512Y-91953488D01*
X104046512Y-95235142D01*
X100764858Y-95235142D01*
X100108527Y-95235142D01*
X100108527Y-95891473D01*
X104702843Y-95891473D01*
X104702843Y-91297157D01*
X104702843Y-91297157D01*
G37*
X104702843Y-91297157D02*
X100108527Y-91297157D01*
X100108527Y-95235142D01*
X100764858Y-95235142D01*
X100764858Y-91953488D01*
X104046512Y-91953488D01*
X104046512Y-95235142D01*
X100764858Y-95235142D01*
X100108527Y-95235142D01*
X100108527Y-95891473D01*
X104702843Y-95891473D01*
X104702843Y-91297157D01*
G36*
X113891473Y-91297157D02*
X109297158Y-91297157D01*
X109297158Y-95235142D01*
X109953489Y-95235142D01*
X109953489Y-91953488D01*
X113235142Y-91953488D01*
X113235142Y-95235142D01*
X109953489Y-95235142D01*
X109297158Y-95235142D01*
X109297158Y-95891473D01*
X113891473Y-95891473D01*
X113891473Y-91297157D01*
X113891473Y-91297157D01*
G37*
X113891473Y-91297157D02*
X109297158Y-91297157D01*
X109297158Y-95235142D01*
X109953489Y-95235142D01*
X109953489Y-91953488D01*
X113235142Y-91953488D01*
X113235142Y-95235142D01*
X109953489Y-95235142D01*
X109297158Y-95235142D01*
X109297158Y-95891473D01*
X113891473Y-95891473D01*
X113891473Y-91297157D01*
G36*
X108640827Y-93922480D02*
X107984496Y-93922480D01*
X107984496Y-94578811D01*
X108640827Y-94578811D01*
X108640827Y-93922480D01*
X108640827Y-93922480D01*
G37*
X108640827Y-93922480D02*
X107984496Y-93922480D01*
X107984496Y-94578811D01*
X108640827Y-94578811D01*
X108640827Y-93922480D01*
G36*
X107984496Y-94578811D02*
X107328166Y-94578811D01*
X107328166Y-95235142D01*
X107984496Y-95235142D01*
X107984496Y-94578811D01*
X107984496Y-94578811D01*
G37*
X107984496Y-94578811D02*
X107328166Y-94578811D01*
X107328166Y-95235142D01*
X107984496Y-95235142D01*
X107984496Y-94578811D01*
G36*
X108640827Y-95235142D02*
X107984496Y-95235142D01*
X107984496Y-95891473D01*
X108640827Y-95891473D01*
X108640827Y-95235142D01*
X108640827Y-95235142D01*
G37*
X108640827Y-95235142D02*
X107984496Y-95235142D01*
X107984496Y-95891473D01*
X108640827Y-95891473D01*
X108640827Y-95235142D01*
G36*
X103390181Y-83421188D02*
X101421189Y-83421188D01*
X101421189Y-85390181D01*
X103390181Y-85390181D01*
X103390181Y-83421188D01*
X103390181Y-83421188D01*
G37*
X103390181Y-83421188D02*
X101421189Y-83421188D01*
X101421189Y-85390181D01*
X103390181Y-85390181D01*
X103390181Y-83421188D01*
G36*
X106671835Y-88015504D02*
X106015504Y-88015504D01*
X106015504Y-88671834D01*
X106671835Y-88671834D01*
X106671835Y-88015504D01*
X106671835Y-88015504D01*
G37*
X106671835Y-88015504D02*
X106015504Y-88015504D01*
X106015504Y-88671834D01*
X106671835Y-88671834D01*
X106671835Y-88015504D01*
G36*
X103390181Y-92609819D02*
X101421189Y-92609819D01*
X101421189Y-94578811D01*
X103390181Y-94578811D01*
X103390181Y-92609819D01*
X103390181Y-92609819D01*
G37*
X103390181Y-92609819D02*
X101421189Y-92609819D01*
X101421189Y-94578811D01*
X103390181Y-94578811D01*
X103390181Y-92609819D01*
G36*
X112578812Y-92609819D02*
X110609819Y-92609819D01*
X110609819Y-94578811D01*
X112578812Y-94578811D01*
X112578812Y-92609819D01*
X112578812Y-92609819D01*
G37*
X112578812Y-92609819D02*
X110609819Y-92609819D01*
X110609819Y-94578811D01*
X112578812Y-94578811D01*
X112578812Y-92609819D01*
G36*
X123513853Y-93169638D02*
X123675154Y-93128180D01*
X123877877Y-93063566D01*
X124104988Y-92982105D01*
X124339449Y-92890106D01*
X124564227Y-92793878D01*
X124702081Y-92729620D01*
X125253760Y-92426006D01*
X125766624Y-92071168D01*
X126237687Y-91668508D01*
X126663962Y-91221427D01*
X127042463Y-90733324D01*
X127370204Y-90207601D01*
X127644197Y-89647658D01*
X127823251Y-89175655D01*
X127993985Y-88565050D01*
X128101482Y-87955397D01*
X128147902Y-87350079D01*
X128135402Y-86752484D01*
X128066142Y-86165997D01*
X127942281Y-85594003D01*
X127765977Y-85039888D01*
X127539389Y-84507037D01*
X127264676Y-83998836D01*
X126943996Y-83518670D01*
X126579509Y-83069925D01*
X126173372Y-82655987D01*
X125727746Y-82280241D01*
X125244788Y-81946072D01*
X124726658Y-81656866D01*
X124175514Y-81416009D01*
X123593515Y-81226886D01*
X122982819Y-81092882D01*
X122638273Y-81044219D01*
X122485140Y-81030823D01*
X122292387Y-81019909D01*
X122085848Y-81012681D01*
X121909987Y-81010321D01*
X121476289Y-81010052D01*
X121476289Y-83039433D01*
X121402642Y-83039726D01*
X121314861Y-83053593D01*
X121183965Y-83090781D01*
X121025425Y-83145399D01*
X120854710Y-83211556D01*
X120687291Y-83283362D01*
X120538637Y-83354926D01*
X120457654Y-83399560D01*
X120269292Y-83528664D01*
X120065361Y-83697170D01*
X119863634Y-83888142D01*
X119681888Y-84084645D01*
X119537897Y-84269746D01*
X119526332Y-84286866D01*
X119311229Y-84667887D01*
X119155488Y-85075122D01*
X119058473Y-85510416D01*
X119033959Y-85714248D01*
X119012363Y-85952578D01*
X120592526Y-85952578D01*
X120592526Y-87458248D01*
X121312629Y-87458248D01*
X121312629Y-85952578D01*
X122654639Y-85952578D01*
X122654639Y-87458248D01*
X123342011Y-87458248D01*
X123342011Y-85952578D01*
X124945877Y-85952578D01*
X124945877Y-85842304D01*
X124936449Y-85708747D01*
X124910955Y-85534032D01*
X124873577Y-85339252D01*
X124828496Y-85145503D01*
X124779895Y-84973879D01*
X124764630Y-84928073D01*
X124606514Y-84566081D01*
X124391364Y-84225388D01*
X124132146Y-83917354D01*
X123815342Y-83624169D01*
X123473599Y-83384346D01*
X123113357Y-83201660D01*
X122741058Y-83079885D01*
X122679188Y-83065965D01*
X122490980Y-83026336D01*
X122490980Y-82059111D01*
X122580993Y-82073779D01*
X122951181Y-82140306D01*
X123272721Y-82212849D01*
X123562419Y-82296462D01*
X123837083Y-82396195D01*
X124113521Y-82517100D01*
X124209408Y-82563195D01*
X124723336Y-82850375D01*
X125193576Y-83185569D01*
X125618332Y-83566491D01*
X125995807Y-83990850D01*
X126324205Y-84456357D01*
X126601731Y-84960723D01*
X126826587Y-85501659D01*
X126996978Y-86076876D01*
X127010125Y-86132604D01*
X127040472Y-86287556D01*
X127063466Y-86462910D01*
X127080385Y-86672085D01*
X127092508Y-86928500D01*
X127095880Y-87032732D01*
X127101563Y-87267371D01*
X127102530Y-87453748D01*
X127097913Y-87608952D01*
X127086842Y-87750072D01*
X127068447Y-87894196D01*
X127044465Y-88043211D01*
X126915236Y-88609979D01*
X126726601Y-89151948D01*
X126481014Y-89665383D01*
X126180928Y-90146547D01*
X125828797Y-90591706D01*
X125427077Y-90997124D01*
X124978220Y-91359065D01*
X124774799Y-91498149D01*
X124506686Y-91659399D01*
X124217100Y-91811076D01*
X123928834Y-91942090D01*
X123664683Y-92041354D01*
X123645369Y-92047562D01*
X123408649Y-92122552D01*
X123407475Y-93191542D01*
X123513853Y-93169638D01*
X123513853Y-93169638D01*
G37*
X123513853Y-93169638D02*
X123675154Y-93128180D01*
X123877877Y-93063566D01*
X124104988Y-92982105D01*
X124339449Y-92890106D01*
X124564227Y-92793878D01*
X124702081Y-92729620D01*
X125253760Y-92426006D01*
X125766624Y-92071168D01*
X126237687Y-91668508D01*
X126663962Y-91221427D01*
X127042463Y-90733324D01*
X127370204Y-90207601D01*
X127644197Y-89647658D01*
X127823251Y-89175655D01*
X127993985Y-88565050D01*
X128101482Y-87955397D01*
X128147902Y-87350079D01*
X128135402Y-86752484D01*
X128066142Y-86165997D01*
X127942281Y-85594003D01*
X127765977Y-85039888D01*
X127539389Y-84507037D01*
X127264676Y-83998836D01*
X126943996Y-83518670D01*
X126579509Y-83069925D01*
X126173372Y-82655987D01*
X125727746Y-82280241D01*
X125244788Y-81946072D01*
X124726658Y-81656866D01*
X124175514Y-81416009D01*
X123593515Y-81226886D01*
X122982819Y-81092882D01*
X122638273Y-81044219D01*
X122485140Y-81030823D01*
X122292387Y-81019909D01*
X122085848Y-81012681D01*
X121909987Y-81010321D01*
X121476289Y-81010052D01*
X121476289Y-83039433D01*
X121402642Y-83039726D01*
X121314861Y-83053593D01*
X121183965Y-83090781D01*
X121025425Y-83145399D01*
X120854710Y-83211556D01*
X120687291Y-83283362D01*
X120538637Y-83354926D01*
X120457654Y-83399560D01*
X120269292Y-83528664D01*
X120065361Y-83697170D01*
X119863634Y-83888142D01*
X119681888Y-84084645D01*
X119537897Y-84269746D01*
X119526332Y-84286866D01*
X119311229Y-84667887D01*
X119155488Y-85075122D01*
X119058473Y-85510416D01*
X119033959Y-85714248D01*
X119012363Y-85952578D01*
X120592526Y-85952578D01*
X120592526Y-87458248D01*
X121312629Y-87458248D01*
X121312629Y-85952578D01*
X122654639Y-85952578D01*
X122654639Y-87458248D01*
X123342011Y-87458248D01*
X123342011Y-85952578D01*
X124945877Y-85952578D01*
X124945877Y-85842304D01*
X124936449Y-85708747D01*
X124910955Y-85534032D01*
X124873577Y-85339252D01*
X124828496Y-85145503D01*
X124779895Y-84973879D01*
X124764630Y-84928073D01*
X124606514Y-84566081D01*
X124391364Y-84225388D01*
X124132146Y-83917354D01*
X123815342Y-83624169D01*
X123473599Y-83384346D01*
X123113357Y-83201660D01*
X122741058Y-83079885D01*
X122679188Y-83065965D01*
X122490980Y-83026336D01*
X122490980Y-82059111D01*
X122580993Y-82073779D01*
X122951181Y-82140306D01*
X123272721Y-82212849D01*
X123562419Y-82296462D01*
X123837083Y-82396195D01*
X124113521Y-82517100D01*
X124209408Y-82563195D01*
X124723336Y-82850375D01*
X125193576Y-83185569D01*
X125618332Y-83566491D01*
X125995807Y-83990850D01*
X126324205Y-84456357D01*
X126601731Y-84960723D01*
X126826587Y-85501659D01*
X126996978Y-86076876D01*
X127010125Y-86132604D01*
X127040472Y-86287556D01*
X127063466Y-86462910D01*
X127080385Y-86672085D01*
X127092508Y-86928500D01*
X127095880Y-87032732D01*
X127101563Y-87267371D01*
X127102530Y-87453748D01*
X127097913Y-87608952D01*
X127086842Y-87750072D01*
X127068447Y-87894196D01*
X127044465Y-88043211D01*
X126915236Y-88609979D01*
X126726601Y-89151948D01*
X126481014Y-89665383D01*
X126180928Y-90146547D01*
X125828797Y-90591706D01*
X125427077Y-90997124D01*
X124978220Y-91359065D01*
X124774799Y-91498149D01*
X124506686Y-91659399D01*
X124217100Y-91811076D01*
X123928834Y-91942090D01*
X123664683Y-92041354D01*
X123645369Y-92047562D01*
X123408649Y-92122552D01*
X123407475Y-93191542D01*
X123513853Y-93169638D01*
G36*
X122498683Y-92352310D02*
X122507346Y-91345887D01*
X122742311Y-91286228D01*
X123144530Y-91151379D01*
X123517037Y-90961253D01*
X123855661Y-90720849D01*
X124156232Y-90435165D01*
X124414580Y-90109200D01*
X124626535Y-89747952D01*
X124787928Y-89356420D01*
X124894588Y-88939602D01*
X124932266Y-88661147D01*
X124954906Y-88407475D01*
X119012939Y-88407475D01*
X119036098Y-88672964D01*
X119104541Y-89099902D01*
X119230966Y-89505648D01*
X119411064Y-89885060D01*
X119640526Y-90232993D01*
X119915046Y-90544305D01*
X120230315Y-90813853D01*
X120582025Y-91036492D01*
X120965868Y-91207081D01*
X121224958Y-91286201D01*
X121459923Y-91345832D01*
X121468999Y-91827399D01*
X121478076Y-92308967D01*
X121305339Y-92286804D01*
X120900820Y-92213926D01*
X120477617Y-92099690D01*
X120060440Y-91951752D01*
X119692397Y-91787060D01*
X119187362Y-91497767D01*
X118723371Y-91158961D01*
X118303110Y-90774180D01*
X117929266Y-90346960D01*
X117604523Y-89880836D01*
X117331568Y-89379346D01*
X117113086Y-88846025D01*
X116951764Y-88284411D01*
X116920018Y-88136708D01*
X116874257Y-87832266D01*
X116848001Y-87487289D01*
X116841250Y-87123736D01*
X116854006Y-86763563D01*
X116886266Y-86428725D01*
X116920018Y-86223345D01*
X117066101Y-85655827D01*
X117270746Y-85113079D01*
X117531490Y-84599549D01*
X117845873Y-84119683D01*
X118211433Y-83677931D01*
X118474617Y-83413996D01*
X118788586Y-83149311D01*
X119143522Y-82898242D01*
X119521710Y-82671307D01*
X119905433Y-82479023D01*
X120276976Y-82331908D01*
X120322487Y-82316960D01*
X120559794Y-82240981D01*
X120559794Y-81707346D01*
X120559249Y-81505283D01*
X120556359Y-81360172D01*
X120549242Y-81263504D01*
X120536013Y-81206772D01*
X120514790Y-81181464D01*
X120483690Y-81179071D01*
X120445232Y-81189632D01*
X120402795Y-81203338D01*
X120311458Y-81232707D01*
X120184661Y-81273418D01*
X120036083Y-81321079D01*
X119454997Y-81540989D01*
X118905587Y-81816195D01*
X118390831Y-82143151D01*
X117913709Y-82518314D01*
X117477199Y-82938141D01*
X117084280Y-83399088D01*
X116737931Y-83897610D01*
X116441131Y-84430163D01*
X116196858Y-84993205D01*
X116008091Y-85583190D01*
X115877809Y-86196576D01*
X115864409Y-86284098D01*
X115837829Y-86529619D01*
X115821282Y-86819287D01*
X115814770Y-87132560D01*
X115818291Y-87448897D01*
X115831845Y-87747753D01*
X115855434Y-88008586D01*
X115864409Y-88075954D01*
X115986750Y-88694564D01*
X116168066Y-89288873D01*
X116405378Y-89855724D01*
X116695706Y-90391962D01*
X117036070Y-90894429D01*
X117423491Y-91359970D01*
X117854989Y-91785429D01*
X118327583Y-92167649D01*
X118838295Y-92503473D01*
X119384146Y-92789747D01*
X119962154Y-93023312D01*
X120569340Y-93201014D01*
X120738752Y-93239186D01*
X120899289Y-93270624D01*
X121052883Y-93294459D01*
X121214994Y-93312153D01*
X121401082Y-93325166D01*
X121626607Y-93334959D01*
X121811312Y-93340550D01*
X122490021Y-93358732D01*
X122498683Y-92352310D01*
X122498683Y-92352310D01*
G37*
X122498683Y-92352310D02*
X122507346Y-91345887D01*
X122742311Y-91286228D01*
X123144530Y-91151379D01*
X123517037Y-90961253D01*
X123855661Y-90720849D01*
X124156232Y-90435165D01*
X124414580Y-90109200D01*
X124626535Y-89747952D01*
X124787928Y-89356420D01*
X124894588Y-88939602D01*
X124932266Y-88661147D01*
X124954906Y-88407475D01*
X119012939Y-88407475D01*
X119036098Y-88672964D01*
X119104541Y-89099902D01*
X119230966Y-89505648D01*
X119411064Y-89885060D01*
X119640526Y-90232993D01*
X119915046Y-90544305D01*
X120230315Y-90813853D01*
X120582025Y-91036492D01*
X120965868Y-91207081D01*
X121224958Y-91286201D01*
X121459923Y-91345832D01*
X121468999Y-91827399D01*
X121478076Y-92308967D01*
X121305339Y-92286804D01*
X120900820Y-92213926D01*
X120477617Y-92099690D01*
X120060440Y-91951752D01*
X119692397Y-91787060D01*
X119187362Y-91497767D01*
X118723371Y-91158961D01*
X118303110Y-90774180D01*
X117929266Y-90346960D01*
X117604523Y-89880836D01*
X117331568Y-89379346D01*
X117113086Y-88846025D01*
X116951764Y-88284411D01*
X116920018Y-88136708D01*
X116874257Y-87832266D01*
X116848001Y-87487289D01*
X116841250Y-87123736D01*
X116854006Y-86763563D01*
X116886266Y-86428725D01*
X116920018Y-86223345D01*
X117066101Y-85655827D01*
X117270746Y-85113079D01*
X117531490Y-84599549D01*
X117845873Y-84119683D01*
X118211433Y-83677931D01*
X118474617Y-83413996D01*
X118788586Y-83149311D01*
X119143522Y-82898242D01*
X119521710Y-82671307D01*
X119905433Y-82479023D01*
X120276976Y-82331908D01*
X120322487Y-82316960D01*
X120559794Y-82240981D01*
X120559794Y-81707346D01*
X120559249Y-81505283D01*
X120556359Y-81360172D01*
X120549242Y-81263504D01*
X120536013Y-81206772D01*
X120514790Y-81181464D01*
X120483690Y-81179071D01*
X120445232Y-81189632D01*
X120402795Y-81203338D01*
X120311458Y-81232707D01*
X120184661Y-81273418D01*
X120036083Y-81321079D01*
X119454997Y-81540989D01*
X118905587Y-81816195D01*
X118390831Y-82143151D01*
X117913709Y-82518314D01*
X117477199Y-82938141D01*
X117084280Y-83399088D01*
X116737931Y-83897610D01*
X116441131Y-84430163D01*
X116196858Y-84993205D01*
X116008091Y-85583190D01*
X115877809Y-86196576D01*
X115864409Y-86284098D01*
X115837829Y-86529619D01*
X115821282Y-86819287D01*
X115814770Y-87132560D01*
X115818291Y-87448897D01*
X115831845Y-87747753D01*
X115855434Y-88008586D01*
X115864409Y-88075954D01*
X115986750Y-88694564D01*
X116168066Y-89288873D01*
X116405378Y-89855724D01*
X116695706Y-90391962D01*
X117036070Y-90894429D01*
X117423491Y-91359970D01*
X117854989Y-91785429D01*
X118327583Y-92167649D01*
X118838295Y-92503473D01*
X119384146Y-92789747D01*
X119962154Y-93023312D01*
X120569340Y-93201014D01*
X120738752Y-93239186D01*
X120899289Y-93270624D01*
X121052883Y-93294459D01*
X121214994Y-93312153D01*
X121401082Y-93325166D01*
X121626607Y-93334959D01*
X121811312Y-93340550D01*
X122490021Y-93358732D01*
X122498683Y-92352310D01*
M02*
