M48
;DRILL file {KiCad 4.0.6-e0-6349~53~ubuntu14.04.1} date Mon Apr 10 21:38:53 2017
;FORMAT={-:-/ absolute / inch / decimal}
FMAT,2
INCH,TZ
T1C0.093
T2C0.102
T3C0.106
%
G90
G05
M72
T1
X2.7559Y-4.2854
X2.7559Y-4.6457
X3.1496Y-4.2854
X3.1496Y-4.6457
X3.5433Y-4.2854
X3.5433Y-4.6457
X3.937Y-4.2854
X3.937Y-4.6457
X4.3307Y-4.2854
X4.3307Y-4.6457
X4.7244Y-4.2854
X4.7244Y-4.6457
X5.1181Y-4.2854
X5.1181Y-4.6457
X5.5118Y-4.2854
X5.5118Y-4.6457
X5.9055Y-4.2854
X5.9055Y-4.6457
X6.2992Y-4.2854
X6.2992Y-4.6457
X6.6929Y-4.2854
X6.6929Y-4.6457
X7.0866Y-4.2854
X7.0866Y-4.6457
X7.4803Y-4.2854
X7.4803Y-4.6457
X7.874Y-4.2854
X7.874Y-4.6457
X8.2677Y-4.2854
X8.2677Y-4.6457
T2
X2.126Y-5.4724
X3.3465Y-3.0118
X3.3465Y-3.5039
X3.3465Y-5.4724
X5.315Y-5.4724
X7.2835Y-3.0118
X7.2835Y-3.5039
X7.2835Y-5.4724
X8.7795Y-3.0118
X8.7795Y-5.4724
T3
X2.3504Y-5.
X8.752Y-5.
T0
M30
