G04 #@! TF.FileFunction,Paste,Top*
%FSLAX46Y46*%
G04 Gerber Fmt 4.6, Leading zero omitted, Abs format (unit mm)*
G04 Created by KiCad (PCBNEW 4.0.6-e0-6349~53~ubuntu14.04.1) date Fri Apr 14 15:08:29 2017*
%MOMM*%
%LPD*%
G01*
G04 APERTURE LIST*
%ADD10C,0.100000*%
%ADD11R,0.600000X0.900000*%
%ADD12R,0.900000X0.600000*%
%ADD13R,1.050000X0.600000*%
%ADD14R,1.350000X0.750000*%
%ADD15R,3.200000X4.900000*%
%ADD16R,0.800100X0.800100*%
%ADD17R,1.500000X1.400000*%
%ADD18R,1.400000X1.500000*%
%ADD19R,0.864000X0.787000*%
%ADD20R,0.787000X0.864000*%
%ADD21R,1.400000X1.200000*%
%ADD22R,1.000000X0.700000*%
%ADD23R,3.600000X1.500000*%
%ADD24R,7.620000X2.950000*%
%ADD25R,1.680000X2.950000*%
%ADD26R,1.450000X0.300000*%
%ADD27R,0.800000X0.350000*%
%ADD28R,0.350000X0.800000*%
%ADD29R,0.750000X0.750000*%
%ADD30R,0.900000X1.700000*%
%ADD31R,1.700000X0.900000*%
%ADD32R,2.350000X5.100000*%
%ADD33R,1.780000X0.450000*%
%ADD34R,1.200000X1.200000*%
%ADD35R,0.910000X1.220000*%
%ADD36R,0.700000X1.200000*%
%ADD37R,1.000000X1.200000*%
%ADD38R,1.000000X2.800000*%
%ADD39R,1.000000X0.800000*%
%ADD40R,1.300000X1.900000*%
%ADD41R,0.550000X0.350000*%
G04 APERTURE END LIST*
D10*
D11*
X69800000Y-138950000D03*
X70650000Y-138950000D03*
X68950000Y-138950000D03*
X69800000Y-136650000D03*
X70650000Y-136650000D03*
X68950000Y-136650000D03*
X68950000Y-137800000D03*
X70650000Y-137800000D03*
D12*
X67100000Y-139675000D03*
X67100000Y-135925000D03*
X67100000Y-138400000D03*
D13*
X72825000Y-138435000D03*
X72825000Y-139705000D03*
X72825000Y-137165000D03*
X72825000Y-135895000D03*
D12*
X67100000Y-137200000D03*
D11*
X69800000Y-137800000D03*
D10*
G36*
X113161522Y-79888373D02*
X113373654Y-79676241D01*
X114434314Y-80736901D01*
X114222182Y-80949033D01*
X113161522Y-79888373D01*
X113161522Y-79888373D01*
G37*
G36*
X112807969Y-80241926D02*
X113020101Y-80029794D01*
X114080761Y-81090454D01*
X113868629Y-81302586D01*
X112807969Y-80241926D01*
X112807969Y-80241926D01*
G37*
G36*
X112454416Y-80595480D02*
X112666548Y-80383348D01*
X113727208Y-81444008D01*
X113515076Y-81656140D01*
X112454416Y-80595480D01*
X112454416Y-80595480D01*
G37*
G36*
X112100862Y-80949033D02*
X112312994Y-80736901D01*
X113373654Y-81797561D01*
X113161522Y-82009693D01*
X112100862Y-80949033D01*
X112100862Y-80949033D01*
G37*
G36*
X111747309Y-81302587D02*
X111959441Y-81090455D01*
X113020101Y-82151115D01*
X112807969Y-82363247D01*
X111747309Y-81302587D01*
X111747309Y-81302587D01*
G37*
G36*
X111393756Y-81656140D02*
X111605888Y-81444008D01*
X112666548Y-82504668D01*
X112454416Y-82716800D01*
X111393756Y-81656140D01*
X111393756Y-81656140D01*
G37*
G36*
X111040202Y-82009693D02*
X111252334Y-81797561D01*
X112312994Y-82858221D01*
X112100862Y-83070353D01*
X111040202Y-82009693D01*
X111040202Y-82009693D01*
G37*
G36*
X110686649Y-82363247D02*
X110898781Y-82151115D01*
X111959441Y-83211775D01*
X111747309Y-83423907D01*
X110686649Y-82363247D01*
X110686649Y-82363247D01*
G37*
G36*
X110333095Y-82716800D02*
X110545227Y-82504668D01*
X111605887Y-83565328D01*
X111393755Y-83777460D01*
X110333095Y-82716800D01*
X110333095Y-82716800D01*
G37*
G36*
X109979542Y-83070354D02*
X110191674Y-82858222D01*
X111252334Y-83918882D01*
X111040202Y-84131014D01*
X109979542Y-83070354D01*
X109979542Y-83070354D01*
G37*
G36*
X109625989Y-83423907D02*
X109838121Y-83211775D01*
X110898781Y-84272435D01*
X110686649Y-84484567D01*
X109625989Y-83423907D01*
X109625989Y-83423907D01*
G37*
G36*
X109272435Y-83777460D02*
X109484567Y-83565328D01*
X110545227Y-84625988D01*
X110333095Y-84838120D01*
X109272435Y-83777460D01*
X109272435Y-83777460D01*
G37*
G36*
X108918882Y-84131014D02*
X109131014Y-83918882D01*
X110191674Y-84979542D01*
X109979542Y-85191674D01*
X108918882Y-84131014D01*
X108918882Y-84131014D01*
G37*
G36*
X108565328Y-84484567D02*
X108777460Y-84272435D01*
X109838120Y-85333095D01*
X109625988Y-85545227D01*
X108565328Y-84484567D01*
X108565328Y-84484567D01*
G37*
G36*
X108211775Y-84838121D02*
X108423907Y-84625989D01*
X109484567Y-85686649D01*
X109272435Y-85898781D01*
X108211775Y-84838121D01*
X108211775Y-84838121D01*
G37*
G36*
X107858222Y-85191674D02*
X108070354Y-84979542D01*
X109131014Y-86040202D01*
X108918882Y-86252334D01*
X107858222Y-85191674D01*
X107858222Y-85191674D01*
G37*
G36*
X107504668Y-85545227D02*
X107716800Y-85333095D01*
X108777460Y-86393755D01*
X108565328Y-86605887D01*
X107504668Y-85545227D01*
X107504668Y-85545227D01*
G37*
G36*
X107151115Y-85898781D02*
X107363247Y-85686649D01*
X108423907Y-86747309D01*
X108211775Y-86959441D01*
X107151115Y-85898781D01*
X107151115Y-85898781D01*
G37*
G36*
X106797561Y-86252334D02*
X107009693Y-86040202D01*
X108070353Y-87100862D01*
X107858221Y-87312994D01*
X106797561Y-86252334D01*
X106797561Y-86252334D01*
G37*
G36*
X106444008Y-86605888D02*
X106656140Y-86393756D01*
X107716800Y-87454416D01*
X107504668Y-87666548D01*
X106444008Y-86605888D01*
X106444008Y-86605888D01*
G37*
G36*
X106090455Y-86959441D02*
X106302587Y-86747309D01*
X107363247Y-87807969D01*
X107151115Y-88020101D01*
X106090455Y-86959441D01*
X106090455Y-86959441D01*
G37*
G36*
X105736901Y-87312994D02*
X105949033Y-87100862D01*
X107009693Y-88161522D01*
X106797561Y-88373654D01*
X105736901Y-87312994D01*
X105736901Y-87312994D01*
G37*
G36*
X105383348Y-87666548D02*
X105595480Y-87454416D01*
X106656140Y-88515076D01*
X106444008Y-88727208D01*
X105383348Y-87666548D01*
X105383348Y-87666548D01*
G37*
G36*
X105029794Y-88020101D02*
X105241926Y-87807969D01*
X106302586Y-88868629D01*
X106090454Y-89080761D01*
X105029794Y-88020101D01*
X105029794Y-88020101D01*
G37*
G36*
X104676241Y-88373654D02*
X104888373Y-88161522D01*
X105949033Y-89222182D01*
X105736901Y-89434314D01*
X104676241Y-88373654D01*
X104676241Y-88373654D01*
G37*
G36*
X104888373Y-91838478D02*
X104676241Y-91626346D01*
X105736901Y-90565686D01*
X105949033Y-90777818D01*
X104888373Y-91838478D01*
X104888373Y-91838478D01*
G37*
G36*
X105241926Y-92192031D02*
X105029794Y-91979899D01*
X106090454Y-90919239D01*
X106302586Y-91131371D01*
X105241926Y-92192031D01*
X105241926Y-92192031D01*
G37*
G36*
X105595480Y-92545584D02*
X105383348Y-92333452D01*
X106444008Y-91272792D01*
X106656140Y-91484924D01*
X105595480Y-92545584D01*
X105595480Y-92545584D01*
G37*
G36*
X105949033Y-92899138D02*
X105736901Y-92687006D01*
X106797561Y-91626346D01*
X107009693Y-91838478D01*
X105949033Y-92899138D01*
X105949033Y-92899138D01*
G37*
G36*
X106302587Y-93252691D02*
X106090455Y-93040559D01*
X107151115Y-91979899D01*
X107363247Y-92192031D01*
X106302587Y-93252691D01*
X106302587Y-93252691D01*
G37*
G36*
X106656140Y-93606244D02*
X106444008Y-93394112D01*
X107504668Y-92333452D01*
X107716800Y-92545584D01*
X106656140Y-93606244D01*
X106656140Y-93606244D01*
G37*
G36*
X107009693Y-93959798D02*
X106797561Y-93747666D01*
X107858221Y-92687006D01*
X108070353Y-92899138D01*
X107009693Y-93959798D01*
X107009693Y-93959798D01*
G37*
G36*
X107363247Y-94313351D02*
X107151115Y-94101219D01*
X108211775Y-93040559D01*
X108423907Y-93252691D01*
X107363247Y-94313351D01*
X107363247Y-94313351D01*
G37*
G36*
X107716800Y-94666905D02*
X107504668Y-94454773D01*
X108565328Y-93394113D01*
X108777460Y-93606245D01*
X107716800Y-94666905D01*
X107716800Y-94666905D01*
G37*
G36*
X108070354Y-95020458D02*
X107858222Y-94808326D01*
X108918882Y-93747666D01*
X109131014Y-93959798D01*
X108070354Y-95020458D01*
X108070354Y-95020458D01*
G37*
G36*
X108423907Y-95374011D02*
X108211775Y-95161879D01*
X109272435Y-94101219D01*
X109484567Y-94313351D01*
X108423907Y-95374011D01*
X108423907Y-95374011D01*
G37*
G36*
X108777460Y-95727565D02*
X108565328Y-95515433D01*
X109625988Y-94454773D01*
X109838120Y-94666905D01*
X108777460Y-95727565D01*
X108777460Y-95727565D01*
G37*
G36*
X109131014Y-96081118D02*
X108918882Y-95868986D01*
X109979542Y-94808326D01*
X110191674Y-95020458D01*
X109131014Y-96081118D01*
X109131014Y-96081118D01*
G37*
G36*
X109484567Y-96434672D02*
X109272435Y-96222540D01*
X110333095Y-95161880D01*
X110545227Y-95374012D01*
X109484567Y-96434672D01*
X109484567Y-96434672D01*
G37*
G36*
X109838121Y-96788225D02*
X109625989Y-96576093D01*
X110686649Y-95515433D01*
X110898781Y-95727565D01*
X109838121Y-96788225D01*
X109838121Y-96788225D01*
G37*
G36*
X110191674Y-97141778D02*
X109979542Y-96929646D01*
X111040202Y-95868986D01*
X111252334Y-96081118D01*
X110191674Y-97141778D01*
X110191674Y-97141778D01*
G37*
G36*
X110545227Y-97495332D02*
X110333095Y-97283200D01*
X111393755Y-96222540D01*
X111605887Y-96434672D01*
X110545227Y-97495332D01*
X110545227Y-97495332D01*
G37*
G36*
X110898781Y-97848885D02*
X110686649Y-97636753D01*
X111747309Y-96576093D01*
X111959441Y-96788225D01*
X110898781Y-97848885D01*
X110898781Y-97848885D01*
G37*
G36*
X111252334Y-98202439D02*
X111040202Y-97990307D01*
X112100862Y-96929647D01*
X112312994Y-97141779D01*
X111252334Y-98202439D01*
X111252334Y-98202439D01*
G37*
G36*
X111605888Y-98555992D02*
X111393756Y-98343860D01*
X112454416Y-97283200D01*
X112666548Y-97495332D01*
X111605888Y-98555992D01*
X111605888Y-98555992D01*
G37*
G36*
X111959441Y-98909545D02*
X111747309Y-98697413D01*
X112807969Y-97636753D01*
X113020101Y-97848885D01*
X111959441Y-98909545D01*
X111959441Y-98909545D01*
G37*
G36*
X112312994Y-99263099D02*
X112100862Y-99050967D01*
X113161522Y-97990307D01*
X113373654Y-98202439D01*
X112312994Y-99263099D01*
X112312994Y-99263099D01*
G37*
G36*
X112666548Y-99616652D02*
X112454416Y-99404520D01*
X113515076Y-98343860D01*
X113727208Y-98555992D01*
X112666548Y-99616652D01*
X112666548Y-99616652D01*
G37*
G36*
X113020101Y-99970206D02*
X112807969Y-99758074D01*
X113868629Y-98697414D01*
X114080761Y-98909546D01*
X113020101Y-99970206D01*
X113020101Y-99970206D01*
G37*
G36*
X113373654Y-100323759D02*
X113161522Y-100111627D01*
X114222182Y-99050967D01*
X114434314Y-99263099D01*
X113373654Y-100323759D01*
X113373654Y-100323759D01*
G37*
G36*
X115565686Y-99263099D02*
X115777818Y-99050967D01*
X116838478Y-100111627D01*
X116626346Y-100323759D01*
X115565686Y-99263099D01*
X115565686Y-99263099D01*
G37*
G36*
X115919239Y-98909546D02*
X116131371Y-98697414D01*
X117192031Y-99758074D01*
X116979899Y-99970206D01*
X115919239Y-98909546D01*
X115919239Y-98909546D01*
G37*
G36*
X116272792Y-98555992D02*
X116484924Y-98343860D01*
X117545584Y-99404520D01*
X117333452Y-99616652D01*
X116272792Y-98555992D01*
X116272792Y-98555992D01*
G37*
G36*
X116626346Y-98202439D02*
X116838478Y-97990307D01*
X117899138Y-99050967D01*
X117687006Y-99263099D01*
X116626346Y-98202439D01*
X116626346Y-98202439D01*
G37*
G36*
X116979899Y-97848885D02*
X117192031Y-97636753D01*
X118252691Y-98697413D01*
X118040559Y-98909545D01*
X116979899Y-97848885D01*
X116979899Y-97848885D01*
G37*
G36*
X117333452Y-97495332D02*
X117545584Y-97283200D01*
X118606244Y-98343860D01*
X118394112Y-98555992D01*
X117333452Y-97495332D01*
X117333452Y-97495332D01*
G37*
G36*
X117687006Y-97141779D02*
X117899138Y-96929647D01*
X118959798Y-97990307D01*
X118747666Y-98202439D01*
X117687006Y-97141779D01*
X117687006Y-97141779D01*
G37*
G36*
X118040559Y-96788225D02*
X118252691Y-96576093D01*
X119313351Y-97636753D01*
X119101219Y-97848885D01*
X118040559Y-96788225D01*
X118040559Y-96788225D01*
G37*
G36*
X118394113Y-96434672D02*
X118606245Y-96222540D01*
X119666905Y-97283200D01*
X119454773Y-97495332D01*
X118394113Y-96434672D01*
X118394113Y-96434672D01*
G37*
G36*
X118747666Y-96081118D02*
X118959798Y-95868986D01*
X120020458Y-96929646D01*
X119808326Y-97141778D01*
X118747666Y-96081118D01*
X118747666Y-96081118D01*
G37*
G36*
X119101219Y-95727565D02*
X119313351Y-95515433D01*
X120374011Y-96576093D01*
X120161879Y-96788225D01*
X119101219Y-95727565D01*
X119101219Y-95727565D01*
G37*
G36*
X119454773Y-95374012D02*
X119666905Y-95161880D01*
X120727565Y-96222540D01*
X120515433Y-96434672D01*
X119454773Y-95374012D01*
X119454773Y-95374012D01*
G37*
G36*
X119808326Y-95020458D02*
X120020458Y-94808326D01*
X121081118Y-95868986D01*
X120868986Y-96081118D01*
X119808326Y-95020458D01*
X119808326Y-95020458D01*
G37*
G36*
X120161880Y-94666905D02*
X120374012Y-94454773D01*
X121434672Y-95515433D01*
X121222540Y-95727565D01*
X120161880Y-94666905D01*
X120161880Y-94666905D01*
G37*
G36*
X120515433Y-94313351D02*
X120727565Y-94101219D01*
X121788225Y-95161879D01*
X121576093Y-95374011D01*
X120515433Y-94313351D01*
X120515433Y-94313351D01*
G37*
G36*
X120868986Y-93959798D02*
X121081118Y-93747666D01*
X122141778Y-94808326D01*
X121929646Y-95020458D01*
X120868986Y-93959798D01*
X120868986Y-93959798D01*
G37*
G36*
X121222540Y-93606245D02*
X121434672Y-93394113D01*
X122495332Y-94454773D01*
X122283200Y-94666905D01*
X121222540Y-93606245D01*
X121222540Y-93606245D01*
G37*
G36*
X121576093Y-93252691D02*
X121788225Y-93040559D01*
X122848885Y-94101219D01*
X122636753Y-94313351D01*
X121576093Y-93252691D01*
X121576093Y-93252691D01*
G37*
G36*
X121929647Y-92899138D02*
X122141779Y-92687006D01*
X123202439Y-93747666D01*
X122990307Y-93959798D01*
X121929647Y-92899138D01*
X121929647Y-92899138D01*
G37*
G36*
X122283200Y-92545584D02*
X122495332Y-92333452D01*
X123555992Y-93394112D01*
X123343860Y-93606244D01*
X122283200Y-92545584D01*
X122283200Y-92545584D01*
G37*
G36*
X122636753Y-92192031D02*
X122848885Y-91979899D01*
X123909545Y-93040559D01*
X123697413Y-93252691D01*
X122636753Y-92192031D01*
X122636753Y-92192031D01*
G37*
G36*
X122990307Y-91838478D02*
X123202439Y-91626346D01*
X124263099Y-92687006D01*
X124050967Y-92899138D01*
X122990307Y-91838478D01*
X122990307Y-91838478D01*
G37*
G36*
X123343860Y-91484924D02*
X123555992Y-91272792D01*
X124616652Y-92333452D01*
X124404520Y-92545584D01*
X123343860Y-91484924D01*
X123343860Y-91484924D01*
G37*
G36*
X123697414Y-91131371D02*
X123909546Y-90919239D01*
X124970206Y-91979899D01*
X124758074Y-92192031D01*
X123697414Y-91131371D01*
X123697414Y-91131371D01*
G37*
G36*
X124050967Y-90777818D02*
X124263099Y-90565686D01*
X125323759Y-91626346D01*
X125111627Y-91838478D01*
X124050967Y-90777818D01*
X124050967Y-90777818D01*
G37*
G36*
X124263099Y-89434314D02*
X124050967Y-89222182D01*
X125111627Y-88161522D01*
X125323759Y-88373654D01*
X124263099Y-89434314D01*
X124263099Y-89434314D01*
G37*
G36*
X123909546Y-89080761D02*
X123697414Y-88868629D01*
X124758074Y-87807969D01*
X124970206Y-88020101D01*
X123909546Y-89080761D01*
X123909546Y-89080761D01*
G37*
G36*
X123555992Y-88727208D02*
X123343860Y-88515076D01*
X124404520Y-87454416D01*
X124616652Y-87666548D01*
X123555992Y-88727208D01*
X123555992Y-88727208D01*
G37*
G36*
X123202439Y-88373654D02*
X122990307Y-88161522D01*
X124050967Y-87100862D01*
X124263099Y-87312994D01*
X123202439Y-88373654D01*
X123202439Y-88373654D01*
G37*
G36*
X122848885Y-88020101D02*
X122636753Y-87807969D01*
X123697413Y-86747309D01*
X123909545Y-86959441D01*
X122848885Y-88020101D01*
X122848885Y-88020101D01*
G37*
G36*
X122495332Y-87666548D02*
X122283200Y-87454416D01*
X123343860Y-86393756D01*
X123555992Y-86605888D01*
X122495332Y-87666548D01*
X122495332Y-87666548D01*
G37*
G36*
X122141779Y-87312994D02*
X121929647Y-87100862D01*
X122990307Y-86040202D01*
X123202439Y-86252334D01*
X122141779Y-87312994D01*
X122141779Y-87312994D01*
G37*
G36*
X121788225Y-86959441D02*
X121576093Y-86747309D01*
X122636753Y-85686649D01*
X122848885Y-85898781D01*
X121788225Y-86959441D01*
X121788225Y-86959441D01*
G37*
G36*
X121434672Y-86605887D02*
X121222540Y-86393755D01*
X122283200Y-85333095D01*
X122495332Y-85545227D01*
X121434672Y-86605887D01*
X121434672Y-86605887D01*
G37*
G36*
X121081118Y-86252334D02*
X120868986Y-86040202D01*
X121929646Y-84979542D01*
X122141778Y-85191674D01*
X121081118Y-86252334D01*
X121081118Y-86252334D01*
G37*
G36*
X120727565Y-85898781D02*
X120515433Y-85686649D01*
X121576093Y-84625989D01*
X121788225Y-84838121D01*
X120727565Y-85898781D01*
X120727565Y-85898781D01*
G37*
G36*
X120374012Y-85545227D02*
X120161880Y-85333095D01*
X121222540Y-84272435D01*
X121434672Y-84484567D01*
X120374012Y-85545227D01*
X120374012Y-85545227D01*
G37*
G36*
X120020458Y-85191674D02*
X119808326Y-84979542D01*
X120868986Y-83918882D01*
X121081118Y-84131014D01*
X120020458Y-85191674D01*
X120020458Y-85191674D01*
G37*
G36*
X119666905Y-84838120D02*
X119454773Y-84625988D01*
X120515433Y-83565328D01*
X120727565Y-83777460D01*
X119666905Y-84838120D01*
X119666905Y-84838120D01*
G37*
G36*
X119313351Y-84484567D02*
X119101219Y-84272435D01*
X120161879Y-83211775D01*
X120374011Y-83423907D01*
X119313351Y-84484567D01*
X119313351Y-84484567D01*
G37*
G36*
X118959798Y-84131014D02*
X118747666Y-83918882D01*
X119808326Y-82858222D01*
X120020458Y-83070354D01*
X118959798Y-84131014D01*
X118959798Y-84131014D01*
G37*
G36*
X118606245Y-83777460D02*
X118394113Y-83565328D01*
X119454773Y-82504668D01*
X119666905Y-82716800D01*
X118606245Y-83777460D01*
X118606245Y-83777460D01*
G37*
G36*
X118252691Y-83423907D02*
X118040559Y-83211775D01*
X119101219Y-82151115D01*
X119313351Y-82363247D01*
X118252691Y-83423907D01*
X118252691Y-83423907D01*
G37*
G36*
X117899138Y-83070353D02*
X117687006Y-82858221D01*
X118747666Y-81797561D01*
X118959798Y-82009693D01*
X117899138Y-83070353D01*
X117899138Y-83070353D01*
G37*
G36*
X117545584Y-82716800D02*
X117333452Y-82504668D01*
X118394112Y-81444008D01*
X118606244Y-81656140D01*
X117545584Y-82716800D01*
X117545584Y-82716800D01*
G37*
G36*
X117192031Y-82363247D02*
X116979899Y-82151115D01*
X118040559Y-81090455D01*
X118252691Y-81302587D01*
X117192031Y-82363247D01*
X117192031Y-82363247D01*
G37*
G36*
X116838478Y-82009693D02*
X116626346Y-81797561D01*
X117687006Y-80736901D01*
X117899138Y-80949033D01*
X116838478Y-82009693D01*
X116838478Y-82009693D01*
G37*
G36*
X116484924Y-81656140D02*
X116272792Y-81444008D01*
X117333452Y-80383348D01*
X117545584Y-80595480D01*
X116484924Y-81656140D01*
X116484924Y-81656140D01*
G37*
G36*
X116131371Y-81302586D02*
X115919239Y-81090454D01*
X116979899Y-80029794D01*
X117192031Y-80241926D01*
X116131371Y-81302586D01*
X116131371Y-81302586D01*
G37*
G36*
X115777818Y-80949033D02*
X115565686Y-80736901D01*
X116626346Y-79676241D01*
X116838478Y-79888373D01*
X115777818Y-80949033D01*
X115777818Y-80949033D01*
G37*
D14*
X81975000Y-99495000D03*
X81975000Y-100765000D03*
X81975000Y-102035000D03*
X81975000Y-103305000D03*
X87225000Y-103305000D03*
X87225000Y-102035000D03*
X87225000Y-100765000D03*
X87225000Y-99495000D03*
D15*
X84600000Y-101400000D03*
D16*
X77400760Y-79450000D03*
X77400760Y-77550000D03*
X75401780Y-78500000D03*
D17*
X76500000Y-92625000D03*
X76500000Y-90575000D03*
X78700000Y-92625000D03*
X78700000Y-90575000D03*
D18*
X128225000Y-100800000D03*
X126175000Y-100800000D03*
X128225000Y-98700000D03*
X126175000Y-98700000D03*
D19*
X74700000Y-81750500D03*
X74700000Y-83299500D03*
D20*
X73074500Y-77800000D03*
X71525500Y-77800000D03*
X136074500Y-104700000D03*
X134525500Y-104700000D03*
D10*
G36*
X109006371Y-78395430D02*
X108395430Y-79006371D01*
X107838937Y-78449878D01*
X108449878Y-77838937D01*
X109006371Y-78395430D01*
X109006371Y-78395430D01*
G37*
G36*
X107911063Y-77300122D02*
X107300122Y-77911063D01*
X106743629Y-77354570D01*
X107354570Y-76743629D01*
X107911063Y-77300122D01*
X107911063Y-77300122D01*
G37*
G36*
X118768629Y-100779570D02*
X119379570Y-100168629D01*
X119936063Y-100725122D01*
X119325122Y-101336063D01*
X118768629Y-100779570D01*
X118768629Y-100779570D01*
G37*
G36*
X119863937Y-101874878D02*
X120474878Y-101263937D01*
X121031371Y-101820430D01*
X120420430Y-102431371D01*
X119863937Y-101874878D01*
X119863937Y-101874878D01*
G37*
G36*
X124868629Y-94879570D02*
X125479570Y-94268629D01*
X126036063Y-94825122D01*
X125425122Y-95436063D01*
X124868629Y-94879570D01*
X124868629Y-94879570D01*
G37*
G36*
X125963937Y-95974878D02*
X126574878Y-95363937D01*
X127131371Y-95920430D01*
X126520430Y-96531371D01*
X125963937Y-95974878D01*
X125963937Y-95974878D01*
G37*
G36*
X108731371Y-83020430D02*
X108120430Y-83631371D01*
X107563937Y-83074878D01*
X108174878Y-82463937D01*
X108731371Y-83020430D01*
X108731371Y-83020430D01*
G37*
G36*
X107636063Y-81925122D02*
X107025122Y-82536063D01*
X106468629Y-81979570D01*
X107079570Y-81368629D01*
X107636063Y-81925122D01*
X107636063Y-81925122D01*
G37*
D20*
X97574500Y-89900000D03*
X96025500Y-89900000D03*
X97574500Y-88200000D03*
X96025500Y-88200000D03*
D10*
G36*
X109931371Y-81795430D02*
X109320430Y-82406371D01*
X108763937Y-81849878D01*
X109374878Y-81238937D01*
X109931371Y-81795430D01*
X109931371Y-81795430D01*
G37*
G36*
X108836063Y-80700122D02*
X108225122Y-81311063D01*
X107668629Y-80754570D01*
X108279570Y-80143629D01*
X108836063Y-80700122D01*
X108836063Y-80700122D01*
G37*
G36*
X123479570Y-84931371D02*
X122868629Y-84320430D01*
X123425122Y-83763937D01*
X124036063Y-84374878D01*
X123479570Y-84931371D01*
X123479570Y-84931371D01*
G37*
G36*
X124574878Y-83836063D02*
X123963937Y-83225122D01*
X124520430Y-82668629D01*
X125131371Y-83279570D01*
X124574878Y-83836063D01*
X124574878Y-83836063D01*
G37*
D19*
X78300000Y-100725500D03*
X78300000Y-102274500D03*
X149300000Y-83925500D03*
X149300000Y-85474500D03*
X157625000Y-82100500D03*
X157625000Y-83649500D03*
D20*
X89025500Y-102400000D03*
X90574500Y-102400000D03*
D19*
X89100000Y-95625500D03*
X89100000Y-97174500D03*
D21*
X99300000Y-89850000D03*
X101500000Y-89850000D03*
X101500000Y-88150000D03*
X99300000Y-88150000D03*
D20*
X87474500Y-105300000D03*
X85925500Y-105300000D03*
X90574500Y-104200000D03*
X89025500Y-104200000D03*
X91925500Y-102400000D03*
X93474500Y-102400000D03*
X130474500Y-104600000D03*
X128925500Y-104600000D03*
X128925500Y-102800000D03*
X130474500Y-102800000D03*
D19*
X147600000Y-83925500D03*
X147600000Y-85474500D03*
X134200000Y-81299500D03*
X134200000Y-79750500D03*
X131700000Y-81274500D03*
X131700000Y-79725500D03*
D20*
X115925500Y-75100000D03*
X117474500Y-75100000D03*
X115925500Y-76800000D03*
X117474500Y-76800000D03*
X125774500Y-80300000D03*
X124225500Y-80300000D03*
D19*
X128400000Y-80174500D03*
X128400000Y-78625500D03*
D20*
X71525500Y-79600000D03*
X73074500Y-79600000D03*
X71525500Y-81400000D03*
X73074500Y-81400000D03*
D22*
X136100000Y-102950000D03*
X136100000Y-102000000D03*
X136100000Y-101050000D03*
X133500000Y-101050000D03*
X133500000Y-102950000D03*
D23*
X136300000Y-99225000D03*
X136300000Y-96175000D03*
D20*
X71525500Y-76000000D03*
X73074500Y-76000000D03*
D10*
G36*
X108793629Y-79429570D02*
X109404570Y-78818629D01*
X109961063Y-79375122D01*
X109350122Y-79986063D01*
X108793629Y-79429570D01*
X108793629Y-79429570D01*
G37*
G36*
X109888937Y-80524878D02*
X110499878Y-79913937D01*
X111056371Y-80470430D01*
X110445430Y-81081371D01*
X109888937Y-80524878D01*
X109888937Y-80524878D01*
G37*
D17*
X76100000Y-100975000D03*
X76100000Y-103025000D03*
D20*
X148174500Y-105200000D03*
X146625500Y-105200000D03*
D24*
X58745000Y-112165000D03*
X58745000Y-119635000D03*
D25*
X53485000Y-112165000D03*
X53485000Y-119635000D03*
D20*
X188825500Y-97400000D03*
X190374500Y-97400000D03*
X188825500Y-95600000D03*
X190374500Y-95600000D03*
X135674500Y-88800000D03*
X134125500Y-88800000D03*
D19*
X129200000Y-85325500D03*
X129200000Y-86874500D03*
X129200000Y-88425500D03*
X129200000Y-89974500D03*
X131000000Y-89974500D03*
X131000000Y-88425500D03*
X129200000Y-84174500D03*
X129200000Y-82625500D03*
D20*
X130825500Y-83200000D03*
X132374500Y-83200000D03*
D26*
X131000000Y-85100000D03*
X131000000Y-85600000D03*
X131000000Y-86100000D03*
X131000000Y-86600000D03*
X131000000Y-87100000D03*
X135400000Y-87100000D03*
X135400000Y-86600000D03*
X135400000Y-86100000D03*
X135400000Y-85600000D03*
X135400000Y-85100000D03*
D20*
X135225500Y-90800000D03*
X136774500Y-90800000D03*
D16*
X140850000Y-86300760D03*
X142750000Y-86300760D03*
X141800000Y-84301780D03*
X156799240Y-89750000D03*
X156799240Y-91650000D03*
X158798220Y-90700000D03*
D20*
X137625500Y-84500000D03*
X139174500Y-84500000D03*
X139174500Y-86200000D03*
X137625500Y-86200000D03*
D19*
X144400000Y-84225500D03*
X144400000Y-85774500D03*
X144400000Y-86925500D03*
X144400000Y-88474500D03*
D20*
X151625500Y-100000000D03*
X153174500Y-100000000D03*
D19*
X155300000Y-102825500D03*
X155300000Y-104374500D03*
X147900000Y-102974500D03*
X147900000Y-101425500D03*
X130200000Y-98474500D03*
X130200000Y-96925500D03*
D20*
X77174500Y-99000000D03*
X75625500Y-99000000D03*
D19*
X154600000Y-100274500D03*
X154600000Y-98725500D03*
D20*
X151625500Y-98300000D03*
X153174500Y-98300000D03*
X155025500Y-105800000D03*
X156574500Y-105800000D03*
X146474500Y-101400000D03*
X144925500Y-101400000D03*
D19*
X157000000Y-102825500D03*
X157000000Y-104374500D03*
D20*
X146474500Y-103100000D03*
X144925500Y-103100000D03*
D27*
X149600000Y-102625000D03*
X149600000Y-103275000D03*
X149600000Y-103925000D03*
X149600000Y-104575000D03*
D28*
X150625000Y-105600000D03*
X151275000Y-105600000D03*
X151925000Y-105600000D03*
X152575000Y-105600000D03*
D27*
X153600000Y-104575000D03*
X153600000Y-103925000D03*
X153600000Y-103275000D03*
X153600000Y-102625000D03*
D28*
X152575000Y-101600000D03*
X151925000Y-101600000D03*
X151275000Y-101600000D03*
X150625000Y-101600000D03*
D29*
X152225000Y-104225000D03*
X152225000Y-102975000D03*
X150975000Y-104225000D03*
X150975000Y-102975000D03*
D30*
X76850000Y-96500000D03*
X79750000Y-96500000D03*
D31*
X132500000Y-99150000D03*
X132500000Y-96250000D03*
D19*
X80100000Y-100725500D03*
X80100000Y-102274500D03*
D32*
X86675000Y-94900000D03*
X82525000Y-94900000D03*
D19*
X159325000Y-98800500D03*
X159325000Y-100349500D03*
D33*
X159430000Y-102725000D03*
X159430000Y-103375000D03*
X159430000Y-104025000D03*
X159430000Y-104675000D03*
X165370000Y-104675000D03*
X165370000Y-104025000D03*
X165370000Y-103375000D03*
X165370000Y-102725000D03*
D16*
X139150000Y-90900760D03*
X141050000Y-90900760D03*
X140100000Y-88901780D03*
X147650000Y-90700760D03*
X149550000Y-90700760D03*
X148600000Y-88701780D03*
D20*
X143325500Y-90700000D03*
X144874500Y-90700000D03*
X154574500Y-90600000D03*
X153025500Y-90600000D03*
D34*
X131700000Y-74950000D03*
X131700000Y-77050000D03*
X134200000Y-74950000D03*
X134200000Y-77050000D03*
X126700000Y-74950000D03*
X126700000Y-77050000D03*
X124200000Y-74950000D03*
X124200000Y-77050000D03*
X121700000Y-74950000D03*
X121700000Y-77050000D03*
X119200000Y-74950000D03*
X119200000Y-77050000D03*
X154550000Y-88000000D03*
X152450000Y-88000000D03*
D20*
X73874500Y-86900000D03*
X72325500Y-86900000D03*
D35*
X72410000Y-83575000D03*
X69140000Y-83575000D03*
D36*
X165800000Y-89900000D03*
X166900000Y-89900000D03*
X168000000Y-89900000D03*
X169100000Y-89900000D03*
X170200000Y-89900000D03*
X171300000Y-89900000D03*
X172400000Y-89900000D03*
X173500000Y-89900000D03*
X174450000Y-89900000D03*
D37*
X164250000Y-89900000D03*
D38*
X175400000Y-75250000D03*
D39*
X175400000Y-79400000D03*
D37*
X175400000Y-85600000D03*
D40*
X161900000Y-74800000D03*
D41*
X162825000Y-74025000D03*
D20*
X217274500Y-79700000D03*
X215725500Y-79700000D03*
X217274500Y-81400000D03*
X215725500Y-81400000D03*
X76974500Y-76000000D03*
X75425500Y-76000000D03*
X76974500Y-74400000D03*
X75425500Y-74400000D03*
M02*
