M48
;DRILL file {KiCad 4.0.3+e1-6302~38~ubuntu14.04.1-stable} date Sun Oct  9 16:09:17 2016
;FORMAT={-:-/ absolute / inch / decimal}
FMAT,2
INCH,TZ
T1C0.059
T2C0.093
T3C0.106
T4C0.108
T5C0.142
%
G90
G05
M72
T1
X8.2441Y-3.0965
X8.2441Y-4.0492
T2
X2.7559Y-4.2854
X2.7559Y-4.6457
X3.1496Y-4.2854
X3.1496Y-4.6457
X3.5433Y-4.2854
X3.5433Y-4.6457
X3.937Y-4.2854
X3.937Y-4.6457
X4.3307Y-4.2854
X4.3307Y-4.6457
X4.7244Y-4.2854
X4.7244Y-4.6457
X5.1181Y-4.2854
X5.1181Y-4.6457
X5.5118Y-4.2854
X5.5118Y-4.6457
X5.9055Y-4.2854
X5.9055Y-4.6457
X6.2992Y-4.2854
X6.2992Y-4.6457
X6.6929Y-4.2854
X6.6929Y-4.6457
X7.0866Y-4.2854
X7.0866Y-4.6457
X7.4803Y-4.2854
X7.4803Y-4.6457
X7.874Y-4.2854
X7.874Y-4.6457
X8.2677Y-4.2854
X8.2677Y-4.6457
T3
X2.3504Y-4.8819
X8.752Y-4.8819
T4
X3.2087Y-3.4252
X3.2087Y-5.3543
X5.4921Y-3.4252
X5.4921Y-5.3543
T5
X2.1654Y-5.315
X3.3465Y-3.0512
X6.7717Y-3.0512
X8.7402Y-5.315
T0
M30
